G75*
%MOIN*%
%OFA0B0*%
%FSLAX25Y25*%
%IPPOS*%
%LPD*%
%AMOC8*
5,1,8,0,0,1.08239X$1,22.5*
%
%ADD10C,0.00000*%
D10*
X0002552Y0011236D02*
X0002552Y0150937D01*
X0091473Y0150937D01*
X0091473Y0011236D01*
X0002552Y0011236D01*
X0011607Y0019772D02*
X0011607Y0021937D01*
X0011609Y0022009D01*
X0011615Y0022081D01*
X0011624Y0022153D01*
X0011637Y0022224D01*
X0011654Y0022294D01*
X0011674Y0022363D01*
X0011699Y0022431D01*
X0011726Y0022497D01*
X0011757Y0022563D01*
X0011792Y0022626D01*
X0011829Y0022688D01*
X0011870Y0022747D01*
X0011914Y0022804D01*
X0011961Y0022859D01*
X0012011Y0022911D01*
X0012063Y0022961D01*
X0012118Y0023008D01*
X0012175Y0023052D01*
X0012234Y0023093D01*
X0012296Y0023130D01*
X0012359Y0023165D01*
X0012425Y0023196D01*
X0012491Y0023223D01*
X0012559Y0023248D01*
X0012628Y0023268D01*
X0012698Y0023285D01*
X0012769Y0023298D01*
X0012841Y0023307D01*
X0012913Y0023313D01*
X0012985Y0023315D01*
X0013772Y0023315D01*
X0013844Y0023313D01*
X0013916Y0023307D01*
X0013988Y0023298D01*
X0014059Y0023285D01*
X0014129Y0023268D01*
X0014198Y0023248D01*
X0014266Y0023223D01*
X0014332Y0023196D01*
X0014398Y0023165D01*
X0014461Y0023130D01*
X0014523Y0023093D01*
X0014582Y0023052D01*
X0014639Y0023008D01*
X0014694Y0022961D01*
X0014746Y0022911D01*
X0014796Y0022859D01*
X0014843Y0022804D01*
X0014887Y0022747D01*
X0014928Y0022688D01*
X0014965Y0022626D01*
X0015000Y0022563D01*
X0015031Y0022497D01*
X0015058Y0022431D01*
X0015083Y0022363D01*
X0015103Y0022294D01*
X0015120Y0022224D01*
X0015133Y0022153D01*
X0015142Y0022081D01*
X0015148Y0022009D01*
X0015150Y0021937D01*
X0015150Y0019772D01*
X0015151Y0019771D02*
X0015154Y0019697D01*
X0015153Y0019622D01*
X0015149Y0019547D01*
X0015140Y0019472D01*
X0015128Y0019398D01*
X0015112Y0019325D01*
X0015093Y0019252D01*
X0015070Y0019181D01*
X0015043Y0019111D01*
X0015013Y0019042D01*
X0014979Y0018975D01*
X0014942Y0018910D01*
X0014902Y0018847D01*
X0014859Y0018786D01*
X0014812Y0018727D01*
X0014763Y0018671D01*
X0014711Y0018617D01*
X0014656Y0018566D01*
X0014598Y0018517D01*
X0014539Y0018472D01*
X0014477Y0018430D01*
X0014413Y0018391D01*
X0014347Y0018355D01*
X0014279Y0018322D01*
X0014210Y0018293D01*
X0014139Y0018268D01*
X0014068Y0018246D01*
X0013995Y0018228D01*
X0013921Y0018214D01*
X0013847Y0018203D01*
X0013772Y0018196D01*
X0013772Y0018197D02*
X0012985Y0018197D01*
X0012985Y0018196D02*
X0012910Y0018203D01*
X0012836Y0018214D01*
X0012762Y0018228D01*
X0012689Y0018246D01*
X0012618Y0018268D01*
X0012547Y0018293D01*
X0012478Y0018322D01*
X0012410Y0018355D01*
X0012344Y0018391D01*
X0012280Y0018430D01*
X0012218Y0018472D01*
X0012159Y0018517D01*
X0012101Y0018566D01*
X0012046Y0018617D01*
X0011994Y0018671D01*
X0011945Y0018727D01*
X0011898Y0018786D01*
X0011855Y0018847D01*
X0011815Y0018910D01*
X0011778Y0018975D01*
X0011744Y0019042D01*
X0011714Y0019111D01*
X0011687Y0019181D01*
X0011664Y0019252D01*
X0011645Y0019325D01*
X0011629Y0019398D01*
X0011617Y0019472D01*
X0011608Y0019547D01*
X0011604Y0019622D01*
X0011603Y0019697D01*
X0011606Y0019771D01*
X0018497Y0028236D02*
X0018499Y0028310D01*
X0018505Y0028384D01*
X0018515Y0028457D01*
X0018529Y0028530D01*
X0018546Y0028602D01*
X0018568Y0028672D01*
X0018593Y0028742D01*
X0018622Y0028810D01*
X0018655Y0028876D01*
X0018691Y0028941D01*
X0018731Y0029003D01*
X0018773Y0029064D01*
X0018819Y0029122D01*
X0018868Y0029177D01*
X0018920Y0029230D01*
X0018975Y0029280D01*
X0019032Y0029326D01*
X0019092Y0029370D01*
X0019154Y0029410D01*
X0019218Y0029447D01*
X0019284Y0029481D01*
X0019352Y0029511D01*
X0019421Y0029537D01*
X0019492Y0029560D01*
X0019563Y0029578D01*
X0019636Y0029593D01*
X0019709Y0029604D01*
X0019783Y0029611D01*
X0019857Y0029614D01*
X0019930Y0029613D01*
X0020004Y0029608D01*
X0020078Y0029599D01*
X0020151Y0029586D01*
X0020223Y0029569D01*
X0020294Y0029549D01*
X0020364Y0029524D01*
X0020432Y0029496D01*
X0020499Y0029465D01*
X0020564Y0029429D01*
X0020627Y0029391D01*
X0020688Y0029349D01*
X0020747Y0029303D01*
X0020803Y0029255D01*
X0020856Y0029204D01*
X0020906Y0029150D01*
X0020954Y0029093D01*
X0020998Y0029034D01*
X0021040Y0028972D01*
X0021078Y0028909D01*
X0021112Y0028843D01*
X0021143Y0028776D01*
X0021170Y0028707D01*
X0021193Y0028637D01*
X0021213Y0028566D01*
X0021229Y0028493D01*
X0021241Y0028420D01*
X0021249Y0028347D01*
X0021253Y0028273D01*
X0021253Y0028199D01*
X0021249Y0028125D01*
X0021241Y0028052D01*
X0021229Y0027979D01*
X0021213Y0027906D01*
X0021193Y0027835D01*
X0021170Y0027765D01*
X0021143Y0027696D01*
X0021112Y0027629D01*
X0021078Y0027563D01*
X0021040Y0027500D01*
X0020998Y0027438D01*
X0020954Y0027379D01*
X0020906Y0027322D01*
X0020856Y0027268D01*
X0020803Y0027217D01*
X0020747Y0027169D01*
X0020688Y0027123D01*
X0020627Y0027081D01*
X0020564Y0027043D01*
X0020499Y0027007D01*
X0020432Y0026976D01*
X0020364Y0026948D01*
X0020294Y0026923D01*
X0020223Y0026903D01*
X0020151Y0026886D01*
X0020078Y0026873D01*
X0020004Y0026864D01*
X0019930Y0026859D01*
X0019857Y0026858D01*
X0019783Y0026861D01*
X0019709Y0026868D01*
X0019636Y0026879D01*
X0019563Y0026894D01*
X0019492Y0026912D01*
X0019421Y0026935D01*
X0019352Y0026961D01*
X0019284Y0026991D01*
X0019218Y0027025D01*
X0019154Y0027062D01*
X0019092Y0027102D01*
X0019032Y0027146D01*
X0018975Y0027192D01*
X0018920Y0027242D01*
X0018868Y0027295D01*
X0018819Y0027350D01*
X0018773Y0027408D01*
X0018731Y0027469D01*
X0018691Y0027531D01*
X0018655Y0027596D01*
X0018622Y0027662D01*
X0018593Y0027730D01*
X0018568Y0027800D01*
X0018546Y0027870D01*
X0018529Y0027942D01*
X0018515Y0028015D01*
X0018505Y0028088D01*
X0018499Y0028162D01*
X0018497Y0028236D01*
X0033851Y0028236D02*
X0033853Y0028310D01*
X0033859Y0028384D01*
X0033869Y0028457D01*
X0033883Y0028530D01*
X0033900Y0028602D01*
X0033922Y0028672D01*
X0033947Y0028742D01*
X0033976Y0028810D01*
X0034009Y0028876D01*
X0034045Y0028941D01*
X0034085Y0029003D01*
X0034127Y0029064D01*
X0034173Y0029122D01*
X0034222Y0029177D01*
X0034274Y0029230D01*
X0034329Y0029280D01*
X0034386Y0029326D01*
X0034446Y0029370D01*
X0034508Y0029410D01*
X0034572Y0029447D01*
X0034638Y0029481D01*
X0034706Y0029511D01*
X0034775Y0029537D01*
X0034846Y0029560D01*
X0034917Y0029578D01*
X0034990Y0029593D01*
X0035063Y0029604D01*
X0035137Y0029611D01*
X0035211Y0029614D01*
X0035284Y0029613D01*
X0035358Y0029608D01*
X0035432Y0029599D01*
X0035505Y0029586D01*
X0035577Y0029569D01*
X0035648Y0029549D01*
X0035718Y0029524D01*
X0035786Y0029496D01*
X0035853Y0029465D01*
X0035918Y0029429D01*
X0035981Y0029391D01*
X0036042Y0029349D01*
X0036101Y0029303D01*
X0036157Y0029255D01*
X0036210Y0029204D01*
X0036260Y0029150D01*
X0036308Y0029093D01*
X0036352Y0029034D01*
X0036394Y0028972D01*
X0036432Y0028909D01*
X0036466Y0028843D01*
X0036497Y0028776D01*
X0036524Y0028707D01*
X0036547Y0028637D01*
X0036567Y0028566D01*
X0036583Y0028493D01*
X0036595Y0028420D01*
X0036603Y0028347D01*
X0036607Y0028273D01*
X0036607Y0028199D01*
X0036603Y0028125D01*
X0036595Y0028052D01*
X0036583Y0027979D01*
X0036567Y0027906D01*
X0036547Y0027835D01*
X0036524Y0027765D01*
X0036497Y0027696D01*
X0036466Y0027629D01*
X0036432Y0027563D01*
X0036394Y0027500D01*
X0036352Y0027438D01*
X0036308Y0027379D01*
X0036260Y0027322D01*
X0036210Y0027268D01*
X0036157Y0027217D01*
X0036101Y0027169D01*
X0036042Y0027123D01*
X0035981Y0027081D01*
X0035918Y0027043D01*
X0035853Y0027007D01*
X0035786Y0026976D01*
X0035718Y0026948D01*
X0035648Y0026923D01*
X0035577Y0026903D01*
X0035505Y0026886D01*
X0035432Y0026873D01*
X0035358Y0026864D01*
X0035284Y0026859D01*
X0035211Y0026858D01*
X0035137Y0026861D01*
X0035063Y0026868D01*
X0034990Y0026879D01*
X0034917Y0026894D01*
X0034846Y0026912D01*
X0034775Y0026935D01*
X0034706Y0026961D01*
X0034638Y0026991D01*
X0034572Y0027025D01*
X0034508Y0027062D01*
X0034446Y0027102D01*
X0034386Y0027146D01*
X0034329Y0027192D01*
X0034274Y0027242D01*
X0034222Y0027295D01*
X0034173Y0027350D01*
X0034127Y0027408D01*
X0034085Y0027469D01*
X0034045Y0027531D01*
X0034009Y0027596D01*
X0033976Y0027662D01*
X0033947Y0027730D01*
X0033922Y0027800D01*
X0033900Y0027870D01*
X0033883Y0027942D01*
X0033869Y0028015D01*
X0033859Y0028088D01*
X0033853Y0028162D01*
X0033851Y0028236D01*
X0039954Y0021937D02*
X0039954Y0019575D01*
X0039953Y0019575D02*
X0039965Y0019498D01*
X0039980Y0019422D01*
X0039999Y0019346D01*
X0040022Y0019272D01*
X0040048Y0019198D01*
X0040078Y0019127D01*
X0040112Y0019056D01*
X0040148Y0018988D01*
X0040189Y0018921D01*
X0040232Y0018856D01*
X0040278Y0018794D01*
X0040328Y0018733D01*
X0040380Y0018676D01*
X0040436Y0018621D01*
X0040493Y0018569D01*
X0040554Y0018519D01*
X0040616Y0018473D01*
X0040681Y0018430D01*
X0040748Y0018390D01*
X0040817Y0018353D01*
X0040887Y0018320D01*
X0040959Y0018290D01*
X0041033Y0018264D01*
X0041107Y0018242D01*
X0041183Y0018223D01*
X0041259Y0018208D01*
X0041336Y0018197D01*
X0041414Y0018189D01*
X0041492Y0018185D01*
X0041570Y0018186D01*
X0041647Y0018189D01*
X0041725Y0018197D01*
X0041803Y0018189D01*
X0041880Y0018186D01*
X0041958Y0018185D01*
X0042036Y0018189D01*
X0042114Y0018197D01*
X0042191Y0018208D01*
X0042267Y0018223D01*
X0042343Y0018242D01*
X0042417Y0018264D01*
X0042491Y0018290D01*
X0042563Y0018320D01*
X0042633Y0018353D01*
X0042702Y0018390D01*
X0042769Y0018430D01*
X0042834Y0018473D01*
X0042896Y0018519D01*
X0042957Y0018569D01*
X0043014Y0018621D01*
X0043070Y0018676D01*
X0043122Y0018733D01*
X0043172Y0018794D01*
X0043218Y0018856D01*
X0043261Y0018921D01*
X0043302Y0018988D01*
X0043338Y0019056D01*
X0043372Y0019127D01*
X0043402Y0019198D01*
X0043428Y0019272D01*
X0043451Y0019346D01*
X0043470Y0019422D01*
X0043485Y0019498D01*
X0043497Y0019575D01*
X0043497Y0021937D01*
X0043485Y0022014D01*
X0043470Y0022090D01*
X0043451Y0022166D01*
X0043428Y0022240D01*
X0043402Y0022314D01*
X0043372Y0022385D01*
X0043338Y0022456D01*
X0043302Y0022524D01*
X0043261Y0022591D01*
X0043218Y0022656D01*
X0043172Y0022718D01*
X0043122Y0022779D01*
X0043070Y0022836D01*
X0043014Y0022891D01*
X0042957Y0022943D01*
X0042896Y0022993D01*
X0042834Y0023039D01*
X0042769Y0023082D01*
X0042702Y0023122D01*
X0042633Y0023159D01*
X0042563Y0023192D01*
X0042491Y0023222D01*
X0042417Y0023248D01*
X0042343Y0023270D01*
X0042267Y0023289D01*
X0042191Y0023304D01*
X0042114Y0023315D01*
X0042036Y0023323D01*
X0041958Y0023327D01*
X0041880Y0023326D01*
X0041803Y0023323D01*
X0041725Y0023315D01*
X0041647Y0023323D01*
X0041570Y0023326D01*
X0041492Y0023327D01*
X0041414Y0023323D01*
X0041336Y0023315D01*
X0041259Y0023304D01*
X0041183Y0023289D01*
X0041107Y0023270D01*
X0041033Y0023248D01*
X0040959Y0023222D01*
X0040887Y0023192D01*
X0040817Y0023159D01*
X0040748Y0023122D01*
X0040681Y0023082D01*
X0040616Y0023039D01*
X0040554Y0022993D01*
X0040493Y0022943D01*
X0040436Y0022891D01*
X0040380Y0022836D01*
X0040328Y0022779D01*
X0040278Y0022718D01*
X0040232Y0022656D01*
X0040189Y0022591D01*
X0040148Y0022524D01*
X0040112Y0022456D01*
X0040078Y0022385D01*
X0040048Y0022314D01*
X0040022Y0022240D01*
X0039999Y0022166D01*
X0039980Y0022090D01*
X0039965Y0022014D01*
X0039953Y0021937D01*
M02*
