  0
SECTION
  2
HEADER
  9
$ACADVER
  1
AC1009
  9
$FILLMODE
 70
0
  9
$EXTMIN
 10
-9.7500
 20
-10.0820
 30
0.0000
  9
$EXTMAX
 10
27.9400
 20
36.9571
 30
0.0000
  0
ENDSEC
  0
SECTION
  2
TABLES
  0
TABLE
  2
LTYPE
 70
1
  0
LTYPE
  2
CONTINUOUS
 70
64
  3
Solid line
 72
65
 73
0
 40
0
  0
ENDTAB
  0
TABLE
  2
LAYER
 70
255
  0
LAYER
  2
20
 70
64
 62
7
  6
CONTINUOUS
  0
LAYER
  2
31
 70
64
 62
253
  6
CONTINUOUS
  0
ENDTAB
  0
ENDSEC
  0
SECTION
  2
BLOCKS
  0
BLOCK
  8
0
  2
RECT
 70
64
 10
0.0000
 20
0.0000
 30
0.0000
  3
RECT
  0
SOLID
  8
0
 10
-0.5000
 20
-0.5000
 30
0.0000
 11
0.5000
 21
-0.5000
 31
0.0000
 12
-0.5000
 22
0.5000
 32
0.0000
 13
0.5000
 23
0.5000
 33
0.0000
  0
ENDBLK
  8
0
  0
BLOCK
  8
0
  2
PIE
 70
64
 10
0.0000
 20
0.0000
 30
0.0000
  3
PIE
  0
CIRCLE
  8
0
 10
0.0000
 20
0.0000
 30
0.0000
 40
0.5000
  0
ENDBLK
  8
0
  0
BLOCK
  8
0
  2
OCTAGONP
 70
64
 10
0.0000
 20
0.0000
 30
0.0000
  3
OCTAGONP
  0
POLYLINE
  8
0
 66
1
 10
0.0000
 20
0.0000
 30
0.0000
 40
0.0000
 41
0.0000
 70
1
  0
VERTEX
  8
0
 10
-0.5000
 20
-0.2071
 30
0.0000
  0
VERTEX
  8
0
 10
-0.5000
 20
0.2071
 30
0.0000
  0
VERTEX
  8
0
 10
-0.2071
 20
0.5000
 30
0.0000
  0
VERTEX
  8
0
 10
0.2071
 20
0.5000
 30
0.0000
  0
VERTEX
  8
0
 10
0.5000
 20
0.2071
 30
0.0000
  0
VERTEX
  8
0
 10
0.5000
 20
-0.2071
 30
0.0000
  0
VERTEX
  8
0
 10
0.2071
 20
-0.5000
 30
0.0000
  0
VERTEX
  8
0
 10
-0.2071
 20
-0.5000
 30
0.0000
  0
SEQEND
  8
0
  0
ENDBLK
  8
0
  0
BLOCK
  8
0
  2
SQUAREP
 70
64
 10
0.0000
 20
0.0000
 30
0.0000
  3
SQUAREP
  0
SOLID
  8
0
 10
-0.5000
 20
-0.5000
 30
0.0000
 11
0.5000
 21
-0.5000
 31
0.0000
 12
-0.5000
 22
0.5000
 32
0.0000
 13
0.5000
 23
0.5000
 33
0.0000
  0
ENDBLK
  8
0
  0
BLOCK
  8
0
  2
ROUNDP
 70
64
 10
0.0000
 20
0.0000
 30
0.0000
  3
ROUNDP
  0
CIRCLE
  8
0
 10
0.0000
 20
0.0000
 30
0.0000
 40
0.5000
  0
ENDBLK
  8
0
  0
BLOCK
  8
0
  2
ANNULUSP
 70
64
 10
0.0000
 20
0.0000
 30
0.0000
  3
ANNULUSP
  0
CIRCLE
  8
0
 10
0.0000
 20
0.0000
 30
0.0000
 40
0.5000
  0
ENDBLK
  8
0
  0
BLOCK
  8
0
  2
THERMALP
 70
64
 10
0.0000
 20
0.0000
 30
0.0000
  3
THERMALP
  0
POLYLINE
  8
0
 66
1
 10
0.0000
 20
0.0000
 30
0.0000
 40
0.0000
 41
0.0000
 70
1
  0
VERTEX
  8
0
 10
-0.2379
 20
0.4000
 30
0.0000
  0
VERTEX
  8
0
 10
0.2379
 20
0.4000
 30
0.0000
 42
1.0000
  0
VERTEX
  8
0
 10
0.2379
 20
0.5000
 30
0.0000
  0
VERTEX
  8
0
 10
-0.2379
 20
0.5000
 30
0.0000
 42
1.0000
  0
SEQEND
  8
0
  0
POLYLINE
  8
0
 66
1
 10
0.0000
 20
0.0000
 30
0.0000
 40
0.0000
 41
0.0000
 70
1
  0
VERTEX
  8
0
 10
0.4000
 20
0.2379
 30
0.0000
  0
VERTEX
  8
0
 10
0.4000
 20
-0.2379
 30
0.0000
 42
1.0000
  0
VERTEX
  8
0
 10
0.5000
 20
-0.2379
 30
0.0000
  0
VERTEX
  8
0
 10
0.5000
 20
0.2379
 30
0.0000
 42
1.0000
  0
SEQEND
  8
0
  0
POLYLINE
  8
0
 66
1
 10
0.0000
 20
0.0000
 30
0.0000
 40
0.0000
 41
0.0000
 70
1
  0
VERTEX
  8
0
 10
0.2379
 20
-0.4000
 30
0.0000
  0
VERTEX
  8
0
 10
-0.2379
 20
-0.4000
 30
0.0000
 42
1.0000
  0
VERTEX
  8
0
 10
-0.2379
 20
-0.5000
 30
0.0000
  0
VERTEX
  8
0
 10
0.2379
 20
-0.5000
 30
0.0000
 42
1.0000
  0
SEQEND
  8
0
  0
POLYLINE
  8
0
 66
1
 10
0.0000
 20
0.0000
 30
0.0000
 40
0.0000
 41
0.0000
 70
1
  0
VERTEX
  8
0
 10
-0.4000
 20
-0.2379
 30
0.0000
  0
VERTEX
  8
0
 10
-0.4000
 20
0.2379
 30
0.0000
 42
1.0000
  0
VERTEX
  8
0
 10
-0.5000
 20
0.2379
 30
0.0000
  0
VERTEX
  8
0
 10
-0.5000
 20
-0.2379
 30
0.0000
 42
1.0000
  0
SEQEND
  8
0
  0
ENDBLK
  8
0
  0
BLOCK
  8
0
  2
OCTAGONV
 70
64
 10
0.0000
 20
0.0000
 30
0.0000
  3
OCTAGONV
  0
POLYLINE
  8
0
 66
1
 10
0.0000
 20
0.0000
 30
0.0000
 40
0.0000
 41
0.0000
 70
1
  0
VERTEX
  8
0
 10
-0.5000
 20
-0.2071
 30
0.0000
  0
VERTEX
  8
0
 10
-0.5000
 20
0.2071
 30
0.0000
  0
VERTEX
  8
0
 10
-0.2071
 20
0.5000
 30
0.0000
  0
VERTEX
  8
0
 10
0.2071
 20
0.5000
 30
0.0000
  0
VERTEX
  8
0
 10
0.5000
 20
0.2071
 30
0.0000
  0
VERTEX
  8
0
 10
0.5000
 20
-0.2071
 30
0.0000
  0
VERTEX
  8
0
 10
0.2071
 20
-0.5000
 30
0.0000
  0
VERTEX
  8
0
 10
-0.2071
 20
-0.5000
 30
0.0000
  0
SEQEND
  8
0
  0
ENDBLK
  8
0
  0
BLOCK
  8
0
  2
SQUAREV
 70
64
 10
0.0000
 20
0.0000
 30
0.0000
  3
SQUAREV
  0
SOLID
  8
0
 10
-0.5000
 20
-0.5000
 30
0.0000
 11
0.5000
 21
-0.5000
 31
0.0000
 12
-0.5000
 22
0.5000
 32
0.0000
 13
0.5000
 23
0.5000
 33
0.0000
  0
ENDBLK
  8
0
  0
BLOCK
  8
0
  2
ROUNDV
 70
64
 10
0.0000
 20
0.0000
 30
0.0000
  3
ROUNDV
  0
CIRCLE
  8
0
 10
0.0000
 20
0.0000
 30
0.0000
 40
0.5000
  0
ENDBLK
  8
0
  0
BLOCK
  8
0
  2
ANNULUSV
 70
64
 10
0.0000
 20
0.0000
 30
0.0000
  3
ANNULUSV
  0
CIRCLE
  8
0
 10
0.0000
 20
0.0000
 30
0.0000
 40
0.5000
  0
ENDBLK
  8
0
  0
BLOCK
  8
0
  2
THERMALV
 70
64
 10
0.0000
 20
0.0000
 30
0.0000
  3
THERMALV
  0
POLYLINE
  8
0
 66
1
 10
0.0000
 20
0.0000
 30
0.0000
 40
0.0000
 41
0.0000
 70
1
  0
VERTEX
  8
0
 10
-0.2379
 20
0.4000
 30
0.0000
  0
VERTEX
  8
0
 10
0.2379
 20
0.4000
 30
0.0000
 42
1.0000
  0
VERTEX
  8
0
 10
0.2379
 20
0.5000
 30
0.0000
  0
VERTEX
  8
0
 10
-0.2379
 20
0.5000
 30
0.0000
 42
1.0000
  0
SEQEND
  8
0
  0
POLYLINE
  8
0
 66
1
 10
0.0000
 20
0.0000
 30
0.0000
 40
0.0000
 41
0.0000
 70
1
  0
VERTEX
  8
0
 10
0.4000
 20
0.2379
 30
0.0000
  0
VERTEX
  8
0
 10
0.4000
 20
-0.2379
 30
0.0000
 42
1.0000
  0
VERTEX
  8
0
 10
0.5000
 20
-0.2379
 30
0.0000
  0
VERTEX
  8
0
 10
0.5000
 20
0.2379
 30
0.0000
 42
1.0000
  0
SEQEND
  8
0
  0
POLYLINE
  8
0
 66
1
 10
0.0000
 20
0.0000
 30
0.0000
 40
0.0000
 41
0.0000
 70
1
  0
VERTEX
  8
0
 10
0.2379
 20
-0.4000
 30
0.0000
  0
VERTEX
  8
0
 10
-0.2379
 20
-0.4000
 30
0.0000
 42
1.0000
  0
VERTEX
  8
0
 10
-0.2379
 20
-0.5000
 30
0.0000
  0
VERTEX
  8
0
 10
0.2379
 20
-0.5000
 30
0.0000
 42
1.0000
  0
SEQEND
  8
0
  0
POLYLINE
  8
0
 66
1
 10
0.0000
 20
0.0000
 30
0.0000
 40
0.0000
 41
0.0000
 70
1
  0
VERTEX
  8
0
 10
-0.4000
 20
-0.2379
 30
0.0000
  0
VERTEX
  8
0
 10
-0.4000
 20
0.2379
 30
0.0000
 42
1.0000
  0
VERTEX
  8
0
 10
-0.5000
 20
0.2379
 30
0.0000
  0
VERTEX
  8
0
 10
-0.5000
 20
-0.2379
 30
0.0000
 42
1.0000
  0
SEQEND
  8
0
  0
ENDBLK
  8
0
  0
BLOCK
  8
0
  2
OFFSETP100
 70
64
 10
0.0000
 20
0.0000
 30
0.0000
  3
OFFSETP100
  0
POLYLINE
  8
0
 66
1
 10
0.0000
 20
0.0000
 30
0.0000
 40
0.0000
 41
0.0000
 70
1
  0
VERTEX
  8
0
 10
0.0000
 20
-0.5000
 30
0.0000
  0
VERTEX
  8
0
 10
1.0000
 20
-0.5000
 30
0.0000
 42
1.0000
  0
VERTEX
  8
0
 10
1.0000
 20
0.5000
 30
0.0000
  0
VERTEX
  8
0
 10
0.0000
 20
0.5000
 30
0.0000
 42
1.0000
  0
SEQEND
  8
0
  0
ENDBLK
  8
0
  0
ENDSEC
  0
SECTION
  2
ENTITIES
  0
LINE
  8
20
 10
0.0000
 20
0.0000
 30
0.0000
 11
22.5860
 21
0.0000
 31
0.0000
  0
LINE
  8
20
 10
22.5860
 20
0.0000
 30
0.0000
 11
22.5860
 21
35.4840
 31
0.0000
  0
LINE
  8
20
 10
22.5860
 20
35.4840
 30
0.0000
 11
0.0000
 21
35.4840
 31
0.0000
  0
LINE
  8
20
 10
0.0000
 20
35.4840
 30
0.0000
 11
0.0000
 21
0.0000
 31
0.0000
  0
INSERT
  8
31
  2
RECT
 10
16.6980
 20
31.7500
 30
0.0000
 41
1.3000
 42
1.5000
 43
1.0000
 50
180.0000
  0
INSERT
  8
31
  2
RECT
 10
14.7980
 20
31.7500
 30
0.0000
 41
1.3000
 42
1.5000
 43
1.0000
 50
180.0000
  0
INSERT
  8
31
  2
RECT
 10
16.6980
 20
24.6380
 30
0.0000
 41
1.3000
 42
1.5000
 43
1.0000
 50
180.0000
  0
INSERT
  8
31
  2
RECT
 10
14.7980
 20
24.6380
 30
0.0000
 41
1.3000
 42
1.5000
 43
1.0000
 50
180.0000
  0
INSERT
  8
31
  2
RECT
 10
2.8600
 20
28.9560
 30
0.0000
 41
1.3000
 42
1.5000
 43
1.0000
 50
0.0000
  0
INSERT
  8
31
  2
RECT
 10
4.7600
 20
28.9560
 30
0.0000
 41
1.3000
 42
1.5000
 43
1.0000
 50
0.0000
  0
INSERT
  8
31
  2
RECT
 10
7.3660
 20
33.5620
 30
0.0000
 41
1.2000
 42
1.5000
 43
1.0000
 50
270.0000
  0
INSERT
  8
31
  2
RECT
 10
7.3660
 20
31.4620
 30
0.0000
 41
1.2000
 42
1.5000
 43
1.0000
 50
270.0000
  0
INSERT
  8
31
  2
RECT
 10
18.6080
 20
16.5100
 30
0.0000
 41
1.3000
 42
1.5000
 43
1.0000
 50
0.0000
  0
INSERT
  8
31
  2
RECT
 10
20.5080
 20
16.5100
 30
0.0000
 41
1.3000
 42
1.5000
 43
1.0000
 50
0.0000
  0
INSERT
  8
31
  2
RECT
 10
18.1000
 20
3.8100
 30
0.0000
 41
1.3000
 42
1.5000
 43
1.0000
 50
0.0000
  0
INSERT
  8
31
  2
RECT
 10
20.0000
 20
3.8100
 30
0.0000
 41
1.3000
 42
1.5000
 43
1.0000
 50
0.0000
  0
INSERT
  8
31
  2
RECT
 10
18.2000
 20
9.6520
 30
0.0000
 41
1.1000
 42
1.0000
 43
1.0000
 50
0.0000
  0
INSERT
  8
31
  2
RECT
 10
19.9000
 20
9.6520
 30
0.0000
 41
1.1000
 42
1.0000
 43
1.0000
 50
0.0000
  0
INSERT
  8
31
  2
RECT
 10
16.5100
 20
8.8240
 30
0.0000
 41
1.3000
 42
1.5000
 43
1.0000
 50
270.0000
  0
INSERT
  8
31
  2
RECT
 10
16.5100
 20
6.9240
 30
0.0000
 41
1.3000
 42
1.5000
 43
1.0000
 50
270.0000
  0
INSERT
  8
31
  2
RECT
 10
9.1440
 20
31.5620
 30
0.0000
 41
1.3000
 42
1.5000
 43
1.0000
 50
90.0000
  0
INSERT
  8
31
  2
RECT
 10
9.1440
 20
33.4620
 30
0.0000
 41
1.3000
 42
1.5000
 43
1.0000
 50
90.0000
  0
INSERT
  8
31
  2
RECT
 10
12.7660
 20
5.5880
 30
0.0000
 41
1.3000
 42
1.5000
 43
1.0000
 50
0.0000
  0
INSERT
  8
31
  2
RECT
 10
14.6660
 20
5.5880
 30
0.0000
 41
1.3000
 42
1.5000
 43
1.0000
 50
0.0000
  0
INSERT
  8
31
  2
RECT
 10
1.6510
 20
12.9150
 30
0.0000
 41
1.1000
 42
1.0000
 43
1.0000
 50
270.0000
  0
INSERT
  8
31
  2
RECT
 10
1.6510
 20
11.2150
 30
0.0000
 41
1.1000
 42
1.0000
 43
1.0000
 50
270.0000
  0
INSERT
  8
31
  2
RECT
 10
10.4140
 20
9.9400
 30
0.0000
 41
1.2000
 42
1.2000
 43
1.0000
 50
180.0000
  0
INSERT
  8
31
  2
RECT
 10
10.4140
 20
7.8400
 30
0.0000
 41
1.2000
 42
1.2000
 43
1.0000
 50
180.0000
  0
INSERT
  8
31
  2
RECT
 10
12.8820
 20
3.8100
 30
0.0000
 41
1.4000
 42
1.4000
 43
1.0000
 50
270.0000
  0
INSERT
  8
31
  2
RECT
 10
16.5820
 20
3.8100
 30
0.0000
 41
1.4000
 42
1.4000
 43
1.0000
 50
270.0000
  0
INSERT
  8
31
  2
RECT
 10
5.1040
 20
18.0140
 30
0.0000
 41
1.0000
 42
1.5000
 43
1.0000
 50
0.0000
  0
INSERT
  8
31
  2
RECT
 10
6.6040
 20
18.0140
 30
0.0000
 41
1.0000
 42
1.5000
 43
1.0000
 50
0.0000
  0
INSERT
  8
31
  2
RECT
 10
8.1040
 20
18.0140
 30
0.0000
 41
1.0000
 42
1.5000
 43
1.0000
 50
0.0000
  0
INSERT
  8
31
  2
RECT
 10
8.1040
 20
15.5140
 30
0.0000
 41
1.0000
 42
1.5000
 43
1.0000
 50
0.0000
  0
INSERT
  8
31
  2
RECT
 10
6.6040
 20
15.5140
 30
0.0000
 41
1.0000
 42
1.5000
 43
1.0000
 50
0.0000
  0
INSERT
  8
31
  2
RECT
 10
5.1040
 20
15.5140
 30
0.0000
 41
1.0000
 42
1.5000
 43
1.0000
 50
0.0000
  0
INSERT
  8
31
  2
RECT
 10
4.1040
 20
13.2890
 30
0.0000
 41
0.8000
 42
0.2500
 43
1.0000
 50
90.0000
  0
INSERT
  8
31
  2
RECT
 10
4.6040
 20
13.2890
 30
0.0000
 41
0.8000
 42
0.2500
 43
1.0000
 50
90.0000
  0
INSERT
  8
31
  2
RECT
 10
5.1040
 20
13.2890
 30
0.0000
 41
0.8000
 42
0.2500
 43
1.0000
 50
90.0000
  0
INSERT
  8
31
  2
RECT
 10
5.6040
 20
13.2890
 30
0.0000
 41
0.8000
 42
0.2500
 43
1.0000
 50
90.0000
  0
INSERT
  8
31
  2
RECT
 10
6.1040
 20
13.2890
 30
0.0000
 41
0.8000
 42
0.2500
 43
1.0000
 50
90.0000
  0
INSERT
  8
31
  2
RECT
 10
6.6040
 20
13.2890
 30
0.0000
 41
0.8000
 42
0.2500
 43
1.0000
 50
90.0000
  0
INSERT
  8
31
  2
RECT
 10
7.1040
 20
13.2890
 30
0.0000
 41
0.8000
 42
0.2500
 43
1.0000
 50
90.0000
  0
INSERT
  8
31
  2
RECT
 10
7.6040
 20
13.2890
 30
0.0000
 41
0.8000
 42
0.2500
 43
1.0000
 50
90.0000
  0
INSERT
  8
31
  2
RECT
 10
8.1040
 20
13.2890
 30
0.0000
 41
0.8000
 42
0.2500
 43
1.0000
 50
90.0000
  0
INSERT
  8
31
  2
RECT
 10
8.6040
 20
13.2890
 30
0.0000
 41
0.8000
 42
0.2500
 43
1.0000
 50
90.0000
  0
INSERT
  8
31
  2
RECT
 10
9.1040
 20
13.2890
 30
0.0000
 41
0.8000
 42
0.2500
 43
1.0000
 50
90.0000
  0
INSERT
  8
31
  2
RECT
 10
10.0790
 20
14.2640
 30
0.0000
 41
0.8000
 42
0.2500
 43
1.0000
 50
180.0000
  0
INSERT
  8
31
  2
RECT
 10
10.0790
 20
14.7640
 30
0.0000
 41
0.8000
 42
0.2500
 43
1.0000
 50
180.0000
  0
INSERT
  8
31
  2
RECT
 10
10.0790
 20
15.2640
 30
0.0000
 41
0.8000
 42
0.2500
 43
1.0000
 50
180.0000
  0
INSERT
  8
31
  2
RECT
 10
10.0790
 20
15.7640
 30
0.0000
 41
0.8000
 42
0.2500
 43
1.0000
 50
180.0000
  0
INSERT
  8
31
  2
RECT
 10
10.0790
 20
16.2640
 30
0.0000
 41
0.8000
 42
0.2500
 43
1.0000
 50
180.0000
  0
INSERT
  8
31
  2
RECT
 10
10.0790
 20
16.7640
 30
0.0000
 41
0.8000
 42
0.2500
 43
1.0000
 50
180.0000
  0
INSERT
  8
31
  2
RECT
 10
10.0790
 20
17.2640
 30
0.0000
 41
0.8000
 42
0.2500
 43
1.0000
 50
180.0000
  0
INSERT
  8
31
  2
RECT
 10
10.0790
 20
17.7640
 30
0.0000
 41
0.8000
 42
0.2500
 43
1.0000
 50
180.0000
  0
INSERT
  8
31
  2
RECT
 10
10.0790
 20
18.2640
 30
0.0000
 41
0.8000
 42
0.2500
 43
1.0000
 50
180.0000
  0
INSERT
  8
31
  2
RECT
 10
10.0790
 20
18.7640
 30
0.0000
 41
0.8000
 42
0.2500
 43
1.0000
 50
180.0000
  0
INSERT
  8
31
  2
RECT
 10
10.0790
 20
19.2640
 30
0.0000
 41
0.8000
 42
0.2500
 43
1.0000
 50
180.0000
  0
INSERT
  8
31
  2
RECT
 10
9.1040
 20
20.2390
 30
0.0000
 41
0.8000
 42
0.2500
 43
1.0000
 50
270.0000
  0
INSERT
  8
31
  2
RECT
 10
8.6040
 20
20.2390
 30
0.0000
 41
0.8000
 42
0.2500
 43
1.0000
 50
270.0000
  0
INSERT
  8
31
  2
RECT
 10
8.1040
 20
20.2390
 30
0.0000
 41
0.8000
 42
0.2500
 43
1.0000
 50
270.0000
  0
INSERT
  8
31
  2
RECT
 10
7.6040
 20
20.2390
 30
0.0000
 41
0.8000
 42
0.2500
 43
1.0000
 50
270.0000
  0
INSERT
  8
31
  2
RECT
 10
7.1040
 20
20.2390
 30
0.0000
 41
0.8000
 42
0.2500
 43
1.0000
 50
270.0000
  0
INSERT
  8
31
  2
RECT
 10
6.6040
 20
20.2390
 30
0.0000
 41
0.8000
 42
0.2500
 43
1.0000
 50
270.0000
  0
INSERT
  8
31
  2
RECT
 10
6.1040
 20
20.2390
 30
0.0000
 41
0.8000
 42
0.2500
 43
1.0000
 50
270.0000
  0
INSERT
  8
31
  2
RECT
 10
5.6040
 20
20.2390
 30
0.0000
 41
0.8000
 42
0.2500
 43
1.0000
 50
270.0000
  0
INSERT
  8
31
  2
RECT
 10
5.1040
 20
20.2390
 30
0.0000
 41
0.8000
 42
0.2500
 43
1.0000
 50
270.0000
  0
INSERT
  8
31
  2
RECT
 10
4.6040
 20
20.2390
 30
0.0000
 41
0.8000
 42
0.2500
 43
1.0000
 50
270.0000
  0
INSERT
  8
31
  2
RECT
 10
4.1040
 20
20.2390
 30
0.0000
 41
0.8000
 42
0.2500
 43
1.0000
 50
270.0000
  0
INSERT
  8
31
  2
RECT
 10
3.1290
 20
19.2640
 30
0.0000
 41
0.8000
 42
0.2500
 43
1.0000
 50
0.0000
  0
INSERT
  8
31
  2
RECT
 10
3.1290
 20
18.7640
 30
0.0000
 41
0.8000
 42
0.2500
 43
1.0000
 50
0.0000
  0
INSERT
  8
31
  2
RECT
 10
3.1290
 20
18.2640
 30
0.0000
 41
0.8000
 42
0.2500
 43
1.0000
 50
0.0000
  0
INSERT
  8
31
  2
RECT
 10
3.1290
 20
17.7640
 30
0.0000
 41
0.8000
 42
0.2500
 43
1.0000
 50
0.0000
  0
INSERT
  8
31
  2
RECT
 10
3.1290
 20
17.2640
 30
0.0000
 41
0.8000
 42
0.2500
 43
1.0000
 50
0.0000
  0
INSERT
  8
31
  2
RECT
 10
3.1290
 20
16.7640
 30
0.0000
 41
0.8000
 42
0.2500
 43
1.0000
 50
0.0000
  0
INSERT
  8
31
  2
RECT
 10
3.1290
 20
16.2640
 30
0.0000
 41
0.8000
 42
0.2500
 43
1.0000
 50
0.0000
  0
INSERT
  8
31
  2
RECT
 10
3.1290
 20
15.7640
 30
0.0000
 41
0.8000
 42
0.2500
 43
1.0000
 50
0.0000
  0
INSERT
  8
31
  2
RECT
 10
3.1290
 20
15.2640
 30
0.0000
 41
0.8000
 42
0.2500
 43
1.0000
 50
0.0000
  0
INSERT
  8
31
  2
RECT
 10
3.1290
 20
14.7640
 30
0.0000
 41
0.8000
 42
0.2500
 43
1.0000
 50
0.0000
  0
INSERT
  8
31
  2
RECT
 10
3.1290
 20
14.2640
 30
0.0000
 41
0.8000
 42
0.2500
 43
1.0000
 50
0.0000
  0
INSERT
  8
31
  2
RECT
 10
1.7780
 20
20.7940
 30
0.0000
 41
1.2000
 42
1.2000
 43
1.0000
 50
0.0000
  0
INSERT
  8
31
  2
RECT
 10
1.7780
 20
22.8940
 30
0.0000
 41
1.2000
 42
1.2000
 43
1.0000
 50
0.0000
  0
INSERT
  8
31
  2
RECT
 10
2.2860
 20
8.0400
 30
0.0000
 41
1.1000
 42
1.0000
 43
1.0000
 50
90.0000
  0
INSERT
  8
31
  2
RECT
 10
2.2860
 20
9.7400
 30
0.0000
 41
1.1000
 42
1.0000
 43
1.0000
 50
90.0000
  0
INSERT
  8
31
  2
RECT
 10
3.8100
 20
8.0400
 30
0.0000
 41
1.1000
 42
1.0000
 43
1.0000
 50
90.0000
  0
INSERT
  8
31
  2
RECT
 10
3.8100
 20
9.7400
 30
0.0000
 41
1.1000
 42
1.0000
 43
1.0000
 50
90.0000
  0
INSERT
  8
31
  2
RECT
 10
4.7600
 20
30.7340
 30
0.0000
 41
1.3000
 42
1.5000
 43
1.0000
 50
180.0000
  0
INSERT
  8
31
  2
RECT
 10
2.8600
 20
30.7340
 30
0.0000
 41
1.3000
 42
1.5000
 43
1.0000
 50
180.0000
  0
INSERT
  8
31
  2
RECT
 10
4.7600
 20
32.5120
 30
0.0000
 41
1.3000
 42
1.5000
 43
1.0000
 50
180.0000
  0
INSERT
  8
31
  2
RECT
 10
2.8600
 20
32.5120
 30
0.0000
 41
1.3000
 42
1.5000
 43
1.0000
 50
180.0000
  0
INSERT
  8
31
  2
RECT
 10
4.7600
 20
25.4000
 30
0.0000
 41
1.3000
 42
1.5000
 43
1.0000
 50
180.0000
  0
INSERT
  8
31
  2
RECT
 10
2.8600
 20
25.4000
 30
0.0000
 41
1.3000
 42
1.5000
 43
1.0000
 50
180.0000
  0
INSERT
  8
31
  2
RECT
 10
11.6840
 20
8.0400
 30
0.0000
 41
1.1000
 42
1.0000
 43
1.0000
 50
90.0000
  0
INSERT
  8
31
  2
RECT
 10
11.6840
 20
9.7400
 30
0.0000
 41
1.1000
 42
1.0000
 43
1.0000
 50
90.0000
  0
INSERT
  8
31
  2
RECT
 10
4.9140
 20
23.6220
 30
0.0000
 41
1.1000
 42
1.0000
 43
1.0000
 50
180.0000
  0
INSERT
  8
31
  2
RECT
 10
3.2140
 20
23.6220
 30
0.0000
 41
1.1000
 42
1.0000
 43
1.0000
 50
180.0000
  0
INSERT
  8
31
  2
RECT
 10
5.3340
 20
9.7400
 30
0.0000
 41
1.1000
 42
1.0000
 43
1.0000
 50
270.0000
  0
INSERT
  8
31
  2
RECT
 10
5.3340
 20
8.0400
 30
0.0000
 41
1.1000
 42
1.0000
 43
1.0000
 50
270.0000
  0
INSERT
  8
31
  2
RECT
 10
8.4700
 20
23.3680
 30
0.0000
 41
1.1000
 42
1.0000
 43
1.0000
 50
180.0000
  0
INSERT
  8
31
  2
RECT
 10
6.7700
 20
23.3680
 30
0.0000
 41
1.1000
 42
1.0000
 43
1.0000
 50
180.0000
  0
INSERT
  8
31
  2
RECT
 10
6.8580
 20
21.8440
 30
0.0000
 41
0.8000
 42
0.8000
 43
1.0000
 50
0.0000
  0
INSERT
  8
31
  2
RECT
 10
8.3820
 20
21.8440
 30
0.0000
 41
0.8000
 42
0.8000
 43
1.0000
 50
0.0000
  0
INSERT
  8
31
  2
RECT
 10
18.2000
 20
2.0320
 30
0.0000
 41
1.1000
 42
1.0000
 43
1.0000
 50
0.0000
  0
INSERT
  8
31
  2
RECT
 10
19.9000
 20
2.0320
 30
0.0000
 41
1.1000
 42
1.0000
 43
1.0000
 50
0.0000
  0
INSERT
  8
31
  2
RECT
 10
14.8200
 20
21.8440
 30
0.0000
 41
1.1000
 42
1.0000
 43
1.0000
 50
180.0000
  0
INSERT
  8
31
  2
RECT
 10
13.1200
 20
21.8440
 30
0.0000
 41
1.1000
 42
1.0000
 43
1.0000
 50
180.0000
  0
INSERT
  8
31
  2
RECT
 10
14.8200
 20
20.3200
 30
0.0000
 41
1.1000
 42
1.0000
 43
1.0000
 50
180.0000
  0
INSERT
  8
31
  2
RECT
 10
13.1200
 20
20.3200
 30
0.0000
 41
1.1000
 42
1.0000
 43
1.0000
 50
180.0000
  0
INSERT
  8
31
  2
RECT
 10
3.7220
 20
27.1780
 30
0.0000
 41
1.1000
 42
1.0000
 43
1.0000
 50
0.0000
  0
INSERT
  8
31
  2
RECT
 10
5.4220
 20
27.1780
 30
0.0000
 41
1.1000
 42
1.0000
 43
1.0000
 50
0.0000
  0
INSERT
  8
31
  2
RECT
 10
16.7960
 20
18.2500
 30
0.0000
 41
1.0000
 42
1.0000
 43
1.0000
 50
180.0000
  0
INSERT
  8
31
  2
RECT
 10
16.7960
 20
19.8500
 30
0.0000
 41
1.0000
 42
1.0000
 43
1.0000
 50
180.0000
  0
INSERT
  8
31
  2
RECT
 10
20.7960
 20
18.2500
 30
0.0000
 41
1.0000
 42
1.0000
 43
1.0000
 50
180.0000
  0
INSERT
  8
31
  2
RECT
 10
20.7960
 20
19.8500
 30
0.0000
 41
1.0000
 42
1.0000
 43
1.0000
 50
180.0000
  0
INSERT
  8
31
  2
RECT
 10
10.4525
 20
29.6820
 30
0.0000
 41
0.2500
 42
0.4750
 43
1.0000
 50
270.0000
  0
INSERT
  8
31
  2
RECT
 10
9.6400
 20
29.7445
 30
0.0000
 41
0.3750
 42
0.2500
 43
1.0000
 50
270.0000
  0
INSERT
  8
31
  2
RECT
 10
9.1400
 20
29.7445
 30
0.0000
 41
0.3750
 42
0.2500
 43
1.0000
 50
270.0000
  0
INSERT
  8
31
  2
RECT
 10
8.6400
 20
29.7445
 30
0.0000
 41
0.3750
 42
0.2500
 43
1.0000
 50
270.0000
  0
INSERT
  8
31
  2
RECT
 10
8.1400
 20
29.7445
 30
0.0000
 41
0.3750
 42
0.2500
 43
1.0000
 50
270.0000
  0
INSERT
  8
31
  2
RECT
 10
7.3275
 20
29.6820
 30
0.0000
 41
0.2500
 42
0.4750
 43
1.0000
 50
270.0000
  0
INSERT
  8
31
  2
RECT
 10
7.3275
 20
29.1820
 30
0.0000
 41
0.2500
 42
0.4750
 43
1.0000
 50
270.0000
  0
INSERT
  8
31
  2
RECT
 10
7.3275
 20
28.6820
 30
0.0000
 41
0.2500
 42
0.4750
 43
1.0000
 50
270.0000
  0
INSERT
  8
31
  2
RECT
 10
7.3275
 20
28.1820
 30
0.0000
 41
0.2500
 42
0.4750
 43
1.0000
 50
270.0000
  0
INSERT
  8
31
  2
RECT
 10
7.3275
 20
27.6820
 30
0.0000
 41
0.2500
 42
0.4750
 43
1.0000
 50
270.0000
  0
INSERT
  8
31
  2
RECT
 10
7.3275
 20
27.1820
 30
0.0000
 41
0.2500
 42
0.4750
 43
1.0000
 50
270.0000
  0
INSERT
  8
31
  2
RECT
 10
7.3275
 20
26.6820
 30
0.0000
 41
0.2500
 42
0.4750
 43
1.0000
 50
270.0000
  0
INSERT
  8
31
  2
RECT
 10
7.3275
 20
26.1820
 30
0.0000
 41
0.2500
 42
0.4750
 43
1.0000
 50
270.0000
  0
INSERT
  8
31
  2
RECT
 10
7.3275
 20
25.6820
 30
0.0000
 41
0.2500
 42
0.4750
 43
1.0000
 50
270.0000
  0
INSERT
  8
31
  2
RECT
 10
7.3275
 20
25.1820
 30
0.0000
 41
0.2500
 42
0.4750
 43
1.0000
 50
270.0000
  0
INSERT
  8
31
  2
RECT
 10
8.1400
 20
25.1195
 30
0.0000
 41
0.3750
 42
0.2500
 43
1.0000
 50
270.0000
  0
INSERT
  8
31
  2
RECT
 10
8.6400
 20
25.1195
 30
0.0000
 41
0.3750
 42
0.2500
 43
1.0000
 50
270.0000
  0
INSERT
  8
31
  2
RECT
 10
9.1400
 20
25.1195
 30
0.0000
 41
0.3750
 42
0.2500
 43
1.0000
 50
270.0000
  0
INSERT
  8
31
  2
RECT
 10
9.6400
 20
25.1195
 30
0.0000
 41
0.3750
 42
0.2500
 43
1.0000
 50
270.0000
  0
INSERT
  8
31
  2
RECT
 10
10.4525
 20
25.1820
 30
0.0000
 41
0.2500
 42
0.4750
 43
1.0000
 50
270.0000
  0
INSERT
  8
31
  2
RECT
 10
10.4525
 20
25.6820
 30
0.0000
 41
0.2500
 42
0.4750
 43
1.0000
 50
270.0000
  0
INSERT
  8
31
  2
RECT
 10
10.4525
 20
26.1820
 30
0.0000
 41
0.2500
 42
0.4750
 43
1.0000
 50
270.0000
  0
INSERT
  8
31
  2
RECT
 10
10.4525
 20
26.6820
 30
0.0000
 41
0.2500
 42
0.4750
 43
1.0000
 50
270.0000
  0
INSERT
  8
31
  2
RECT
 10
10.4525
 20
27.1820
 30
0.0000
 41
0.2500
 42
0.4750
 43
1.0000
 50
270.0000
  0
INSERT
  8
31
  2
RECT
 10
10.4525
 20
27.6820
 30
0.0000
 41
0.2500
 42
0.4750
 43
1.0000
 50
270.0000
  0
INSERT
  8
31
  2
RECT
 10
10.4525
 20
28.1820
 30
0.0000
 41
0.2500
 42
0.4750
 43
1.0000
 50
270.0000
  0
INSERT
  8
31
  2
RECT
 10
10.4525
 20
28.6820
 30
0.0000
 41
0.2500
 42
0.4750
 43
1.0000
 50
270.0000
  0
INSERT
  8
31
  2
RECT
 10
10.4525
 20
29.1820
 30
0.0000
 41
0.2500
 42
0.4750
 43
1.0000
 50
270.0000
  0
INSERT
  8
31
  2
RECT
 10
18.1000
 20
5.5579
 30
0.0000
 41
0.5500
 42
1.2000
 43
1.0000
 50
0.0000
  0
INSERT
  8
31
  2
RECT
 10
19.0500
 20
5.5579
 30
0.0000
 41
0.5500
 42
1.2000
 43
1.0000
 50
0.0000
  0
INSERT
  8
31
  2
RECT
 10
20.0000
 20
5.5579
 30
0.0000
 41
0.5500
 42
1.2000
 43
1.0000
 50
0.0000
  0
INSERT
  8
31
  2
RECT
 10
20.0000
 20
8.1581
 30
0.0000
 41
0.5500
 42
1.2000
 43
1.0000
 50
0.0000
  0
INSERT
  8
31
  2
RECT
 10
18.1000
 20
8.1581
 30
0.0000
 41
0.5500
 42
1.2000
 43
1.0000
 50
0.0000
  0
INSERT
  8
31
  2
RECT
 10
6.9240
 20
7.5899
 30
0.0000
 41
0.5500
 42
1.2000
 43
1.0000
 50
0.0000
  0
INSERT
  8
31
  2
RECT
 10
7.8740
 20
7.5899
 30
0.0000
 41
0.5500
 42
1.2000
 43
1.0000
 50
0.0000
  0
INSERT
  8
31
  2
RECT
 10
8.8240
 20
7.5899
 30
0.0000
 41
0.5500
 42
1.2000
 43
1.0000
 50
0.0000
  0
INSERT
  8
31
  2
RECT
 10
8.8240
 20
10.1901
 30
0.0000
 41
0.5500
 42
1.2000
 43
1.0000
 50
0.0000
  0
INSERT
  8
31
  2
RECT
 10
6.9240
 20
10.1901
 30
0.0000
 41
0.5500
 42
1.2000
 43
1.0000
 50
0.0000
  0
POLYLINE
  8
31
 66
1
 10
0.0000
 20
0.0000
 30
0.0000
 40
0.0000
 41
0.0000
 70
1
  0
VERTEX
  8
31
 10
1.2371
 20
5.2090
 30
0.0000
  0
VERTEX
  8
31
 10
1.2531
 20
5.0973
 30
0.0000
 42
1.0000
  0
VERTEX
  8
31
 10
1.3788
 20
5.1153
 30
0.0000
  0
VERTEX
  8
31
 10
1.3629
 20
5.2270
 30
0.0000
 42
1.0000
  0
SEQEND
  8
0
  0
POLYLINE
  8
31
 66
1
 10
0.0000
 20
0.0000
 30
0.0000
 40
0.0000
 41
0.0000
 70
1
  0
VERTEX
  8
31
 10
1.2560
 20
5.0852
 30
0.0000
  0
VERTEX
  8
31
 10
1.2934
 20
4.9788
 30
0.0000
 42
1.0000
  0
VERTEX
  8
31
 10
1.4132
 20
5.0209
 30
0.0000
  0
VERTEX
  8
31
 10
1.3758
 20
5.1274
 30
0.0000
 42
1.0000
  0
SEQEND
  8
0
  0
POLYLINE
  8
31
 66
1
 10
0.0000
 20
0.0000
 30
0.0000
 40
0.0000
 41
0.0000
 70
1
  0
VERTEX
  8
31
 10
1.2987
 20
4.9675
 30
0.0000
  0
VERTEX
  8
31
 10
1.3561
 20
4.8704
 30
0.0000
 42
1.0000
  0
VERTEX
  8
31
 10
1.4654
 20
4.9351
 30
0.0000
  0
VERTEX
  8
31
 10
1.4080
 20
5.0322
 30
0.0000
 42
1.0000
  0
SEQEND
  8
0
  0
POLYLINE
  8
31
 66
1
 10
0.0000
 20
0.0000
 30
0.0000
 40
0.0000
 41
0.0000
 70
1
  0
VERTEX
  8
31
 10
1.3635
 20
4.8604
 30
0.0000
  0
VERTEX
  8
31
 10
1.4388
 20
4.7764
 30
0.0000
 42
1.0000
  0
VERTEX
  8
31
 10
1.5334
 20
4.8611
 30
0.0000
  0
VERTEX
  8
31
 10
1.4581
 20
4.9451
 30
0.0000
 42
1.0000
  0
SEQEND
  8
0
  0
POLYLINE
  8
31
 66
1
 10
0.0000
 20
0.0000
 30
0.0000
 40
0.0000
 41
0.0000
 70
1
  0
VERTEX
  8
31
 10
1.4480
 20
4.7679
 30
0.0000
  0
VERTEX
  8
31
 10
1.5382
 20
4.7002
 30
0.0000
 42
1.0000
  0
VERTEX
  8
31
 10
1.6144
 20
4.8018
 30
0.0000
  0
VERTEX
  8
31
 10
1.5242
 20
4.8695
 30
0.0000
 42
1.0000
  0
SEQEND
  8
0
  0
POLYLINE
  8
31
 66
1
 10
0.0000
 20
0.0000
 30
0.0000
 40
0.0000
 41
0.0000
 70
1
  0
VERTEX
  8
31
 10
1.5489
 20
4.6938
 30
0.0000
  0
VERTEX
  8
31
 10
1.6506
 20
4.6450
 30
0.0000
 42
1.0000
  0
VERTEX
  8
31
 10
1.7055
 20
4.7595
 30
0.0000
  0
VERTEX
  8
31
 10
1.6038
 20
4.8083
 30
0.0000
 42
1.0000
  0
SEQEND
  8
0
  0
POLYLINE
  8
31
 66
1
 10
0.0000
 20
0.0000
 30
0.0000
 40
0.0000
 41
0.0000
 70
1
  0
VERTEX
  8
31
 10
1.6623
 20
4.6407
 30
0.0000
  0
VERTEX
  8
31
 10
1.7716
 20
4.6127
 30
0.0000
 42
1.0000
  0
VERTEX
  8
31
 10
1.8031
 20
4.7357
 30
0.0000
  0
VERTEX
  8
31
 10
1.6938
 20
4.7637
 30
0.0000
 42
1.0000
  0
SEQEND
  8
0
  0
POLYLINE
  8
31
 66
1
 10
0.0000
 20
0.0000
 30
0.0000
 40
0.0000
 41
0.0000
 70
1
  0
VERTEX
  8
31
 10
1.7839
 20
4.6108
 30
0.0000
  0
VERTEX
  8
31
 10
1.8965
 20
4.6046
 30
0.0000
 42
1.0000
  0
VERTEX
  8
31
 10
1.9035
 20
4.7314
 30
0.0000
  0
VERTEX
  8
31
 10
1.7908
 20
4.7376
 30
0.0000
 42
1.0000
  0
SEQEND
  8
0
  0
POLYLINE
  8
31
 66
1
 10
0.0000
 20
0.0000
 30
0.0000
 40
0.0000
 41
0.0000
 70
1
  0
VERTEX
  8
31
 10
1.9000
 20
4.6045
 30
0.0000
  0
VERTEX
  8
31
 10
3.0000
 20
4.6045
 30
0.0000
 42
1.0000
  0
VERTEX
  8
31
 10
3.0000
 20
4.7315
 30
0.0000
  0
VERTEX
  8
31
 10
1.9000
 20
4.7315
 30
0.0000
 42
1.0000
  0
SEQEND
  8
0
  0
POLYLINE
  8
31
 66
1
 10
0.0000
 20
0.0000
 30
0.0000
 40
0.0000
 41
0.0000
 70
1
  0
VERTEX
  8
31
 10
3.0035
 20
4.6046
 30
0.0000
  0
VERTEX
  8
31
 10
3.1161
 20
4.6108
 30
0.0000
 42
1.0000
  0
VERTEX
  8
31
 10
3.1092
 20
4.7376
 30
0.0000
  0
VERTEX
  8
31
 10
2.9965
 20
4.7314
 30
0.0000
 42
1.0000
  0
SEQEND
  8
0
  0
POLYLINE
  8
31
 66
1
 10
0.0000
 20
0.0000
 30
0.0000
 40
0.0000
 41
0.0000
 70
1
  0
VERTEX
  8
31
 10
3.1284
 20
4.6127
 30
0.0000
  0
VERTEX
  8
31
 10
3.2377
 20
4.6407
 30
0.0000
 42
1.0000
  0
VERTEX
  8
31
 10
3.2062
 20
4.7637
 30
0.0000
  0
VERTEX
  8
31
 10
3.0969
 20
4.7357
 30
0.0000
 42
1.0000
  0
SEQEND
  8
0
  0
POLYLINE
  8
31
 66
1
 10
0.0000
 20
0.0000
 30
0.0000
 40
0.0000
 41
0.0000
 70
1
  0
VERTEX
  8
31
 10
3.2494
 20
4.6450
 30
0.0000
  0
VERTEX
  8
31
 10
3.3511
 20
4.6938
 30
0.0000
 42
1.0000
  0
VERTEX
  8
31
 10
3.2962
 20
4.8083
 30
0.0000
  0
VERTEX
  8
31
 10
3.1945
 20
4.7595
 30
0.0000
 42
1.0000
  0
SEQEND
  8
0
  0
POLYLINE
  8
31
 66
1
 10
0.0000
 20
0.0000
 30
0.0000
 40
0.0000
 41
0.0000
 70
1
  0
VERTEX
  8
31
 10
3.3618
 20
4.7002
 30
0.0000
  0
VERTEX
  8
31
 10
3.4520
 20
4.7679
 30
0.0000
 42
1.0000
  0
VERTEX
  8
31
 10
3.3758
 20
4.8695
 30
0.0000
  0
VERTEX
  8
31
 10
3.2856
 20
4.8018
 30
0.0000
 42
1.0000
  0
SEQEND
  8
0
  0
POLYLINE
  8
31
 66
1
 10
0.0000
 20
0.0000
 30
0.0000
 40
0.0000
 41
0.0000
 70
1
  0
VERTEX
  8
31
 10
3.4612
 20
4.7764
 30
0.0000
  0
VERTEX
  8
31
 10
3.5365
 20
4.8604
 30
0.0000
 42
1.0000
  0
VERTEX
  8
31
 10
3.4419
 20
4.9451
 30
0.0000
  0
VERTEX
  8
31
 10
3.3666
 20
4.8611
 30
0.0000
 42
1.0000
  0
SEQEND
  8
0
  0
POLYLINE
  8
31
 66
1
 10
0.0000
 20
0.0000
 30
0.0000
 40
0.0000
 41
0.0000
 70
1
  0
VERTEX
  8
31
 10
3.5439
 20
4.8704
 30
0.0000
  0
VERTEX
  8
31
 10
3.6013
 20
4.9675
 30
0.0000
 42
1.0000
  0
VERTEX
  8
31
 10
3.4920
 20
5.0322
 30
0.0000
  0
VERTEX
  8
31
 10
3.4346
 20
4.9351
 30
0.0000
 42
1.0000
  0
SEQEND
  8
0
  0
POLYLINE
  8
31
 66
1
 10
0.0000
 20
0.0000
 30
0.0000
 40
0.0000
 41
0.0000
 70
1
  0
VERTEX
  8
31
 10
3.6066
 20
4.9788
 30
0.0000
  0
VERTEX
  8
31
 10
3.6440
 20
5.0852
 30
0.0000
 42
1.0000
  0
VERTEX
  8
31
 10
3.5242
 20
5.1274
 30
0.0000
  0
VERTEX
  8
31
 10
3.4868
 20
5.0209
 30
0.0000
 42
1.0000
  0
SEQEND
  8
0
  0
POLYLINE
  8
31
 66
1
 10
0.0000
 20
0.0000
 30
0.0000
 40
0.0000
 41
0.0000
 70
1
  0
VERTEX
  8
31
 10
3.6469
 20
5.0973
 30
0.0000
  0
VERTEX
  8
31
 10
3.6629
 20
5.2090
 30
0.0000
 42
1.0000
  0
VERTEX
  8
31
 10
3.5371
 20
5.2270
 30
0.0000
  0
VERTEX
  8
31
 10
3.5212
 20
5.1153
 30
0.0000
 42
1.0000
  0
SEQEND
  8
0
  0
POLYLINE
  8
31
 66
1
 10
0.0000
 20
0.0000
 30
0.0000
 40
0.0000
 41
0.0000
 70
1
  0
VERTEX
  8
31
 10
3.6627
 20
5.2278
 30
0.0000
  0
VERTEX
  8
31
 10
3.6428
 20
5.3552
 30
0.0000
 42
1.0000
  0
VERTEX
  8
31
 10
3.5173
 20
5.3355
 30
0.0000
  0
VERTEX
  8
31
 10
3.5373
 20
5.2082
 30
0.0000
 42
1.0000
  0
SEQEND
  8
0
  0
POLYLINE
  8
31
 66
1
 10
0.0000
 20
0.0000
 30
0.0000
 40
0.0000
 41
0.0000
 70
1
  0
VERTEX
  8
31
 10
3.6390
 20
5.3689
 30
0.0000
  0
VERTEX
  8
31
 10
3.5912
 20
5.4886
 30
0.0000
 42
1.0000
  0
VERTEX
  8
31
 10
3.4732
 20
5.4414
 30
0.0000
  0
VERTEX
  8
31
 10
3.5211
 20
5.3218
 30
0.0000
 42
1.0000
  0
SEQEND
  8
0
  0
POLYLINE
  8
31
 66
1
 10
0.0000
 20
0.0000
 30
0.0000
 40
0.0000
 41
0.0000
 70
1
  0
VERTEX
  8
31
 10
3.5845
 20
5.5011
 30
0.0000
  0
VERTEX
  8
31
 10
3.5112
 20
5.6071
 30
0.0000
 42
1.0000
  0
VERTEX
  8
31
 10
3.4067
 20
5.5350
 30
0.0000
  0
VERTEX
  8
31
 10
3.4800
 20
5.4289
 30
0.0000
 42
1.0000
  0
SEQEND
  8
0
  0
POLYLINE
  8
31
 66
1
 10
0.0000
 20
0.0000
 30
0.0000
 40
0.0000
 41
0.0000
 70
1
  0
VERTEX
  8
31
 10
3.5019
 20
5.6179
 30
0.0000
  0
VERTEX
  8
31
 10
3.4069
 20
5.7050
 30
0.0000
 42
1.0000
  0
VERTEX
  8
31
 10
3.3211
 20
5.6113
 30
0.0000
  0
VERTEX
  8
31
 10
3.4161
 20
5.5242
 30
0.0000
 42
1.0000
  0
SEQEND
  8
0
  0
POLYLINE
  8
31
 66
1
 10
0.0000
 20
0.0000
 30
0.0000
 40
0.0000
 41
0.0000
 70
1
  0
VERTEX
  8
31
 10
3.3954
 20
5.7133
 30
0.0000
  0
VERTEX
  8
31
 10
3.2834
 20
5.7771
 30
0.0000
 42
1.0000
  0
VERTEX
  8
31
 10
3.2205
 20
5.6667
 30
0.0000
  0
VERTEX
  8
31
 10
3.3325
 20
5.6030
 30
0.0000
 42
1.0000
  0
SEQEND
  8
0
  0
POLYLINE
  8
31
 66
1
 10
0.0000
 20
0.0000
 30
0.0000
 40
0.0000
 41
0.0000
 70
1
  0
VERTEX
  8
31
 10
3.2703
 20
5.7827
 30
0.0000
  0
VERTEX
  8
31
 10
3.1469
 20
5.8199
 30
0.0000
 42
1.0000
  0
VERTEX
  8
31
 10
3.1102
 20
5.6984
 30
0.0000
  0
VERTEX
  8
31
 10
3.2336
 20
5.6611
 30
0.0000
 42
1.0000
  0
SEQEND
  8
0
  0
POLYLINE
  8
31
 66
1
 10
0.0000
 20
0.0000
 30
0.0000
 40
0.0000
 41
0.0000
 70
1
  0
VERTEX
  8
31
 10
3.1329
 20
5.8225
 30
0.0000
  0
VERTEX
  8
31
 10
3.0044
 20
5.8314
 30
0.0000
 42
1.0000
  0
VERTEX
  8
31
 10
2.9956
 20
5.7046
 30
0.0000
  0
VERTEX
  8
31
 10
3.1242
 20
5.6958
 30
0.0000
 42
1.0000
  0
SEQEND
  8
0
  0
POLYLINE
  8
31
 66
1
 10
0.0000
 20
0.0000
 30
0.0000
 40
0.0000
 41
0.0000
 70
1
  0
VERTEX
  8
31
 10
3.0000
 20
5.8315
 30
0.0000
  0
VERTEX
  8
31
 10
1.9000
 20
5.8315
 30
0.0000
 42
1.0000
  0
VERTEX
  8
31
 10
1.9000
 20
5.7045
 30
0.0000
  0
VERTEX
  8
31
 10
3.0000
 20
5.7045
 30
0.0000
 42
1.0000
  0
SEQEND
  8
0
  0
POLYLINE
  8
31
 66
1
 10
0.0000
 20
0.0000
 30
0.0000
 40
0.0000
 41
0.0000
 70
1
  0
VERTEX
  8
31
 10
1.8965
 20
5.8314
 30
0.0000
  0
VERTEX
  8
31
 10
1.7839
 20
5.8252
 30
0.0000
 42
1.0000
  0
VERTEX
  8
31
 10
1.7908
 20
5.6984
 30
0.0000
  0
VERTEX
  8
31
 10
1.9035
 20
5.7046
 30
0.0000
 42
1.0000
  0
SEQEND
  8
0
  0
POLYLINE
  8
31
 66
1
 10
0.0000
 20
0.0000
 30
0.0000
 40
0.0000
 41
0.0000
 70
1
  0
VERTEX
  8
31
 10
1.7716
 20
5.8233
 30
0.0000
  0
VERTEX
  8
31
 10
1.6623
 20
5.7953
 30
0.0000
 42
1.0000
  0
VERTEX
  8
31
 10
1.6938
 20
5.6723
 30
0.0000
  0
VERTEX
  8
31
 10
1.8031
 20
5.7003
 30
0.0000
 42
1.0000
  0
SEQEND
  8
0
  0
POLYLINE
  8
31
 66
1
 10
0.0000
 20
0.0000
 30
0.0000
 40
0.0000
 41
0.0000
 70
1
  0
VERTEX
  8
31
 10
1.6506
 20
5.7910
 30
0.0000
  0
VERTEX
  8
31
 10
1.5489
 20
5.7422
 30
0.0000
 42
1.0000
  0
VERTEX
  8
31
 10
1.6038
 20
5.6277
 30
0.0000
  0
VERTEX
  8
31
 10
1.7055
 20
5.6765
 30
0.0000
 42
1.0000
  0
SEQEND
  8
0
  0
POLYLINE
  8
31
 66
1
 10
0.0000
 20
0.0000
 30
0.0000
 40
0.0000
 41
0.0000
 70
1
  0
VERTEX
  8
31
 10
1.5382
 20
5.7358
 30
0.0000
  0
VERTEX
  8
31
 10
1.4480
 20
5.6681
 30
0.0000
 42
1.0000
  0
VERTEX
  8
31
 10
1.5242
 20
5.5665
 30
0.0000
  0
VERTEX
  8
31
 10
1.6144
 20
5.6342
 30
0.0000
 42
1.0000
  0
SEQEND
  8
0
  0
POLYLINE
  8
31
 66
1
 10
0.0000
 20
0.0000
 30
0.0000
 40
0.0000
 41
0.0000
 70
1
  0
VERTEX
  8
31
 10
1.4388
 20
5.6596
 30
0.0000
  0
VERTEX
  8
31
 10
1.3635
 20
5.5756
 30
0.0000
 42
1.0000
  0
VERTEX
  8
31
 10
1.4581
 20
5.4909
 30
0.0000
  0
VERTEX
  8
31
 10
1.5334
 20
5.5749
 30
0.0000
 42
1.0000
  0
SEQEND
  8
0
  0
POLYLINE
  8
31
 66
1
 10
0.0000
 20
0.0000
 30
0.0000
 40
0.0000
 41
0.0000
 70
1
  0
VERTEX
  8
31
 10
1.3561
 20
5.5656
 30
0.0000
  0
VERTEX
  8
31
 10
1.2987
 20
5.4685
 30
0.0000
 42
1.0000
  0
VERTEX
  8
31
 10
1.4080
 20
5.4038
 30
0.0000
  0
VERTEX
  8
31
 10
1.4654
 20
5.5009
 30
0.0000
 42
1.0000
  0
SEQEND
  8
0
  0
POLYLINE
  8
31
 66
1
 10
0.0000
 20
0.0000
 30
0.0000
 40
0.0000
 41
0.0000
 70
1
  0
VERTEX
  8
31
 10
1.2934
 20
5.4572
 30
0.0000
  0
VERTEX
  8
31
 10
1.2560
 20
5.3508
 30
0.0000
 42
1.0000
  0
VERTEX
  8
31
 10
1.3758
 20
5.3086
 30
0.0000
  0
VERTEX
  8
31
 10
1.4132
 20
5.4151
 30
0.0000
 42
1.0000
  0
SEQEND
  8
0
  0
POLYLINE
  8
31
 66
1
 10
0.0000
 20
0.0000
 30
0.0000
 40
0.0000
 41
0.0000
 70
1
  0
VERTEX
  8
31
 10
1.2531
 20
5.3387
 30
0.0000
  0
VERTEX
  8
31
 10
1.2371
 20
5.2270
 30
0.0000
 42
1.0000
  0
VERTEX
  8
31
 10
1.3629
 20
5.2090
 30
0.0000
  0
VERTEX
  8
31
 10
1.3788
 20
5.3207
 30
0.0000
 42
1.0000
  0
SEQEND
  8
0
  0
POLYLINE
  8
31
 66
1
 10
0.0000
 20
0.0000
 30
0.0000
 40
0.0000
 41
0.0000
 70
1
  0
VERTEX
  8
31
 10
1.6905
 20
4.6355
 30
0.0000
  0
VERTEX
  8
31
 10
3.2095
 20
4.6355
 30
0.0000
 42
1.0000
  0
VERTEX
  8
31
 10
3.2095
 20
4.7625
 30
0.0000
  0
VERTEX
  8
31
 10
1.6905
 20
4.7625
 30
0.0000
 42
1.0000
  0
SEQEND
  8
0
  0
POLYLINE
  8
31
 66
1
 10
0.0000
 20
0.0000
 30
0.0000
 40
0.0000
 41
0.0000
 70
1
  0
VERTEX
  8
31
 10
1.4796
 20
4.7625
 30
0.0000
  0
VERTEX
  8
31
 10
3.4204
 20
4.7625
 30
0.0000
 42
1.0000
  0
VERTEX
  8
31
 10
3.4204
 20
4.8895
 30
0.0000
  0
VERTEX
  8
31
 10
1.4796
 20
4.8895
 30
0.0000
 42
1.0000
  0
SEQEND
  8
0
  0
POLYLINE
  8
31
 66
1
 10
0.0000
 20
0.0000
 30
0.0000
 40
0.0000
 41
0.0000
 70
1
  0
VERTEX
  8
31
 10
1.3811
 20
4.8895
 30
0.0000
  0
VERTEX
  8
31
 10
3.5189
 20
4.8895
 30
0.0000
 42
1.0000
  0
VERTEX
  8
31
 10
3.5189
 20
5.0165
 30
0.0000
  0
VERTEX
  8
31
 10
1.3811
 20
5.0165
 30
0.0000
 42
1.0000
  0
SEQEND
  8
0
  0
POLYLINE
  8
31
 66
1
 10
0.0000
 20
0.0000
 30
0.0000
 40
0.0000
 41
0.0000
 70
1
  0
VERTEX
  8
31
 10
1.3252
 20
5.0165
 30
0.0000
  0
VERTEX
  8
31
 10
3.5748
 20
5.0165
 30
0.0000
 42
1.0000
  0
VERTEX
  8
31
 10
3.5748
 20
5.1435
 30
0.0000
  0
VERTEX
  8
31
 10
1.3252
 20
5.1435
 30
0.0000
 42
1.0000
  0
SEQEND
  8
0
  0
POLYLINE
  8
31
 66
1
 10
0.0000
 20
0.0000
 30
0.0000
 40
0.0000
 41
0.0000
 70
1
  0
VERTEX
  8
31
 10
1.3016
 20
5.1435
 30
0.0000
  0
VERTEX
  8
31
 10
3.5984
 20
5.1435
 30
0.0000
 42
1.0000
  0
VERTEX
  8
31
 10
3.5984
 20
5.2705
 30
0.0000
  0
VERTEX
  8
31
 10
1.3016
 20
5.2705
 30
0.0000
 42
1.0000
  0
SEQEND
  8
0
  0
POLYLINE
  8
31
 66
1
 10
0.0000
 20
0.0000
 30
0.0000
 40
0.0000
 41
0.0000
 70
1
  0
VERTEX
  8
31
 10
1.3174
 20
5.2705
 30
0.0000
  0
VERTEX
  8
31
 10
3.5818
 20
5.2705
 30
0.0000
 42
1.0000
  0
VERTEX
  8
31
 10
3.5818
 20
5.3975
 30
0.0000
  0
VERTEX
  8
31
 10
1.3174
 20
5.3975
 30
0.0000
 42
1.0000
  0
SEQEND
  8
0
  0
POLYLINE
  8
31
 66
1
 10
0.0000
 20
0.0000
 30
0.0000
 40
0.0000
 41
0.0000
 70
1
  0
VERTEX
  8
31
 10
1.3680
 20
5.3975
 30
0.0000
  0
VERTEX
  8
31
 10
3.5338
 20
5.3975
 30
0.0000
 42
1.0000
  0
VERTEX
  8
31
 10
3.5338
 20
5.5245
 30
0.0000
  0
VERTEX
  8
31
 10
1.3680
 20
5.5245
 30
0.0000
 42
1.0000
  0
SEQEND
  8
0
  0
POLYLINE
  8
31
 66
1
 10
0.0000
 20
0.0000
 30
0.0000
 40
0.0000
 41
0.0000
 70
1
  0
VERTEX
  8
31
 10
1.4599
 20
5.5245
 30
0.0000
  0
VERTEX
  8
31
 10
3.4405
 20
5.5245
 30
0.0000
 42
1.0000
  0
VERTEX
  8
31
 10
3.4405
 20
5.6515
 30
0.0000
  0
VERTEX
  8
31
 10
1.4599
 20
5.6515
 30
0.0000
 42
1.0000
  0
SEQEND
  8
0
  0
POLYLINE
  8
31
 66
1
 10
0.0000
 20
0.0000
 30
0.0000
 40
0.0000
 41
0.0000
 70
1
  0
VERTEX
  8
31
 10
1.6389
 20
5.6515
 30
0.0000
  0
VERTEX
  8
31
 10
3.2641
 20
5.6515
 30
0.0000
 42
1.0000
  0
VERTEX
  8
31
 10
3.2641
 20
5.7785
 30
0.0000
  0
VERTEX
  8
31
 10
1.6389
 20
5.7785
 30
0.0000
 42
1.0000
  0
SEQEND
  8
0
  0
POLYLINE
  8
31
 66
1
 10
0.0000
 20
0.0000
 30
0.0000
 40
0.0000
 41
0.0000
 70
1
  0
VERTEX
  8
31
 10
9.0371
 20
5.2090
 30
0.0000
  0
VERTEX
  8
31
 10
9.0531
 20
5.0973
 30
0.0000
 42
1.0000
  0
VERTEX
  8
31
 10
9.1788
 20
5.1153
 30
0.0000
  0
VERTEX
  8
31
 10
9.1629
 20
5.2270
 30
0.0000
 42
1.0000
  0
SEQEND
  8
0
  0
POLYLINE
  8
31
 66
1
 10
0.0000
 20
0.0000
 30
0.0000
 40
0.0000
 41
0.0000
 70
1
  0
VERTEX
  8
31
 10
9.0560
 20
5.0852
 30
0.0000
  0
VERTEX
  8
31
 10
9.0934
 20
4.9788
 30
0.0000
 42
1.0000
  0
VERTEX
  8
31
 10
9.2132
 20
5.0209
 30
0.0000
  0
VERTEX
  8
31
 10
9.1758
 20
5.1274
 30
0.0000
 42
1.0000
  0
SEQEND
  8
0
  0
POLYLINE
  8
31
 66
1
 10
0.0000
 20
0.0000
 30
0.0000
 40
0.0000
 41
0.0000
 70
1
  0
VERTEX
  8
31
 10
9.0987
 20
4.9675
 30
0.0000
  0
VERTEX
  8
31
 10
9.1561
 20
4.8704
 30
0.0000
 42
1.0000
  0
VERTEX
  8
31
 10
9.2654
 20
4.9351
 30
0.0000
  0
VERTEX
  8
31
 10
9.2080
 20
5.0322
 30
0.0000
 42
1.0000
  0
SEQEND
  8
0
  0
POLYLINE
  8
31
 66
1
 10
0.0000
 20
0.0000
 30
0.0000
 40
0.0000
 41
0.0000
 70
1
  0
VERTEX
  8
31
 10
9.1635
 20
4.8604
 30
0.0000
  0
VERTEX
  8
31
 10
9.2388
 20
4.7764
 30
0.0000
 42
1.0000
  0
VERTEX
  8
31
 10
9.3334
 20
4.8611
 30
0.0000
  0
VERTEX
  8
31
 10
9.2581
 20
4.9451
 30
0.0000
 42
1.0000
  0
SEQEND
  8
0
  0
POLYLINE
  8
31
 66
1
 10
0.0000
 20
0.0000
 30
0.0000
 40
0.0000
 41
0.0000
 70
1
  0
VERTEX
  8
31
 10
9.2480
 20
4.7679
 30
0.0000
  0
VERTEX
  8
31
 10
9.3382
 20
4.7002
 30
0.0000
 42
1.0000
  0
VERTEX
  8
31
 10
9.4144
 20
4.8018
 30
0.0000
  0
VERTEX
  8
31
 10
9.3242
 20
4.8695
 30
0.0000
 42
1.0000
  0
SEQEND
  8
0
  0
POLYLINE
  8
31
 66
1
 10
0.0000
 20
0.0000
 30
0.0000
 40
0.0000
 41
0.0000
 70
1
  0
VERTEX
  8
31
 10
9.3489
 20
4.6938
 30
0.0000
  0
VERTEX
  8
31
 10
9.4506
 20
4.6450
 30
0.0000
 42
1.0000
  0
VERTEX
  8
31
 10
9.5055
 20
4.7595
 30
0.0000
  0
VERTEX
  8
31
 10
9.4038
 20
4.8083
 30
0.0000
 42
1.0000
  0
SEQEND
  8
0
  0
POLYLINE
  8
31
 66
1
 10
0.0000
 20
0.0000
 30
0.0000
 40
0.0000
 41
0.0000
 70
1
  0
VERTEX
  8
31
 10
9.4623
 20
4.6407
 30
0.0000
  0
VERTEX
  8
31
 10
9.5716
 20
4.6127
 30
0.0000
 42
1.0000
  0
VERTEX
  8
31
 10
9.6031
 20
4.7357
 30
0.0000
  0
VERTEX
  8
31
 10
9.4938
 20
4.7637
 30
0.0000
 42
1.0000
  0
SEQEND
  8
0
  0
POLYLINE
  8
31
 66
1
 10
0.0000
 20
0.0000
 30
0.0000
 40
0.0000
 41
0.0000
 70
1
  0
VERTEX
  8
31
 10
9.5839
 20
4.6108
 30
0.0000
  0
VERTEX
  8
31
 10
9.6965
 20
4.6046
 30
0.0000
 42
1.0000
  0
VERTEX
  8
31
 10
9.7035
 20
4.7314
 30
0.0000
  0
VERTEX
  8
31
 10
9.5908
 20
4.7376
 30
0.0000
 42
1.0000
  0
SEQEND
  8
0
  0
POLYLINE
  8
31
 66
1
 10
0.0000
 20
0.0000
 30
0.0000
 40
0.0000
 41
0.0000
 70
1
  0
VERTEX
  8
31
 10
9.7000
 20
4.6045
 30
0.0000
  0
VERTEX
  8
31
 10
10.8000
 20
4.6045
 30
0.0000
 42
1.0000
  0
VERTEX
  8
31
 10
10.8000
 20
4.7315
 30
0.0000
  0
VERTEX
  8
31
 10
9.7000
 20
4.7315
 30
0.0000
 42
1.0000
  0
SEQEND
  8
0
  0
POLYLINE
  8
31
 66
1
 10
0.0000
 20
0.0000
 30
0.0000
 40
0.0000
 41
0.0000
 70
1
  0
VERTEX
  8
31
 10
10.8035
 20
4.6046
 30
0.0000
  0
VERTEX
  8
31
 10
10.9161
 20
4.6108
 30
0.0000
 42
1.0000
  0
VERTEX
  8
31
 10
10.9092
 20
4.7376
 30
0.0000
  0
VERTEX
  8
31
 10
10.7965
 20
4.7314
 30
0.0000
 42
1.0000
  0
SEQEND
  8
0
  0
POLYLINE
  8
31
 66
1
 10
0.0000
 20
0.0000
 30
0.0000
 40
0.0000
 41
0.0000
 70
1
  0
VERTEX
  8
31
 10
10.9284
 20
4.6127
 30
0.0000
  0
VERTEX
  8
31
 10
11.0377
 20
4.6407
 30
0.0000
 42
1.0000
  0
VERTEX
  8
31
 10
11.0062
 20
4.7637
 30
0.0000
  0
VERTEX
  8
31
 10
10.8969
 20
4.7357
 30
0.0000
 42
1.0000
  0
SEQEND
  8
0
  0
POLYLINE
  8
31
 66
1
 10
0.0000
 20
0.0000
 30
0.0000
 40
0.0000
 41
0.0000
 70
1
  0
VERTEX
  8
31
 10
11.0494
 20
4.6450
 30
0.0000
  0
VERTEX
  8
31
 10
11.1511
 20
4.6938
 30
0.0000
 42
1.0000
  0
VERTEX
  8
31
 10
11.0962
 20
4.8083
 30
0.0000
  0
VERTEX
  8
31
 10
10.9945
 20
4.7595
 30
0.0000
 42
1.0000
  0
SEQEND
  8
0
  0
POLYLINE
  8
31
 66
1
 10
0.0000
 20
0.0000
 30
0.0000
 40
0.0000
 41
0.0000
 70
1
  0
VERTEX
  8
31
 10
11.1618
 20
4.7002
 30
0.0000
  0
VERTEX
  8
31
 10
11.2520
 20
4.7679
 30
0.0000
 42
1.0000
  0
VERTEX
  8
31
 10
11.1758
 20
4.8695
 30
0.0000
  0
VERTEX
  8
31
 10
11.0856
 20
4.8018
 30
0.0000
 42
1.0000
  0
SEQEND
  8
0
  0
POLYLINE
  8
31
 66
1
 10
0.0000
 20
0.0000
 30
0.0000
 40
0.0000
 41
0.0000
 70
1
  0
VERTEX
  8
31
 10
11.2612
 20
4.7764
 30
0.0000
  0
VERTEX
  8
31
 10
11.3365
 20
4.8604
 30
0.0000
 42
1.0000
  0
VERTEX
  8
31
 10
11.2419
 20
4.9451
 30
0.0000
  0
VERTEX
  8
31
 10
11.1666
 20
4.8611
 30
0.0000
 42
1.0000
  0
SEQEND
  8
0
  0
POLYLINE
  8
31
 66
1
 10
0.0000
 20
0.0000
 30
0.0000
 40
0.0000
 41
0.0000
 70
1
  0
VERTEX
  8
31
 10
11.3439
 20
4.8704
 30
0.0000
  0
VERTEX
  8
31
 10
11.4013
 20
4.9675
 30
0.0000
 42
1.0000
  0
VERTEX
  8
31
 10
11.2920
 20
5.0322
 30
0.0000
  0
VERTEX
  8
31
 10
11.2346
 20
4.9351
 30
0.0000
 42
1.0000
  0
SEQEND
  8
0
  0
POLYLINE
  8
31
 66
1
 10
0.0000
 20
0.0000
 30
0.0000
 40
0.0000
 41
0.0000
 70
1
  0
VERTEX
  8
31
 10
11.4066
 20
4.9788
 30
0.0000
  0
VERTEX
  8
31
 10
11.4440
 20
5.0852
 30
0.0000
 42
1.0000
  0
VERTEX
  8
31
 10
11.3242
 20
5.1274
 30
0.0000
  0
VERTEX
  8
31
 10
11.2868
 20
5.0209
 30
0.0000
 42
1.0000
  0
SEQEND
  8
0
  0
POLYLINE
  8
31
 66
1
 10
0.0000
 20
0.0000
 30
0.0000
 40
0.0000
 41
0.0000
 70
1
  0
VERTEX
  8
31
 10
11.4469
 20
5.0973
 30
0.0000
  0
VERTEX
  8
31
 10
11.4629
 20
5.2090
 30
0.0000
 42
1.0000
  0
VERTEX
  8
31
 10
11.3371
 20
5.2270
 30
0.0000
  0
VERTEX
  8
31
 10
11.3212
 20
5.1153
 30
0.0000
 42
1.0000
  0
SEQEND
  8
0
  0
POLYLINE
  8
31
 66
1
 10
0.0000
 20
0.0000
 30
0.0000
 40
0.0000
 41
0.0000
 70
1
  0
VERTEX
  8
31
 10
11.4627
 20
5.2278
 30
0.0000
  0
VERTEX
  8
31
 10
11.4428
 20
5.3552
 30
0.0000
 42
1.0000
  0
VERTEX
  8
31
 10
11.3173
 20
5.3355
 30
0.0000
  0
VERTEX
  8
31
 10
11.3373
 20
5.2082
 30
0.0000
 42
1.0000
  0
SEQEND
  8
0
  0
POLYLINE
  8
31
 66
1
 10
0.0000
 20
0.0000
 30
0.0000
 40
0.0000
 41
0.0000
 70
1
  0
VERTEX
  8
31
 10
11.4390
 20
5.3689
 30
0.0000
  0
VERTEX
  8
31
 10
11.3912
 20
5.4886
 30
0.0000
 42
1.0000
  0
VERTEX
  8
31
 10
11.2732
 20
5.4414
 30
0.0000
  0
VERTEX
  8
31
 10
11.3211
 20
5.3218
 30
0.0000
 42
1.0000
  0
SEQEND
  8
0
  0
POLYLINE
  8
31
 66
1
 10
0.0000
 20
0.0000
 30
0.0000
 40
0.0000
 41
0.0000
 70
1
  0
VERTEX
  8
31
 10
11.3845
 20
5.5011
 30
0.0000
  0
VERTEX
  8
31
 10
11.3112
 20
5.6071
 30
0.0000
 42
1.0000
  0
VERTEX
  8
31
 10
11.2067
 20
5.5350
 30
0.0000
  0
VERTEX
  8
31
 10
11.2800
 20
5.4289
 30
0.0000
 42
1.0000
  0
SEQEND
  8
0
  0
POLYLINE
  8
31
 66
1
 10
0.0000
 20
0.0000
 30
0.0000
 40
0.0000
 41
0.0000
 70
1
  0
VERTEX
  8
31
 10
11.3019
 20
5.6179
 30
0.0000
  0
VERTEX
  8
31
 10
11.2069
 20
5.7050
 30
0.0000
 42
1.0000
  0
VERTEX
  8
31
 10
11.1211
 20
5.6113
 30
0.0000
  0
VERTEX
  8
31
 10
11.2161
 20
5.5242
 30
0.0000
 42
1.0000
  0
SEQEND
  8
0
  0
POLYLINE
  8
31
 66
1
 10
0.0000
 20
0.0000
 30
0.0000
 40
0.0000
 41
0.0000
 70
1
  0
VERTEX
  8
31
 10
11.1954
 20
5.7133
 30
0.0000
  0
VERTEX
  8
31
 10
11.0834
 20
5.7771
 30
0.0000
 42
1.0000
  0
VERTEX
  8
31
 10
11.0205
 20
5.6667
 30
0.0000
  0
VERTEX
  8
31
 10
11.1325
 20
5.6030
 30
0.0000
 42
1.0000
  0
SEQEND
  8
0
  0
POLYLINE
  8
31
 66
1
 10
0.0000
 20
0.0000
 30
0.0000
 40
0.0000
 41
0.0000
 70
1
  0
VERTEX
  8
31
 10
11.0703
 20
5.7827
 30
0.0000
  0
VERTEX
  8
31
 10
10.9469
 20
5.8199
 30
0.0000
 42
1.0000
  0
VERTEX
  8
31
 10
10.9102
 20
5.6984
 30
0.0000
  0
VERTEX
  8
31
 10
11.0336
 20
5.6611
 30
0.0000
 42
1.0000
  0
SEQEND
  8
0
  0
POLYLINE
  8
31
 66
1
 10
0.0000
 20
0.0000
 30
0.0000
 40
0.0000
 41
0.0000
 70
1
  0
VERTEX
  8
31
 10
10.9329
 20
5.8225
 30
0.0000
  0
VERTEX
  8
31
 10
10.8044
 20
5.8314
 30
0.0000
 42
1.0000
  0
VERTEX
  8
31
 10
10.7956
 20
5.7046
 30
0.0000
  0
VERTEX
  8
31
 10
10.9242
 20
5.6958
 30
0.0000
 42
1.0000
  0
SEQEND
  8
0
  0
POLYLINE
  8
31
 66
1
 10
0.0000
 20
0.0000
 30
0.0000
 40
0.0000
 41
0.0000
 70
1
  0
VERTEX
  8
31
 10
10.8000
 20
5.8315
 30
0.0000
  0
VERTEX
  8
31
 10
9.7000
 20
5.8315
 30
0.0000
 42
1.0000
  0
VERTEX
  8
31
 10
9.7000
 20
5.7045
 30
0.0000
  0
VERTEX
  8
31
 10
10.8000
 20
5.7045
 30
0.0000
 42
1.0000
  0
SEQEND
  8
0
  0
POLYLINE
  8
31
 66
1
 10
0.0000
 20
0.0000
 30
0.0000
 40
0.0000
 41
0.0000
 70
1
  0
VERTEX
  8
31
 10
9.6965
 20
5.8314
 30
0.0000
  0
VERTEX
  8
31
 10
9.5839
 20
5.8252
 30
0.0000
 42
1.0000
  0
VERTEX
  8
31
 10
9.5908
 20
5.6984
 30
0.0000
  0
VERTEX
  8
31
 10
9.7035
 20
5.7046
 30
0.0000
 42
1.0000
  0
SEQEND
  8
0
  0
POLYLINE
  8
31
 66
1
 10
0.0000
 20
0.0000
 30
0.0000
 40
0.0000
 41
0.0000
 70
1
  0
VERTEX
  8
31
 10
9.5716
 20
5.8233
 30
0.0000
  0
VERTEX
  8
31
 10
9.4623
 20
5.7953
 30
0.0000
 42
1.0000
  0
VERTEX
  8
31
 10
9.4938
 20
5.6723
 30
0.0000
  0
VERTEX
  8
31
 10
9.6031
 20
5.7003
 30
0.0000
 42
1.0000
  0
SEQEND
  8
0
  0
POLYLINE
  8
31
 66
1
 10
0.0000
 20
0.0000
 30
0.0000
 40
0.0000
 41
0.0000
 70
1
  0
VERTEX
  8
31
 10
9.4506
 20
5.7910
 30
0.0000
  0
VERTEX
  8
31
 10
9.3489
 20
5.7422
 30
0.0000
 42
1.0000
  0
VERTEX
  8
31
 10
9.4038
 20
5.6277
 30
0.0000
  0
VERTEX
  8
31
 10
9.5055
 20
5.6765
 30
0.0000
 42
1.0000
  0
SEQEND
  8
0
  0
POLYLINE
  8
31
 66
1
 10
0.0000
 20
0.0000
 30
0.0000
 40
0.0000
 41
0.0000
 70
1
  0
VERTEX
  8
31
 10
9.3382
 20
5.7358
 30
0.0000
  0
VERTEX
  8
31
 10
9.2480
 20
5.6681
 30
0.0000
 42
1.0000
  0
VERTEX
  8
31
 10
9.3242
 20
5.5665
 30
0.0000
  0
VERTEX
  8
31
 10
9.4144
 20
5.6342
 30
0.0000
 42
1.0000
  0
SEQEND
  8
0
  0
POLYLINE
  8
31
 66
1
 10
0.0000
 20
0.0000
 30
0.0000
 40
0.0000
 41
0.0000
 70
1
  0
VERTEX
  8
31
 10
9.2388
 20
5.6596
 30
0.0000
  0
VERTEX
  8
31
 10
9.1635
 20
5.5756
 30
0.0000
 42
1.0000
  0
VERTEX
  8
31
 10
9.2581
 20
5.4909
 30
0.0000
  0
VERTEX
  8
31
 10
9.3334
 20
5.5749
 30
0.0000
 42
1.0000
  0
SEQEND
  8
0
  0
POLYLINE
  8
31
 66
1
 10
0.0000
 20
0.0000
 30
0.0000
 40
0.0000
 41
0.0000
 70
1
  0
VERTEX
  8
31
 10
9.1561
 20
5.5656
 30
0.0000
  0
VERTEX
  8
31
 10
9.0987
 20
5.4685
 30
0.0000
 42
1.0000
  0
VERTEX
  8
31
 10
9.2080
 20
5.4038
 30
0.0000
  0
VERTEX
  8
31
 10
9.2654
 20
5.5009
 30
0.0000
 42
1.0000
  0
SEQEND
  8
0
  0
POLYLINE
  8
31
 66
1
 10
0.0000
 20
0.0000
 30
0.0000
 40
0.0000
 41
0.0000
 70
1
  0
VERTEX
  8
31
 10
9.0934
 20
5.4572
 30
0.0000
  0
VERTEX
  8
31
 10
9.0560
 20
5.3508
 30
0.0000
 42
1.0000
  0
VERTEX
  8
31
 10
9.1758
 20
5.3086
 30
0.0000
  0
VERTEX
  8
31
 10
9.2132
 20
5.4151
 30
0.0000
 42
1.0000
  0
SEQEND
  8
0
  0
POLYLINE
  8
31
 66
1
 10
0.0000
 20
0.0000
 30
0.0000
 40
0.0000
 41
0.0000
 70
1
  0
VERTEX
  8
31
 10
9.0531
 20
5.3387
 30
0.0000
  0
VERTEX
  8
31
 10
9.0371
 20
5.2270
 30
0.0000
 42
1.0000
  0
VERTEX
  8
31
 10
9.1629
 20
5.2090
 30
0.0000
  0
VERTEX
  8
31
 10
9.1788
 20
5.3207
 30
0.0000
 42
1.0000
  0
SEQEND
  8
0
  0
POLYLINE
  8
31
 66
1
 10
0.0000
 20
0.0000
 30
0.0000
 40
0.0000
 41
0.0000
 70
1
  0
VERTEX
  8
31
 10
9.4905
 20
4.6355
 30
0.0000
  0
VERTEX
  8
31
 10
11.0095
 20
4.6355
 30
0.0000
 42
1.0000
  0
VERTEX
  8
31
 10
11.0095
 20
4.7625
 30
0.0000
  0
VERTEX
  8
31
 10
9.4905
 20
4.7625
 30
0.0000
 42
1.0000
  0
SEQEND
  8
0
  0
POLYLINE
  8
31
 66
1
 10
0.0000
 20
0.0000
 30
0.0000
 40
0.0000
 41
0.0000
 70
1
  0
VERTEX
  8
31
 10
9.2796
 20
4.7625
 30
0.0000
  0
VERTEX
  8
31
 10
11.2204
 20
4.7625
 30
0.0000
 42
1.0000
  0
VERTEX
  8
31
 10
11.2204
 20
4.8895
 30
0.0000
  0
VERTEX
  8
31
 10
9.2796
 20
4.8895
 30
0.0000
 42
1.0000
  0
SEQEND
  8
0
  0
POLYLINE
  8
31
 66
1
 10
0.0000
 20
0.0000
 30
0.0000
 40
0.0000
 41
0.0000
 70
1
  0
VERTEX
  8
31
 10
9.1811
 20
4.8895
 30
0.0000
  0
VERTEX
  8
31
 10
11.3189
 20
4.8895
 30
0.0000
 42
1.0000
  0
VERTEX
  8
31
 10
11.3189
 20
5.0165
 30
0.0000
  0
VERTEX
  8
31
 10
9.1811
 20
5.0165
 30
0.0000
 42
1.0000
  0
SEQEND
  8
0
  0
POLYLINE
  8
31
 66
1
 10
0.0000
 20
0.0000
 30
0.0000
 40
0.0000
 41
0.0000
 70
1
  0
VERTEX
  8
31
 10
9.1252
 20
5.0165
 30
0.0000
  0
VERTEX
  8
31
 10
11.3748
 20
5.0165
 30
0.0000
 42
1.0000
  0
VERTEX
  8
31
 10
11.3748
 20
5.1435
 30
0.0000
  0
VERTEX
  8
31
 10
9.1252
 20
5.1435
 30
0.0000
 42
1.0000
  0
SEQEND
  8
0
  0
POLYLINE
  8
31
 66
1
 10
0.0000
 20
0.0000
 30
0.0000
 40
0.0000
 41
0.0000
 70
1
  0
VERTEX
  8
31
 10
9.1016
 20
5.1435
 30
0.0000
  0
VERTEX
  8
31
 10
11.3984
 20
5.1435
 30
0.0000
 42
1.0000
  0
VERTEX
  8
31
 10
11.3984
 20
5.2705
 30
0.0000
  0
VERTEX
  8
31
 10
9.1016
 20
5.2705
 30
0.0000
 42
1.0000
  0
SEQEND
  8
0
  0
POLYLINE
  8
31
 66
1
 10
0.0000
 20
0.0000
 30
0.0000
 40
0.0000
 41
0.0000
 70
1
  0
VERTEX
  8
31
 10
9.1174
 20
5.2705
 30
0.0000
  0
VERTEX
  8
31
 10
11.3818
 20
5.2705
 30
0.0000
 42
1.0000
  0
VERTEX
  8
31
 10
11.3818
 20
5.3975
 30
0.0000
  0
VERTEX
  8
31
 10
9.1174
 20
5.3975
 30
0.0000
 42
1.0000
  0
SEQEND
  8
0
  0
POLYLINE
  8
31
 66
1
 10
0.0000
 20
0.0000
 30
0.0000
 40
0.0000
 41
0.0000
 70
1
  0
VERTEX
  8
31
 10
9.1681
 20
5.3975
 30
0.0000
  0
VERTEX
  8
31
 10
11.3338
 20
5.3975
 30
0.0000
 42
1.0000
  0
VERTEX
  8
31
 10
11.3338
 20
5.5245
 30
0.0000
  0
VERTEX
  8
31
 10
9.1681
 20
5.5245
 30
0.0000
 42
1.0000
  0
SEQEND
  8
0
  0
POLYLINE
  8
31
 66
1
 10
0.0000
 20
0.0000
 30
0.0000
 40
0.0000
 41
0.0000
 70
1
  0
VERTEX
  8
31
 10
9.2599
 20
5.5245
 30
0.0000
  0
VERTEX
  8
31
 10
11.2405
 20
5.5245
 30
0.0000
 42
1.0000
  0
VERTEX
  8
31
 10
11.2405
 20
5.6515
 30
0.0000
  0
VERTEX
  8
31
 10
9.2599
 20
5.6515
 30
0.0000
 42
1.0000
  0
SEQEND
  8
0
  0
POLYLINE
  8
31
 66
1
 10
0.0000
 20
0.0000
 30
0.0000
 40
0.0000
 41
0.0000
 70
1
  0
VERTEX
  8
31
 10
9.4389
 20
5.6515
 30
0.0000
  0
VERTEX
  8
31
 10
11.0641
 20
5.6515
 30
0.0000
 42
1.0000
  0
VERTEX
  8
31
 10
11.0641
 20
5.7785
 30
0.0000
  0
VERTEX
  8
31
 10
9.4389
 20
5.7785
 30
0.0000
 42
1.0000
  0
SEQEND
  8
0
  0
ARC
  8
20
 10
2.6500
 20
2.7180
 30
0.0000
 40
0.3500
 50
90.0000
 51
180.0000
  0
LINE
  8
20
 10
2.6500
 20
3.0680
 30
0.0000
 11
2.8500
 21
3.0680
 31
0.0000
  0
ARC
  8
20
 10
2.8500
 20
2.7180
 30
0.0000
 40
0.3500
 50
0.0000
 51
90.0000
  0
LINE
  8
20
 10
3.2000
 20
2.7180
 30
0.0000
 11
3.2000
 21
2.1680
 31
0.0000
  0
ARC
  8
20
 10
2.8250
 20
2.1430
 30
0.0000
 40
0.3758
 50
273.8141
 51
3.8141
  0
LINE
  8
20
 10
2.8500
 20
1.7680
 30
0.0000
 11
2.6500
 21
1.7680
 31
0.0000
  0
ARC
  8
20
 10
2.6750
 20
2.1430
 30
0.0000
 40
0.3758
 50
176.1859
 51
266.1859
  0
LINE
  8
20
 10
2.3000
 20
2.1680
 30
0.0000
 11
2.3000
 21
2.7180
 31
0.0000
  0
ARC
  8
20
 10
10.0000
 20
2.1680
 30
0.0000
 40
0.4031
 50
262.8750
 51
352.8750
  0
ARC
  8
20
 10
9.9000
 20
2.1680
 30
0.0000
 40
0.4031
 50
187.1250
 51
277.1250
  0
LINE
  8
20
 10
10.4000
 20
2.7180
 30
0.0000
 11
10.4000
 21
2.1180
 31
0.0000
  0
ARC
  8
20
 10
10.0000
 20
2.6680
 30
0.0000
 40
0.4031
 50
7.1250
 51
97.1250
  0
ARC
  8
20
 10
9.9000
 20
2.6680
 30
0.0000
 40
0.4031
 50
82.8750
 51
172.8750
  0
LINE
  8
20
 10
9.5000
 20
2.1180
 30
0.0000
 11
9.5000
 21
2.7180
 31
0.0000
  0
INSERT
  8
31
  2
RECT
 10
2.7500
 20
2.4180
 30
0.0000
 41
2.5000
 42
2.5000
 43
1.0000
 50
0.0000
  0
INSERT
  8
31
  2
RECT
 10
9.9500
 20
2.4180
 30
0.0000
 41
2.5000
 42
2.5000
 43
1.0000
 50
0.0000
  0
CIRCLE
  8
20
 10
4.4000
 20
4.3180
 30
0.0000
 40
0.3500
  0
CIRCLE
  8
20
 10
8.3000
 20
4.3180
 30
0.0000
 40
0.3500
  0
INSERT
  8
31
  2
RECT
 10
5.6000
 20
2.3180
 30
0.0000
 41
2.0000
 42
1.0000
 43
1.0000
 50
90.0000
  0
INSERT
  8
31
  2
RECT
 10
7.1000
 20
2.3180
 30
0.0000
 41
2.0000
 42
1.0000
 43
1.0000
 50
90.0000
  0
INSERT
  8
31
  2
RECT
 10
6.3500
 20
5.0930
 30
0.0000
 41
0.4000
 42
1.3500
 43
1.0000
 50
0.0000
  0
INSERT
  8
31
  2
RECT
 10
5.7000
 20
5.0930
 30
0.0000
 41
0.4000
 42
1.3500
 43
1.0000
 50
0.0000
  0
INSERT
  8
31
  2
RECT
 10
7.6500
 20
5.0930
 30
0.0000
 41
0.4000
 42
1.3500
 43
1.0000
 50
0.0000
  0
INSERT
  8
31
  2
RECT
 10
7.0000
 20
5.0930
 30
0.0000
 41
0.4000
 42
1.3500
 43
1.0000
 50
0.0000
  0
INSERT
  8
31
  2
RECT
 10
5.0500
 20
5.0930
 30
0.0000
 41
0.4000
 42
1.3500
 43
1.0000
 50
0.0000
  0
INSERT
  8
31
  2
RECT
 10
12.9980
 20
26.5940
 30
0.0000
 41
1.3000
 42
1.9000
 43
1.0000
 50
0.0000
  0
INSERT
  8
31
  2
RECT
 10
18.4980
 20
26.5940
 30
0.0000
 41
1.3000
 42
1.9000
 43
1.0000
 50
0.0000
  0
INSERT
  8
31
  2
RECT
 10
18.4980
 20
29.7940
 30
0.0000
 41
1.3000
 42
1.9000
 43
1.0000
 50
0.0000
  0
INSERT
  8
31
  2
RECT
 10
12.9980
 20
29.7940
 30
0.0000
 41
1.3000
 42
1.9000
 43
1.0000
 50
0.0000
  0
INSERT
  8
31
  2
RECT
 10
13.7160
 20
18.4720
 30
0.0000
 41
0.7000
 42
1.7000
 43
1.0000
 50
270.0000
  0
INSERT
  8
31
  2
RECT
 10
13.7160
 20
17.2720
 30
0.0000
 41
0.7000
 42
1.7000
 43
1.0000
 50
270.0000
  0
INSERT
  8
31
  2
RECT
 10
13.7160
 20
16.0720
 30
0.0000
 41
0.7000
 42
1.7000
 43
1.0000
 50
270.0000
  0
ENDSEC
  0
EOF
