  0
SECTION
  2
HEADER
  9
$ACADVER
  1
AC1009
  9
$FILLMODE
 70
1
  9
$EXTMIN
 10
-9.7500
 20
-10.0820
 30
0.0000
  9
$EXTMAX
 10
27.9400
 20
36.9571
 30
0.0000
  0
ENDSEC
  0
SECTION
  2
TABLES
  0
TABLE
  2
LTYPE
 70
1
  0
LTYPE
  2
CONTINUOUS
 70
64
  3
Solid line
 72
65
 73
0
 40
0
  0
ENDTAB
  0
TABLE
  2
LAYER
 70
255
  0
LAYER
  2
20
 70
64
 62
7
  6
CONTINUOUS
  0
LAYER
  2
31
 70
64
 62
253
  6
CONTINUOUS
  0
ENDTAB
  0
ENDSEC
  0
SECTION
  2
BLOCKS
  0
BLOCK
  8
0
  2
RECT
 70
64
 10
0.0000
 20
0.0000
 30
0.0000
  3
RECT
  0
SOLID
  8
0
 10
-0.5000
 20
-0.5000
 30
0.0000
 11
0.5000
 21
-0.5000
 31
0.0000
 12
-0.5000
 22
0.5000
 32
0.0000
 13
0.5000
 23
0.5000
 33
0.0000
  0
ENDBLK
  8
0
  0
BLOCK
  8
0
  2
PIE
 70
64
 10
0.0000
 20
0.0000
 30
0.0000
  3
PIE
  0
POLYLINE
  8
0
 66
1
 10
0.0000
 20
0.0000
 30
0.0000
 40
0.5000
 41
0.5000
 70
0
  0
VERTEX
  8
0
 10
0.0000
 20
-0.2500
 30
0.0000
 42
1.0000
  0
VERTEX
  8
0
 10
0.0000
 20
0.2500
 30
0.0000
 42
1.0000
  0
VERTEX
  8
0
 10
0.0000
 20
-0.2500
 30
0.0000
  0
SEQEND
  8
0
  0
ENDBLK
  8
0
  0
BLOCK
  8
0
  2
OCTAGONP
 70
64
 10
0.0000
 20
0.0000
 30
0.0000
  3
OCTAGONP
  0
POLYLINE
  8
0
 66
1
 10
0.0000
 20
0.0000
 30
0.0000
 40
0.5000
 41
0.5000
 70
0
  0
VERTEX
  8
0
 10
-0.2500
 20
-0.1036
 30
0.0000
  0
VERTEX
  8
0
 10
-0.2500
 20
0.1036
 30
0.0000
  0
VERTEX
  8
0
 10
-0.1036
 20
0.2500
 30
0.0000
  0
VERTEX
  8
0
 10
0.1036
 20
0.2500
 30
0.0000
  0
VERTEX
  8
0
 10
0.2500
 20
0.1036
 30
0.0000
  0
VERTEX
  8
0
 10
0.2500
 20
-0.1036
 30
0.0000
  0
VERTEX
  8
0
 10
0.1036
 20
-0.2500
 30
0.0000
  0
VERTEX
  8
0
 10
-0.1036
 20
-0.2500
 30
0.0000
  0
VERTEX
  8
0
 10
-0.2500
 20
-0.1036
 30
0.0000
  0
VERTEX
  8
0
 10
-0.2500
 20
0.1036
 30
0.0000
  0
SEQEND
  8
0
  0
ENDBLK
  8
0
  0
BLOCK
  8
0
  2
SQUAREP
 70
64
 10
0.0000
 20
0.0000
 30
0.0000
  3
SQUAREP
  0
SOLID
  8
0
 10
-0.5000
 20
-0.5000
 30
0.0000
 11
0.5000
 21
-0.5000
 31
0.0000
 12
-0.5000
 22
0.5000
 32
0.0000
 13
0.5000
 23
0.5000
 33
0.0000
  0
ENDBLK
  8
0
  0
BLOCK
  8
0
  2
ROUNDP
 70
64
 10
0.0000
 20
0.0000
 30
0.0000
  3
ROUNDP
  0
POLYLINE
  8
0
 66
1
 10
0.0000
 20
0.0000
 30
0.0000
 40
0.5000
 41
0.5000
 70
0
  0
VERTEX
  8
0
 10
0.0000
 20
-0.2500
 30
0.0000
 42
1.0000
  0
VERTEX
  8
0
 10
0.0000
 20
0.2500
 30
0.0000
 42
1.0000
  0
VERTEX
  8
0
 10
0.0000
 20
-0.2500
 30
0.0000
  0
SEQEND
  8
0
  0
ENDBLK
  8
0
  0
BLOCK
  8
0
  2
ANNULUSP
 70
64
 10
0.0000
 20
0.0000
 30
0.0000
  3
ANNULUSP
  0
POLYLINE
  8
0
 66
1
 10
0.0000
 20
0.0000
 30
0.0000
 40
0.5000
 41
0.5000
 70
0
  0
VERTEX
  8
0
 10
0.0000
 20
-0.2500
 30
0.0000
 42
1.0000
  0
VERTEX
  8
0
 10
0.0000
 20
0.2500
 30
0.0000
 42
1.0000
  0
VERTEX
  8
0
 10
0.0000
 20
-0.2500
 30
0.0000
  0
SEQEND
  8
0
  0
ENDBLK
  8
0
  0
BLOCK
  8
0
  2
THERMALP
 70
64
 10
0.0000
 20
0.0000
 30
0.0000
  3
THERMALP
  0
POLYLINE
  8
0
 66
1
 10
0.0000
 20
0.0000
 30
0.0000
 40
0.1000
 41
0.1000
 70
0
  0
VERTEX
  8
0
 10
-0.2379
 20
0.4500
 30
0.0000
  0
VERTEX
  8
0
 10
0.2379
 20
0.4500
 30
0.0000
  0
SEQEND
  8
0
  0
POLYLINE
  8
0
 66
1
 10
0.0000
 20
0.0000
 30
0.0000
 40
0.0500
 41
0.0500
 70
0
  0
VERTEX
  8
0
 10
0.2379
 20
0.4250
 30
0.0000
 42
1.0000
  0
VERTEX
  8
0
 10
0.2379
 20
0.4750
 30
0.0000
  0
SEQEND
  8
0
  0
POLYLINE
  8
0
 66
1
 10
0.0000
 20
0.0000
 30
0.0000
 40
0.0500
 41
0.0500
 70
0
  0
VERTEX
  8
0
 10
-0.2379
 20
0.4750
 30
0.0000
 42
1.0000
  0
VERTEX
  8
0
 10
-0.2379
 20
0.4250
 30
0.0000
  0
SEQEND
  8
0
  0
POLYLINE
  8
0
 66
1
 10
0.0000
 20
0.0000
 30
0.0000
 40
0.1000
 41
0.1000
 70
0
  0
VERTEX
  8
0
 10
0.4500
 20
0.2379
 30
0.0000
  0
VERTEX
  8
0
 10
0.4500
 20
-0.2379
 30
0.0000
  0
SEQEND
  8
0
  0
POLYLINE
  8
0
 66
1
 10
0.0000
 20
0.0000
 30
0.0000
 40
0.0500
 41
0.0500
 70
0
  0
VERTEX
  8
0
 10
0.4250
 20
-0.2379
 30
0.0000
 42
1.0000
  0
VERTEX
  8
0
 10
0.4750
 20
-0.2379
 30
0.0000
  0
SEQEND
  8
0
  0
POLYLINE
  8
0
 66
1
 10
0.0000
 20
0.0000
 30
0.0000
 40
0.0500
 41
0.0500
 70
0
  0
VERTEX
  8
0
 10
0.4750
 20
0.2379
 30
0.0000
 42
1.0000
  0
VERTEX
  8
0
 10
0.4250
 20
0.2379
 30
0.0000
  0
SEQEND
  8
0
  0
POLYLINE
  8
0
 66
1
 10
0.0000
 20
0.0000
 30
0.0000
 40
0.1000
 41
0.1000
 70
0
  0
VERTEX
  8
0
 10
0.2379
 20
-0.4500
 30
0.0000
  0
VERTEX
  8
0
 10
-0.2379
 20
-0.4500
 30
0.0000
  0
SEQEND
  8
0
  0
POLYLINE
  8
0
 66
1
 10
0.0000
 20
0.0000
 30
0.0000
 40
0.0500
 41
0.0500
 70
0
  0
VERTEX
  8
0
 10
-0.2379
 20
-0.4250
 30
0.0000
 42
1.0000
  0
VERTEX
  8
0
 10
-0.2379
 20
-0.4750
 30
0.0000
  0
SEQEND
  8
0
  0
POLYLINE
  8
0
 66
1
 10
0.0000
 20
0.0000
 30
0.0000
 40
0.0500
 41
0.0500
 70
0
  0
VERTEX
  8
0
 10
0.2379
 20
-0.4750
 30
0.0000
 42
1.0000
  0
VERTEX
  8
0
 10
0.2379
 20
-0.4250
 30
0.0000
  0
SEQEND
  8
0
  0
POLYLINE
  8
0
 66
1
 10
0.0000
 20
0.0000
 30
0.0000
 40
0.1000
 41
0.1000
 70
0
  0
VERTEX
  8
0
 10
-0.4500
 20
-0.2379
 30
0.0000
  0
VERTEX
  8
0
 10
-0.4500
 20
0.2379
 30
0.0000
  0
SEQEND
  8
0
  0
POLYLINE
  8
0
 66
1
 10
0.0000
 20
0.0000
 30
0.0000
 40
0.0500
 41
0.0500
 70
0
  0
VERTEX
  8
0
 10
-0.4250
 20
0.2379
 30
0.0000
 42
1.0000
  0
VERTEX
  8
0
 10
-0.4750
 20
0.2379
 30
0.0000
  0
SEQEND
  8
0
  0
POLYLINE
  8
0
 66
1
 10
0.0000
 20
0.0000
 30
0.0000
 40
0.0500
 41
0.0500
 70
0
  0
VERTEX
  8
0
 10
-0.4750
 20
-0.2379
 30
0.0000
 42
1.0000
  0
VERTEX
  8
0
 10
-0.4250
 20
-0.2379
 30
0.0000
  0
SEQEND
  8
0
  0
ENDBLK
  8
0
  0
BLOCK
  8
0
  2
OCTAGONV
 70
64
 10
0.0000
 20
0.0000
 30
0.0000
  3
OCTAGONV
  0
POLYLINE
  8
0
 66
1
 10
0.0000
 20
0.0000
 30
0.0000
 40
0.5000
 41
0.5000
 70
0
  0
VERTEX
  8
0
 10
-0.2500
 20
-0.1036
 30
0.0000
  0
VERTEX
  8
0
 10
-0.2500
 20
0.1036
 30
0.0000
  0
VERTEX
  8
0
 10
-0.1036
 20
0.2500
 30
0.0000
  0
VERTEX
  8
0
 10
0.1036
 20
0.2500
 30
0.0000
  0
VERTEX
  8
0
 10
0.2500
 20
0.1036
 30
0.0000
  0
VERTEX
  8
0
 10
0.2500
 20
-0.1036
 30
0.0000
  0
VERTEX
  8
0
 10
0.1036
 20
-0.2500
 30
0.0000
  0
VERTEX
  8
0
 10
-0.1036
 20
-0.2500
 30
0.0000
  0
VERTEX
  8
0
 10
-0.2500
 20
-0.1036
 30
0.0000
  0
VERTEX
  8
0
 10
-0.2500
 20
0.1036
 30
0.0000
  0
SEQEND
  8
0
  0
ENDBLK
  8
0
  0
BLOCK
  8
0
  2
SQUAREV
 70
64
 10
0.0000
 20
0.0000
 30
0.0000
  3
SQUAREV
  0
SOLID
  8
0
 10
-0.5000
 20
-0.5000
 30
0.0000
 11
0.5000
 21
-0.5000
 31
0.0000
 12
-0.5000
 22
0.5000
 32
0.0000
 13
0.5000
 23
0.5000
 33
0.0000
  0
ENDBLK
  8
0
  0
BLOCK
  8
0
  2
ROUNDV
 70
64
 10
0.0000
 20
0.0000
 30
0.0000
  3
ROUNDV
  0
POLYLINE
  8
0
 66
1
 10
0.0000
 20
0.0000
 30
0.0000
 40
0.5000
 41
0.5000
 70
0
  0
VERTEX
  8
0
 10
0.0000
 20
-0.2500
 30
0.0000
 42
1.0000
  0
VERTEX
  8
0
 10
0.0000
 20
0.2500
 30
0.0000
 42
1.0000
  0
VERTEX
  8
0
 10
0.0000
 20
-0.2500
 30
0.0000
  0
SEQEND
  8
0
  0
ENDBLK
  8
0
  0
BLOCK
  8
0
  2
ANNULUSV
 70
64
 10
0.0000
 20
0.0000
 30
0.0000
  3
ANNULUSV
  0
POLYLINE
  8
0
 66
1
 10
0.0000
 20
0.0000
 30
0.0000
 40
0.5000
 41
0.5000
 70
0
  0
VERTEX
  8
0
 10
0.0000
 20
-0.2500
 30
0.0000
 42
1.0000
  0
VERTEX
  8
0
 10
0.0000
 20
0.2500
 30
0.0000
 42
1.0000
  0
VERTEX
  8
0
 10
0.0000
 20
-0.2500
 30
0.0000
  0
SEQEND
  8
0
  0
ENDBLK
  8
0
  0
BLOCK
  8
0
  2
THERMALV
 70
64
 10
0.0000
 20
0.0000
 30
0.0000
  3
THERMALV
  0
POLYLINE
  8
0
 66
1
 10
0.0000
 20
0.0000
 30
0.0000
 40
0.1000
 41
0.1000
 70
0
  0
VERTEX
  8
0
 10
-0.2379
 20
0.4500
 30
0.0000
  0
VERTEX
  8
0
 10
0.2379
 20
0.4500
 30
0.0000
  0
SEQEND
  8
0
  0
POLYLINE
  8
0
 66
1
 10
0.0000
 20
0.0000
 30
0.0000
 40
0.0500
 41
0.0500
 70
0
  0
VERTEX
  8
0
 10
0.2379
 20
0.4250
 30
0.0000
 42
1.0000
  0
VERTEX
  8
0
 10
0.2379
 20
0.4750
 30
0.0000
  0
SEQEND
  8
0
  0
POLYLINE
  8
0
 66
1
 10
0.0000
 20
0.0000
 30
0.0000
 40
0.0500
 41
0.0500
 70
0
  0
VERTEX
  8
0
 10
-0.2379
 20
0.4750
 30
0.0000
 42
1.0000
  0
VERTEX
  8
0
 10
-0.2379
 20
0.4250
 30
0.0000
  0
SEQEND
  8
0
  0
POLYLINE
  8
0
 66
1
 10
0.0000
 20
0.0000
 30
0.0000
 40
0.1000
 41
0.1000
 70
0
  0
VERTEX
  8
0
 10
0.4500
 20
0.2379
 30
0.0000
  0
VERTEX
  8
0
 10
0.4500
 20
-0.2379
 30
0.0000
  0
SEQEND
  8
0
  0
POLYLINE
  8
0
 66
1
 10
0.0000
 20
0.0000
 30
0.0000
 40
0.0500
 41
0.0500
 70
0
  0
VERTEX
  8
0
 10
0.4250
 20
-0.2379
 30
0.0000
 42
1.0000
  0
VERTEX
  8
0
 10
0.4750
 20
-0.2379
 30
0.0000
  0
SEQEND
  8
0
  0
POLYLINE
  8
0
 66
1
 10
0.0000
 20
0.0000
 30
0.0000
 40
0.0500
 41
0.0500
 70
0
  0
VERTEX
  8
0
 10
0.4750
 20
0.2379
 30
0.0000
 42
1.0000
  0
VERTEX
  8
0
 10
0.4250
 20
0.2379
 30
0.0000
  0
SEQEND
  8
0
  0
POLYLINE
  8
0
 66
1
 10
0.0000
 20
0.0000
 30
0.0000
 40
0.1000
 41
0.1000
 70
0
  0
VERTEX
  8
0
 10
0.2379
 20
-0.4500
 30
0.0000
  0
VERTEX
  8
0
 10
-0.2379
 20
-0.4500
 30
0.0000
  0
SEQEND
  8
0
  0
POLYLINE
  8
0
 66
1
 10
0.0000
 20
0.0000
 30
0.0000
 40
0.0500
 41
0.0500
 70
0
  0
VERTEX
  8
0
 10
-0.2379
 20
-0.4250
 30
0.0000
 42
1.0000
  0
VERTEX
  8
0
 10
-0.2379
 20
-0.4750
 30
0.0000
  0
SEQEND
  8
0
  0
POLYLINE
  8
0
 66
1
 10
0.0000
 20
0.0000
 30
0.0000
 40
0.0500
 41
0.0500
 70
0
  0
VERTEX
  8
0
 10
0.2379
 20
-0.4750
 30
0.0000
 42
1.0000
  0
VERTEX
  8
0
 10
0.2379
 20
-0.4250
 30
0.0000
  0
SEQEND
  8
0
  0
POLYLINE
  8
0
 66
1
 10
0.0000
 20
0.0000
 30
0.0000
 40
0.1000
 41
0.1000
 70
0
  0
VERTEX
  8
0
 10
-0.4500
 20
-0.2379
 30
0.0000
  0
VERTEX
  8
0
 10
-0.4500
 20
0.2379
 30
0.0000
  0
SEQEND
  8
0
  0
POLYLINE
  8
0
 66
1
 10
0.0000
 20
0.0000
 30
0.0000
 40
0.0500
 41
0.0500
 70
0
  0
VERTEX
  8
0
 10
-0.4250
 20
0.2379
 30
0.0000
 42
1.0000
  0
VERTEX
  8
0
 10
-0.4750
 20
0.2379
 30
0.0000
  0
SEQEND
  8
0
  0
POLYLINE
  8
0
 66
1
 10
0.0000
 20
0.0000
 30
0.0000
 40
0.0500
 41
0.0500
 70
0
  0
VERTEX
  8
0
 10
-0.4750
 20
-0.2379
 30
0.0000
 42
1.0000
  0
VERTEX
  8
0
 10
-0.4250
 20
-0.2379
 30
0.0000
  0
SEQEND
  8
0
  0
ENDBLK
  8
0
  0
BLOCK
  8
0
  2
OFFSETP100
 70
64
 10
0.0000
 20
0.0000
 30
0.0000
  3
OFFSETP100
  0
POLYLINE
  8
0
 66
1
 10
0.0000
 20
0.0000
 30
0.0000
 40
1.0000
 41
1.0000
 70
0
  0
VERTEX
  8
0
 10
0.0000
 20
0.0000
 30
0.0000
  0
VERTEX
  8
0
 10
1.0000
 20
0.0000
 30
0.0000
  0
SEQEND
  8
0
  0
POLYLINE
  8
0
 66
1
 10
0.0000
 20
0.0000
 30
0.0000
 40
0.5000
 41
0.5000
 70
0
  0
VERTEX
  8
0
 10
1.0000
 20
-0.2500
 30
0.0000
 42
1.0000
  0
VERTEX
  8
0
 10
1.0000
 20
0.2500
 30
0.0000
  0
SEQEND
  8
0
  0
POLYLINE
  8
0
 66
1
 10
0.0000
 20
0.0000
 30
0.0000
 40
0.5000
 41
0.5000
 70
0
  0
VERTEX
  8
0
 10
0.0000
 20
0.2500
 30
0.0000
 42
1.0000
  0
VERTEX
  8
0
 10
0.0000
 20
-0.2500
 30
0.0000
  0
SEQEND
  8
0
  0
ENDBLK
  8
0
  0
ENDSEC
  0
SECTION
  2
ENTITIES
  0
LINE
  8
20
 10
0.0000
 20
0.0000
 30
0.0000
 11
22.5860
 21
0.0000
 31
0.0000
  0
LINE
  8
20
 10
22.5860
 20
0.0000
 30
0.0000
 11
22.5860
 21
35.4840
 31
0.0000
  0
LINE
  8
20
 10
22.5860
 20
35.4840
 30
0.0000
 11
0.0000
 21
35.4840
 31
0.0000
  0
LINE
  8
20
 10
0.0000
 20
35.4840
 30
0.0000
 11
0.0000
 21
0.0000
 31
0.0000
  0
INSERT
  8
31
  2
RECT
 10
16.6980
 20
31.7500
 30
0.0000
 41
1.3000
 42
1.5000
 43
1.0000
 50
180.0000
  0
INSERT
  8
31
  2
RECT
 10
14.7980
 20
31.7500
 30
0.0000
 41
1.3000
 42
1.5000
 43
1.0000
 50
180.0000
  0
INSERT
  8
31
  2
RECT
 10
16.6980
 20
24.6380
 30
0.0000
 41
1.3000
 42
1.5000
 43
1.0000
 50
180.0000
  0
INSERT
  8
31
  2
RECT
 10
14.7980
 20
24.6380
 30
0.0000
 41
1.3000
 42
1.5000
 43
1.0000
 50
180.0000
  0
INSERT
  8
31
  2
RECT
 10
2.8600
 20
28.9560
 30
0.0000
 41
1.3000
 42
1.5000
 43
1.0000
 50
0.0000
  0
INSERT
  8
31
  2
RECT
 10
4.7600
 20
28.9560
 30
0.0000
 41
1.3000
 42
1.5000
 43
1.0000
 50
0.0000
  0
INSERT
  8
31
  2
RECT
 10
7.3660
 20
33.5620
 30
0.0000
 41
1.2000
 42
1.5000
 43
1.0000
 50
270.0000
  0
INSERT
  8
31
  2
RECT
 10
7.3660
 20
31.4620
 30
0.0000
 41
1.2000
 42
1.5000
 43
1.0000
 50
270.0000
  0
INSERT
  8
31
  2
RECT
 10
18.6080
 20
16.5100
 30
0.0000
 41
1.3000
 42
1.5000
 43
1.0000
 50
0.0000
  0
INSERT
  8
31
  2
RECT
 10
20.5080
 20
16.5100
 30
0.0000
 41
1.3000
 42
1.5000
 43
1.0000
 50
0.0000
  0
INSERT
  8
31
  2
RECT
 10
18.1000
 20
3.8100
 30
0.0000
 41
1.3000
 42
1.5000
 43
1.0000
 50
0.0000
  0
INSERT
  8
31
  2
RECT
 10
20.0000
 20
3.8100
 30
0.0000
 41
1.3000
 42
1.5000
 43
1.0000
 50
0.0000
  0
INSERT
  8
31
  2
RECT
 10
18.2000
 20
9.6520
 30
0.0000
 41
1.1000
 42
1.0000
 43
1.0000
 50
0.0000
  0
INSERT
  8
31
  2
RECT
 10
19.9000
 20
9.6520
 30
0.0000
 41
1.1000
 42
1.0000
 43
1.0000
 50
0.0000
  0
INSERT
  8
31
  2
RECT
 10
16.5100
 20
8.8240
 30
0.0000
 41
1.3000
 42
1.5000
 43
1.0000
 50
270.0000
  0
INSERT
  8
31
  2
RECT
 10
16.5100
 20
6.9240
 30
0.0000
 41
1.3000
 42
1.5000
 43
1.0000
 50
270.0000
  0
INSERT
  8
31
  2
RECT
 10
9.1440
 20
31.5620
 30
0.0000
 41
1.3000
 42
1.5000
 43
1.0000
 50
90.0000
  0
INSERT
  8
31
  2
RECT
 10
9.1440
 20
33.4620
 30
0.0000
 41
1.3000
 42
1.5000
 43
1.0000
 50
90.0000
  0
INSERT
  8
31
  2
RECT
 10
12.7660
 20
5.5880
 30
0.0000
 41
1.3000
 42
1.5000
 43
1.0000
 50
0.0000
  0
INSERT
  8
31
  2
RECT
 10
14.6660
 20
5.5880
 30
0.0000
 41
1.3000
 42
1.5000
 43
1.0000
 50
0.0000
  0
INSERT
  8
31
  2
RECT
 10
1.6510
 20
12.9150
 30
0.0000
 41
1.1000
 42
1.0000
 43
1.0000
 50
270.0000
  0
INSERT
  8
31
  2
RECT
 10
1.6510
 20
11.2150
 30
0.0000
 41
1.1000
 42
1.0000
 43
1.0000
 50
270.0000
  0
INSERT
  8
31
  2
RECT
 10
10.4140
 20
9.9400
 30
0.0000
 41
1.2000
 42
1.2000
 43
1.0000
 50
180.0000
  0
INSERT
  8
31
  2
RECT
 10
10.4140
 20
7.8400
 30
0.0000
 41
1.2000
 42
1.2000
 43
1.0000
 50
180.0000
  0
INSERT
  8
31
  2
RECT
 10
12.8820
 20
3.8100
 30
0.0000
 41
1.4000
 42
1.4000
 43
1.0000
 50
270.0000
  0
INSERT
  8
31
  2
RECT
 10
16.5820
 20
3.8100
 30
0.0000
 41
1.4000
 42
1.4000
 43
1.0000
 50
270.0000
  0
INSERT
  8
31
  2
RECT
 10
5.1040
 20
18.0140
 30
0.0000
 41
1.0000
 42
1.5000
 43
1.0000
 50
0.0000
  0
INSERT
  8
31
  2
RECT
 10
6.6040
 20
18.0140
 30
0.0000
 41
1.0000
 42
1.5000
 43
1.0000
 50
0.0000
  0
INSERT
  8
31
  2
RECT
 10
8.1040
 20
18.0140
 30
0.0000
 41
1.0000
 42
1.5000
 43
1.0000
 50
0.0000
  0
INSERT
  8
31
  2
RECT
 10
8.1040
 20
15.5140
 30
0.0000
 41
1.0000
 42
1.5000
 43
1.0000
 50
0.0000
  0
INSERT
  8
31
  2
RECT
 10
6.6040
 20
15.5140
 30
0.0000
 41
1.0000
 42
1.5000
 43
1.0000
 50
0.0000
  0
INSERT
  8
31
  2
RECT
 10
5.1040
 20
15.5140
 30
0.0000
 41
1.0000
 42
1.5000
 43
1.0000
 50
0.0000
  0
INSERT
  8
31
  2
RECT
 10
4.1040
 20
13.2890
 30
0.0000
 41
0.8000
 42
0.2500
 43
1.0000
 50
90.0000
  0
INSERT
  8
31
  2
RECT
 10
4.6040
 20
13.2890
 30
0.0000
 41
0.8000
 42
0.2500
 43
1.0000
 50
90.0000
  0
INSERT
  8
31
  2
RECT
 10
5.1040
 20
13.2890
 30
0.0000
 41
0.8000
 42
0.2500
 43
1.0000
 50
90.0000
  0
INSERT
  8
31
  2
RECT
 10
5.6040
 20
13.2890
 30
0.0000
 41
0.8000
 42
0.2500
 43
1.0000
 50
90.0000
  0
INSERT
  8
31
  2
RECT
 10
6.1040
 20
13.2890
 30
0.0000
 41
0.8000
 42
0.2500
 43
1.0000
 50
90.0000
  0
INSERT
  8
31
  2
RECT
 10
6.6040
 20
13.2890
 30
0.0000
 41
0.8000
 42
0.2500
 43
1.0000
 50
90.0000
  0
INSERT
  8
31
  2
RECT
 10
7.1040
 20
13.2890
 30
0.0000
 41
0.8000
 42
0.2500
 43
1.0000
 50
90.0000
  0
INSERT
  8
31
  2
RECT
 10
7.6040
 20
13.2890
 30
0.0000
 41
0.8000
 42
0.2500
 43
1.0000
 50
90.0000
  0
INSERT
  8
31
  2
RECT
 10
8.1040
 20
13.2890
 30
0.0000
 41
0.8000
 42
0.2500
 43
1.0000
 50
90.0000
  0
INSERT
  8
31
  2
RECT
 10
8.6040
 20
13.2890
 30
0.0000
 41
0.8000
 42
0.2500
 43
1.0000
 50
90.0000
  0
INSERT
  8
31
  2
RECT
 10
9.1040
 20
13.2890
 30
0.0000
 41
0.8000
 42
0.2500
 43
1.0000
 50
90.0000
  0
INSERT
  8
31
  2
RECT
 10
10.0790
 20
14.2640
 30
0.0000
 41
0.8000
 42
0.2500
 43
1.0000
 50
180.0000
  0
INSERT
  8
31
  2
RECT
 10
10.0790
 20
14.7640
 30
0.0000
 41
0.8000
 42
0.2500
 43
1.0000
 50
180.0000
  0
INSERT
  8
31
  2
RECT
 10
10.0790
 20
15.2640
 30
0.0000
 41
0.8000
 42
0.2500
 43
1.0000
 50
180.0000
  0
INSERT
  8
31
  2
RECT
 10
10.0790
 20
15.7640
 30
0.0000
 41
0.8000
 42
0.2500
 43
1.0000
 50
180.0000
  0
INSERT
  8
31
  2
RECT
 10
10.0790
 20
16.2640
 30
0.0000
 41
0.8000
 42
0.2500
 43
1.0000
 50
180.0000
  0
INSERT
  8
31
  2
RECT
 10
10.0790
 20
16.7640
 30
0.0000
 41
0.8000
 42
0.2500
 43
1.0000
 50
180.0000
  0
INSERT
  8
31
  2
RECT
 10
10.0790
 20
17.2640
 30
0.0000
 41
0.8000
 42
0.2500
 43
1.0000
 50
180.0000
  0
INSERT
  8
31
  2
RECT
 10
10.0790
 20
17.7640
 30
0.0000
 41
0.8000
 42
0.2500
 43
1.0000
 50
180.0000
  0
INSERT
  8
31
  2
RECT
 10
10.0790
 20
18.2640
 30
0.0000
 41
0.8000
 42
0.2500
 43
1.0000
 50
180.0000
  0
INSERT
  8
31
  2
RECT
 10
10.0790
 20
18.7640
 30
0.0000
 41
0.8000
 42
0.2500
 43
1.0000
 50
180.0000
  0
INSERT
  8
31
  2
RECT
 10
10.0790
 20
19.2640
 30
0.0000
 41
0.8000
 42
0.2500
 43
1.0000
 50
180.0000
  0
INSERT
  8
31
  2
RECT
 10
9.1040
 20
20.2390
 30
0.0000
 41
0.8000
 42
0.2500
 43
1.0000
 50
270.0000
  0
INSERT
  8
31
  2
RECT
 10
8.6040
 20
20.2390
 30
0.0000
 41
0.8000
 42
0.2500
 43
1.0000
 50
270.0000
  0
INSERT
  8
31
  2
RECT
 10
8.1040
 20
20.2390
 30
0.0000
 41
0.8000
 42
0.2500
 43
1.0000
 50
270.0000
  0
INSERT
  8
31
  2
RECT
 10
7.6040
 20
20.2390
 30
0.0000
 41
0.8000
 42
0.2500
 43
1.0000
 50
270.0000
  0
INSERT
  8
31
  2
RECT
 10
7.1040
 20
20.2390
 30
0.0000
 41
0.8000
 42
0.2500
 43
1.0000
 50
270.0000
  0
INSERT
  8
31
  2
RECT
 10
6.6040
 20
20.2390
 30
0.0000
 41
0.8000
 42
0.2500
 43
1.0000
 50
270.0000
  0
INSERT
  8
31
  2
RECT
 10
6.1040
 20
20.2390
 30
0.0000
 41
0.8000
 42
0.2500
 43
1.0000
 50
270.0000
  0
INSERT
  8
31
  2
RECT
 10
5.6040
 20
20.2390
 30
0.0000
 41
0.8000
 42
0.2500
 43
1.0000
 50
270.0000
  0
INSERT
  8
31
  2
RECT
 10
5.1040
 20
20.2390
 30
0.0000
 41
0.8000
 42
0.2500
 43
1.0000
 50
270.0000
  0
INSERT
  8
31
  2
RECT
 10
4.6040
 20
20.2390
 30
0.0000
 41
0.8000
 42
0.2500
 43
1.0000
 50
270.0000
  0
INSERT
  8
31
  2
RECT
 10
4.1040
 20
20.2390
 30
0.0000
 41
0.8000
 42
0.2500
 43
1.0000
 50
270.0000
  0
INSERT
  8
31
  2
RECT
 10
3.1290
 20
19.2640
 30
0.0000
 41
0.8000
 42
0.2500
 43
1.0000
 50
0.0000
  0
INSERT
  8
31
  2
RECT
 10
3.1290
 20
18.7640
 30
0.0000
 41
0.8000
 42
0.2500
 43
1.0000
 50
0.0000
  0
INSERT
  8
31
  2
RECT
 10
3.1290
 20
18.2640
 30
0.0000
 41
0.8000
 42
0.2500
 43
1.0000
 50
0.0000
  0
INSERT
  8
31
  2
RECT
 10
3.1290
 20
17.7640
 30
0.0000
 41
0.8000
 42
0.2500
 43
1.0000
 50
0.0000
  0
INSERT
  8
31
  2
RECT
 10
3.1290
 20
17.2640
 30
0.0000
 41
0.8000
 42
0.2500
 43
1.0000
 50
0.0000
  0
INSERT
  8
31
  2
RECT
 10
3.1290
 20
16.7640
 30
0.0000
 41
0.8000
 42
0.2500
 43
1.0000
 50
0.0000
  0
INSERT
  8
31
  2
RECT
 10
3.1290
 20
16.2640
 30
0.0000
 41
0.8000
 42
0.2500
 43
1.0000
 50
0.0000
  0
INSERT
  8
31
  2
RECT
 10
3.1290
 20
15.7640
 30
0.0000
 41
0.8000
 42
0.2500
 43
1.0000
 50
0.0000
  0
INSERT
  8
31
  2
RECT
 10
3.1290
 20
15.2640
 30
0.0000
 41
0.8000
 42
0.2500
 43
1.0000
 50
0.0000
  0
INSERT
  8
31
  2
RECT
 10
3.1290
 20
14.7640
 30
0.0000
 41
0.8000
 42
0.2500
 43
1.0000
 50
0.0000
  0
INSERT
  8
31
  2
RECT
 10
3.1290
 20
14.2640
 30
0.0000
 41
0.8000
 42
0.2500
 43
1.0000
 50
0.0000
  0
INSERT
  8
31
  2
RECT
 10
1.7780
 20
20.7940
 30
0.0000
 41
1.2000
 42
1.2000
 43
1.0000
 50
0.0000
  0
INSERT
  8
31
  2
RECT
 10
1.7780
 20
22.8940
 30
0.0000
 41
1.2000
 42
1.2000
 43
1.0000
 50
0.0000
  0
INSERT
  8
31
  2
RECT
 10
2.2860
 20
8.0400
 30
0.0000
 41
1.1000
 42
1.0000
 43
1.0000
 50
90.0000
  0
INSERT
  8
31
  2
RECT
 10
2.2860
 20
9.7400
 30
0.0000
 41
1.1000
 42
1.0000
 43
1.0000
 50
90.0000
  0
INSERT
  8
31
  2
RECT
 10
3.8100
 20
8.0400
 30
0.0000
 41
1.1000
 42
1.0000
 43
1.0000
 50
90.0000
  0
INSERT
  8
31
  2
RECT
 10
3.8100
 20
9.7400
 30
0.0000
 41
1.1000
 42
1.0000
 43
1.0000
 50
90.0000
  0
INSERT
  8
31
  2
RECT
 10
4.7600
 20
30.7340
 30
0.0000
 41
1.3000
 42
1.5000
 43
1.0000
 50
180.0000
  0
INSERT
  8
31
  2
RECT
 10
2.8600
 20
30.7340
 30
0.0000
 41
1.3000
 42
1.5000
 43
1.0000
 50
180.0000
  0
INSERT
  8
31
  2
RECT
 10
4.7600
 20
32.5120
 30
0.0000
 41
1.3000
 42
1.5000
 43
1.0000
 50
180.0000
  0
INSERT
  8
31
  2
RECT
 10
2.8600
 20
32.5120
 30
0.0000
 41
1.3000
 42
1.5000
 43
1.0000
 50
180.0000
  0
INSERT
  8
31
  2
RECT
 10
4.7600
 20
25.4000
 30
0.0000
 41
1.3000
 42
1.5000
 43
1.0000
 50
180.0000
  0
INSERT
  8
31
  2
RECT
 10
2.8600
 20
25.4000
 30
0.0000
 41
1.3000
 42
1.5000
 43
1.0000
 50
180.0000
  0
INSERT
  8
31
  2
RECT
 10
11.6840
 20
8.0400
 30
0.0000
 41
1.1000
 42
1.0000
 43
1.0000
 50
90.0000
  0
INSERT
  8
31
  2
RECT
 10
11.6840
 20
9.7400
 30
0.0000
 41
1.1000
 42
1.0000
 43
1.0000
 50
90.0000
  0
INSERT
  8
31
  2
RECT
 10
4.9140
 20
23.6220
 30
0.0000
 41
1.1000
 42
1.0000
 43
1.0000
 50
180.0000
  0
INSERT
  8
31
  2
RECT
 10
3.2140
 20
23.6220
 30
0.0000
 41
1.1000
 42
1.0000
 43
1.0000
 50
180.0000
  0
INSERT
  8
31
  2
RECT
 10
5.3340
 20
9.7400
 30
0.0000
 41
1.1000
 42
1.0000
 43
1.0000
 50
270.0000
  0
INSERT
  8
31
  2
RECT
 10
5.3340
 20
8.0400
 30
0.0000
 41
1.1000
 42
1.0000
 43
1.0000
 50
270.0000
  0
INSERT
  8
31
  2
RECT
 10
8.4700
 20
23.3680
 30
0.0000
 41
1.1000
 42
1.0000
 43
1.0000
 50
180.0000
  0
INSERT
  8
31
  2
RECT
 10
6.7700
 20
23.3680
 30
0.0000
 41
1.1000
 42
1.0000
 43
1.0000
 50
180.0000
  0
INSERT
  8
31
  2
RECT
 10
6.8580
 20
21.8440
 30
0.0000
 41
0.8000
 42
0.8000
 43
1.0000
 50
0.0000
  0
INSERT
  8
31
  2
RECT
 10
8.3820
 20
21.8440
 30
0.0000
 41
0.8000
 42
0.8000
 43
1.0000
 50
0.0000
  0
INSERT
  8
31
  2
RECT
 10
18.2000
 20
2.0320
 30
0.0000
 41
1.1000
 42
1.0000
 43
1.0000
 50
0.0000
  0
INSERT
  8
31
  2
RECT
 10
19.9000
 20
2.0320
 30
0.0000
 41
1.1000
 42
1.0000
 43
1.0000
 50
0.0000
  0
INSERT
  8
31
  2
RECT
 10
14.8200
 20
21.8440
 30
0.0000
 41
1.1000
 42
1.0000
 43
1.0000
 50
180.0000
  0
INSERT
  8
31
  2
RECT
 10
13.1200
 20
21.8440
 30
0.0000
 41
1.1000
 42
1.0000
 43
1.0000
 50
180.0000
  0
INSERT
  8
31
  2
RECT
 10
14.8200
 20
20.3200
 30
0.0000
 41
1.1000
 42
1.0000
 43
1.0000
 50
180.0000
  0
INSERT
  8
31
  2
RECT
 10
13.1200
 20
20.3200
 30
0.0000
 41
1.1000
 42
1.0000
 43
1.0000
 50
180.0000
  0
INSERT
  8
31
  2
RECT
 10
3.7220
 20
27.1780
 30
0.0000
 41
1.1000
 42
1.0000
 43
1.0000
 50
0.0000
  0
INSERT
  8
31
  2
RECT
 10
5.4220
 20
27.1780
 30
0.0000
 41
1.1000
 42
1.0000
 43
1.0000
 50
0.0000
  0
INSERT
  8
31
  2
RECT
 10
16.7960
 20
18.2500
 30
0.0000
 41
1.0000
 42
1.0000
 43
1.0000
 50
180.0000
  0
INSERT
  8
31
  2
RECT
 10
16.7960
 20
19.8500
 30
0.0000
 41
1.0000
 42
1.0000
 43
1.0000
 50
180.0000
  0
INSERT
  8
31
  2
RECT
 10
20.7960
 20
18.2500
 30
0.0000
 41
1.0000
 42
1.0000
 43
1.0000
 50
180.0000
  0
INSERT
  8
31
  2
RECT
 10
20.7960
 20
19.8500
 30
0.0000
 41
1.0000
 42
1.0000
 43
1.0000
 50
180.0000
  0
INSERT
  8
31
  2
RECT
 10
10.4525
 20
29.6820
 30
0.0000
 41
0.2500
 42
0.4750
 43
1.0000
 50
270.0000
  0
INSERT
  8
31
  2
RECT
 10
9.6400
 20
29.7445
 30
0.0000
 41
0.3750
 42
0.2500
 43
1.0000
 50
270.0000
  0
INSERT
  8
31
  2
RECT
 10
9.1400
 20
29.7445
 30
0.0000
 41
0.3750
 42
0.2500
 43
1.0000
 50
270.0000
  0
INSERT
  8
31
  2
RECT
 10
8.6400
 20
29.7445
 30
0.0000
 41
0.3750
 42
0.2500
 43
1.0000
 50
270.0000
  0
INSERT
  8
31
  2
RECT
 10
8.1400
 20
29.7445
 30
0.0000
 41
0.3750
 42
0.2500
 43
1.0000
 50
270.0000
  0
INSERT
  8
31
  2
RECT
 10
7.3275
 20
29.6820
 30
0.0000
 41
0.2500
 42
0.4750
 43
1.0000
 50
270.0000
  0
INSERT
  8
31
  2
RECT
 10
7.3275
 20
29.1820
 30
0.0000
 41
0.2500
 42
0.4750
 43
1.0000
 50
270.0000
  0
INSERT
  8
31
  2
RECT
 10
7.3275
 20
28.6820
 30
0.0000
 41
0.2500
 42
0.4750
 43
1.0000
 50
270.0000
  0
INSERT
  8
31
  2
RECT
 10
7.3275
 20
28.1820
 30
0.0000
 41
0.2500
 42
0.4750
 43
1.0000
 50
270.0000
  0
INSERT
  8
31
  2
RECT
 10
7.3275
 20
27.6820
 30
0.0000
 41
0.2500
 42
0.4750
 43
1.0000
 50
270.0000
  0
INSERT
  8
31
  2
RECT
 10
7.3275
 20
27.1820
 30
0.0000
 41
0.2500
 42
0.4750
 43
1.0000
 50
270.0000
  0
INSERT
  8
31
  2
RECT
 10
7.3275
 20
26.6820
 30
0.0000
 41
0.2500
 42
0.4750
 43
1.0000
 50
270.0000
  0
INSERT
  8
31
  2
RECT
 10
7.3275
 20
26.1820
 30
0.0000
 41
0.2500
 42
0.4750
 43
1.0000
 50
270.0000
  0
INSERT
  8
31
  2
RECT
 10
7.3275
 20
25.6820
 30
0.0000
 41
0.2500
 42
0.4750
 43
1.0000
 50
270.0000
  0
INSERT
  8
31
  2
RECT
 10
7.3275
 20
25.1820
 30
0.0000
 41
0.2500
 42
0.4750
 43
1.0000
 50
270.0000
  0
INSERT
  8
31
  2
RECT
 10
8.1400
 20
25.1195
 30
0.0000
 41
0.3750
 42
0.2500
 43
1.0000
 50
270.0000
  0
INSERT
  8
31
  2
RECT
 10
8.6400
 20
25.1195
 30
0.0000
 41
0.3750
 42
0.2500
 43
1.0000
 50
270.0000
  0
INSERT
  8
31
  2
RECT
 10
9.1400
 20
25.1195
 30
0.0000
 41
0.3750
 42
0.2500
 43
1.0000
 50
270.0000
  0
INSERT
  8
31
  2
RECT
 10
9.6400
 20
25.1195
 30
0.0000
 41
0.3750
 42
0.2500
 43
1.0000
 50
270.0000
  0
INSERT
  8
31
  2
RECT
 10
10.4525
 20
25.1820
 30
0.0000
 41
0.2500
 42
0.4750
 43
1.0000
 50
270.0000
  0
INSERT
  8
31
  2
RECT
 10
10.4525
 20
25.6820
 30
0.0000
 41
0.2500
 42
0.4750
 43
1.0000
 50
270.0000
  0
INSERT
  8
31
  2
RECT
 10
10.4525
 20
26.1820
 30
0.0000
 41
0.2500
 42
0.4750
 43
1.0000
 50
270.0000
  0
INSERT
  8
31
  2
RECT
 10
10.4525
 20
26.6820
 30
0.0000
 41
0.2500
 42
0.4750
 43
1.0000
 50
270.0000
  0
INSERT
  8
31
  2
RECT
 10
10.4525
 20
27.1820
 30
0.0000
 41
0.2500
 42
0.4750
 43
1.0000
 50
270.0000
  0
INSERT
  8
31
  2
RECT
 10
10.4525
 20
27.6820
 30
0.0000
 41
0.2500
 42
0.4750
 43
1.0000
 50
270.0000
  0
INSERT
  8
31
  2
RECT
 10
10.4525
 20
28.1820
 30
0.0000
 41
0.2500
 42
0.4750
 43
1.0000
 50
270.0000
  0
INSERT
  8
31
  2
RECT
 10
10.4525
 20
28.6820
 30
0.0000
 41
0.2500
 42
0.4750
 43
1.0000
 50
270.0000
  0
INSERT
  8
31
  2
RECT
 10
10.4525
 20
29.1820
 30
0.0000
 41
0.2500
 42
0.4750
 43
1.0000
 50
270.0000
  0
INSERT
  8
31
  2
RECT
 10
18.1000
 20
5.5579
 30
0.0000
 41
0.5500
 42
1.2000
 43
1.0000
 50
0.0000
  0
INSERT
  8
31
  2
RECT
 10
19.0500
 20
5.5579
 30
0.0000
 41
0.5500
 42
1.2000
 43
1.0000
 50
0.0000
  0
INSERT
  8
31
  2
RECT
 10
20.0000
 20
5.5579
 30
0.0000
 41
0.5500
 42
1.2000
 43
1.0000
 50
0.0000
  0
INSERT
  8
31
  2
RECT
 10
20.0000
 20
8.1581
 30
0.0000
 41
0.5500
 42
1.2000
 43
1.0000
 50
0.0000
  0
INSERT
  8
31
  2
RECT
 10
18.1000
 20
8.1581
 30
0.0000
 41
0.5500
 42
1.2000
 43
1.0000
 50
0.0000
  0
INSERT
  8
31
  2
RECT
 10
6.9240
 20
7.5899
 30
0.0000
 41
0.5500
 42
1.2000
 43
1.0000
 50
0.0000
  0
INSERT
  8
31
  2
RECT
 10
7.8740
 20
7.5899
 30
0.0000
 41
0.5500
 42
1.2000
 43
1.0000
 50
0.0000
  0
INSERT
  8
31
  2
RECT
 10
8.8240
 20
7.5899
 30
0.0000
 41
0.5500
 42
1.2000
 43
1.0000
 50
0.0000
  0
INSERT
  8
31
  2
RECT
 10
8.8240
 20
10.1901
 30
0.0000
 41
0.5500
 42
1.2000
 43
1.0000
 50
0.0000
  0
INSERT
  8
31
  2
RECT
 10
6.9240
 20
10.1901
 30
0.0000
 41
0.5500
 42
1.2000
 43
1.0000
 50
0.0000
  0
POLYLINE
  8
31
 66
1
 10
0.0000
 20
0.0000
 30
0.0000
 40
0.1270
 41
0.1270
 70
0
  0
VERTEX
  8
31
 10
1.3000
 20
5.2180
 30
0.0000
  0
VERTEX
  8
31
 10
1.3159
 20
5.1063
 30
0.0000
  0
SEQEND
  8
0
  0
POLYLINE
  8
31
 66
1
 10
0.0000
 20
0.0000
 30
0.0000
 40
0.0635
 41
0.0635
 70
0
  0
VERTEX
  8
31
 10
1.2845
 20
5.1018
 30
0.0000
 42
1.0000
  0
VERTEX
  8
31
 10
1.3474
 20
5.1108
 30
0.0000
  0
SEQEND
  8
0
  0
POLYLINE
  8
31
 66
1
 10
0.0000
 20
0.0000
 30
0.0000
 40
0.0635
 41
0.0635
 70
0
  0
VERTEX
  8
31
 10
1.3314
 20
5.2225
 30
0.0000
 42
1.0000
  0
VERTEX
  8
31
 10
1.2686
 20
5.2135
 30
0.0000
  0
SEQEND
  8
0
  0
POLYLINE
  8
31
 66
1
 10
0.0000
 20
0.0000
 30
0.0000
 40
0.1270
 41
0.1270
 70
0
  0
VERTEX
  8
31
 10
1.3159
 20
5.1063
 30
0.0000
  0
VERTEX
  8
31
 10
1.3533
 20
4.9999
 30
0.0000
  0
SEQEND
  8
0
  0
POLYLINE
  8
31
 66
1
 10
0.0000
 20
0.0000
 30
0.0000
 40
0.0635
 41
0.0635
 70
0
  0
VERTEX
  8
31
 10
1.3234
 20
4.9893
 30
0.0000
 42
1.0000
  0
VERTEX
  8
31
 10
1.3833
 20
5.0104
 30
0.0000
  0
SEQEND
  8
0
  0
POLYLINE
  8
31
 66
1
 10
0.0000
 20
0.0000
 30
0.0000
 40
0.0635
 41
0.0635
 70
0
  0
VERTEX
  8
31
 10
1.3459
 20
5.1168
 30
0.0000
 42
1.0000
  0
VERTEX
  8
31
 10
1.2860
 20
5.0958
 30
0.0000
  0
SEQEND
  8
0
  0
POLYLINE
  8
31
 66
1
 10
0.0000
 20
0.0000
 30
0.0000
 40
0.1270
 41
0.1270
 70
0
  0
VERTEX
  8
31
 10
1.3533
 20
4.9999
 30
0.0000
  0
VERTEX
  8
31
 10
1.4108
 20
4.9028
 30
0.0000
  0
SEQEND
  8
0
  0
POLYLINE
  8
31
 66
1
 10
0.0000
 20
0.0000
 30
0.0000
 40
0.0635
 41
0.0635
 70
0
  0
VERTEX
  8
31
 10
1.3835
 20
4.8866
 30
0.0000
 42
1.0000
  0
VERTEX
  8
31
 10
1.4381
 20
4.9189
 30
0.0000
  0
SEQEND
  8
0
  0
POLYLINE
  8
31
 66
1
 10
0.0000
 20
0.0000
 30
0.0000
 40
0.0635
 41
0.0635
 70
0
  0
VERTEX
  8
31
 10
1.3807
 20
5.0160
 30
0.0000
 42
1.0000
  0
VERTEX
  8
31
 10
1.3260
 20
4.9837
 30
0.0000
  0
SEQEND
  8
0
  0
POLYLINE
  8
31
 66
1
 10
0.0000
 20
0.0000
 30
0.0000
 40
0.1270
 41
0.1270
 70
0
  0
VERTEX
  8
31
 10
1.4108
 20
4.9028
 30
0.0000
  0
VERTEX
  8
31
 10
1.4861
 20
4.8187
 30
0.0000
  0
SEQEND
  8
0
  0
POLYLINE
  8
31
 66
1
 10
0.0000
 20
0.0000
 30
0.0000
 40
0.0635
 41
0.0635
 70
0
  0
VERTEX
  8
31
 10
1.4624
 20
4.7975
 30
0.0000
 42
1.0000
  0
VERTEX
  8
31
 10
1.5097
 20
4.8399
 30
0.0000
  0
SEQEND
  8
0
  0
POLYLINE
  8
31
 66
1
 10
0.0000
 20
0.0000
 30
0.0000
 40
0.0635
 41
0.0635
 70
0
  0
VERTEX
  8
31
 10
1.4344
 20
4.9239
 30
0.0000
 42
1.0000
  0
VERTEX
  8
31
 10
1.3871
 20
4.8816
 30
0.0000
  0
SEQEND
  8
0
  0
POLYLINE
  8
31
 66
1
 10
0.0000
 20
0.0000
 30
0.0000
 40
0.1270
 41
0.1270
 70
0
  0
VERTEX
  8
31
 10
1.4861
 20
4.8187
 30
0.0000
  0
VERTEX
  8
31
 10
1.5763
 20
4.7510
 30
0.0000
  0
SEQEND
  8
0
  0
POLYLINE
  8
31
 66
1
 10
0.0000
 20
0.0000
 30
0.0000
 40
0.0635
 41
0.0635
 70
0
  0
VERTEX
  8
31
 10
1.5573
 20
4.7256
 30
0.0000
 42
1.0000
  0
VERTEX
  8
31
 10
1.5954
 20
4.7764
 30
0.0000
  0
SEQEND
  8
0
  0
POLYLINE
  8
31
 66
1
 10
0.0000
 20
0.0000
 30
0.0000
 40
0.0635
 41
0.0635
 70
0
  0
VERTEX
  8
31
 10
1.5051
 20
4.8441
 30
0.0000
 42
1.0000
  0
VERTEX
  8
31
 10
1.4670
 20
4.7933
 30
0.0000
  0
SEQEND
  8
0
  0
POLYLINE
  8
31
 66
1
 10
0.0000
 20
0.0000
 30
0.0000
 40
0.1270
 41
0.1270
 70
0
  0
VERTEX
  8
31
 10
1.5763
 20
4.7510
 30
0.0000
  0
VERTEX
  8
31
 10
1.6781
 20
4.7022
 30
0.0000
  0
SEQEND
  8
0
  0
POLYLINE
  8
31
 66
1
 10
0.0000
 20
0.0000
 30
0.0000
 40
0.0635
 41
0.0635
 70
0
  0
VERTEX
  8
31
 10
1.6643
 20
4.6736
 30
0.0000
 42
1.0000
  0
VERTEX
  8
31
 10
1.6918
 20
4.7308
 30
0.0000
  0
SEQEND
  8
0
  0
POLYLINE
  8
31
 66
1
 10
0.0000
 20
0.0000
 30
0.0000
 40
0.0635
 41
0.0635
 70
0
  0
VERTEX
  8
31
 10
1.5901
 20
4.7796
 30
0.0000
 42
1.0000
  0
VERTEX
  8
31
 10
1.5626
 20
4.7224
 30
0.0000
  0
SEQEND
  8
0
  0
POLYLINE
  8
31
 66
1
 10
0.0000
 20
0.0000
 30
0.0000
 40
0.1270
 41
0.1270
 70
0
  0
VERTEX
  8
31
 10
1.6781
 20
4.7022
 30
0.0000
  0
VERTEX
  8
31
 10
1.7873
 20
4.6742
 30
0.0000
  0
SEQEND
  8
0
  0
POLYLINE
  8
31
 66
1
 10
0.0000
 20
0.0000
 30
0.0000
 40
0.0635
 41
0.0635
 70
0
  0
VERTEX
  8
31
 10
1.7795
 20
4.6434
 30
0.0000
 42
1.0000
  0
VERTEX
  8
31
 10
1.7952
 20
4.7049
 30
0.0000
  0
SEQEND
  8
0
  0
POLYLINE
  8
31
 66
1
 10
0.0000
 20
0.0000
 30
0.0000
 40
0.0635
 41
0.0635
 70
0
  0
VERTEX
  8
31
 10
1.6859
 20
4.7330
 30
0.0000
 42
1.0000
  0
VERTEX
  8
31
 10
1.6702
 20
4.6714
 30
0.0000
  0
SEQEND
  8
0
  0
POLYLINE
  8
31
 66
1
 10
0.0000
 20
0.0000
 30
0.0000
 40
0.1270
 41
0.1270
 70
0
  0
VERTEX
  8
31
 10
1.7873
 20
4.6742
 30
0.0000
  0
VERTEX
  8
31
 10
1.9000
 20
4.6680
 30
0.0000
  0
SEQEND
  8
0
  0
POLYLINE
  8
31
 66
1
 10
0.0000
 20
0.0000
 30
0.0000
 40
0.0635
 41
0.0635
 70
0
  0
VERTEX
  8
31
 10
1.8983
 20
4.6363
 30
0.0000
 42
1.0000
  0
VERTEX
  8
31
 10
1.9017
 20
4.6997
 30
0.0000
  0
SEQEND
  8
0
  0
POLYLINE
  8
31
 66
1
 10
0.0000
 20
0.0000
 30
0.0000
 40
0.0635
 41
0.0635
 70
0
  0
VERTEX
  8
31
 10
1.7891
 20
4.7059
 30
0.0000
 42
1.0000
  0
VERTEX
  8
31
 10
1.7856
 20
4.6425
 30
0.0000
  0
SEQEND
  8
0
  0
POLYLINE
  8
31
 66
1
 10
0.0000
 20
0.0000
 30
0.0000
 40
0.1270
 41
0.1270
 70
0
  0
VERTEX
  8
31
 10
1.9000
 20
4.6680
 30
0.0000
  0
VERTEX
  8
31
 10
3.0000
 20
4.6680
 30
0.0000
  0
SEQEND
  8
0
  0
POLYLINE
  8
31
 66
1
 10
0.0000
 20
0.0000
 30
0.0000
 40
0.0635
 41
0.0635
 70
0
  0
VERTEX
  8
31
 10
3.0000
 20
4.6363
 30
0.0000
 42
1.0000
  0
VERTEX
  8
31
 10
3.0000
 20
4.6997
 30
0.0000
  0
SEQEND
  8
0
  0
POLYLINE
  8
31
 66
1
 10
0.0000
 20
0.0000
 30
0.0000
 40
0.0635
 41
0.0635
 70
0
  0
VERTEX
  8
31
 10
1.9000
 20
4.6997
 30
0.0000
 42
1.0000
  0
VERTEX
  8
31
 10
1.9000
 20
4.6363
 30
0.0000
  0
SEQEND
  8
0
  0
POLYLINE
  8
31
 66
1
 10
0.0000
 20
0.0000
 30
0.0000
 40
0.1270
 41
0.1270
 70
0
  0
VERTEX
  8
31
 10
3.0000
 20
4.6680
 30
0.0000
  0
VERTEX
  8
31
 10
3.1127
 20
4.6742
 30
0.0000
  0
SEQEND
  8
0
  0
POLYLINE
  8
31
 66
1
 10
0.0000
 20
0.0000
 30
0.0000
 40
0.0635
 41
0.0635
 70
0
  0
VERTEX
  8
31
 10
3.1144
 20
4.6425
 30
0.0000
 42
1.0000
  0
VERTEX
  8
31
 10
3.1109
 20
4.7059
 30
0.0000
  0
SEQEND
  8
0
  0
POLYLINE
  8
31
 66
1
 10
0.0000
 20
0.0000
 30
0.0000
 40
0.0635
 41
0.0635
 70
0
  0
VERTEX
  8
31
 10
2.9983
 20
4.6997
 30
0.0000
 42
1.0000
  0
VERTEX
  8
31
 10
3.0017
 20
4.6363
 30
0.0000
  0
SEQEND
  8
0
  0
POLYLINE
  8
31
 66
1
 10
0.0000
 20
0.0000
 30
0.0000
 40
0.1270
 41
0.1270
 70
0
  0
VERTEX
  8
31
 10
3.1127
 20
4.6742
 30
0.0000
  0
VERTEX
  8
31
 10
3.2219
 20
4.7022
 30
0.0000
  0
SEQEND
  8
0
  0
POLYLINE
  8
31
 66
1
 10
0.0000
 20
0.0000
 30
0.0000
 40
0.0635
 41
0.0635
 70
0
  0
VERTEX
  8
31
 10
3.2298
 20
4.6714
 30
0.0000
 42
1.0000
  0
VERTEX
  8
31
 10
3.2141
 20
4.7330
 30
0.0000
  0
SEQEND
  8
0
  0
POLYLINE
  8
31
 66
1
 10
0.0000
 20
0.0000
 30
0.0000
 40
0.0635
 41
0.0635
 70
0
  0
VERTEX
  8
31
 10
3.1048
 20
4.7049
 30
0.0000
 42
1.0000
  0
VERTEX
  8
31
 10
3.1205
 20
4.6434
 30
0.0000
  0
SEQEND
  8
0
  0
POLYLINE
  8
31
 66
1
 10
0.0000
 20
0.0000
 30
0.0000
 40
0.1270
 41
0.1270
 70
0
  0
VERTEX
  8
31
 10
3.2219
 20
4.7022
 30
0.0000
  0
VERTEX
  8
31
 10
3.3237
 20
4.7510
 30
0.0000
  0
SEQEND
  8
0
  0
POLYLINE
  8
31
 66
1
 10
0.0000
 20
0.0000
 30
0.0000
 40
0.0635
 41
0.0635
 70
0
  0
VERTEX
  8
31
 10
3.3374
 20
4.7224
 30
0.0000
 42
1.0000
  0
VERTEX
  8
31
 10
3.3099
 20
4.7796
 30
0.0000
  0
SEQEND
  8
0
  0
POLYLINE
  8
31
 66
1
 10
0.0000
 20
0.0000
 30
0.0000
 40
0.0635
 41
0.0635
 70
0
  0
VERTEX
  8
31
 10
3.2082
 20
4.7308
 30
0.0000
 42
1.0000
  0
VERTEX
  8
31
 10
3.2357
 20
4.6736
 30
0.0000
  0
SEQEND
  8
0
  0
POLYLINE
  8
31
 66
1
 10
0.0000
 20
0.0000
 30
0.0000
 40
0.1270
 41
0.1270
 70
0
  0
VERTEX
  8
31
 10
3.3237
 20
4.7510
 30
0.0000
  0
VERTEX
  8
31
 10
3.4139
 20
4.8187
 30
0.0000
  0
SEQEND
  8
0
  0
POLYLINE
  8
31
 66
1
 10
0.0000
 20
0.0000
 30
0.0000
 40
0.0635
 41
0.0635
 70
0
  0
VERTEX
  8
31
 10
3.4330
 20
4.7933
 30
0.0000
 42
1.0000
  0
VERTEX
  8
31
 10
3.3949
 20
4.8441
 30
0.0000
  0
SEQEND
  8
0
  0
POLYLINE
  8
31
 66
1
 10
0.0000
 20
0.0000
 30
0.0000
 40
0.0635
 41
0.0635
 70
0
  0
VERTEX
  8
31
 10
3.3046
 20
4.7764
 30
0.0000
 42
1.0000
  0
VERTEX
  8
31
 10
3.3427
 20
4.7256
 30
0.0000
  0
SEQEND
  8
0
  0
POLYLINE
  8
31
 66
1
 10
0.0000
 20
0.0000
 30
0.0000
 40
0.1270
 41
0.1270
 70
0
  0
VERTEX
  8
31
 10
3.4139
 20
4.8187
 30
0.0000
  0
VERTEX
  8
31
 10
3.4892
 20
4.9028
 30
0.0000
  0
SEQEND
  8
0
  0
POLYLINE
  8
31
 66
1
 10
0.0000
 20
0.0000
 30
0.0000
 40
0.0635
 41
0.0635
 70
0
  0
VERTEX
  8
31
 10
3.5129
 20
4.8816
 30
0.0000
 42
1.0000
  0
VERTEX
  8
31
 10
3.4656
 20
4.9239
 30
0.0000
  0
SEQEND
  8
0
  0
POLYLINE
  8
31
 66
1
 10
0.0000
 20
0.0000
 30
0.0000
 40
0.0635
 41
0.0635
 70
0
  0
VERTEX
  8
31
 10
3.3903
 20
4.8399
 30
0.0000
 42
1.0000
  0
VERTEX
  8
31
 10
3.4376
 20
4.7975
 30
0.0000
  0
SEQEND
  8
0
  0
POLYLINE
  8
31
 66
1
 10
0.0000
 20
0.0000
 30
0.0000
 40
0.1270
 41
0.1270
 70
0
  0
VERTEX
  8
31
 10
3.4892
 20
4.9028
 30
0.0000
  0
VERTEX
  8
31
 10
3.5467
 20
4.9999
 30
0.0000
  0
SEQEND
  8
0
  0
POLYLINE
  8
31
 66
1
 10
0.0000
 20
0.0000
 30
0.0000
 40
0.0635
 41
0.0635
 70
0
  0
VERTEX
  8
31
 10
3.5740
 20
4.9837
 30
0.0000
 42
1.0000
  0
VERTEX
  8
31
 10
3.5193
 20
5.0160
 30
0.0000
  0
SEQEND
  8
0
  0
POLYLINE
  8
31
 66
1
 10
0.0000
 20
0.0000
 30
0.0000
 40
0.0635
 41
0.0635
 70
0
  0
VERTEX
  8
31
 10
3.4619
 20
4.9189
 30
0.0000
 42
1.0000
  0
VERTEX
  8
31
 10
3.5165
 20
4.8866
 30
0.0000
  0
SEQEND
  8
0
  0
POLYLINE
  8
31
 66
1
 10
0.0000
 20
0.0000
 30
0.0000
 40
0.1270
 41
0.1270
 70
0
  0
VERTEX
  8
31
 10
3.5467
 20
4.9999
 30
0.0000
  0
VERTEX
  8
31
 10
3.5841
 20
5.1063
 30
0.0000
  0
SEQEND
  8
0
  0
POLYLINE
  8
31
 66
1
 10
0.0000
 20
0.0000
 30
0.0000
 40
0.0635
 41
0.0635
 70
0
  0
VERTEX
  8
31
 10
3.6140
 20
5.0958
 30
0.0000
 42
1.0000
  0
VERTEX
  8
31
 10
3.5541
 20
5.1168
 30
0.0000
  0
SEQEND
  8
0
  0
POLYLINE
  8
31
 66
1
 10
0.0000
 20
0.0000
 30
0.0000
 40
0.0635
 41
0.0635
 70
0
  0
VERTEX
  8
31
 10
3.5167
 20
5.0104
 30
0.0000
 42
1.0000
  0
VERTEX
  8
31
 10
3.5766
 20
4.9893
 30
0.0000
  0
SEQEND
  8
0
  0
POLYLINE
  8
31
 66
1
 10
0.0000
 20
0.0000
 30
0.0000
 40
0.1270
 41
0.1270
 70
0
  0
VERTEX
  8
31
 10
3.5841
 20
5.1063
 30
0.0000
  0
VERTEX
  8
31
 10
3.6000
 20
5.2180
 30
0.0000
  0
SEQEND
  8
0
  0
POLYLINE
  8
31
 66
1
 10
0.0000
 20
0.0000
 30
0.0000
 40
0.0635
 41
0.0635
 70
0
  0
VERTEX
  8
31
 10
3.6314
 20
5.2135
 30
0.0000
 42
1.0000
  0
VERTEX
  8
31
 10
3.5686
 20
5.2225
 30
0.0000
  0
SEQEND
  8
0
  0
POLYLINE
  8
31
 66
1
 10
0.0000
 20
0.0000
 30
0.0000
 40
0.0635
 41
0.0635
 70
0
  0
VERTEX
  8
31
 10
3.5526
 20
5.1108
 30
0.0000
 42
1.0000
  0
VERTEX
  8
31
 10
3.6155
 20
5.1018
 30
0.0000
  0
SEQEND
  8
0
  0
POLYLINE
  8
31
 66
1
 10
0.0000
 20
0.0000
 30
0.0000
 40
0.1270
 41
0.1270
 70
0
  0
VERTEX
  8
31
 10
3.6000
 20
5.2180
 30
0.0000
  0
VERTEX
  8
31
 10
3.5800
 20
5.3453
 30
0.0000
  0
SEQEND
  8
0
  0
POLYLINE
  8
31
 66
1
 10
0.0000
 20
0.0000
 30
0.0000
 40
0.0635
 41
0.0635
 70
0
  0
VERTEX
  8
31
 10
3.6114
 20
5.3502
 30
0.0000
 42
1.0000
  0
VERTEX
  8
31
 10
3.5487
 20
5.3404
 30
0.0000
  0
SEQEND
  8
0
  0
POLYLINE
  8
31
 66
1
 10
0.0000
 20
0.0000
 30
0.0000
 40
0.0635
 41
0.0635
 70
0
  0
VERTEX
  8
31
 10
3.5686
 20
5.2131
 30
0.0000
 42
1.0000
  0
VERTEX
  8
31
 10
3.6314
 20
5.2229
 30
0.0000
  0
SEQEND
  8
0
  0
POLYLINE
  8
31
 66
1
 10
0.0000
 20
0.0000
 30
0.0000
 40
0.1270
 41
0.1270
 70
0
  0
VERTEX
  8
31
 10
3.5800
 20
5.3453
 30
0.0000
  0
VERTEX
  8
31
 10
3.5322
 20
5.4650
 30
0.0000
  0
SEQEND
  8
0
  0
POLYLINE
  8
31
 66
1
 10
0.0000
 20
0.0000
 30
0.0000
 40
0.0635
 41
0.0635
 70
0
  0
VERTEX
  8
31
 10
3.5617
 20
5.4768
 30
0.0000
 42
1.0000
  0
VERTEX
  8
31
 10
3.5027
 20
5.4532
 30
0.0000
  0
SEQEND
  8
0
  0
POLYLINE
  8
31
 66
1
 10
0.0000
 20
0.0000
 30
0.0000
 40
0.0635
 41
0.0635
 70
0
  0
VERTEX
  8
31
 10
3.5505
 20
5.3335
 30
0.0000
 42
1.0000
  0
VERTEX
  8
31
 10
3.6095
 20
5.3571
 30
0.0000
  0
SEQEND
  8
0
  0
POLYLINE
  8
31
 66
1
 10
0.0000
 20
0.0000
 30
0.0000
 40
0.1270
 41
0.1270
 70
0
  0
VERTEX
  8
31
 10
3.5322
 20
5.4650
 30
0.0000
  0
VERTEX
  8
31
 10
3.4590
 20
5.5711
 30
0.0000
  0
SEQEND
  8
0
  0
POLYLINE
  8
31
 66
1
 10
0.0000
 20
0.0000
 30
0.0000
 40
0.0635
 41
0.0635
 70
0
  0
VERTEX
  8
31
 10
3.4851
 20
5.5891
 30
0.0000
 42
1.0000
  0
VERTEX
  8
31
 10
3.4328
 20
5.5530
 30
0.0000
  0
SEQEND
  8
0
  0
POLYLINE
  8
31
 66
1
 10
0.0000
 20
0.0000
 30
0.0000
 40
0.0635
 41
0.0635
 70
0
  0
VERTEX
  8
31
 10
3.5061
 20
5.4470
 30
0.0000
 42
1.0000
  0
VERTEX
  8
31
 10
3.5583
 20
5.4830
 30
0.0000
  0
SEQEND
  8
0
  0
POLYLINE
  8
31
 66
1
 10
0.0000
 20
0.0000
 30
0.0000
 40
0.1270
 41
0.1270
 70
0
  0
VERTEX
  8
31
 10
3.4590
 20
5.5711
 30
0.0000
  0
VERTEX
  8
31
 10
3.3640
 20
5.6581
 30
0.0000
  0
SEQEND
  8
0
  0
POLYLINE
  8
31
 66
1
 10
0.0000
 20
0.0000
 30
0.0000
 40
0.0635
 41
0.0635
 70
0
  0
VERTEX
  8
31
 10
3.3854
 20
5.6815
 30
0.0000
 42
1.0000
  0
VERTEX
  8
31
 10
3.3425
 20
5.6347
 30
0.0000
  0
SEQEND
  8
0
  0
POLYLINE
  8
31
 66
1
 10
0.0000
 20
0.0000
 30
0.0000
 40
0.0635
 41
0.0635
 70
0
  0
VERTEX
  8
31
 10
3.4375
 20
5.5476
 30
0.0000
 42
1.0000
  0
VERTEX
  8
31
 10
3.4804
 20
5.5945
 30
0.0000
  0
SEQEND
  8
0
  0
POLYLINE
  8
31
 66
1
 10
0.0000
 20
0.0000
 30
0.0000
 40
0.1270
 41
0.1270
 70
0
  0
VERTEX
  8
31
 10
3.3640
 20
5.6581
 30
0.0000
  0
VERTEX
  8
31
 10
3.2520
 20
5.7219
 30
0.0000
  0
SEQEND
  8
0
  0
POLYLINE
  8
31
 66
1
 10
0.0000
 20
0.0000
 30
0.0000
 40
0.0635
 41
0.0635
 70
0
  0
VERTEX
  8
31
 10
3.2677
 20
5.7495
 30
0.0000
 42
1.0000
  0
VERTEX
  8
31
 10
3.2363
 20
5.6943
 30
0.0000
  0
SEQEND
  8
0
  0
POLYLINE
  8
31
 66
1
 10
0.0000
 20
0.0000
 30
0.0000
 40
0.0635
 41
0.0635
 70
0
  0
VERTEX
  8
31
 10
3.3483
 20
5.6305
 30
0.0000
 42
1.0000
  0
VERTEX
  8
31
 10
3.3797
 20
5.6857
 30
0.0000
  0
SEQEND
  8
0
  0
POLYLINE
  8
31
 66
1
 10
0.0000
 20
0.0000
 30
0.0000
 40
0.1270
 41
0.1270
 70
0
  0
VERTEX
  8
31
 10
3.2520
 20
5.7219
 30
0.0000
  0
VERTEX
  8
31
 10
3.1286
 20
5.7591
 30
0.0000
  0
SEQEND
  8
0
  0
POLYLINE
  8
31
 66
1
 10
0.0000
 20
0.0000
 30
0.0000
 40
0.0635
 41
0.0635
 70
0
  0
VERTEX
  8
31
 10
3.1377
 20
5.7895
 30
0.0000
 42
1.0000
  0
VERTEX
  8
31
 10
3.1194
 20
5.7288
 30
0.0000
  0
SEQEND
  8
0
  0
POLYLINE
  8
31
 66
1
 10
0.0000
 20
0.0000
 30
0.0000
 40
0.0635
 41
0.0635
 70
0
  0
VERTEX
  8
31
 10
3.2428
 20
5.6915
 30
0.0000
 42
1.0000
  0
VERTEX
  8
31
 10
3.2611
 20
5.7523
 30
0.0000
  0
SEQEND
  8
0
  0
POLYLINE
  8
31
 66
1
 10
0.0000
 20
0.0000
 30
0.0000
 40
0.1270
 41
0.1270
 70
0
  0
VERTEX
  8
31
 10
3.1286
 20
5.7591
 30
0.0000
  0
VERTEX
  8
31
 10
3.0000
 20
5.7680
 30
0.0000
  0
SEQEND
  8
0
  0
POLYLINE
  8
31
 66
1
 10
0.0000
 20
0.0000
 30
0.0000
 40
0.0635
 41
0.0635
 70
0
  0
VERTEX
  8
31
 10
3.0022
 20
5.7997
 30
0.0000
 42
1.0000
  0
VERTEX
  8
31
 10
2.9978
 20
5.7363
 30
0.0000
  0
SEQEND
  8
0
  0
POLYLINE
  8
31
 66
1
 10
0.0000
 20
0.0000
 30
0.0000
 40
0.0635
 41
0.0635
 70
0
  0
VERTEX
  8
31
 10
3.1264
 20
5.7275
 30
0.0000
 42
1.0000
  0
VERTEX
  8
31
 10
3.1308
 20
5.7908
 30
0.0000
  0
SEQEND
  8
0
  0
POLYLINE
  8
31
 66
1
 10
0.0000
 20
0.0000
 30
0.0000
 40
0.1270
 41
0.1270
 70
0
  0
VERTEX
  8
31
 10
3.0000
 20
5.7680
 30
0.0000
  0
VERTEX
  8
31
 10
1.9000
 20
5.7680
 30
0.0000
  0
SEQEND
  8
0
  0
POLYLINE
  8
31
 66
1
 10
0.0000
 20
0.0000
 30
0.0000
 40
0.0635
 41
0.0635
 70
0
  0
VERTEX
  8
31
 10
1.9000
 20
5.7998
 30
0.0000
 42
1.0000
  0
VERTEX
  8
31
 10
1.9000
 20
5.7363
 30
0.0000
  0
SEQEND
  8
0
  0
POLYLINE
  8
31
 66
1
 10
0.0000
 20
0.0000
 30
0.0000
 40
0.0635
 41
0.0635
 70
0
  0
VERTEX
  8
31
 10
3.0000
 20
5.7363
 30
0.0000
 42
1.0000
  0
VERTEX
  8
31
 10
3.0000
 20
5.7998
 30
0.0000
  0
SEQEND
  8
0
  0
POLYLINE
  8
31
 66
1
 10
0.0000
 20
0.0000
 30
0.0000
 40
0.1270
 41
0.1270
 70
0
  0
VERTEX
  8
31
 10
1.9000
 20
5.7680
 30
0.0000
  0
VERTEX
  8
31
 10
1.7873
 20
5.7618
 30
0.0000
  0
SEQEND
  8
0
  0
POLYLINE
  8
31
 66
1
 10
0.0000
 20
0.0000
 30
0.0000
 40
0.0635
 41
0.0635
 70
0
  0
VERTEX
  8
31
 10
1.7856
 20
5.7935
 30
0.0000
 42
1.0000
  0
VERTEX
  8
31
 10
1.7891
 20
5.7301
 30
0.0000
  0
SEQEND
  8
0
  0
POLYLINE
  8
31
 66
1
 10
0.0000
 20
0.0000
 30
0.0000
 40
0.0635
 41
0.0635
 70
0
  0
VERTEX
  8
31
 10
1.9017
 20
5.7363
 30
0.0000
 42
1.0000
  0
VERTEX
  8
31
 10
1.8983
 20
5.7997
 30
0.0000
  0
SEQEND
  8
0
  0
POLYLINE
  8
31
 66
1
 10
0.0000
 20
0.0000
 30
0.0000
 40
0.1270
 41
0.1270
 70
0
  0
VERTEX
  8
31
 10
1.7873
 20
5.7618
 30
0.0000
  0
VERTEX
  8
31
 10
1.6781
 20
5.7338
 30
0.0000
  0
SEQEND
  8
0
  0
POLYLINE
  8
31
 66
1
 10
0.0000
 20
0.0000
 30
0.0000
 40
0.0635
 41
0.0635
 70
0
  0
VERTEX
  8
31
 10
1.6702
 20
5.7646
 30
0.0000
 42
1.0000
  0
VERTEX
  8
31
 10
1.6859
 20
5.7030
 30
0.0000
  0
SEQEND
  8
0
  0
POLYLINE
  8
31
 66
1
 10
0.0000
 20
0.0000
 30
0.0000
 40
0.0635
 41
0.0635
 70
0
  0
VERTEX
  8
31
 10
1.7952
 20
5.7311
 30
0.0000
 42
1.0000
  0
VERTEX
  8
31
 10
1.7795
 20
5.7926
 30
0.0000
  0
SEQEND
  8
0
  0
POLYLINE
  8
31
 66
1
 10
0.0000
 20
0.0000
 30
0.0000
 40
0.1270
 41
0.1270
 70
0
  0
VERTEX
  8
31
 10
1.6781
 20
5.7338
 30
0.0000
  0
VERTEX
  8
31
 10
1.5763
 20
5.6850
 30
0.0000
  0
SEQEND
  8
0
  0
POLYLINE
  8
31
 66
1
 10
0.0000
 20
0.0000
 30
0.0000
 40
0.0635
 41
0.0635
 70
0
  0
VERTEX
  8
31
 10
1.5626
 20
5.7136
 30
0.0000
 42
1.0000
  0
VERTEX
  8
31
 10
1.5901
 20
5.6564
 30
0.0000
  0
SEQEND
  8
0
  0
POLYLINE
  8
31
 66
1
 10
0.0000
 20
0.0000
 30
0.0000
 40
0.0635
 41
0.0635
 70
0
  0
VERTEX
  8
31
 10
1.6918
 20
5.7052
 30
0.0000
 42
1.0000
  0
VERTEX
  8
31
 10
1.6643
 20
5.7624
 30
0.0000
  0
SEQEND
  8
0
  0
POLYLINE
  8
31
 66
1
 10
0.0000
 20
0.0000
 30
0.0000
 40
0.1270
 41
0.1270
 70
0
  0
VERTEX
  8
31
 10
1.5763
 20
5.6850
 30
0.0000
  0
VERTEX
  8
31
 10
1.4861
 20
5.6173
 30
0.0000
  0
SEQEND
  8
0
  0
POLYLINE
  8
31
 66
1
 10
0.0000
 20
0.0000
 30
0.0000
 40
0.0635
 41
0.0635
 70
0
  0
VERTEX
  8
31
 10
1.4670
 20
5.6427
 30
0.0000
 42
1.0000
  0
VERTEX
  8
31
 10
1.5051
 20
5.5919
 30
0.0000
  0
SEQEND
  8
0
  0
POLYLINE
  8
31
 66
1
 10
0.0000
 20
0.0000
 30
0.0000
 40
0.0635
 41
0.0635
 70
0
  0
VERTEX
  8
31
 10
1.5954
 20
5.6596
 30
0.0000
 42
1.0000
  0
VERTEX
  8
31
 10
1.5573
 20
5.7104
 30
0.0000
  0
SEQEND
  8
0
  0
POLYLINE
  8
31
 66
1
 10
0.0000
 20
0.0000
 30
0.0000
 40
0.1270
 41
0.1270
 70
0
  0
VERTEX
  8
31
 10
1.4861
 20
5.6173
 30
0.0000
  0
VERTEX
  8
31
 10
1.4108
 20
5.5332
 30
0.0000
  0
SEQEND
  8
0
  0
POLYLINE
  8
31
 66
1
 10
0.0000
 20
0.0000
 30
0.0000
 40
0.0635
 41
0.0635
 70
0
  0
VERTEX
  8
31
 10
1.3871
 20
5.5544
 30
0.0000
 42
1.0000
  0
VERTEX
  8
31
 10
1.4344
 20
5.5121
 30
0.0000
  0
SEQEND
  8
0
  0
POLYLINE
  8
31
 66
1
 10
0.0000
 20
0.0000
 30
0.0000
 40
0.0635
 41
0.0635
 70
0
  0
VERTEX
  8
31
 10
1.5097
 20
5.5961
 30
0.0000
 42
1.0000
  0
VERTEX
  8
31
 10
1.4624
 20
5.6385
 30
0.0000
  0
SEQEND
  8
0
  0
POLYLINE
  8
31
 66
1
 10
0.0000
 20
0.0000
 30
0.0000
 40
0.1270
 41
0.1270
 70
0
  0
VERTEX
  8
31
 10
1.4108
 20
5.5332
 30
0.0000
  0
VERTEX
  8
31
 10
1.3533
 20
5.4361
 30
0.0000
  0
SEQEND
  8
0
  0
POLYLINE
  8
31
 66
1
 10
0.0000
 20
0.0000
 30
0.0000
 40
0.0635
 41
0.0635
 70
0
  0
VERTEX
  8
31
 10
1.3260
 20
5.4523
 30
0.0000
 42
1.0000
  0
VERTEX
  8
31
 10
1.3807
 20
5.4200
 30
0.0000
  0
SEQEND
  8
0
  0
POLYLINE
  8
31
 66
1
 10
0.0000
 20
0.0000
 30
0.0000
 40
0.0635
 41
0.0635
 70
0
  0
VERTEX
  8
31
 10
1.4381
 20
5.5171
 30
0.0000
 42
1.0000
  0
VERTEX
  8
31
 10
1.3835
 20
5.5494
 30
0.0000
  0
SEQEND
  8
0
  0
POLYLINE
  8
31
 66
1
 10
0.0000
 20
0.0000
 30
0.0000
 40
0.1270
 41
0.1270
 70
0
  0
VERTEX
  8
31
 10
1.3533
 20
5.4361
 30
0.0000
  0
VERTEX
  8
31
 10
1.3159
 20
5.3297
 30
0.0000
  0
SEQEND
  8
0
  0
POLYLINE
  8
31
 66
1
 10
0.0000
 20
0.0000
 30
0.0000
 40
0.0635
 41
0.0635
 70
0
  0
VERTEX
  8
31
 10
1.2860
 20
5.3402
 30
0.0000
 42
1.0000
  0
VERTEX
  8
31
 10
1.3459
 20
5.3192
 30
0.0000
  0
SEQEND
  8
0
  0
POLYLINE
  8
31
 66
1
 10
0.0000
 20
0.0000
 30
0.0000
 40
0.0635
 41
0.0635
 70
0
  0
VERTEX
  8
31
 10
1.3833
 20
5.4256
 30
0.0000
 42
1.0000
  0
VERTEX
  8
31
 10
1.3234
 20
5.4467
 30
0.0000
  0
SEQEND
  8
0
  0
POLYLINE
  8
31
 66
1
 10
0.0000
 20
0.0000
 30
0.0000
 40
0.1270
 41
0.1270
 70
0
  0
VERTEX
  8
31
 10
1.3159
 20
5.3297
 30
0.0000
  0
VERTEX
  8
31
 10
1.3000
 20
5.2180
 30
0.0000
  0
SEQEND
  8
0
  0
POLYLINE
  8
31
 66
1
 10
0.0000
 20
0.0000
 30
0.0000
 40
0.0635
 41
0.0635
 70
0
  0
VERTEX
  8
31
 10
1.2686
 20
5.2225
 30
0.0000
 42
1.0000
  0
VERTEX
  8
31
 10
1.3314
 20
5.2135
 30
0.0000
  0
SEQEND
  8
0
  0
POLYLINE
  8
31
 66
1
 10
0.0000
 20
0.0000
 30
0.0000
 40
0.0635
 41
0.0635
 70
0
  0
VERTEX
  8
31
 10
1.3474
 20
5.3252
 30
0.0000
 42
1.0000
  0
VERTEX
  8
31
 10
1.2845
 20
5.3342
 30
0.0000
  0
SEQEND
  8
0
  0
POLYLINE
  8
31
 66
1
 10
0.0000
 20
0.0000
 30
0.0000
 40
0.1270
 41
0.1270
 70
0
  0
VERTEX
  8
31
 10
1.6905
 20
4.6990
 30
0.0000
  0
VERTEX
  8
31
 10
3.2095
 20
4.6990
 30
0.0000
  0
SEQEND
  8
0
  0
POLYLINE
  8
31
 66
1
 10
0.0000
 20
0.0000
 30
0.0000
 40
0.0635
 41
0.0635
 70
0
  0
VERTEX
  8
31
 10
3.2095
 20
4.6673
 30
0.0000
 42
1.0000
  0
VERTEX
  8
31
 10
3.2095
 20
4.7307
 30
0.0000
  0
SEQEND
  8
0
  0
POLYLINE
  8
31
 66
1
 10
0.0000
 20
0.0000
 30
0.0000
 40
0.0635
 41
0.0635
 70
0
  0
VERTEX
  8
31
 10
1.6905
 20
4.7307
 30
0.0000
 42
1.0000
  0
VERTEX
  8
31
 10
1.6905
 20
4.6673
 30
0.0000
  0
SEQEND
  8
0
  0
POLYLINE
  8
31
 66
1
 10
0.0000
 20
0.0000
 30
0.0000
 40
0.1270
 41
0.1270
 70
0
  0
VERTEX
  8
31
 10
1.4796
 20
4.8260
 30
0.0000
  0
VERTEX
  8
31
 10
3.4204
 20
4.8260
 30
0.0000
  0
SEQEND
  8
0
  0
POLYLINE
  8
31
 66
1
 10
0.0000
 20
0.0000
 30
0.0000
 40
0.0635
 41
0.0635
 70
0
  0
VERTEX
  8
31
 10
3.4204
 20
4.7943
 30
0.0000
 42
1.0000
  0
VERTEX
  8
31
 10
3.4204
 20
4.8578
 30
0.0000
  0
SEQEND
  8
0
  0
POLYLINE
  8
31
 66
1
 10
0.0000
 20
0.0000
 30
0.0000
 40
0.0635
 41
0.0635
 70
0
  0
VERTEX
  8
31
 10
1.4796
 20
4.8578
 30
0.0000
 42
1.0000
  0
VERTEX
  8
31
 10
1.4796
 20
4.7943
 30
0.0000
  0
SEQEND
  8
0
  0
POLYLINE
  8
31
 66
1
 10
0.0000
 20
0.0000
 30
0.0000
 40
0.1270
 41
0.1270
 70
0
  0
VERTEX
  8
31
 10
1.3811
 20
4.9530
 30
0.0000
  0
VERTEX
  8
31
 10
3.5189
 20
4.9530
 30
0.0000
  0
SEQEND
  8
0
  0
POLYLINE
  8
31
 66
1
 10
0.0000
 20
0.0000
 30
0.0000
 40
0.0635
 41
0.0635
 70
0
  0
VERTEX
  8
31
 10
3.5189
 20
4.9213
 30
0.0000
 42
1.0000
  0
VERTEX
  8
31
 10
3.5189
 20
4.9848
 30
0.0000
  0
SEQEND
  8
0
  0
POLYLINE
  8
31
 66
1
 10
0.0000
 20
0.0000
 30
0.0000
 40
0.0635
 41
0.0635
 70
0
  0
VERTEX
  8
31
 10
1.3811
 20
4.9848
 30
0.0000
 42
1.0000
  0
VERTEX
  8
31
 10
1.3811
 20
4.9213
 30
0.0000
  0
SEQEND
  8
0
  0
POLYLINE
  8
31
 66
1
 10
0.0000
 20
0.0000
 30
0.0000
 40
0.1270
 41
0.1270
 70
0
  0
VERTEX
  8
31
 10
1.3252
 20
5.0800
 30
0.0000
  0
VERTEX
  8
31
 10
3.5748
 20
5.0800
 30
0.0000
  0
SEQEND
  8
0
  0
POLYLINE
  8
31
 66
1
 10
0.0000
 20
0.0000
 30
0.0000
 40
0.0635
 41
0.0635
 70
0
  0
VERTEX
  8
31
 10
3.5748
 20
5.0483
 30
0.0000
 42
1.0000
  0
VERTEX
  8
31
 10
3.5748
 20
5.1117
 30
0.0000
  0
SEQEND
  8
0
  0
POLYLINE
  8
31
 66
1
 10
0.0000
 20
0.0000
 30
0.0000
 40
0.0635
 41
0.0635
 70
0
  0
VERTEX
  8
31
 10
1.3252
 20
5.1117
 30
0.0000
 42
1.0000
  0
VERTEX
  8
31
 10
1.3252
 20
5.0483
 30
0.0000
  0
SEQEND
  8
0
  0
POLYLINE
  8
31
 66
1
 10
0.0000
 20
0.0000
 30
0.0000
 40
0.1270
 41
0.1270
 70
0
  0
VERTEX
  8
31
 10
1.3016
 20
5.2070
 30
0.0000
  0
VERTEX
  8
31
 10
3.5984
 20
5.2070
 30
0.0000
  0
SEQEND
  8
0
  0
POLYLINE
  8
31
 66
1
 10
0.0000
 20
0.0000
 30
0.0000
 40
0.0635
 41
0.0635
 70
0
  0
VERTEX
  8
31
 10
3.5984
 20
5.1753
 30
0.0000
 42
1.0000
  0
VERTEX
  8
31
 10
3.5984
 20
5.2387
 30
0.0000
  0
SEQEND
  8
0
  0
POLYLINE
  8
31
 66
1
 10
0.0000
 20
0.0000
 30
0.0000
 40
0.0635
 41
0.0635
 70
0
  0
VERTEX
  8
31
 10
1.3016
 20
5.2387
 30
0.0000
 42
1.0000
  0
VERTEX
  8
31
 10
1.3016
 20
5.1753
 30
0.0000
  0
SEQEND
  8
0
  0
POLYLINE
  8
31
 66
1
 10
0.0000
 20
0.0000
 30
0.0000
 40
0.1270
 41
0.1270
 70
0
  0
VERTEX
  8
31
 10
1.3174
 20
5.3340
 30
0.0000
  0
VERTEX
  8
31
 10
3.5818
 20
5.3340
 30
0.0000
  0
SEQEND
  8
0
  0
POLYLINE
  8
31
 66
1
 10
0.0000
 20
0.0000
 30
0.0000
 40
0.0635
 41
0.0635
 70
0
  0
VERTEX
  8
31
 10
3.5818
 20
5.3023
 30
0.0000
 42
1.0000
  0
VERTEX
  8
31
 10
3.5818
 20
5.3658
 30
0.0000
  0
SEQEND
  8
0
  0
POLYLINE
  8
31
 66
1
 10
0.0000
 20
0.0000
 30
0.0000
 40
0.0635
 41
0.0635
 70
0
  0
VERTEX
  8
31
 10
1.3174
 20
5.3658
 30
0.0000
 42
1.0000
  0
VERTEX
  8
31
 10
1.3174
 20
5.3023
 30
0.0000
  0
SEQEND
  8
0
  0
POLYLINE
  8
31
 66
1
 10
0.0000
 20
0.0000
 30
0.0000
 40
0.1270
 41
0.1270
 70
0
  0
VERTEX
  8
31
 10
1.3680
 20
5.4610
 30
0.0000
  0
VERTEX
  8
31
 10
3.5338
 20
5.4610
 30
0.0000
  0
SEQEND
  8
0
  0
POLYLINE
  8
31
 66
1
 10
0.0000
 20
0.0000
 30
0.0000
 40
0.0635
 41
0.0635
 70
0
  0
VERTEX
  8
31
 10
3.5338
 20
5.4293
 30
0.0000
 42
1.0000
  0
VERTEX
  8
31
 10
3.5338
 20
5.4928
 30
0.0000
  0
SEQEND
  8
0
  0
POLYLINE
  8
31
 66
1
 10
0.0000
 20
0.0000
 30
0.0000
 40
0.0635
 41
0.0635
 70
0
  0
VERTEX
  8
31
 10
1.3680
 20
5.4928
 30
0.0000
 42
1.0000
  0
VERTEX
  8
31
 10
1.3680
 20
5.4293
 30
0.0000
  0
SEQEND
  8
0
  0
POLYLINE
  8
31
 66
1
 10
0.0000
 20
0.0000
 30
0.0000
 40
0.1270
 41
0.1270
 70
0
  0
VERTEX
  8
31
 10
1.4599
 20
5.5880
 30
0.0000
  0
VERTEX
  8
31
 10
3.4405
 20
5.5880
 30
0.0000
  0
SEQEND
  8
0
  0
POLYLINE
  8
31
 66
1
 10
0.0000
 20
0.0000
 30
0.0000
 40
0.0635
 41
0.0635
 70
0
  0
VERTEX
  8
31
 10
3.4405
 20
5.5563
 30
0.0000
 42
1.0000
  0
VERTEX
  8
31
 10
3.4405
 20
5.6197
 30
0.0000
  0
SEQEND
  8
0
  0
POLYLINE
  8
31
 66
1
 10
0.0000
 20
0.0000
 30
0.0000
 40
0.0635
 41
0.0635
 70
0
  0
VERTEX
  8
31
 10
1.4599
 20
5.6197
 30
0.0000
 42
1.0000
  0
VERTEX
  8
31
 10
1.4599
 20
5.5563
 30
0.0000
  0
SEQEND
  8
0
  0
POLYLINE
  8
31
 66
1
 10
0.0000
 20
0.0000
 30
0.0000
 40
0.1270
 41
0.1270
 70
0
  0
VERTEX
  8
31
 10
1.6389
 20
5.7150
 30
0.0000
  0
VERTEX
  8
31
 10
3.2641
 20
5.7150
 30
0.0000
  0
SEQEND
  8
0
  0
POLYLINE
  8
31
 66
1
 10
0.0000
 20
0.0000
 30
0.0000
 40
0.0635
 41
0.0635
 70
0
  0
VERTEX
  8
31
 10
3.2641
 20
5.6833
 30
0.0000
 42
1.0000
  0
VERTEX
  8
31
 10
3.2641
 20
5.7467
 30
0.0000
  0
SEQEND
  8
0
  0
POLYLINE
  8
31
 66
1
 10
0.0000
 20
0.0000
 30
0.0000
 40
0.0635
 41
0.0635
 70
0
  0
VERTEX
  8
31
 10
1.6389
 20
5.7467
 30
0.0000
 42
1.0000
  0
VERTEX
  8
31
 10
1.6389
 20
5.6833
 30
0.0000
  0
SEQEND
  8
0
  0
POLYLINE
  8
31
 66
1
 10
0.0000
 20
0.0000
 30
0.0000
 40
0.1270
 41
0.1270
 70
0
  0
VERTEX
  8
31
 10
9.1000
 20
5.2180
 30
0.0000
  0
VERTEX
  8
31
 10
9.1159
 20
5.1063
 30
0.0000
  0
SEQEND
  8
0
  0
POLYLINE
  8
31
 66
1
 10
0.0000
 20
0.0000
 30
0.0000
 40
0.0635
 41
0.0635
 70
0
  0
VERTEX
  8
31
 10
9.0845
 20
5.1018
 30
0.0000
 42
1.0000
  0
VERTEX
  8
31
 10
9.1474
 20
5.1108
 30
0.0000
  0
SEQEND
  8
0
  0
POLYLINE
  8
31
 66
1
 10
0.0000
 20
0.0000
 30
0.0000
 40
0.0635
 41
0.0635
 70
0
  0
VERTEX
  8
31
 10
9.1314
 20
5.2225
 30
0.0000
 42
1.0000
  0
VERTEX
  8
31
 10
9.0686
 20
5.2135
 30
0.0000
  0
SEQEND
  8
0
  0
POLYLINE
  8
31
 66
1
 10
0.0000
 20
0.0000
 30
0.0000
 40
0.1270
 41
0.1270
 70
0
  0
VERTEX
  8
31
 10
9.1159
 20
5.1063
 30
0.0000
  0
VERTEX
  8
31
 10
9.1533
 20
4.9999
 30
0.0000
  0
SEQEND
  8
0
  0
POLYLINE
  8
31
 66
1
 10
0.0000
 20
0.0000
 30
0.0000
 40
0.0635
 41
0.0635
 70
0
  0
VERTEX
  8
31
 10
9.1234
 20
4.9893
 30
0.0000
 42
1.0000
  0
VERTEX
  8
31
 10
9.1833
 20
5.0104
 30
0.0000
  0
SEQEND
  8
0
  0
POLYLINE
  8
31
 66
1
 10
0.0000
 20
0.0000
 30
0.0000
 40
0.0635
 41
0.0635
 70
0
  0
VERTEX
  8
31
 10
9.1459
 20
5.1168
 30
0.0000
 42
1.0000
  0
VERTEX
  8
31
 10
9.0860
 20
5.0958
 30
0.0000
  0
SEQEND
  8
0
  0
POLYLINE
  8
31
 66
1
 10
0.0000
 20
0.0000
 30
0.0000
 40
0.1270
 41
0.1270
 70
0
  0
VERTEX
  8
31
 10
9.1533
 20
4.9999
 30
0.0000
  0
VERTEX
  8
31
 10
9.2108
 20
4.9028
 30
0.0000
  0
SEQEND
  8
0
  0
POLYLINE
  8
31
 66
1
 10
0.0000
 20
0.0000
 30
0.0000
 40
0.0635
 41
0.0635
 70
0
  0
VERTEX
  8
31
 10
9.1835
 20
4.8866
 30
0.0000
 42
1.0000
  0
VERTEX
  8
31
 10
9.2381
 20
4.9189
 30
0.0000
  0
SEQEND
  8
0
  0
POLYLINE
  8
31
 66
1
 10
0.0000
 20
0.0000
 30
0.0000
 40
0.0635
 41
0.0635
 70
0
  0
VERTEX
  8
31
 10
9.1807
 20
5.0160
 30
0.0000
 42
1.0000
  0
VERTEX
  8
31
 10
9.1260
 20
4.9837
 30
0.0000
  0
SEQEND
  8
0
  0
POLYLINE
  8
31
 66
1
 10
0.0000
 20
0.0000
 30
0.0000
 40
0.1270
 41
0.1270
 70
0
  0
VERTEX
  8
31
 10
9.2108
 20
4.9028
 30
0.0000
  0
VERTEX
  8
31
 10
9.2861
 20
4.8187
 30
0.0000
  0
SEQEND
  8
0
  0
POLYLINE
  8
31
 66
1
 10
0.0000
 20
0.0000
 30
0.0000
 40
0.0635
 41
0.0635
 70
0
  0
VERTEX
  8
31
 10
9.2624
 20
4.7975
 30
0.0000
 42
1.0000
  0
VERTEX
  8
31
 10
9.3097
 20
4.8399
 30
0.0000
  0
SEQEND
  8
0
  0
POLYLINE
  8
31
 66
1
 10
0.0000
 20
0.0000
 30
0.0000
 40
0.0635
 41
0.0635
 70
0
  0
VERTEX
  8
31
 10
9.2344
 20
4.9239
 30
0.0000
 42
1.0000
  0
VERTEX
  8
31
 10
9.1871
 20
4.8816
 30
0.0000
  0
SEQEND
  8
0
  0
POLYLINE
  8
31
 66
1
 10
0.0000
 20
0.0000
 30
0.0000
 40
0.1270
 41
0.1270
 70
0
  0
VERTEX
  8
31
 10
9.2861
 20
4.8187
 30
0.0000
  0
VERTEX
  8
31
 10
9.3763
 20
4.7510
 30
0.0000
  0
SEQEND
  8
0
  0
POLYLINE
  8
31
 66
1
 10
0.0000
 20
0.0000
 30
0.0000
 40
0.0635
 41
0.0635
 70
0
  0
VERTEX
  8
31
 10
9.3573
 20
4.7256
 30
0.0000
 42
1.0000
  0
VERTEX
  8
31
 10
9.3954
 20
4.7764
 30
0.0000
  0
SEQEND
  8
0
  0
POLYLINE
  8
31
 66
1
 10
0.0000
 20
0.0000
 30
0.0000
 40
0.0635
 41
0.0635
 70
0
  0
VERTEX
  8
31
 10
9.3051
 20
4.8441
 30
0.0000
 42
1.0000
  0
VERTEX
  8
31
 10
9.2670
 20
4.7933
 30
0.0000
  0
SEQEND
  8
0
  0
POLYLINE
  8
31
 66
1
 10
0.0000
 20
0.0000
 30
0.0000
 40
0.1270
 41
0.1270
 70
0
  0
VERTEX
  8
31
 10
9.3763
 20
4.7510
 30
0.0000
  0
VERTEX
  8
31
 10
9.4781
 20
4.7022
 30
0.0000
  0
SEQEND
  8
0
  0
POLYLINE
  8
31
 66
1
 10
0.0000
 20
0.0000
 30
0.0000
 40
0.0635
 41
0.0635
 70
0
  0
VERTEX
  8
31
 10
9.4643
 20
4.6736
 30
0.0000
 42
1.0000
  0
VERTEX
  8
31
 10
9.4918
 20
4.7308
 30
0.0000
  0
SEQEND
  8
0
  0
POLYLINE
  8
31
 66
1
 10
0.0000
 20
0.0000
 30
0.0000
 40
0.0635
 41
0.0635
 70
0
  0
VERTEX
  8
31
 10
9.3901
 20
4.7796
 30
0.0000
 42
1.0000
  0
VERTEX
  8
31
 10
9.3626
 20
4.7224
 30
0.0000
  0
SEQEND
  8
0
  0
POLYLINE
  8
31
 66
1
 10
0.0000
 20
0.0000
 30
0.0000
 40
0.1270
 41
0.1270
 70
0
  0
VERTEX
  8
31
 10
9.4781
 20
4.7022
 30
0.0000
  0
VERTEX
  8
31
 10
9.5873
 20
4.6742
 30
0.0000
  0
SEQEND
  8
0
  0
POLYLINE
  8
31
 66
1
 10
0.0000
 20
0.0000
 30
0.0000
 40
0.0635
 41
0.0635
 70
0
  0
VERTEX
  8
31
 10
9.5795
 20
4.6434
 30
0.0000
 42
1.0000
  0
VERTEX
  8
31
 10
9.5952
 20
4.7049
 30
0.0000
  0
SEQEND
  8
0
  0
POLYLINE
  8
31
 66
1
 10
0.0000
 20
0.0000
 30
0.0000
 40
0.0635
 41
0.0635
 70
0
  0
VERTEX
  8
31
 10
9.4859
 20
4.7330
 30
0.0000
 42
1.0000
  0
VERTEX
  8
31
 10
9.4702
 20
4.6714
 30
0.0000
  0
SEQEND
  8
0
  0
POLYLINE
  8
31
 66
1
 10
0.0000
 20
0.0000
 30
0.0000
 40
0.1270
 41
0.1270
 70
0
  0
VERTEX
  8
31
 10
9.5873
 20
4.6742
 30
0.0000
  0
VERTEX
  8
31
 10
9.7000
 20
4.6680
 30
0.0000
  0
SEQEND
  8
0
  0
POLYLINE
  8
31
 66
1
 10
0.0000
 20
0.0000
 30
0.0000
 40
0.0635
 41
0.0635
 70
0
  0
VERTEX
  8
31
 10
9.6983
 20
4.6363
 30
0.0000
 42
1.0000
  0
VERTEX
  8
31
 10
9.7017
 20
4.6997
 30
0.0000
  0
SEQEND
  8
0
  0
POLYLINE
  8
31
 66
1
 10
0.0000
 20
0.0000
 30
0.0000
 40
0.0635
 41
0.0635
 70
0
  0
VERTEX
  8
31
 10
9.5891
 20
4.7059
 30
0.0000
 42
1.0000
  0
VERTEX
  8
31
 10
9.5856
 20
4.6425
 30
0.0000
  0
SEQEND
  8
0
  0
POLYLINE
  8
31
 66
1
 10
0.0000
 20
0.0000
 30
0.0000
 40
0.1270
 41
0.1270
 70
0
  0
VERTEX
  8
31
 10
9.7000
 20
4.6680
 30
0.0000
  0
VERTEX
  8
31
 10
10.8000
 20
4.6680
 30
0.0000
  0
SEQEND
  8
0
  0
POLYLINE
  8
31
 66
1
 10
0.0000
 20
0.0000
 30
0.0000
 40
0.0635
 41
0.0635
 70
0
  0
VERTEX
  8
31
 10
10.8000
 20
4.6363
 30
0.0000
 42
1.0000
  0
VERTEX
  8
31
 10
10.8000
 20
4.6997
 30
0.0000
  0
SEQEND
  8
0
  0
POLYLINE
  8
31
 66
1
 10
0.0000
 20
0.0000
 30
0.0000
 40
0.0635
 41
0.0635
 70
0
  0
VERTEX
  8
31
 10
9.7000
 20
4.6997
 30
0.0000
 42
1.0000
  0
VERTEX
  8
31
 10
9.7000
 20
4.6363
 30
0.0000
  0
SEQEND
  8
0
  0
POLYLINE
  8
31
 66
1
 10
0.0000
 20
0.0000
 30
0.0000
 40
0.1270
 41
0.1270
 70
0
  0
VERTEX
  8
31
 10
10.8000
 20
4.6680
 30
0.0000
  0
VERTEX
  8
31
 10
10.9127
 20
4.6742
 30
0.0000
  0
SEQEND
  8
0
  0
POLYLINE
  8
31
 66
1
 10
0.0000
 20
0.0000
 30
0.0000
 40
0.0635
 41
0.0635
 70
0
  0
VERTEX
  8
31
 10
10.9144
 20
4.6425
 30
0.0000
 42
1.0000
  0
VERTEX
  8
31
 10
10.9109
 20
4.7059
 30
0.0000
  0
SEQEND
  8
0
  0
POLYLINE
  8
31
 66
1
 10
0.0000
 20
0.0000
 30
0.0000
 40
0.0635
 41
0.0635
 70
0
  0
VERTEX
  8
31
 10
10.7983
 20
4.6997
 30
0.0000
 42
1.0000
  0
VERTEX
  8
31
 10
10.8017
 20
4.6363
 30
0.0000
  0
SEQEND
  8
0
  0
POLYLINE
  8
31
 66
1
 10
0.0000
 20
0.0000
 30
0.0000
 40
0.1270
 41
0.1270
 70
0
  0
VERTEX
  8
31
 10
10.9127
 20
4.6742
 30
0.0000
  0
VERTEX
  8
31
 10
11.0219
 20
4.7022
 30
0.0000
  0
SEQEND
  8
0
  0
POLYLINE
  8
31
 66
1
 10
0.0000
 20
0.0000
 30
0.0000
 40
0.0635
 41
0.0635
 70
0
  0
VERTEX
  8
31
 10
11.0298
 20
4.6714
 30
0.0000
 42
1.0000
  0
VERTEX
  8
31
 10
11.0141
 20
4.7330
 30
0.0000
  0
SEQEND
  8
0
  0
POLYLINE
  8
31
 66
1
 10
0.0000
 20
0.0000
 30
0.0000
 40
0.0635
 41
0.0635
 70
0
  0
VERTEX
  8
31
 10
10.9048
 20
4.7049
 30
0.0000
 42
1.0000
  0
VERTEX
  8
31
 10
10.9205
 20
4.6434
 30
0.0000
  0
SEQEND
  8
0
  0
POLYLINE
  8
31
 66
1
 10
0.0000
 20
0.0000
 30
0.0000
 40
0.1270
 41
0.1270
 70
0
  0
VERTEX
  8
31
 10
11.0219
 20
4.7022
 30
0.0000
  0
VERTEX
  8
31
 10
11.1237
 20
4.7510
 30
0.0000
  0
SEQEND
  8
0
  0
POLYLINE
  8
31
 66
1
 10
0.0000
 20
0.0000
 30
0.0000
 40
0.0635
 41
0.0635
 70
0
  0
VERTEX
  8
31
 10
11.1374
 20
4.7224
 30
0.0000
 42
1.0000
  0
VERTEX
  8
31
 10
11.1099
 20
4.7796
 30
0.0000
  0
SEQEND
  8
0
  0
POLYLINE
  8
31
 66
1
 10
0.0000
 20
0.0000
 30
0.0000
 40
0.0635
 41
0.0635
 70
0
  0
VERTEX
  8
31
 10
11.0082
 20
4.7308
 30
0.0000
 42
1.0000
  0
VERTEX
  8
31
 10
11.0357
 20
4.6736
 30
0.0000
  0
SEQEND
  8
0
  0
POLYLINE
  8
31
 66
1
 10
0.0000
 20
0.0000
 30
0.0000
 40
0.1270
 41
0.1270
 70
0
  0
VERTEX
  8
31
 10
11.1237
 20
4.7510
 30
0.0000
  0
VERTEX
  8
31
 10
11.2139
 20
4.8187
 30
0.0000
  0
SEQEND
  8
0
  0
POLYLINE
  8
31
 66
1
 10
0.0000
 20
0.0000
 30
0.0000
 40
0.0635
 41
0.0635
 70
0
  0
VERTEX
  8
31
 10
11.2330
 20
4.7933
 30
0.0000
 42
1.0000
  0
VERTEX
  8
31
 10
11.1949
 20
4.8441
 30
0.0000
  0
SEQEND
  8
0
  0
POLYLINE
  8
31
 66
1
 10
0.0000
 20
0.0000
 30
0.0000
 40
0.0635
 41
0.0635
 70
0
  0
VERTEX
  8
31
 10
11.1046
 20
4.7764
 30
0.0000
 42
1.0000
  0
VERTEX
  8
31
 10
11.1427
 20
4.7256
 30
0.0000
  0
SEQEND
  8
0
  0
POLYLINE
  8
31
 66
1
 10
0.0000
 20
0.0000
 30
0.0000
 40
0.1270
 41
0.1270
 70
0
  0
VERTEX
  8
31
 10
11.2139
 20
4.8187
 30
0.0000
  0
VERTEX
  8
31
 10
11.2892
 20
4.9028
 30
0.0000
  0
SEQEND
  8
0
  0
POLYLINE
  8
31
 66
1
 10
0.0000
 20
0.0000
 30
0.0000
 40
0.0635
 41
0.0635
 70
0
  0
VERTEX
  8
31
 10
11.3129
 20
4.8816
 30
0.0000
 42
1.0000
  0
VERTEX
  8
31
 10
11.2656
 20
4.9239
 30
0.0000
  0
SEQEND
  8
0
  0
POLYLINE
  8
31
 66
1
 10
0.0000
 20
0.0000
 30
0.0000
 40
0.0635
 41
0.0635
 70
0
  0
VERTEX
  8
31
 10
11.1903
 20
4.8399
 30
0.0000
 42
1.0000
  0
VERTEX
  8
31
 10
11.2376
 20
4.7975
 30
0.0000
  0
SEQEND
  8
0
  0
POLYLINE
  8
31
 66
1
 10
0.0000
 20
0.0000
 30
0.0000
 40
0.1270
 41
0.1270
 70
0
  0
VERTEX
  8
31
 10
11.2892
 20
4.9028
 30
0.0000
  0
VERTEX
  8
31
 10
11.3467
 20
4.9999
 30
0.0000
  0
SEQEND
  8
0
  0
POLYLINE
  8
31
 66
1
 10
0.0000
 20
0.0000
 30
0.0000
 40
0.0635
 41
0.0635
 70
0
  0
VERTEX
  8
31
 10
11.3740
 20
4.9837
 30
0.0000
 42
1.0000
  0
VERTEX
  8
31
 10
11.3193
 20
5.0160
 30
0.0000
  0
SEQEND
  8
0
  0
POLYLINE
  8
31
 66
1
 10
0.0000
 20
0.0000
 30
0.0000
 40
0.0635
 41
0.0635
 70
0
  0
VERTEX
  8
31
 10
11.2619
 20
4.9189
 30
0.0000
 42
1.0000
  0
VERTEX
  8
31
 10
11.3165
 20
4.8866
 30
0.0000
  0
SEQEND
  8
0
  0
POLYLINE
  8
31
 66
1
 10
0.0000
 20
0.0000
 30
0.0000
 40
0.1270
 41
0.1270
 70
0
  0
VERTEX
  8
31
 10
11.3467
 20
4.9999
 30
0.0000
  0
VERTEX
  8
31
 10
11.3841
 20
5.1063
 30
0.0000
  0
SEQEND
  8
0
  0
POLYLINE
  8
31
 66
1
 10
0.0000
 20
0.0000
 30
0.0000
 40
0.0635
 41
0.0635
 70
0
  0
VERTEX
  8
31
 10
11.4140
 20
5.0958
 30
0.0000
 42
1.0000
  0
VERTEX
  8
31
 10
11.3541
 20
5.1168
 30
0.0000
  0
SEQEND
  8
0
  0
POLYLINE
  8
31
 66
1
 10
0.0000
 20
0.0000
 30
0.0000
 40
0.0635
 41
0.0635
 70
0
  0
VERTEX
  8
31
 10
11.3167
 20
5.0104
 30
0.0000
 42
1.0000
  0
VERTEX
  8
31
 10
11.3766
 20
4.9893
 30
0.0000
  0
SEQEND
  8
0
  0
POLYLINE
  8
31
 66
1
 10
0.0000
 20
0.0000
 30
0.0000
 40
0.1270
 41
0.1270
 70
0
  0
VERTEX
  8
31
 10
11.3841
 20
5.1063
 30
0.0000
  0
VERTEX
  8
31
 10
11.4000
 20
5.2180
 30
0.0000
  0
SEQEND
  8
0
  0
POLYLINE
  8
31
 66
1
 10
0.0000
 20
0.0000
 30
0.0000
 40
0.0635
 41
0.0635
 70
0
  0
VERTEX
  8
31
 10
11.4314
 20
5.2135
 30
0.0000
 42
1.0000
  0
VERTEX
  8
31
 10
11.3686
 20
5.2225
 30
0.0000
  0
SEQEND
  8
0
  0
POLYLINE
  8
31
 66
1
 10
0.0000
 20
0.0000
 30
0.0000
 40
0.0635
 41
0.0635
 70
0
  0
VERTEX
  8
31
 10
11.3526
 20
5.1108
 30
0.0000
 42
1.0000
  0
VERTEX
  8
31
 10
11.4155
 20
5.1018
 30
0.0000
  0
SEQEND
  8
0
  0
POLYLINE
  8
31
 66
1
 10
0.0000
 20
0.0000
 30
0.0000
 40
0.1270
 41
0.1270
 70
0
  0
VERTEX
  8
31
 10
11.4000
 20
5.2180
 30
0.0000
  0
VERTEX
  8
31
 10
11.3800
 20
5.3453
 30
0.0000
  0
SEQEND
  8
0
  0
POLYLINE
  8
31
 66
1
 10
0.0000
 20
0.0000
 30
0.0000
 40
0.0635
 41
0.0635
 70
0
  0
VERTEX
  8
31
 10
11.4114
 20
5.3502
 30
0.0000
 42
1.0000
  0
VERTEX
  8
31
 10
11.3487
 20
5.3404
 30
0.0000
  0
SEQEND
  8
0
  0
POLYLINE
  8
31
 66
1
 10
0.0000
 20
0.0000
 30
0.0000
 40
0.0635
 41
0.0635
 70
0
  0
VERTEX
  8
31
 10
11.3686
 20
5.2131
 30
0.0000
 42
1.0000
  0
VERTEX
  8
31
 10
11.4314
 20
5.2229
 30
0.0000
  0
SEQEND
  8
0
  0
POLYLINE
  8
31
 66
1
 10
0.0000
 20
0.0000
 30
0.0000
 40
0.1270
 41
0.1270
 70
0
  0
VERTEX
  8
31
 10
11.3800
 20
5.3453
 30
0.0000
  0
VERTEX
  8
31
 10
11.3322
 20
5.4650
 30
0.0000
  0
SEQEND
  8
0
  0
POLYLINE
  8
31
 66
1
 10
0.0000
 20
0.0000
 30
0.0000
 40
0.0635
 41
0.0635
 70
0
  0
VERTEX
  8
31
 10
11.3617
 20
5.4768
 30
0.0000
 42
1.0000
  0
VERTEX
  8
31
 10
11.3027
 20
5.4532
 30
0.0000
  0
SEQEND
  8
0
  0
POLYLINE
  8
31
 66
1
 10
0.0000
 20
0.0000
 30
0.0000
 40
0.0635
 41
0.0635
 70
0
  0
VERTEX
  8
31
 10
11.3505
 20
5.3335
 30
0.0000
 42
1.0000
  0
VERTEX
  8
31
 10
11.4095
 20
5.3571
 30
0.0000
  0
SEQEND
  8
0
  0
POLYLINE
  8
31
 66
1
 10
0.0000
 20
0.0000
 30
0.0000
 40
0.1270
 41
0.1270
 70
0
  0
VERTEX
  8
31
 10
11.3322
 20
5.4650
 30
0.0000
  0
VERTEX
  8
31
 10
11.2590
 20
5.5711
 30
0.0000
  0
SEQEND
  8
0
  0
POLYLINE
  8
31
 66
1
 10
0.0000
 20
0.0000
 30
0.0000
 40
0.0635
 41
0.0635
 70
0
  0
VERTEX
  8
31
 10
11.2851
 20
5.5891
 30
0.0000
 42
1.0000
  0
VERTEX
  8
31
 10
11.2328
 20
5.5530
 30
0.0000
  0
SEQEND
  8
0
  0
POLYLINE
  8
31
 66
1
 10
0.0000
 20
0.0000
 30
0.0000
 40
0.0635
 41
0.0635
 70
0
  0
VERTEX
  8
31
 10
11.3061
 20
5.4470
 30
0.0000
 42
1.0000
  0
VERTEX
  8
31
 10
11.3583
 20
5.4830
 30
0.0000
  0
SEQEND
  8
0
  0
POLYLINE
  8
31
 66
1
 10
0.0000
 20
0.0000
 30
0.0000
 40
0.1270
 41
0.1270
 70
0
  0
VERTEX
  8
31
 10
11.2590
 20
5.5711
 30
0.0000
  0
VERTEX
  8
31
 10
11.1640
 20
5.6581
 30
0.0000
  0
SEQEND
  8
0
  0
POLYLINE
  8
31
 66
1
 10
0.0000
 20
0.0000
 30
0.0000
 40
0.0635
 41
0.0635
 70
0
  0
VERTEX
  8
31
 10
11.1854
 20
5.6815
 30
0.0000
 42
1.0000
  0
VERTEX
  8
31
 10
11.1425
 20
5.6347
 30
0.0000
  0
SEQEND
  8
0
  0
POLYLINE
  8
31
 66
1
 10
0.0000
 20
0.0000
 30
0.0000
 40
0.0635
 41
0.0635
 70
0
  0
VERTEX
  8
31
 10
11.2375
 20
5.5476
 30
0.0000
 42
1.0000
  0
VERTEX
  8
31
 10
11.2804
 20
5.5945
 30
0.0000
  0
SEQEND
  8
0
  0
POLYLINE
  8
31
 66
1
 10
0.0000
 20
0.0000
 30
0.0000
 40
0.1270
 41
0.1270
 70
0
  0
VERTEX
  8
31
 10
11.1640
 20
5.6581
 30
0.0000
  0
VERTEX
  8
31
 10
11.0520
 20
5.7219
 30
0.0000
  0
SEQEND
  8
0
  0
POLYLINE
  8
31
 66
1
 10
0.0000
 20
0.0000
 30
0.0000
 40
0.0635
 41
0.0635
 70
0
  0
VERTEX
  8
31
 10
11.0677
 20
5.7495
 30
0.0000
 42
1.0000
  0
VERTEX
  8
31
 10
11.0363
 20
5.6943
 30
0.0000
  0
SEQEND
  8
0
  0
POLYLINE
  8
31
 66
1
 10
0.0000
 20
0.0000
 30
0.0000
 40
0.0635
 41
0.0635
 70
0
  0
VERTEX
  8
31
 10
11.1483
 20
5.6305
 30
0.0000
 42
1.0000
  0
VERTEX
  8
31
 10
11.1797
 20
5.6857
 30
0.0000
  0
SEQEND
  8
0
  0
POLYLINE
  8
31
 66
1
 10
0.0000
 20
0.0000
 30
0.0000
 40
0.1270
 41
0.1270
 70
0
  0
VERTEX
  8
31
 10
11.0520
 20
5.7219
 30
0.0000
  0
VERTEX
  8
31
 10
10.9286
 20
5.7591
 30
0.0000
  0
SEQEND
  8
0
  0
POLYLINE
  8
31
 66
1
 10
0.0000
 20
0.0000
 30
0.0000
 40
0.0635
 41
0.0635
 70
0
  0
VERTEX
  8
31
 10
10.9377
 20
5.7895
 30
0.0000
 42
1.0000
  0
VERTEX
  8
31
 10
10.9194
 20
5.7288
 30
0.0000
  0
SEQEND
  8
0
  0
POLYLINE
  8
31
 66
1
 10
0.0000
 20
0.0000
 30
0.0000
 40
0.0635
 41
0.0635
 70
0
  0
VERTEX
  8
31
 10
11.0428
 20
5.6915
 30
0.0000
 42
1.0000
  0
VERTEX
  8
31
 10
11.0611
 20
5.7523
 30
0.0000
  0
SEQEND
  8
0
  0
POLYLINE
  8
31
 66
1
 10
0.0000
 20
0.0000
 30
0.0000
 40
0.1270
 41
0.1270
 70
0
  0
VERTEX
  8
31
 10
10.9286
 20
5.7591
 30
0.0000
  0
VERTEX
  8
31
 10
10.8000
 20
5.7680
 30
0.0000
  0
SEQEND
  8
0
  0
POLYLINE
  8
31
 66
1
 10
0.0000
 20
0.0000
 30
0.0000
 40
0.0635
 41
0.0635
 70
0
  0
VERTEX
  8
31
 10
10.8022
 20
5.7997
 30
0.0000
 42
1.0000
  0
VERTEX
  8
31
 10
10.7978
 20
5.7363
 30
0.0000
  0
SEQEND
  8
0
  0
POLYLINE
  8
31
 66
1
 10
0.0000
 20
0.0000
 30
0.0000
 40
0.0635
 41
0.0635
 70
0
  0
VERTEX
  8
31
 10
10.9264
 20
5.7275
 30
0.0000
 42
1.0000
  0
VERTEX
  8
31
 10
10.9308
 20
5.7908
 30
0.0000
  0
SEQEND
  8
0
  0
POLYLINE
  8
31
 66
1
 10
0.0000
 20
0.0000
 30
0.0000
 40
0.1270
 41
0.1270
 70
0
  0
VERTEX
  8
31
 10
10.8000
 20
5.7680
 30
0.0000
  0
VERTEX
  8
31
 10
9.7000
 20
5.7680
 30
0.0000
  0
SEQEND
  8
0
  0
POLYLINE
  8
31
 66
1
 10
0.0000
 20
0.0000
 30
0.0000
 40
0.0635
 41
0.0635
 70
0
  0
VERTEX
  8
31
 10
9.7000
 20
5.7998
 30
0.0000
 42
1.0000
  0
VERTEX
  8
31
 10
9.7000
 20
5.7363
 30
0.0000
  0
SEQEND
  8
0
  0
POLYLINE
  8
31
 66
1
 10
0.0000
 20
0.0000
 30
0.0000
 40
0.0635
 41
0.0635
 70
0
  0
VERTEX
  8
31
 10
10.8000
 20
5.7363
 30
0.0000
 42
1.0000
  0
VERTEX
  8
31
 10
10.8000
 20
5.7998
 30
0.0000
  0
SEQEND
  8
0
  0
POLYLINE
  8
31
 66
1
 10
0.0000
 20
0.0000
 30
0.0000
 40
0.1270
 41
0.1270
 70
0
  0
VERTEX
  8
31
 10
9.7000
 20
5.7680
 30
0.0000
  0
VERTEX
  8
31
 10
9.5873
 20
5.7618
 30
0.0000
  0
SEQEND
  8
0
  0
POLYLINE
  8
31
 66
1
 10
0.0000
 20
0.0000
 30
0.0000
 40
0.0635
 41
0.0635
 70
0
  0
VERTEX
  8
31
 10
9.5856
 20
5.7935
 30
0.0000
 42
1.0000
  0
VERTEX
  8
31
 10
9.5891
 20
5.7301
 30
0.0000
  0
SEQEND
  8
0
  0
POLYLINE
  8
31
 66
1
 10
0.0000
 20
0.0000
 30
0.0000
 40
0.0635
 41
0.0635
 70
0
  0
VERTEX
  8
31
 10
9.7017
 20
5.7363
 30
0.0000
 42
1.0000
  0
VERTEX
  8
31
 10
9.6983
 20
5.7997
 30
0.0000
  0
SEQEND
  8
0
  0
POLYLINE
  8
31
 66
1
 10
0.0000
 20
0.0000
 30
0.0000
 40
0.1270
 41
0.1270
 70
0
  0
VERTEX
  8
31
 10
9.5873
 20
5.7618
 30
0.0000
  0
VERTEX
  8
31
 10
9.4781
 20
5.7338
 30
0.0000
  0
SEQEND
  8
0
  0
POLYLINE
  8
31
 66
1
 10
0.0000
 20
0.0000
 30
0.0000
 40
0.0635
 41
0.0635
 70
0
  0
VERTEX
  8
31
 10
9.4702
 20
5.7646
 30
0.0000
 42
1.0000
  0
VERTEX
  8
31
 10
9.4859
 20
5.7030
 30
0.0000
  0
SEQEND
  8
0
  0
POLYLINE
  8
31
 66
1
 10
0.0000
 20
0.0000
 30
0.0000
 40
0.0635
 41
0.0635
 70
0
  0
VERTEX
  8
31
 10
9.5952
 20
5.7311
 30
0.0000
 42
1.0000
  0
VERTEX
  8
31
 10
9.5795
 20
5.7926
 30
0.0000
  0
SEQEND
  8
0
  0
POLYLINE
  8
31
 66
1
 10
0.0000
 20
0.0000
 30
0.0000
 40
0.1270
 41
0.1270
 70
0
  0
VERTEX
  8
31
 10
9.4781
 20
5.7338
 30
0.0000
  0
VERTEX
  8
31
 10
9.3763
 20
5.6850
 30
0.0000
  0
SEQEND
  8
0
  0
POLYLINE
  8
31
 66
1
 10
0.0000
 20
0.0000
 30
0.0000
 40
0.0635
 41
0.0635
 70
0
  0
VERTEX
  8
31
 10
9.3626
 20
5.7136
 30
0.0000
 42
1.0000
  0
VERTEX
  8
31
 10
9.3901
 20
5.6564
 30
0.0000
  0
SEQEND
  8
0
  0
POLYLINE
  8
31
 66
1
 10
0.0000
 20
0.0000
 30
0.0000
 40
0.0635
 41
0.0635
 70
0
  0
VERTEX
  8
31
 10
9.4918
 20
5.7052
 30
0.0000
 42
1.0000
  0
VERTEX
  8
31
 10
9.4643
 20
5.7624
 30
0.0000
  0
SEQEND
  8
0
  0
POLYLINE
  8
31
 66
1
 10
0.0000
 20
0.0000
 30
0.0000
 40
0.1270
 41
0.1270
 70
0
  0
VERTEX
  8
31
 10
9.3763
 20
5.6850
 30
0.0000
  0
VERTEX
  8
31
 10
9.2861
 20
5.6173
 30
0.0000
  0
SEQEND
  8
0
  0
POLYLINE
  8
31
 66
1
 10
0.0000
 20
0.0000
 30
0.0000
 40
0.0635
 41
0.0635
 70
0
  0
VERTEX
  8
31
 10
9.2670
 20
5.6427
 30
0.0000
 42
1.0000
  0
VERTEX
  8
31
 10
9.3051
 20
5.5919
 30
0.0000
  0
SEQEND
  8
0
  0
POLYLINE
  8
31
 66
1
 10
0.0000
 20
0.0000
 30
0.0000
 40
0.0635
 41
0.0635
 70
0
  0
VERTEX
  8
31
 10
9.3954
 20
5.6596
 30
0.0000
 42
1.0000
  0
VERTEX
  8
31
 10
9.3573
 20
5.7104
 30
0.0000
  0
SEQEND
  8
0
  0
POLYLINE
  8
31
 66
1
 10
0.0000
 20
0.0000
 30
0.0000
 40
0.1270
 41
0.1270
 70
0
  0
VERTEX
  8
31
 10
9.2861
 20
5.6173
 30
0.0000
  0
VERTEX
  8
31
 10
9.2108
 20
5.5332
 30
0.0000
  0
SEQEND
  8
0
  0
POLYLINE
  8
31
 66
1
 10
0.0000
 20
0.0000
 30
0.0000
 40
0.0635
 41
0.0635
 70
0
  0
VERTEX
  8
31
 10
9.1871
 20
5.5544
 30
0.0000
 42
1.0000
  0
VERTEX
  8
31
 10
9.2344
 20
5.5121
 30
0.0000
  0
SEQEND
  8
0
  0
POLYLINE
  8
31
 66
1
 10
0.0000
 20
0.0000
 30
0.0000
 40
0.0635
 41
0.0635
 70
0
  0
VERTEX
  8
31
 10
9.3097
 20
5.5961
 30
0.0000
 42
1.0000
  0
VERTEX
  8
31
 10
9.2624
 20
5.6385
 30
0.0000
  0
SEQEND
  8
0
  0
POLYLINE
  8
31
 66
1
 10
0.0000
 20
0.0000
 30
0.0000
 40
0.1270
 41
0.1270
 70
0
  0
VERTEX
  8
31
 10
9.2108
 20
5.5332
 30
0.0000
  0
VERTEX
  8
31
 10
9.1533
 20
5.4361
 30
0.0000
  0
SEQEND
  8
0
  0
POLYLINE
  8
31
 66
1
 10
0.0000
 20
0.0000
 30
0.0000
 40
0.0635
 41
0.0635
 70
0
  0
VERTEX
  8
31
 10
9.1260
 20
5.4523
 30
0.0000
 42
1.0000
  0
VERTEX
  8
31
 10
9.1807
 20
5.4200
 30
0.0000
  0
SEQEND
  8
0
  0
POLYLINE
  8
31
 66
1
 10
0.0000
 20
0.0000
 30
0.0000
 40
0.0635
 41
0.0635
 70
0
  0
VERTEX
  8
31
 10
9.2381
 20
5.5171
 30
0.0000
 42
1.0000
  0
VERTEX
  8
31
 10
9.1835
 20
5.5494
 30
0.0000
  0
SEQEND
  8
0
  0
POLYLINE
  8
31
 66
1
 10
0.0000
 20
0.0000
 30
0.0000
 40
0.1270
 41
0.1270
 70
0
  0
VERTEX
  8
31
 10
9.1533
 20
5.4361
 30
0.0000
  0
VERTEX
  8
31
 10
9.1159
 20
5.3297
 30
0.0000
  0
SEQEND
  8
0
  0
POLYLINE
  8
31
 66
1
 10
0.0000
 20
0.0000
 30
0.0000
 40
0.0635
 41
0.0635
 70
0
  0
VERTEX
  8
31
 10
9.0860
 20
5.3402
 30
0.0000
 42
1.0000
  0
VERTEX
  8
31
 10
9.1459
 20
5.3192
 30
0.0000
  0
SEQEND
  8
0
  0
POLYLINE
  8
31
 66
1
 10
0.0000
 20
0.0000
 30
0.0000
 40
0.0635
 41
0.0635
 70
0
  0
VERTEX
  8
31
 10
9.1833
 20
5.4256
 30
0.0000
 42
1.0000
  0
VERTEX
  8
31
 10
9.1234
 20
5.4467
 30
0.0000
  0
SEQEND
  8
0
  0
POLYLINE
  8
31
 66
1
 10
0.0000
 20
0.0000
 30
0.0000
 40
0.1270
 41
0.1270
 70
0
  0
VERTEX
  8
31
 10
9.1159
 20
5.3297
 30
0.0000
  0
VERTEX
  8
31
 10
9.1000
 20
5.2180
 30
0.0000
  0
SEQEND
  8
0
  0
POLYLINE
  8
31
 66
1
 10
0.0000
 20
0.0000
 30
0.0000
 40
0.0635
 41
0.0635
 70
0
  0
VERTEX
  8
31
 10
9.0686
 20
5.2225
 30
0.0000
 42
1.0000
  0
VERTEX
  8
31
 10
9.1314
 20
5.2135
 30
0.0000
  0
SEQEND
  8
0
  0
POLYLINE
  8
31
 66
1
 10
0.0000
 20
0.0000
 30
0.0000
 40
0.0635
 41
0.0635
 70
0
  0
VERTEX
  8
31
 10
9.1474
 20
5.3252
 30
0.0000
 42
1.0000
  0
VERTEX
  8
31
 10
9.0845
 20
5.3342
 30
0.0000
  0
SEQEND
  8
0
  0
POLYLINE
  8
31
 66
1
 10
0.0000
 20
0.0000
 30
0.0000
 40
0.1270
 41
0.1270
 70
0
  0
VERTEX
  8
31
 10
9.4905
 20
4.6990
 30
0.0000
  0
VERTEX
  8
31
 10
11.0095
 20
4.6990
 30
0.0000
  0
SEQEND
  8
0
  0
POLYLINE
  8
31
 66
1
 10
0.0000
 20
0.0000
 30
0.0000
 40
0.0635
 41
0.0635
 70
0
  0
VERTEX
  8
31
 10
11.0095
 20
4.6673
 30
0.0000
 42
1.0000
  0
VERTEX
  8
31
 10
11.0095
 20
4.7307
 30
0.0000
  0
SEQEND
  8
0
  0
POLYLINE
  8
31
 66
1
 10
0.0000
 20
0.0000
 30
0.0000
 40
0.0635
 41
0.0635
 70
0
  0
VERTEX
  8
31
 10
9.4905
 20
4.7307
 30
0.0000
 42
1.0000
  0
VERTEX
  8
31
 10
9.4905
 20
4.6673
 30
0.0000
  0
SEQEND
  8
0
  0
POLYLINE
  8
31
 66
1
 10
0.0000
 20
0.0000
 30
0.0000
 40
0.1270
 41
0.1270
 70
0
  0
VERTEX
  8
31
 10
9.2796
 20
4.8260
 30
0.0000
  0
VERTEX
  8
31
 10
11.2204
 20
4.8260
 30
0.0000
  0
SEQEND
  8
0
  0
POLYLINE
  8
31
 66
1
 10
0.0000
 20
0.0000
 30
0.0000
 40
0.0635
 41
0.0635
 70
0
  0
VERTEX
  8
31
 10
11.2204
 20
4.7943
 30
0.0000
 42
1.0000
  0
VERTEX
  8
31
 10
11.2204
 20
4.8578
 30
0.0000
  0
SEQEND
  8
0
  0
POLYLINE
  8
31
 66
1
 10
0.0000
 20
0.0000
 30
0.0000
 40
0.0635
 41
0.0635
 70
0
  0
VERTEX
  8
31
 10
9.2796
 20
4.8578
 30
0.0000
 42
1.0000
  0
VERTEX
  8
31
 10
9.2796
 20
4.7943
 30
0.0000
  0
SEQEND
  8
0
  0
POLYLINE
  8
31
 66
1
 10
0.0000
 20
0.0000
 30
0.0000
 40
0.1270
 41
0.1270
 70
0
  0
VERTEX
  8
31
 10
9.1811
 20
4.9530
 30
0.0000
  0
VERTEX
  8
31
 10
11.3189
 20
4.9530
 30
0.0000
  0
SEQEND
  8
0
  0
POLYLINE
  8
31
 66
1
 10
0.0000
 20
0.0000
 30
0.0000
 40
0.0635
 41
0.0635
 70
0
  0
VERTEX
  8
31
 10
11.3189
 20
4.9213
 30
0.0000
 42
1.0000
  0
VERTEX
  8
31
 10
11.3189
 20
4.9848
 30
0.0000
  0
SEQEND
  8
0
  0
POLYLINE
  8
31
 66
1
 10
0.0000
 20
0.0000
 30
0.0000
 40
0.0635
 41
0.0635
 70
0
  0
VERTEX
  8
31
 10
9.1811
 20
4.9848
 30
0.0000
 42
1.0000
  0
VERTEX
  8
31
 10
9.1811
 20
4.9213
 30
0.0000
  0
SEQEND
  8
0
  0
POLYLINE
  8
31
 66
1
 10
0.0000
 20
0.0000
 30
0.0000
 40
0.1270
 41
0.1270
 70
0
  0
VERTEX
  8
31
 10
9.1252
 20
5.0800
 30
0.0000
  0
VERTEX
  8
31
 10
11.3748
 20
5.0800
 30
0.0000
  0
SEQEND
  8
0
  0
POLYLINE
  8
31
 66
1
 10
0.0000
 20
0.0000
 30
0.0000
 40
0.0635
 41
0.0635
 70
0
  0
VERTEX
  8
31
 10
11.3748
 20
5.0483
 30
0.0000
 42
1.0000
  0
VERTEX
  8
31
 10
11.3748
 20
5.1117
 30
0.0000
  0
SEQEND
  8
0
  0
POLYLINE
  8
31
 66
1
 10
0.0000
 20
0.0000
 30
0.0000
 40
0.0635
 41
0.0635
 70
0
  0
VERTEX
  8
31
 10
9.1252
 20
5.1117
 30
0.0000
 42
1.0000
  0
VERTEX
  8
31
 10
9.1252
 20
5.0483
 30
0.0000
  0
SEQEND
  8
0
  0
POLYLINE
  8
31
 66
1
 10
0.0000
 20
0.0000
 30
0.0000
 40
0.1270
 41
0.1270
 70
0
  0
VERTEX
  8
31
 10
9.1016
 20
5.2070
 30
0.0000
  0
VERTEX
  8
31
 10
11.3984
 20
5.2070
 30
0.0000
  0
SEQEND
  8
0
  0
POLYLINE
  8
31
 66
1
 10
0.0000
 20
0.0000
 30
0.0000
 40
0.0635
 41
0.0635
 70
0
  0
VERTEX
  8
31
 10
11.3984
 20
5.1753
 30
0.0000
 42
1.0000
  0
VERTEX
  8
31
 10
11.3984
 20
5.2387
 30
0.0000
  0
SEQEND
  8
0
  0
POLYLINE
  8
31
 66
1
 10
0.0000
 20
0.0000
 30
0.0000
 40
0.0635
 41
0.0635
 70
0
  0
VERTEX
  8
31
 10
9.1016
 20
5.2387
 30
0.0000
 42
1.0000
  0
VERTEX
  8
31
 10
9.1016
 20
5.1753
 30
0.0000
  0
SEQEND
  8
0
  0
POLYLINE
  8
31
 66
1
 10
0.0000
 20
0.0000
 30
0.0000
 40
0.1270
 41
0.1270
 70
0
  0
VERTEX
  8
31
 10
9.1174
 20
5.3340
 30
0.0000
  0
VERTEX
  8
31
 10
11.3818
 20
5.3340
 30
0.0000
  0
SEQEND
  8
0
  0
POLYLINE
  8
31
 66
1
 10
0.0000
 20
0.0000
 30
0.0000
 40
0.0635
 41
0.0635
 70
0
  0
VERTEX
  8
31
 10
11.3818
 20
5.3023
 30
0.0000
 42
1.0000
  0
VERTEX
  8
31
 10
11.3818
 20
5.3658
 30
0.0000
  0
SEQEND
  8
0
  0
POLYLINE
  8
31
 66
1
 10
0.0000
 20
0.0000
 30
0.0000
 40
0.0635
 41
0.0635
 70
0
  0
VERTEX
  8
31
 10
9.1174
 20
5.3658
 30
0.0000
 42
1.0000
  0
VERTEX
  8
31
 10
9.1174
 20
5.3023
 30
0.0000
  0
SEQEND
  8
0
  0
POLYLINE
  8
31
 66
1
 10
0.0000
 20
0.0000
 30
0.0000
 40
0.1270
 41
0.1270
 70
0
  0
VERTEX
  8
31
 10
9.1681
 20
5.4610
 30
0.0000
  0
VERTEX
  8
31
 10
11.3338
 20
5.4610
 30
0.0000
  0
SEQEND
  8
0
  0
POLYLINE
  8
31
 66
1
 10
0.0000
 20
0.0000
 30
0.0000
 40
0.0635
 41
0.0635
 70
0
  0
VERTEX
  8
31
 10
11.3338
 20
5.4293
 30
0.0000
 42
1.0000
  0
VERTEX
  8
31
 10
11.3338
 20
5.4928
 30
0.0000
  0
SEQEND
  8
0
  0
POLYLINE
  8
31
 66
1
 10
0.0000
 20
0.0000
 30
0.0000
 40
0.0635
 41
0.0635
 70
0
  0
VERTEX
  8
31
 10
9.1681
 20
5.4928
 30
0.0000
 42
1.0000
  0
VERTEX
  8
31
 10
9.1681
 20
5.4293
 30
0.0000
  0
SEQEND
  8
0
  0
POLYLINE
  8
31
 66
1
 10
0.0000
 20
0.0000
 30
0.0000
 40
0.1270
 41
0.1270
 70
0
  0
VERTEX
  8
31
 10
9.2599
 20
5.5880
 30
0.0000
  0
VERTEX
  8
31
 10
11.2405
 20
5.5880
 30
0.0000
  0
SEQEND
  8
0
  0
POLYLINE
  8
31
 66
1
 10
0.0000
 20
0.0000
 30
0.0000
 40
0.0635
 41
0.0635
 70
0
  0
VERTEX
  8
31
 10
11.2405
 20
5.5563
 30
0.0000
 42
1.0000
  0
VERTEX
  8
31
 10
11.2405
 20
5.6197
 30
0.0000
  0
SEQEND
  8
0
  0
POLYLINE
  8
31
 66
1
 10
0.0000
 20
0.0000
 30
0.0000
 40
0.0635
 41
0.0635
 70
0
  0
VERTEX
  8
31
 10
9.2599
 20
5.6197
 30
0.0000
 42
1.0000
  0
VERTEX
  8
31
 10
9.2599
 20
5.5563
 30
0.0000
  0
SEQEND
  8
0
  0
POLYLINE
  8
31
 66
1
 10
0.0000
 20
0.0000
 30
0.0000
 40
0.1270
 41
0.1270
 70
0
  0
VERTEX
  8
31
 10
9.4389
 20
5.7150
 30
0.0000
  0
VERTEX
  8
31
 10
11.0641
 20
5.7150
 30
0.0000
  0
SEQEND
  8
0
  0
POLYLINE
  8
31
 66
1
 10
0.0000
 20
0.0000
 30
0.0000
 40
0.0635
 41
0.0635
 70
0
  0
VERTEX
  8
31
 10
11.0641
 20
5.6833
 30
0.0000
 42
1.0000
  0
VERTEX
  8
31
 10
11.0641
 20
5.7467
 30
0.0000
  0
SEQEND
  8
0
  0
POLYLINE
  8
31
 66
1
 10
0.0000
 20
0.0000
 30
0.0000
 40
0.0635
 41
0.0635
 70
0
  0
VERTEX
  8
31
 10
9.4389
 20
5.7467
 30
0.0000
 42
1.0000
  0
VERTEX
  8
31
 10
9.4389
 20
5.6833
 30
0.0000
  0
SEQEND
  8
0
  0
ARC
  8
20
 10
2.6500
 20
2.7180
 30
0.0000
 40
0.3500
 50
90.0000
 51
180.0000
  0
LINE
  8
20
 10
2.6500
 20
3.0680
 30
0.0000
 11
2.8500
 21
3.0680
 31
0.0000
  0
ARC
  8
20
 10
2.8500
 20
2.7180
 30
0.0000
 40
0.3500
 50
0.0000
 51
90.0000
  0
LINE
  8
20
 10
3.2000
 20
2.7180
 30
0.0000
 11
3.2000
 21
2.1680
 31
0.0000
  0
ARC
  8
20
 10
2.8250
 20
2.1430
 30
0.0000
 40
0.3758
 50
273.8141
 51
3.8141
  0
LINE
  8
20
 10
2.8500
 20
1.7680
 30
0.0000
 11
2.6500
 21
1.7680
 31
0.0000
  0
ARC
  8
20
 10
2.6750
 20
2.1430
 30
0.0000
 40
0.3758
 50
176.1859
 51
266.1859
  0
LINE
  8
20
 10
2.3000
 20
2.1680
 30
0.0000
 11
2.3000
 21
2.7180
 31
0.0000
  0
ARC
  8
20
 10
10.0000
 20
2.1680
 30
0.0000
 40
0.4031
 50
262.8750
 51
352.8750
  0
ARC
  8
20
 10
9.9000
 20
2.1680
 30
0.0000
 40
0.4031
 50
187.1250
 51
277.1250
  0
LINE
  8
20
 10
10.4000
 20
2.7180
 30
0.0000
 11
10.4000
 21
2.1180
 31
0.0000
  0
ARC
  8
20
 10
10.0000
 20
2.6680
 30
0.0000
 40
0.4031
 50
7.1250
 51
97.1250
  0
ARC
  8
20
 10
9.9000
 20
2.6680
 30
0.0000
 40
0.4031
 50
82.8750
 51
172.8750
  0
LINE
  8
20
 10
9.5000
 20
2.1180
 30
0.0000
 11
9.5000
 21
2.7180
 31
0.0000
  0
INSERT
  8
31
  2
RECT
 10
2.7500
 20
2.4180
 30
0.0000
 41
2.5000
 42
2.5000
 43
1.0000
 50
0.0000
  0
INSERT
  8
31
  2
RECT
 10
9.9500
 20
2.4180
 30
0.0000
 41
2.5000
 42
2.5000
 43
1.0000
 50
0.0000
  0
CIRCLE
  8
20
 10
4.4000
 20
4.3180
 30
0.0000
 40
0.3500
  0
CIRCLE
  8
20
 10
8.3000
 20
4.3180
 30
0.0000
 40
0.3500
  0
INSERT
  8
31
  2
RECT
 10
5.6000
 20
2.3180
 30
0.0000
 41
2.0000
 42
1.0000
 43
1.0000
 50
90.0000
  0
INSERT
  8
31
  2
RECT
 10
7.1000
 20
2.3180
 30
0.0000
 41
2.0000
 42
1.0000
 43
1.0000
 50
90.0000
  0
INSERT
  8
31
  2
RECT
 10
6.3500
 20
5.0930
 30
0.0000
 41
0.4000
 42
1.3500
 43
1.0000
 50
0.0000
  0
INSERT
  8
31
  2
RECT
 10
5.7000
 20
5.0930
 30
0.0000
 41
0.4000
 42
1.3500
 43
1.0000
 50
0.0000
  0
INSERT
  8
31
  2
RECT
 10
7.6500
 20
5.0930
 30
0.0000
 41
0.4000
 42
1.3500
 43
1.0000
 50
0.0000
  0
INSERT
  8
31
  2
RECT
 10
7.0000
 20
5.0930
 30
0.0000
 41
0.4000
 42
1.3500
 43
1.0000
 50
0.0000
  0
INSERT
  8
31
  2
RECT
 10
5.0500
 20
5.0930
 30
0.0000
 41
0.4000
 42
1.3500
 43
1.0000
 50
0.0000
  0
INSERT
  8
31
  2
RECT
 10
12.9980
 20
26.5940
 30
0.0000
 41
1.3000
 42
1.9000
 43
1.0000
 50
0.0000
  0
INSERT
  8
31
  2
RECT
 10
18.4980
 20
26.5940
 30
0.0000
 41
1.3000
 42
1.9000
 43
1.0000
 50
0.0000
  0
INSERT
  8
31
  2
RECT
 10
18.4980
 20
29.7940
 30
0.0000
 41
1.3000
 42
1.9000
 43
1.0000
 50
0.0000
  0
INSERT
  8
31
  2
RECT
 10
12.9980
 20
29.7940
 30
0.0000
 41
1.3000
 42
1.9000
 43
1.0000
 50
0.0000
  0
INSERT
  8
31
  2
RECT
 10
13.7160
 20
18.4720
 30
0.0000
 41
0.7000
 42
1.7000
 43
1.0000
 50
270.0000
  0
INSERT
  8
31
  2
RECT
 10
13.7160
 20
17.2720
 30
0.0000
 41
0.7000
 42
1.7000
 43
1.0000
 50
270.0000
  0
INSERT
  8
31
  2
RECT
 10
13.7160
 20
16.0720
 30
0.0000
 41
0.7000
 42
1.7000
 43
1.0000
 50
270.0000
  0
ENDSEC
  0
EOF
