%
M48
M72
T01C0.0118
T02C0.0138
T03C0.0276
T04C0.0315
T05C0.0354
T06C0.0400
%
T01
X1455Y5624
X1055Y6624
X1105Y6974
X855Y7724
X1105Y8424
X1055Y8808
X1855Y9524
X2455Y9724
X1255Y11824
X855Y11124
X855Y12524
X855Y14324
X3755Y12524
X3755Y11924
X4155Y10624
X4155Y10224
X4055Y9524
X4255Y9124
X4555Y9424
X5055Y10224
X5055Y7724
X4655Y7424
X4655Y7024
X4555Y5724
X5755Y6224
X6755Y5124
X7755Y3824
X8255Y9624
X8555Y10124
X7655Y10124
X3055Y5624
X2955Y5924
X2555Y5924
T02
X3455Y5524
X1555Y3724
X6755Y3224
T03
X3523Y2824
X1987Y2824
T04
X1456Y3178
X4054Y3178
T05
X1338Y2076
X4173Y2076
T06
X5455Y1824
X6455Y1824
X6255Y5724
X6255Y6724
X7255Y6724
X7255Y5724
X8255Y5724
X8255Y6724
X5255Y6724
X5255Y5724
M30
