G75*
%MOIN*%
%OFA0B0*%
%FSLAX25Y25*%
%IPPOS*%
%LPD*%
%AMOC8*
5,1,8,0,0,1.08239X$1,22.5*
%
%ADD10C,0.00700*%
%ADD11C,0.00500*%
%ADD12R,0.05118X0.05906*%
%ADD13R,0.05906X0.05118*%
%ADD14R,0.03937X0.04331*%
%ADD15R,0.05906X0.04724*%
%ADD16R,0.04331X0.03937*%
%ADD17R,0.04724X0.04724*%
%ADD18R,0.05512X0.05512*%
%ADD19R,0.00984X0.03150*%
%ADD20R,0.03150X0.00984*%
%ADD21R,0.18504X0.18504*%
%ADD22R,0.03150X0.03150*%
%ADD23R,0.03937X0.03937*%
%ADD24R,0.01870X0.00984*%
%ADD25R,0.00984X0.01476*%
%ADD26R,0.02165X0.04724*%
%ADD27R,0.09843X0.09843*%
%ADD28C,0.05150*%
%ADD29R,0.01575X0.05315*%
%ADD30R,0.03937X0.07874*%
%ADD31R,0.05118X0.07480*%
%ADD32R,0.06693X0.02756*%
%ADD33OC8,0.06000*%
%ADD34C,0.00800*%
%ADD35C,0.00600*%
%ADD36C,0.02381*%
%ADD37C,0.01200*%
%ADD38C,0.02000*%
%ADD39C,0.02578*%
D10*
X0060319Y0142586D02*
X0061153Y0142586D01*
X0061570Y0143003D01*
X0061570Y0144671D01*
X0061153Y0145088D01*
X0060319Y0145088D01*
X0059902Y0144671D01*
X0059902Y0144254D01*
X0060319Y0143837D01*
X0061570Y0143837D01*
X0062849Y0145088D02*
X0062849Y0142586D01*
X0064100Y0142586D01*
X0064517Y0143003D01*
X0064517Y0144671D01*
X0064100Y0145088D01*
X0062849Y0145088D01*
X0065795Y0143837D02*
X0065795Y0143003D01*
X0066212Y0142586D01*
X0067046Y0142586D01*
X0067463Y0143003D01*
X0067463Y0143837D01*
X0067046Y0144254D01*
X0066212Y0144254D01*
X0065795Y0143837D01*
X0068742Y0143837D02*
X0069576Y0143837D01*
X0068742Y0142586D02*
X0068742Y0145088D01*
X0070410Y0145088D01*
X0060319Y0142586D02*
X0059902Y0143003D01*
D11*
X0071302Y0143603D02*
X0071619Y0143286D01*
X0072253Y0143286D01*
X0072570Y0143603D01*
X0072570Y0144871D01*
X0072253Y0145188D01*
X0071619Y0145188D01*
X0071302Y0144871D01*
X0071302Y0143603D01*
X0073512Y0143286D02*
X0073512Y0145188D01*
X0074463Y0145188D01*
X0074780Y0144871D01*
X0074780Y0144237D01*
X0074463Y0143920D01*
X0073512Y0143920D01*
X0074146Y0143920D02*
X0074780Y0143286D01*
X0075722Y0143286D02*
X0075722Y0145188D01*
X0076039Y0144237D02*
X0076989Y0143286D01*
X0075722Y0143920D02*
X0076989Y0145188D01*
X0076963Y0137388D02*
X0076329Y0137388D01*
X0076012Y0137071D01*
X0076012Y0135803D01*
X0077280Y0137071D01*
X0077280Y0135803D01*
X0076963Y0135486D01*
X0076329Y0135486D01*
X0076012Y0135803D01*
X0075070Y0136754D02*
X0074436Y0135486D01*
X0073802Y0136754D01*
X0076963Y0137388D02*
X0077280Y0137071D01*
X0078222Y0135803D02*
X0078539Y0135803D01*
X0078539Y0135486D01*
X0078222Y0135486D01*
X0078222Y0135803D01*
D12*
X0068292Y0136236D03*
X0060812Y0136236D03*
X0060812Y0108236D03*
X0068292Y0108236D03*
X0075812Y0076236D03*
X0083292Y0076236D03*
X0060292Y0033236D03*
X0052812Y0033236D03*
X0073812Y0026236D03*
X0081292Y0026236D03*
X0021292Y0111236D03*
X0013812Y0111236D03*
X0013812Y0125236D03*
X0013812Y0132236D03*
X0013812Y0139236D03*
X0021292Y0139236D03*
X0021292Y0132236D03*
X0021292Y0125236D03*
D13*
X0038552Y0135496D03*
X0038552Y0142976D03*
X0067552Y0045976D03*
X0067552Y0038496D03*
D14*
X0048552Y0042890D03*
X0048552Y0049583D03*
X0023552Y0049583D03*
X0023552Y0042890D03*
X0017552Y0042890D03*
X0017552Y0049583D03*
X0011552Y0049583D03*
X0009052Y0055390D03*
X0009052Y0062083D03*
X0011552Y0042890D03*
D15*
X0031552Y0135102D03*
X0031552Y0143370D03*
D16*
X0023898Y0118236D03*
X0017206Y0118236D03*
X0015206Y0104236D03*
X0021898Y0104236D03*
X0029206Y0103236D03*
X0035898Y0103236D03*
X0054206Y0097236D03*
X0054206Y0091236D03*
X0060898Y0091236D03*
X0060898Y0097236D03*
X0074206Y0049236D03*
X0080898Y0049236D03*
X0080898Y0019236D03*
X0074206Y0019236D03*
D17*
X0043552Y0042102D03*
X0043552Y0050370D03*
X0009552Y0093102D03*
X0009552Y0101370D03*
D18*
X0053269Y0026236D03*
X0067835Y0026236D03*
D19*
X0038395Y0063555D03*
X0036426Y0063555D03*
X0034458Y0063555D03*
X0032489Y0063555D03*
X0030520Y0063555D03*
X0028552Y0063555D03*
X0026583Y0063555D03*
X0024615Y0063555D03*
X0022646Y0063555D03*
X0020678Y0063555D03*
X0018709Y0063555D03*
X0018709Y0090917D03*
X0020678Y0090917D03*
X0022646Y0090917D03*
X0024615Y0090917D03*
X0026583Y0090917D03*
X0028552Y0090917D03*
X0030520Y0090917D03*
X0032489Y0090917D03*
X0034458Y0090917D03*
X0036426Y0090917D03*
X0038395Y0090917D03*
D20*
X0042233Y0087079D03*
X0042233Y0085110D03*
X0042233Y0083142D03*
X0042233Y0081173D03*
X0042233Y0079205D03*
X0042233Y0077236D03*
X0042233Y0075268D03*
X0042233Y0073299D03*
X0042233Y0071331D03*
X0042233Y0069362D03*
X0042233Y0067394D03*
X0014871Y0067394D03*
X0014871Y0069362D03*
X0014871Y0071331D03*
X0014871Y0073299D03*
X0014871Y0075268D03*
X0014871Y0077236D03*
X0014871Y0079205D03*
X0014871Y0081173D03*
X0014871Y0083142D03*
X0014871Y0085110D03*
X0014871Y0087079D03*
D21*
X0028552Y0077236D03*
D22*
X0029552Y0097236D03*
X0035552Y0097236D03*
D23*
X0068678Y0089386D03*
X0068678Y0083087D03*
X0084426Y0083087D03*
X0084426Y0089386D03*
D24*
X0043704Y0110378D03*
X0043704Y0112346D03*
X0043704Y0114315D03*
X0043704Y0116283D03*
X0043704Y0118252D03*
X0043704Y0120220D03*
X0043704Y0122189D03*
X0043704Y0124157D03*
X0043704Y0126126D03*
X0043704Y0128094D03*
X0031400Y0128094D03*
X0031400Y0126126D03*
X0031400Y0124157D03*
X0031400Y0122189D03*
X0031400Y0120220D03*
X0031400Y0118252D03*
X0031400Y0116283D03*
X0031400Y0114315D03*
X0031400Y0112346D03*
X0031400Y0110378D03*
D25*
X0034599Y0110132D03*
X0036568Y0110132D03*
X0038536Y0110132D03*
X0040505Y0110132D03*
X0040505Y0128341D03*
X0038536Y0128341D03*
X0036568Y0128341D03*
X0034599Y0128341D03*
D26*
X0037292Y0051355D03*
X0037292Y0041118D03*
X0033552Y0041118D03*
X0029812Y0041118D03*
X0029812Y0051355D03*
X0073812Y0043355D03*
X0081292Y0043355D03*
X0081292Y0033118D03*
X0077552Y0033118D03*
X0073812Y0033118D03*
D27*
X0013379Y0020756D03*
X0041725Y0020756D03*
D28*
X0040544Y0031780D02*
X0045694Y0031780D01*
X0014560Y0031780D02*
X0009410Y0031780D01*
D29*
X0022434Y0031287D03*
X0024993Y0031287D03*
X0027552Y0031287D03*
X0030111Y0031287D03*
X0032670Y0031287D03*
D30*
X0030505Y0020362D03*
X0024599Y0020362D03*
D31*
X0053725Y0115937D03*
X0053725Y0128535D03*
X0075379Y0128535D03*
X0075379Y0115937D03*
D32*
X0056552Y0083961D03*
X0056552Y0079236D03*
X0056552Y0074512D03*
D33*
X0052552Y0067236D03*
X0052552Y0057236D03*
X0062552Y0057236D03*
X0062552Y0067236D03*
X0072552Y0067236D03*
X0072552Y0057236D03*
X0082552Y0057236D03*
X0082552Y0067236D03*
X0064552Y0018236D03*
X0054552Y0018236D03*
D34*
X0054552Y0026236D01*
X0053269Y0026236D01*
X0053269Y0033236D01*
X0052812Y0033236D01*
X0053552Y0033236D01*
X0053552Y0042236D01*
X0062552Y0051236D01*
X0067552Y0051236D01*
X0067552Y0045976D02*
X0074206Y0045976D01*
X0074206Y0049236D01*
X0074206Y0045976D02*
X0074206Y0043355D01*
X0073812Y0043355D01*
X0077552Y0038496D02*
X0077552Y0038236D01*
X0077552Y0033118D01*
X0077552Y0029976D01*
X0081292Y0026236D01*
X0081292Y0025178D01*
X0077733Y0021619D01*
X0077733Y0017216D01*
X0076785Y0016268D01*
X0071626Y0016268D01*
X0069657Y0018236D01*
X0064552Y0018236D01*
X0062552Y0018236D01*
X0062552Y0033236D01*
X0060292Y0033236D01*
X0052812Y0033236D02*
X0051552Y0033236D01*
X0047552Y0037236D01*
X0037292Y0037236D01*
X0037292Y0041118D01*
X0033552Y0041118D02*
X0033552Y0037236D01*
X0032670Y0037236D01*
X0027532Y0037236D01*
X0023552Y0041216D01*
X0023552Y0042890D01*
X0020416Y0039205D02*
X0020818Y0038802D01*
X0021229Y0038396D01*
X0022385Y0037236D01*
X0025552Y0037236D01*
X0027552Y0035236D01*
X0027552Y0031287D01*
X0024994Y0031288D02*
X0024993Y0031287D01*
X0024552Y0034236D01*
X0023552Y0035236D01*
X0022394Y0035236D01*
X0019834Y0037806D01*
X0019457Y0038177D01*
X0019079Y0038557D01*
X0019072Y0038557D01*
X0019067Y0038562D01*
X0018536Y0038558D01*
X0018002Y0038559D01*
X0017470Y0038555D01*
X0016500Y0039525D01*
X0014917Y0039525D01*
X0011552Y0042890D01*
X0017552Y0042890D02*
X0017552Y0042051D01*
X0018572Y0041045D01*
X0019661Y0039956D01*
X0019661Y0039956D01*
X0020061Y0039555D01*
X0020409Y0039205D01*
X0020416Y0039205D01*
X0023552Y0049583D02*
X0029812Y0049583D01*
X0029812Y0051355D01*
X0029812Y0046236D02*
X0048552Y0046236D01*
X0048552Y0049583D01*
X0048552Y0042890D02*
X0043552Y0042890D01*
X0043552Y0042102D01*
X0043552Y0050370D02*
X0043552Y0051355D01*
X0037292Y0051355D01*
X0034552Y0051355D01*
X0034552Y0055236D01*
X0029812Y0046236D02*
X0029812Y0041118D01*
X0032670Y0037236D02*
X0032670Y0031287D01*
X0067552Y0032236D02*
X0067552Y0026236D01*
X0067835Y0026236D01*
X0073812Y0026236D01*
X0073812Y0024236D01*
X0073552Y0024236D01*
X0073552Y0019236D01*
X0074206Y0019236D01*
X0080898Y0019236D02*
X0085552Y0019236D01*
X0085552Y0033236D01*
X0081292Y0033236D01*
X0081292Y0033118D01*
X0077552Y0038496D02*
X0067552Y0038496D01*
X0067552Y0033118D02*
X0067552Y0032236D01*
X0067552Y0033118D02*
X0073812Y0033118D01*
X0075812Y0076236D02*
X0076552Y0076976D01*
X0068678Y0083087D02*
X0084426Y0083087D01*
X0084426Y0089386D02*
X0068678Y0089386D01*
X0070552Y0100236D02*
X0070552Y0103883D01*
X0068692Y0103883D01*
X0068692Y0104236D01*
X0067892Y0104236D01*
X0067892Y0103883D01*
X0065549Y0103883D01*
X0065193Y0103979D01*
X0064873Y0104163D01*
X0064800Y0104236D01*
X0057552Y0104236D01*
X0050552Y0111236D01*
X0050552Y0111397D01*
X0050166Y0111783D01*
X0050166Y0117658D01*
X0047588Y0120236D01*
X0046552Y0120236D01*
X0046552Y0111236D01*
X0054252Y0103536D01*
X0056090Y0103536D01*
X0056852Y0102775D01*
X0058852Y0100775D01*
X0058852Y0100236D01*
X0070552Y0100236D01*
X0070552Y0100669D02*
X0058852Y0100669D01*
X0058159Y0101468D02*
X0070552Y0101468D01*
X0070552Y0102267D02*
X0057360Y0102267D01*
X0056562Y0103065D02*
X0070552Y0103065D01*
X0070552Y0103864D02*
X0053925Y0103864D01*
X0053126Y0104662D02*
X0057126Y0104662D01*
X0056328Y0105461D02*
X0052328Y0105461D01*
X0051529Y0106259D02*
X0055529Y0106259D01*
X0054731Y0107058D02*
X0050731Y0107058D01*
X0049932Y0107856D02*
X0053932Y0107856D01*
X0053134Y0108655D02*
X0049134Y0108655D01*
X0048335Y0109453D02*
X0052335Y0109453D01*
X0051537Y0110252D02*
X0047537Y0110252D01*
X0046738Y0111050D02*
X0050738Y0111050D01*
X0050166Y0111849D02*
X0046552Y0111849D01*
X0046552Y0112647D02*
X0050166Y0112647D01*
X0050166Y0113446D02*
X0046552Y0113446D01*
X0046552Y0114244D02*
X0050166Y0114244D01*
X0050166Y0115043D02*
X0046552Y0115043D01*
X0046552Y0115841D02*
X0050166Y0115841D01*
X0050166Y0116640D02*
X0046552Y0116640D01*
X0046552Y0117438D02*
X0050166Y0117438D01*
X0049587Y0118237D02*
X0046552Y0118237D01*
X0046552Y0119035D02*
X0048789Y0119035D01*
X0048552Y0118236D02*
X0046568Y0120220D01*
X0043704Y0120220D01*
X0046552Y0119834D02*
X0047990Y0119834D01*
X0043704Y0126126D02*
X0038536Y0126126D01*
X0038536Y0128341D01*
X0036568Y0128341D01*
X0036552Y0128341D01*
X0036552Y0135236D01*
X0038552Y0135236D01*
X0038552Y0135496D01*
X0038552Y0128341D01*
X0038536Y0128341D01*
X0034599Y0128341D02*
X0034552Y0128341D01*
X0034552Y0129236D01*
X0032552Y0131236D01*
X0028552Y0131236D01*
X0026552Y0133236D01*
X0026552Y0137236D01*
X0024552Y0139236D01*
X0021292Y0139236D01*
X0021292Y0132236D02*
X0022292Y0131236D01*
X0024552Y0131236D01*
X0027694Y0128094D01*
X0031400Y0128094D01*
X0031400Y0122189D02*
X0027599Y0122189D01*
X0024552Y0125236D01*
X0021292Y0125236D01*
X0023914Y0118252D02*
X0023898Y0118236D01*
X0023914Y0118252D02*
X0031400Y0118252D01*
X0036568Y0110132D02*
X0036552Y0110116D01*
X0036552Y0107236D01*
X0027552Y0107236D01*
X0023552Y0111236D01*
X0021292Y0111236D01*
X0035898Y0103236D02*
X0036898Y0102236D01*
X0041552Y0102236D01*
X0060898Y0097236D02*
X0060898Y0091236D01*
X0060898Y0097236D02*
X0082552Y0097236D01*
X0082552Y0096236D01*
X0085552Y0101236D02*
X0076552Y0101236D01*
X0068552Y0107976D02*
X0068292Y0108236D01*
X0079552Y0135236D02*
X0081552Y0135236D01*
X0081552Y0138236D01*
X0079552Y0138236D01*
X0079552Y0135236D01*
X0081552Y0135236D02*
X0083552Y0135236D01*
X0083552Y0138236D01*
X0081552Y0138236D01*
X0079052Y0138237D02*
X0078959Y0138275D01*
X0078867Y0138317D01*
X0078777Y0138362D01*
X0078689Y0138411D01*
X0078603Y0138463D01*
X0078519Y0138519D01*
X0078437Y0138578D01*
X0078357Y0138640D01*
X0078280Y0138705D01*
X0078206Y0138772D01*
X0078134Y0138843D01*
X0078065Y0138917D01*
X0077999Y0138993D01*
X0077936Y0139071D01*
X0077876Y0139152D01*
X0077819Y0139235D01*
X0077765Y0139321D01*
X0077715Y0139408D01*
X0077668Y0139498D01*
X0077625Y0139589D01*
X0077585Y0139681D01*
X0077549Y0139775D01*
X0077517Y0139871D01*
X0077488Y0139967D01*
X0077463Y0140065D01*
X0077442Y0140164D01*
X0077425Y0140263D01*
X0077412Y0140363D01*
X0077402Y0140463D01*
X0077397Y0140564D01*
X0077395Y0140664D01*
X0077397Y0140765D01*
X0077403Y0140866D01*
X0077413Y0140966D01*
X0077427Y0141066D01*
X0077445Y0141165D01*
X0077467Y0141264D01*
X0077492Y0141361D01*
X0077522Y0141458D01*
X0077554Y0141553D01*
X0077591Y0141647D01*
X0077631Y0141739D01*
X0077675Y0141830D01*
X0077722Y0141919D01*
X0077773Y0142006D01*
X0077827Y0142091D01*
X0077884Y0142174D01*
X0077945Y0142255D01*
X0078008Y0142333D01*
X0078075Y0142409D01*
X0078144Y0142482D01*
X0078217Y0142552D01*
X0078291Y0142619D01*
X0078369Y0142684D01*
X0078449Y0142745D01*
X0078531Y0142804D01*
X0078615Y0142859D01*
X0078702Y0142910D01*
X0078790Y0142959D01*
X0078881Y0143004D01*
X0078973Y0143045D01*
X0079066Y0143083D01*
X0079161Y0143117D01*
X0079257Y0143147D01*
X0079354Y0143174D01*
X0079452Y0143196D01*
X0079551Y0143215D01*
X0079651Y0143231D01*
X0079751Y0143242D01*
X0079852Y0143249D01*
X0079952Y0143253D01*
X0080053Y0143252D01*
X0080154Y0143248D01*
X0080254Y0143240D01*
X0080354Y0143227D01*
X0080454Y0143211D01*
X0080553Y0143192D01*
X0080651Y0143168D01*
X0080747Y0143140D01*
X0080843Y0143109D01*
X0080938Y0143074D01*
X0081031Y0143036D01*
X0081122Y0142993D01*
X0081212Y0142948D01*
X0081300Y0142899D01*
X0081386Y0142846D01*
X0081470Y0142790D01*
X0081552Y0142731D01*
X0081631Y0142669D01*
X0081708Y0142604D01*
X0081782Y0142536D01*
X0081854Y0142465D01*
X0081923Y0142391D01*
X0081989Y0142315D01*
X0082051Y0142236D01*
X0080052Y0143236D02*
X0080133Y0143330D01*
X0080217Y0143421D01*
X0080303Y0143510D01*
X0080393Y0143596D01*
X0080485Y0143679D01*
X0080579Y0143758D01*
X0080677Y0143835D01*
X0080776Y0143909D01*
X0080878Y0143980D01*
X0080982Y0144047D01*
X0081088Y0144111D01*
X0081196Y0144172D01*
X0081306Y0144229D01*
X0081418Y0144283D01*
X0081531Y0144333D01*
X0081646Y0144379D01*
X0081762Y0144422D01*
X0081880Y0144461D01*
X0081999Y0144496D01*
X0082118Y0144528D01*
X0082239Y0144555D01*
X0082361Y0144579D01*
X0082483Y0144599D01*
X0082606Y0144615D01*
X0082729Y0144628D01*
X0082853Y0144636D01*
X0082977Y0144640D01*
X0083101Y0144641D01*
X0083225Y0144637D01*
X0083348Y0144630D01*
X0083472Y0144618D01*
X0083595Y0144603D01*
X0083717Y0144584D01*
X0083839Y0144561D01*
X0083960Y0144534D01*
X0084080Y0144503D01*
X0084199Y0144469D01*
X0084317Y0144431D01*
X0084433Y0144389D01*
X0084548Y0144343D01*
X0084662Y0144294D01*
X0084774Y0144241D01*
X0084885Y0144184D01*
X0084993Y0144124D01*
X0085100Y0144061D01*
X0085204Y0143995D01*
X0085306Y0143925D01*
X0085406Y0143851D01*
X0085504Y0143775D01*
X0085599Y0143696D01*
X0085692Y0143614D01*
X0085782Y0143528D01*
X0085869Y0143440D01*
X0085953Y0143350D01*
X0086035Y0143256D01*
X0086113Y0143160D01*
X0086189Y0143062D01*
X0086261Y0142961D01*
X0086330Y0142858D01*
X0086396Y0142753D01*
X0086458Y0142646D01*
X0086517Y0142537D01*
X0086572Y0142426D01*
X0086624Y0142314D01*
X0086672Y0142200D01*
X0086717Y0142084D01*
X0086758Y0141967D01*
X0086795Y0141849D01*
X0086828Y0141730D01*
X0086858Y0141609D01*
X0086884Y0141488D01*
X0086906Y0141366D01*
X0086924Y0141243D01*
X0086938Y0141120D01*
X0086948Y0140997D01*
X0086955Y0140873D01*
X0086957Y0140749D01*
X0086955Y0140625D01*
X0086950Y0140502D01*
X0086941Y0140378D01*
X0086927Y0140255D01*
X0086910Y0140132D01*
X0086889Y0140010D01*
X0086864Y0139889D01*
X0086835Y0139768D01*
X0086803Y0139649D01*
X0086766Y0139530D01*
X0086726Y0139413D01*
X0086682Y0139297D01*
X0086635Y0139183D01*
X0086584Y0139070D01*
X0086529Y0138958D01*
X0086471Y0138849D01*
X0086409Y0138741D01*
X0086344Y0138636D01*
X0086276Y0138533D01*
X0086204Y0138431D01*
X0086130Y0138333D01*
X0086052Y0138236D01*
X0085552Y0138236D02*
X0083552Y0138236D01*
X0085552Y0138236D02*
X0085552Y0135236D01*
X0083552Y0135236D01*
D35*
X0061292Y0131976D02*
X0058552Y0129236D01*
X0054426Y0129236D01*
X0053725Y0128535D01*
X0049347Y0124157D01*
X0043704Y0124157D01*
X0043704Y0122189D02*
X0047473Y0122189D01*
X0053725Y0115937D01*
X0054024Y0116236D01*
X0058552Y0116236D01*
X0061292Y0113496D01*
X0060812Y0108236D01*
X0055552Y0102236D02*
X0057552Y0100236D01*
X0057552Y0091236D01*
X0054206Y0091236D01*
X0054206Y0088890D01*
X0048552Y0083236D01*
X0048552Y0081236D01*
X0046552Y0079236D01*
X0042265Y0079236D01*
X0042233Y0079205D01*
X0042233Y0081173D02*
X0042296Y0081236D01*
X0045552Y0081236D01*
X0046552Y0082236D01*
X0046552Y0084236D01*
X0050552Y0088236D01*
X0050552Y0097236D01*
X0043704Y0104085D01*
X0043704Y0110378D01*
X0041552Y0112236D02*
X0033552Y0112236D01*
X0033552Y0119246D01*
X0033635Y0119557D01*
X0033635Y0120220D01*
X0033552Y0120220D01*
X0033552Y0120221D01*
X0033635Y0120221D01*
X0033635Y0120884D01*
X0033552Y0121195D01*
X0033552Y0122236D01*
X0041552Y0122236D01*
X0041552Y0121195D01*
X0041469Y0120884D01*
X0041469Y0120221D01*
X0041552Y0120221D01*
X0041552Y0120220D01*
X0041469Y0120220D01*
X0041469Y0119557D01*
X0041552Y0119246D01*
X0041552Y0112236D01*
X0041552Y0112385D02*
X0033552Y0112385D01*
X0033552Y0112983D02*
X0041552Y0112983D01*
X0041552Y0113582D02*
X0033552Y0113582D01*
X0033552Y0114180D02*
X0041552Y0114180D01*
X0041552Y0114779D02*
X0033552Y0114779D01*
X0033552Y0115377D02*
X0041552Y0115377D01*
X0041552Y0115976D02*
X0033552Y0115976D01*
X0033552Y0116574D02*
X0041552Y0116574D01*
X0041552Y0117173D02*
X0033552Y0117173D01*
X0033552Y0117771D02*
X0041552Y0117771D01*
X0041552Y0118370D02*
X0033552Y0118370D01*
X0033552Y0118968D02*
X0041552Y0118968D01*
X0041469Y0119567D02*
X0033635Y0119567D01*
X0033635Y0120165D02*
X0041469Y0120165D01*
X0041469Y0120764D02*
X0033635Y0120764D01*
X0033552Y0120236D02*
X0031416Y0120236D01*
X0031400Y0120220D01*
X0033552Y0120236D02*
X0034599Y0119189D01*
X0035631Y0120220D01*
X0043704Y0120220D01*
X0041552Y0121362D02*
X0033552Y0121362D01*
X0033552Y0121961D02*
X0041552Y0121961D01*
X0038536Y0125236D02*
X0038536Y0126126D01*
X0038536Y0125236D02*
X0037552Y0125236D01*
X0034599Y0119189D02*
X0034599Y0112236D01*
X0038552Y0112236D01*
X0038536Y0112220D01*
X0038536Y0110132D01*
X0040505Y0110132D02*
X0040505Y0107283D01*
X0041552Y0106236D01*
X0042052Y0099736D02*
X0045552Y0096236D01*
X0045552Y0094236D01*
X0042643Y0094370D02*
X0042552Y0094280D01*
X0042552Y0091236D01*
X0038552Y0090917D01*
X0038395Y0090917D01*
X0036552Y0090917D02*
X0036552Y0093236D01*
X0038552Y0095236D01*
X0040552Y0095236D01*
X0039595Y0097236D02*
X0039686Y0097327D01*
X0041418Y0097327D01*
X0042643Y0096102D01*
X0042643Y0094370D01*
X0039595Y0097236D02*
X0035552Y0097236D01*
X0032552Y0095236D02*
X0032552Y0099736D01*
X0042052Y0099736D01*
X0036552Y0090917D02*
X0036426Y0090917D01*
X0032552Y0095236D02*
X0030520Y0093205D01*
X0030520Y0090917D01*
X0027708Y0093392D02*
X0029552Y0095236D01*
X0029552Y0097236D01*
X0029520Y0097205D01*
X0029583Y0097205D01*
X0029552Y0097236D02*
X0029552Y0103583D01*
X0029206Y0103236D01*
X0031400Y0110378D02*
X0034353Y0110378D01*
X0034599Y0110132D01*
X0034599Y0112236D01*
X0024552Y0097236D02*
X0023552Y0097236D01*
X0022646Y0096331D01*
X0022646Y0090917D01*
X0020678Y0090917D02*
X0020678Y0100016D01*
X0021898Y0104236D01*
X0018552Y0095236D02*
X0018552Y0090917D01*
X0018709Y0090917D01*
X0014871Y0087079D02*
X0013552Y0087236D01*
X0012709Y0088079D01*
X0010552Y0088079D01*
X0010552Y0088236D01*
X0011426Y0085110D02*
X0011052Y0084236D01*
X0011552Y0084236D02*
X0011552Y0085110D01*
X0011426Y0085110D01*
X0011552Y0085110D02*
X0014871Y0085110D01*
X0009552Y0093102D02*
X0015206Y0098756D01*
X0015206Y0104236D01*
X0017206Y0118236D02*
X0012552Y0118236D01*
X0027687Y0093392D02*
X0026583Y0092289D01*
X0026583Y0090917D01*
X0027687Y0093392D02*
X0027708Y0093392D01*
X0039552Y0083236D02*
X0042139Y0083236D01*
X0042233Y0083142D01*
X0039552Y0083236D02*
X0039552Y0066236D01*
X0042552Y0063236D01*
X0046552Y0063236D01*
X0050552Y0067236D01*
X0052552Y0067236D01*
X0050937Y0071136D02*
X0063452Y0071136D01*
X0068552Y0076236D01*
X0068552Y0082961D01*
X0068678Y0083087D01*
X0064552Y0079236D02*
X0056552Y0079236D01*
X0052552Y0079236D01*
X0050552Y0077236D01*
X0049233Y0074512D02*
X0047418Y0076327D01*
X0045686Y0076327D01*
X0044627Y0075268D01*
X0042233Y0075268D01*
X0042233Y0077236D02*
X0044898Y0077236D01*
X0045189Y0077527D01*
X0047552Y0077527D01*
X0053986Y0083961D01*
X0056552Y0083961D01*
X0056552Y0074512D02*
X0049233Y0074512D01*
X0046552Y0074236D02*
X0046552Y0073299D01*
X0042233Y0073299D01*
X0042233Y0071331D02*
X0046552Y0071331D01*
X0046552Y0070236D01*
X0044470Y0069362D02*
X0045686Y0068146D01*
X0047946Y0068146D01*
X0050937Y0071136D01*
X0044470Y0069362D02*
X0042233Y0069362D01*
X0038395Y0063555D02*
X0038395Y0062394D01*
X0039952Y0060836D01*
X0048952Y0060836D01*
X0052552Y0057236D01*
X0050640Y0053632D02*
X0050937Y0053336D01*
X0058652Y0053336D01*
X0062552Y0057236D01*
X0074206Y0050890D02*
X0074206Y0049236D01*
X0074206Y0050890D02*
X0077552Y0054236D01*
X0077552Y0062236D01*
X0081552Y0067236D02*
X0076552Y0072236D01*
X0076552Y0075496D01*
X0075812Y0076236D01*
X0081552Y0067236D02*
X0082552Y0067236D01*
X0086452Y0065621D02*
X0082552Y0061721D01*
X0082552Y0057236D01*
X0080898Y0055583D01*
X0080898Y0049236D01*
X0077552Y0045890D01*
X0077552Y0038496D01*
X0086452Y0065621D02*
X0086452Y0068852D01*
X0083292Y0072012D01*
X0083292Y0076236D01*
X0068678Y0089386D02*
X0065702Y0089386D01*
X0064552Y0088236D01*
X0064552Y0079236D01*
X0054206Y0097236D02*
X0050552Y0097236D01*
X0050552Y0102236D02*
X0055552Y0102236D01*
X0061292Y0131976D02*
X0060812Y0136236D01*
X0014871Y0071331D02*
X0014776Y0071236D01*
X0012508Y0071236D01*
X0011418Y0072327D01*
X0009686Y0072327D01*
X0008461Y0071102D01*
X0008461Y0065370D01*
X0009052Y0064780D01*
X0009052Y0062083D01*
X0010552Y0066236D02*
X0010552Y0067394D01*
X0014871Y0067394D01*
X0014871Y0069362D02*
X0010552Y0069362D01*
X0011052Y0069736D01*
X0010552Y0069362D02*
X0010552Y0069236D01*
X0009898Y0056236D02*
X0009052Y0055390D01*
X0009898Y0056236D02*
X0014552Y0056236D01*
X0018552Y0053236D02*
X0018552Y0050583D01*
X0017552Y0049583D01*
X0018552Y0053236D02*
X0023461Y0058146D01*
X0023461Y0060102D01*
X0024615Y0061256D01*
X0024615Y0063555D01*
X0026552Y0063555D02*
X0026552Y0060236D01*
X0025552Y0059236D01*
X0026595Y0059236D01*
X0028686Y0057146D01*
X0029643Y0057146D01*
X0030552Y0056236D01*
X0030552Y0055332D01*
X0031795Y0054090D01*
X0031795Y0048620D01*
X0031267Y0048093D01*
X0028755Y0048093D01*
X0023552Y0042890D01*
X0018538Y0037258D02*
X0015552Y0037236D01*
X0018538Y0037258D02*
X0022457Y0033325D01*
X0022434Y0031287D01*
X0011552Y0049583D02*
X0022261Y0060292D01*
X0022261Y0060599D01*
X0022646Y0060984D01*
X0022646Y0063555D01*
X0026552Y0063555D02*
X0026583Y0063555D01*
X0028552Y0063555D02*
X0028552Y0060236D01*
X0029552Y0059236D01*
X0030552Y0061193D02*
X0030552Y0063555D01*
X0030520Y0063555D01*
X0030552Y0061193D02*
X0031643Y0060102D01*
X0031643Y0059146D01*
X0034552Y0056236D01*
X0034552Y0055236D01*
X0034552Y0056236D02*
X0033552Y0057236D01*
X0036352Y0058436D02*
X0034458Y0060331D01*
X0034458Y0063555D01*
X0036426Y0063555D02*
X0036426Y0061362D01*
X0038152Y0059636D01*
X0043152Y0059636D01*
X0045552Y0057236D01*
X0042741Y0056143D02*
X0040448Y0058436D01*
X0036352Y0058436D01*
X0038233Y0063555D02*
X0038395Y0063555D01*
X0042741Y0056143D02*
X0042741Y0056047D01*
X0045156Y0053632D01*
X0050640Y0053632D01*
D36*
X0045552Y0057236D03*
X0046552Y0070236D03*
X0046552Y0074236D03*
X0050552Y0077236D03*
X0042552Y0091236D03*
X0045552Y0094236D03*
X0040552Y0095236D03*
X0041552Y0102236D03*
X0041552Y0106236D03*
X0037552Y0119236D03*
X0037552Y0125236D03*
X0050552Y0102236D03*
X0076552Y0101236D03*
X0082552Y0096236D03*
X0085552Y0101236D03*
X0057552Y0062236D03*
X0067552Y0051236D03*
X0077552Y0038236D03*
X0030552Y0056236D03*
X0029552Y0059236D03*
X0025552Y0059236D03*
X0014552Y0056236D03*
X0010552Y0066236D03*
X0011052Y0069736D03*
X0008552Y0077236D03*
X0011052Y0084236D03*
X0010552Y0088079D03*
X0018552Y0095236D03*
X0024552Y0097236D03*
X0012552Y0118236D03*
X0008552Y0111236D03*
X0008552Y0125236D03*
X0008552Y0143236D03*
D37*
X0008705Y0143389D01*
X0024348Y0143389D01*
X0024367Y0143370D01*
X0031552Y0143370D01*
X0031946Y0142976D01*
X0038552Y0142976D01*
X0043552Y0142976D01*
X0043552Y0131388D01*
X0040505Y0128341D01*
X0013812Y0125236D02*
X0008552Y0125236D01*
X0013812Y0125236D02*
X0013812Y0132236D01*
X0013812Y0139236D01*
X0013812Y0111236D02*
X0009552Y0111236D01*
X0008552Y0111236D01*
X0009552Y0111236D02*
X0009552Y0101370D01*
X0011052Y0084236D02*
X0008552Y0081736D01*
X0008552Y0077236D01*
X0057552Y0062236D02*
X0077552Y0062236D01*
X0082552Y0067236D01*
D38*
X0068552Y0102236D02*
X0068552Y0108236D01*
X0068292Y0108236D01*
X0068292Y0136236D01*
X0036552Y0135236D02*
X0036552Y0135102D01*
X0031552Y0135102D01*
D39*
X0034552Y0055236D03*
X0015552Y0037236D03*
X0067552Y0032236D03*
M02*
