%
M48
M72
T01C0.01181
T02C0.01378
T03C0.02756
T04C0.03150
T05C0.03543
T06C0.04000
%
T01
X14552Y56236
X10552Y66236
X11052Y69736
X8552Y77236
X11052Y84236
X10552Y88079
X18552Y95236
X24552Y97236
X12552Y118236
X8552Y111236
X8552Y125236
X8552Y143236
X37552Y125236
X37552Y119236
X41552Y106236
X41552Y102236
X40552Y95236
X42552Y91236
X45552Y94236
X50552Y102236
X50552Y77236
X46552Y74236
X46552Y70236
X45552Y57236
X57552Y62236
X67552Y51236
X77552Y38236
X82552Y96236
X85552Y101236
X76552Y101236
X30552Y56236
X29552Y59236
X25552Y59236
T02
X34552Y55236
X15552Y37236
X67552Y32236
T03
X35229Y28236
X19875Y28236
T04
X14560Y31780
X40544Y31780
T05
X13379Y20756
X41725Y20756
T06
X54552Y18236
X64552Y18236
X62552Y57236
X62552Y67236
X72552Y67236
X72552Y57236
X82552Y57236
X82552Y67236
X52552Y67236
X52552Y57236
M30
