G75*
%MOIN*%
%OFA0B0*%
%FSLAX25Y25*%
%IPPOS*%
%LPD*%
%AMOC8*
5,1,8,0,0,1.08239X$1,22.5*
%
%ADD10R,0.09843X0.09843*%
%ADD11C,0.05150*%
%ADD12OC8,0.06000*%
%ADD13C,0.00600*%
%ADD14C,0.02381*%
%ADD15C,0.02000*%
%ADD16C,0.00800*%
%ADD17C,0.01200*%
%ADD18C,0.01600*%
%ADD19C,0.02578*%
D10*
X0013379Y0020756D03*
X0041725Y0020756D03*
D11*
X0040544Y0031780D02*
X0045694Y0031780D01*
X0014560Y0031780D02*
X0009410Y0031780D01*
D12*
X0052552Y0057236D03*
X0052552Y0067236D03*
X0062552Y0067236D03*
X0062552Y0057236D03*
X0072552Y0057236D03*
X0072552Y0067236D03*
X0082552Y0067236D03*
X0082552Y0057236D03*
X0064552Y0018236D03*
X0054552Y0018236D03*
D13*
X0056893Y0021411D02*
X0061646Y0021411D01*
X0062244Y0022009D02*
X0056294Y0022009D01*
X0056167Y0022136D02*
X0052937Y0022136D01*
X0050652Y0019852D01*
X0050652Y0016621D01*
X0051737Y0015536D01*
X0047912Y0015536D01*
X0047946Y0015663D01*
X0047946Y0020456D01*
X0047797Y0020456D01*
X0047797Y0021056D01*
X0047946Y0021056D01*
X0047946Y0025848D01*
X0047858Y0026179D01*
X0047687Y0026475D01*
X0047445Y0026717D01*
X0047148Y0026889D01*
X0046818Y0026977D01*
X0044778Y0026977D01*
X0044612Y0027106D01*
X0042354Y0027727D01*
X0042354Y0027727D01*
X0041725Y0027648D01*
X0041097Y0027727D01*
X0041097Y0027727D01*
X0040907Y0027675D01*
X0040907Y0027905D01*
X0046075Y0027905D01*
X0046824Y0028054D01*
X0047529Y0028346D01*
X0048164Y0028770D01*
X0048703Y0029309D01*
X0049128Y0029944D01*
X0049420Y0030649D01*
X0049569Y0031398D01*
X0049569Y0031480D01*
X0040844Y0031480D01*
X0040844Y0032080D01*
X0040244Y0032080D01*
X0040244Y0035654D01*
X0040162Y0035654D01*
X0039414Y0035505D01*
X0038709Y0035213D01*
X0038074Y0034789D01*
X0037534Y0034250D01*
X0037110Y0033615D01*
X0037106Y0033605D01*
X0036359Y0033914D01*
X0034100Y0033914D01*
X0032013Y0033050D01*
X0030416Y0031453D01*
X0029551Y0029366D01*
X0029551Y0027107D01*
X0030416Y0025020D01*
X0032013Y0023423D01*
X0034100Y0022558D01*
X0035504Y0022558D01*
X0035504Y0021056D01*
X0035654Y0021056D01*
X0035654Y0020456D01*
X0035504Y0020456D01*
X0035504Y0015663D01*
X0035538Y0015536D01*
X0019566Y0015536D01*
X0019600Y0015663D01*
X0019600Y0020456D01*
X0019450Y0020456D01*
X0019450Y0021056D01*
X0019600Y0021056D01*
X0019600Y0022558D01*
X0021004Y0022558D01*
X0023091Y0023423D01*
X0024688Y0025020D01*
X0025553Y0027107D01*
X0025553Y0029366D01*
X0024688Y0031453D01*
X0023091Y0033050D01*
X0021004Y0033914D01*
X0018745Y0033914D01*
X0017998Y0033605D01*
X0017994Y0033615D01*
X0017570Y0034250D01*
X0017030Y0034789D01*
X0016533Y0035121D01*
X0017448Y0036036D01*
X0040914Y0036036D01*
X0041014Y0035936D01*
X0042090Y0035936D01*
X0042190Y0036036D01*
X0066352Y0036036D01*
X0066352Y0034132D01*
X0065363Y0033143D01*
X0065363Y0031330D01*
X0066645Y0030047D01*
X0068459Y0030047D01*
X0069741Y0031330D01*
X0069741Y0033143D01*
X0068752Y0034132D01*
X0068752Y0037733D01*
X0068049Y0038436D01*
X0042852Y0038436D01*
X0042852Y0048775D01*
X0042090Y0049536D01*
X0036741Y0054886D01*
X0036741Y0056143D01*
X0035459Y0057425D01*
X0033645Y0057425D01*
X0032363Y0056143D01*
X0032363Y0054330D01*
X0033645Y0053047D01*
X0034902Y0053047D01*
X0040252Y0047698D01*
X0040252Y0038436D01*
X0017448Y0038436D01*
X0016459Y0039425D01*
X0014645Y0039425D01*
X0013363Y0038143D01*
X0013363Y0036330D01*
X0014038Y0035654D01*
X0009029Y0035654D01*
X0008280Y0035505D01*
X0007575Y0035213D01*
X0006940Y0034789D01*
X0006852Y0034701D01*
X0006852Y0146637D01*
X0087173Y0146637D01*
X0087173Y0102571D01*
X0086418Y0103327D01*
X0084686Y0103327D01*
X0083461Y0102102D01*
X0083461Y0100370D01*
X0084686Y0099146D01*
X0084804Y0099146D01*
X0085014Y0098936D01*
X0085252Y0098698D01*
X0085252Y0070052D01*
X0084452Y0070852D01*
X0084452Y0095180D01*
X0084643Y0095370D01*
X0084643Y0097102D01*
X0083844Y0097901D01*
X0083452Y0098685D01*
X0083452Y0126023D01*
X0082339Y0127136D01*
X0038608Y0127136D01*
X0038418Y0127327D01*
X0036686Y0127327D01*
X0035461Y0126102D01*
X0035461Y0124843D01*
X0030055Y0119436D01*
X0014308Y0119436D01*
X0013418Y0120327D01*
X0011686Y0120327D01*
X0010461Y0119102D01*
X0010461Y0117370D01*
X0011686Y0116146D01*
X0013418Y0116146D01*
X0014308Y0117036D01*
X0031049Y0117036D01*
X0037158Y0123146D01*
X0038418Y0123146D01*
X0038608Y0123336D01*
X0079652Y0123336D01*
X0079652Y0098545D01*
X0079501Y0098090D01*
X0079652Y0097788D01*
X0079652Y0097449D01*
X0079990Y0097111D01*
X0080461Y0096169D01*
X0080461Y0095370D01*
X0080652Y0095180D01*
X0080652Y0070852D01*
X0078752Y0068952D01*
X0078752Y0074733D01*
X0078049Y0075436D01*
X0054958Y0098527D01*
X0039189Y0098527D01*
X0039098Y0098436D01*
X0026308Y0098436D01*
X0025418Y0099327D01*
X0023686Y0099327D01*
X0022461Y0098102D01*
X0022461Y0096370D01*
X0023686Y0095146D01*
X0025418Y0095146D01*
X0026308Y0096036D01*
X0038461Y0096036D01*
X0038461Y0095267D01*
X0037931Y0094736D01*
X0020643Y0094736D01*
X0020643Y0096102D01*
X0019418Y0097327D01*
X0017686Y0097327D01*
X0017095Y0096736D01*
X0009931Y0096736D01*
X0009052Y0095858D01*
X0009052Y0089535D01*
X0008461Y0088945D01*
X0008461Y0088003D01*
X0008273Y0087722D01*
X0007925Y0087298D01*
X0007934Y0087215D01*
X0007297Y0086266D01*
X0006961Y0085931D01*
X0006961Y0085766D01*
X0006870Y0085629D01*
X0006961Y0085163D01*
X0006961Y0083219D01*
X0006919Y0082656D01*
X0006961Y0082607D01*
X0006961Y0082542D01*
X0007361Y0082142D01*
X0010052Y0079016D01*
X0010052Y0075793D01*
X0007361Y0072667D01*
X0006961Y0072267D01*
X0006961Y0072202D01*
X0006919Y0072153D01*
X0006961Y0071590D01*
X0006961Y0069310D01*
X0006870Y0068844D01*
X0006961Y0068707D01*
X0006961Y0068542D01*
X0007297Y0068206D01*
X0008232Y0066813D01*
X0008443Y0066495D01*
X0008443Y0065941D01*
X0008461Y0065923D01*
X0008461Y0065370D01*
X0008852Y0064980D01*
X0008852Y0059532D01*
X0009848Y0058536D01*
X0019848Y0058536D01*
X0023438Y0054946D01*
X0027329Y0054946D01*
X0027920Y0055536D01*
X0028256Y0055536D01*
X0029252Y0056532D01*
X0029252Y0056532D01*
X0029866Y0057146D01*
X0030418Y0057146D01*
X0031643Y0058370D01*
X0031643Y0058536D01*
X0043896Y0058536D01*
X0043461Y0058102D01*
X0043461Y0056370D01*
X0044686Y0055146D01*
X0046418Y0055146D01*
X0047308Y0056036D01*
X0047534Y0056036D01*
X0048652Y0057155D01*
X0048652Y0055621D01*
X0050937Y0053336D01*
X0054167Y0053336D01*
X0056452Y0055621D01*
X0056452Y0058036D01*
X0058652Y0058036D01*
X0058652Y0055621D01*
X0060937Y0053336D01*
X0064167Y0053336D01*
X0066452Y0055621D01*
X0066452Y0058852D01*
X0064167Y0061136D01*
X0063752Y0061136D01*
X0063752Y0061733D01*
X0063663Y0061822D01*
X0063688Y0063336D01*
X0064167Y0063336D01*
X0066452Y0065621D01*
X0066452Y0068852D01*
X0064167Y0071136D01*
X0060937Y0071136D01*
X0058652Y0068852D01*
X0058652Y0065621D01*
X0060937Y0063336D01*
X0061288Y0063336D01*
X0061273Y0062436D01*
X0060055Y0062436D01*
X0059643Y0062024D01*
X0059643Y0063102D01*
X0058418Y0064327D01*
X0056686Y0064327D01*
X0056195Y0063836D01*
X0055895Y0064136D01*
X0054967Y0064136D01*
X0056452Y0065621D01*
X0056452Y0068852D01*
X0054167Y0071136D01*
X0050937Y0071136D01*
X0048652Y0068852D01*
X0048652Y0065621D01*
X0050137Y0064136D01*
X0049694Y0064136D01*
X0049294Y0063736D01*
X0047252Y0063736D01*
X0047252Y0068146D01*
X0047418Y0068146D01*
X0048643Y0069370D01*
X0048643Y0071102D01*
X0047418Y0072327D01*
X0045686Y0072327D01*
X0045296Y0071936D01*
X0044848Y0071936D01*
X0043852Y0070940D01*
X0043852Y0061936D01*
X0029848Y0061936D01*
X0029238Y0061327D01*
X0028686Y0061327D01*
X0027461Y0060102D01*
X0027461Y0059550D01*
X0026848Y0058936D01*
X0026511Y0058936D01*
X0025921Y0058346D01*
X0024847Y0058346D01*
X0022252Y0060940D01*
X0021256Y0061936D01*
X0012252Y0061936D01*
X0012252Y0064980D01*
X0012643Y0065370D01*
X0012643Y0067102D01*
X0011418Y0068327D01*
X0010866Y0068327D01*
X0010847Y0068346D01*
X0010816Y0068346D01*
X0010727Y0068478D01*
X0010385Y0068993D01*
X0010381Y0068994D01*
X0009961Y0069620D01*
X0009961Y0071089D01*
X0012652Y0074215D01*
X0013052Y0074615D01*
X0013052Y0074680D01*
X0013094Y0074729D01*
X0013052Y0075292D01*
X0013052Y0079517D01*
X0013094Y0080080D01*
X0013052Y0080129D01*
X0013052Y0080194D01*
X0012652Y0080594D01*
X0009961Y0083720D01*
X0009961Y0084853D01*
X0010684Y0085931D01*
X0010731Y0085988D01*
X0011418Y0085988D01*
X0012643Y0087213D01*
X0012643Y0088945D01*
X0012052Y0089535D01*
X0012052Y0093736D01*
X0017052Y0093736D01*
X0017052Y0092615D01*
X0017931Y0091736D01*
X0039173Y0091736D01*
X0040583Y0093146D01*
X0041418Y0093146D01*
X0042643Y0094370D01*
X0042643Y0096102D01*
X0042618Y0096127D01*
X0044486Y0096127D01*
X0043461Y0095102D01*
X0043461Y0093370D01*
X0044686Y0092146D01*
X0046418Y0092146D01*
X0047308Y0093036D01*
X0054055Y0093036D01*
X0071352Y0075739D01*
X0071352Y0071136D01*
X0070937Y0071136D01*
X0068652Y0068852D01*
X0068652Y0065621D01*
X0070937Y0063336D01*
X0074167Y0063336D01*
X0076352Y0065521D01*
X0076352Y0062733D01*
X0074461Y0060842D01*
X0074167Y0061136D01*
X0070937Y0061136D01*
X0068652Y0058852D01*
X0068652Y0055621D01*
X0069737Y0054536D01*
X0069014Y0054536D01*
X0068252Y0053775D01*
X0067804Y0053327D01*
X0066686Y0053327D01*
X0065461Y0052102D01*
X0065461Y0050370D01*
X0066686Y0049146D01*
X0068418Y0049146D01*
X0069643Y0050370D01*
X0069643Y0051488D01*
X0070090Y0051936D01*
X0074747Y0051936D01*
X0077852Y0055041D01*
X0077852Y0058859D01*
X0080929Y0061936D01*
X0084747Y0061936D01*
X0085509Y0062698D01*
X0087090Y0064279D01*
X0087173Y0064362D01*
X0087173Y0015536D01*
X0067933Y0015536D01*
X0068852Y0016455D01*
X0068852Y0017936D01*
X0064852Y0017936D01*
X0064852Y0018536D01*
X0068852Y0018536D01*
X0068852Y0020017D01*
X0066333Y0022536D01*
X0064852Y0022536D01*
X0064852Y0018536D01*
X0064252Y0018536D01*
X0064252Y0017936D01*
X0060252Y0017936D01*
X0060252Y0016455D01*
X0061171Y0015536D01*
X0057367Y0015536D01*
X0058452Y0016621D01*
X0058452Y0019852D01*
X0056167Y0022136D01*
X0057491Y0020812D02*
X0061047Y0020812D01*
X0060449Y0020214D02*
X0058090Y0020214D01*
X0058452Y0019615D02*
X0060252Y0019615D01*
X0060252Y0020017D02*
X0060252Y0018536D01*
X0064252Y0018536D01*
X0064252Y0022536D01*
X0062771Y0022536D01*
X0060252Y0020017D01*
X0060252Y0019017D02*
X0058452Y0019017D01*
X0058452Y0018418D02*
X0064252Y0018418D01*
X0064252Y0019017D02*
X0064852Y0019017D01*
X0064852Y0019615D02*
X0064252Y0019615D01*
X0064252Y0020214D02*
X0064852Y0020214D01*
X0064852Y0020812D02*
X0064252Y0020812D01*
X0064252Y0021411D02*
X0064852Y0021411D01*
X0064852Y0022009D02*
X0064252Y0022009D01*
X0064852Y0018418D02*
X0087173Y0018418D01*
X0087173Y0017820D02*
X0068852Y0017820D01*
X0068852Y0017221D02*
X0087173Y0017221D01*
X0087173Y0016623D02*
X0068852Y0016623D01*
X0068421Y0016024D02*
X0087173Y0016024D01*
X0087173Y0019017D02*
X0068852Y0019017D01*
X0068852Y0019615D02*
X0087173Y0019615D01*
X0087173Y0020214D02*
X0068655Y0020214D01*
X0068057Y0020812D02*
X0087173Y0020812D01*
X0087173Y0021411D02*
X0067458Y0021411D01*
X0066860Y0022009D02*
X0087173Y0022009D01*
X0087173Y0022608D02*
X0047946Y0022608D01*
X0047946Y0023206D02*
X0087173Y0023206D01*
X0087173Y0023805D02*
X0047946Y0023805D01*
X0047946Y0024403D02*
X0087173Y0024403D01*
X0087173Y0025002D02*
X0047946Y0025002D01*
X0047946Y0025600D02*
X0087173Y0025600D01*
X0087173Y0026199D02*
X0047846Y0026199D01*
X0047306Y0026798D02*
X0087173Y0026798D01*
X0087173Y0027396D02*
X0043557Y0027396D01*
X0044612Y0027106D02*
X0044612Y0027106D01*
X0046527Y0027995D02*
X0087173Y0027995D01*
X0087173Y0028593D02*
X0047899Y0028593D01*
X0048586Y0029192D02*
X0087173Y0029192D01*
X0087173Y0029790D02*
X0049025Y0029790D01*
X0049312Y0030389D02*
X0066304Y0030389D01*
X0065705Y0030987D02*
X0049487Y0030987D01*
X0049569Y0032080D02*
X0049569Y0032161D01*
X0049420Y0032910D01*
X0049128Y0033615D01*
X0048703Y0034250D01*
X0048164Y0034789D01*
X0047529Y0035213D01*
X0046824Y0035505D01*
X0046075Y0035654D01*
X0040844Y0035654D01*
X0040844Y0032080D01*
X0049569Y0032080D01*
X0049564Y0032184D02*
X0065363Y0032184D01*
X0065363Y0031586D02*
X0040844Y0031586D01*
X0040844Y0032184D02*
X0040244Y0032184D01*
X0040244Y0032783D02*
X0040844Y0032783D01*
X0040844Y0033381D02*
X0040244Y0033381D01*
X0040244Y0033980D02*
X0040844Y0033980D01*
X0040844Y0034578D02*
X0040244Y0034578D01*
X0040244Y0035177D02*
X0040844Y0035177D01*
X0041552Y0037236D02*
X0067552Y0037236D01*
X0067552Y0032236D01*
X0068904Y0033980D02*
X0087173Y0033980D01*
X0087173Y0034578D02*
X0068752Y0034578D01*
X0068752Y0035177D02*
X0087173Y0035177D01*
X0087173Y0035775D02*
X0068752Y0035775D01*
X0068752Y0036374D02*
X0087173Y0036374D01*
X0087173Y0036972D02*
X0068752Y0036972D01*
X0068752Y0037571D02*
X0087173Y0037571D01*
X0087173Y0038169D02*
X0068316Y0038169D01*
X0066352Y0035775D02*
X0017187Y0035775D01*
X0016588Y0035177D02*
X0038654Y0035177D01*
X0037863Y0034578D02*
X0017241Y0034578D01*
X0017750Y0033980D02*
X0037354Y0033980D01*
X0040252Y0038768D02*
X0017116Y0038768D01*
X0016518Y0039366D02*
X0040252Y0039366D01*
X0040252Y0039965D02*
X0006852Y0039965D01*
X0006852Y0040563D02*
X0040252Y0040563D01*
X0040252Y0041162D02*
X0006852Y0041162D01*
X0006852Y0041760D02*
X0040252Y0041760D01*
X0040252Y0042359D02*
X0006852Y0042359D01*
X0006852Y0042957D02*
X0040252Y0042957D01*
X0040252Y0043556D02*
X0006852Y0043556D01*
X0006852Y0044154D02*
X0040252Y0044154D01*
X0040252Y0044753D02*
X0006852Y0044753D01*
X0006852Y0045351D02*
X0040252Y0045351D01*
X0040252Y0045950D02*
X0006852Y0045950D01*
X0006852Y0046548D02*
X0040252Y0046548D01*
X0040252Y0047147D02*
X0006852Y0047147D01*
X0006852Y0047745D02*
X0040204Y0047745D01*
X0039606Y0048344D02*
X0006852Y0048344D01*
X0006852Y0048942D02*
X0039007Y0048942D01*
X0038409Y0049541D02*
X0006852Y0049541D01*
X0006852Y0050139D02*
X0037810Y0050139D01*
X0037212Y0050738D02*
X0006852Y0050738D01*
X0006852Y0051336D02*
X0036613Y0051336D01*
X0036015Y0051935D02*
X0006852Y0051935D01*
X0006852Y0052534D02*
X0035416Y0052534D01*
X0036741Y0054928D02*
X0049345Y0054928D01*
X0048747Y0055526D02*
X0046798Y0055526D01*
X0047622Y0056125D02*
X0048652Y0056125D01*
X0048652Y0056723D02*
X0048220Y0056723D01*
X0049944Y0054329D02*
X0037298Y0054329D01*
X0037896Y0053731D02*
X0050542Y0053731D01*
X0054562Y0053731D02*
X0060542Y0053731D01*
X0059944Y0054329D02*
X0055160Y0054329D01*
X0055759Y0054928D02*
X0059345Y0054928D01*
X0058747Y0055526D02*
X0056357Y0055526D01*
X0056452Y0056125D02*
X0058652Y0056125D01*
X0058652Y0056723D02*
X0056452Y0056723D01*
X0056452Y0057322D02*
X0058652Y0057322D01*
X0058652Y0057920D02*
X0056452Y0057920D01*
X0056552Y0059236D02*
X0058552Y0059236D01*
X0060552Y0061236D01*
X0062552Y0061236D01*
X0062452Y0061136D01*
X0062552Y0067236D01*
X0065335Y0064504D02*
X0069769Y0064504D01*
X0069171Y0065102D02*
X0065933Y0065102D01*
X0066452Y0065701D02*
X0068652Y0065701D01*
X0068652Y0066299D02*
X0066452Y0066299D01*
X0066452Y0066898D02*
X0068652Y0066898D01*
X0068652Y0067496D02*
X0066452Y0067496D01*
X0066452Y0068095D02*
X0068652Y0068095D01*
X0068652Y0068693D02*
X0066452Y0068693D01*
X0066012Y0069292D02*
X0069092Y0069292D01*
X0069691Y0069890D02*
X0065413Y0069890D01*
X0064815Y0070489D02*
X0070289Y0070489D01*
X0070888Y0071087D02*
X0064216Y0071087D01*
X0060888Y0071087D02*
X0054216Y0071087D01*
X0054815Y0070489D02*
X0060289Y0070489D01*
X0059691Y0069890D02*
X0055413Y0069890D01*
X0056012Y0069292D02*
X0059092Y0069292D01*
X0058652Y0068693D02*
X0056452Y0068693D01*
X0056452Y0068095D02*
X0058652Y0068095D01*
X0058652Y0067496D02*
X0056452Y0067496D01*
X0056452Y0066898D02*
X0058652Y0066898D01*
X0058652Y0066299D02*
X0056452Y0066299D01*
X0056452Y0065701D02*
X0058652Y0065701D01*
X0059171Y0065102D02*
X0055933Y0065102D01*
X0055335Y0064504D02*
X0059769Y0064504D01*
X0060368Y0063905D02*
X0058839Y0063905D01*
X0059438Y0063307D02*
X0061287Y0063307D01*
X0061278Y0062708D02*
X0059643Y0062708D01*
X0059643Y0062110D02*
X0059728Y0062110D01*
X0056552Y0059236D02*
X0054652Y0061136D01*
X0050937Y0061136D01*
X0047037Y0057236D01*
X0045552Y0057236D01*
X0044306Y0055526D02*
X0036741Y0055526D01*
X0036741Y0056125D02*
X0043707Y0056125D01*
X0043461Y0056723D02*
X0036161Y0056723D01*
X0035562Y0057322D02*
X0043461Y0057322D01*
X0043461Y0057920D02*
X0031192Y0057920D01*
X0031643Y0058519D02*
X0043878Y0058519D01*
X0043852Y0062110D02*
X0012252Y0062110D01*
X0012252Y0062708D02*
X0043852Y0062708D01*
X0043852Y0063307D02*
X0012252Y0063307D01*
X0012252Y0063905D02*
X0043852Y0063905D01*
X0043852Y0064504D02*
X0012252Y0064504D01*
X0012374Y0065102D02*
X0043852Y0065102D01*
X0043852Y0065701D02*
X0012643Y0065701D01*
X0012643Y0066299D02*
X0043852Y0066299D01*
X0043852Y0066898D02*
X0012643Y0066898D01*
X0012248Y0067496D02*
X0043852Y0067496D01*
X0043852Y0068095D02*
X0011650Y0068095D01*
X0010584Y0068693D02*
X0043852Y0068693D01*
X0043852Y0069292D02*
X0010181Y0069292D01*
X0009961Y0069890D02*
X0043852Y0069890D01*
X0043852Y0070489D02*
X0009961Y0070489D01*
X0009961Y0071087D02*
X0043999Y0071087D01*
X0044597Y0071686D02*
X0010475Y0071686D01*
X0010990Y0072284D02*
X0045644Y0072284D01*
X0046552Y0074236D02*
X0041552Y0074236D01*
X0042552Y0073236D02*
X0042552Y0063236D01*
X0014552Y0063236D01*
X0014552Y0091236D01*
X0042552Y0091236D01*
X0039552Y0090236D01*
X0039472Y0092035D02*
X0055056Y0092035D01*
X0055654Y0091437D02*
X0012052Y0091437D01*
X0012052Y0092035D02*
X0017632Y0092035D01*
X0017052Y0092634D02*
X0012052Y0092634D01*
X0012052Y0093232D02*
X0017052Y0093232D01*
X0014552Y0090838D02*
X0042552Y0090838D01*
X0042552Y0091236D02*
X0042552Y0077236D01*
X0047552Y0077236D01*
X0047552Y0079236D01*
X0054552Y0086236D01*
X0059552Y0086236D01*
X0059552Y0073236D01*
X0042552Y0073236D01*
X0042552Y0072883D02*
X0014552Y0072883D01*
X0014552Y0073481D02*
X0059552Y0073481D01*
X0059552Y0074080D02*
X0014552Y0074080D01*
X0014552Y0074678D02*
X0059552Y0074678D01*
X0059552Y0075277D02*
X0014552Y0075277D01*
X0014552Y0075875D02*
X0059552Y0075875D01*
X0059552Y0076474D02*
X0014552Y0076474D01*
X0014552Y0077072D02*
X0059552Y0077072D01*
X0059552Y0077671D02*
X0047552Y0077671D01*
X0047552Y0078269D02*
X0059552Y0078269D01*
X0059552Y0078868D02*
X0047552Y0078868D01*
X0047782Y0079467D02*
X0059552Y0079467D01*
X0059552Y0080065D02*
X0048381Y0080065D01*
X0048979Y0080664D02*
X0059552Y0080664D01*
X0059552Y0081262D02*
X0049578Y0081262D01*
X0050176Y0081861D02*
X0059552Y0081861D01*
X0059552Y0082459D02*
X0050775Y0082459D01*
X0051373Y0083058D02*
X0059552Y0083058D01*
X0059552Y0083656D02*
X0051972Y0083656D01*
X0052570Y0084255D02*
X0059552Y0084255D01*
X0059552Y0084853D02*
X0053169Y0084853D01*
X0053767Y0085452D02*
X0059552Y0085452D01*
X0059552Y0086050D02*
X0054366Y0086050D01*
X0057450Y0089641D02*
X0012052Y0089641D01*
X0012052Y0090240D02*
X0056851Y0090240D01*
X0056253Y0090838D02*
X0012052Y0090838D01*
X0012545Y0089043D02*
X0058048Y0089043D01*
X0058647Y0088444D02*
X0012643Y0088444D01*
X0012643Y0087846D02*
X0059245Y0087846D01*
X0059844Y0087247D02*
X0012643Y0087247D01*
X0012078Y0086649D02*
X0060443Y0086649D01*
X0061041Y0086050D02*
X0011480Y0086050D01*
X0010363Y0085452D02*
X0061640Y0085452D01*
X0062238Y0084853D02*
X0009962Y0084853D01*
X0009961Y0084255D02*
X0062837Y0084255D01*
X0063435Y0083656D02*
X0010016Y0083656D01*
X0010531Y0083058D02*
X0064034Y0083058D01*
X0064632Y0082459D02*
X0011047Y0082459D01*
X0011562Y0081861D02*
X0065231Y0081861D01*
X0065829Y0081262D02*
X0012077Y0081262D01*
X0012592Y0080664D02*
X0066428Y0080664D01*
X0067026Y0080065D02*
X0013093Y0080065D01*
X0013052Y0079467D02*
X0067625Y0079467D01*
X0068223Y0078868D02*
X0013052Y0078868D01*
X0013052Y0078269D02*
X0068822Y0078269D01*
X0069420Y0077671D02*
X0013052Y0077671D01*
X0013052Y0077072D02*
X0070019Y0077072D01*
X0070617Y0076474D02*
X0013052Y0076474D01*
X0013052Y0075875D02*
X0071216Y0075875D01*
X0071352Y0075277D02*
X0013053Y0075277D01*
X0013052Y0074678D02*
X0071352Y0074678D01*
X0071352Y0074080D02*
X0012536Y0074080D01*
X0012021Y0073481D02*
X0071352Y0073481D01*
X0071352Y0072883D02*
X0011505Y0072883D01*
X0009608Y0075277D02*
X0006852Y0075277D01*
X0006852Y0075875D02*
X0010052Y0075875D01*
X0010052Y0076474D02*
X0006852Y0076474D01*
X0006852Y0077072D02*
X0010052Y0077072D01*
X0010052Y0077671D02*
X0006852Y0077671D01*
X0006852Y0078269D02*
X0010052Y0078269D01*
X0010052Y0078868D02*
X0006852Y0078868D01*
X0006852Y0079467D02*
X0009664Y0079467D01*
X0009149Y0080065D02*
X0006852Y0080065D01*
X0006852Y0080664D02*
X0008634Y0080664D01*
X0008119Y0081262D02*
X0006852Y0081262D01*
X0006852Y0081861D02*
X0007604Y0081861D01*
X0007044Y0082459D02*
X0006852Y0082459D01*
X0006852Y0083058D02*
X0006949Y0083058D01*
X0006961Y0083656D02*
X0006852Y0083656D01*
X0006852Y0084255D02*
X0006961Y0084255D01*
X0006961Y0084853D02*
X0006852Y0084853D01*
X0006852Y0085452D02*
X0006904Y0085452D01*
X0006852Y0086050D02*
X0007081Y0086050D01*
X0006852Y0086649D02*
X0007554Y0086649D01*
X0007930Y0087247D02*
X0006852Y0087247D01*
X0006852Y0087846D02*
X0008356Y0087846D01*
X0008461Y0088444D02*
X0006852Y0088444D01*
X0006852Y0089043D02*
X0008559Y0089043D01*
X0009052Y0089641D02*
X0006852Y0089641D01*
X0006852Y0090240D02*
X0009052Y0090240D01*
X0009052Y0090838D02*
X0006852Y0090838D01*
X0006852Y0091437D02*
X0009052Y0091437D01*
X0009052Y0092035D02*
X0006852Y0092035D01*
X0006852Y0092634D02*
X0009052Y0092634D01*
X0009052Y0093232D02*
X0006852Y0093232D01*
X0006852Y0093831D02*
X0009052Y0093831D01*
X0009052Y0094429D02*
X0006852Y0094429D01*
X0006852Y0095028D02*
X0009052Y0095028D01*
X0009052Y0095626D02*
X0006852Y0095626D01*
X0006852Y0096225D02*
X0009419Y0096225D01*
X0006852Y0096823D02*
X0017183Y0096823D01*
X0019921Y0096823D02*
X0022461Y0096823D01*
X0022461Y0097422D02*
X0006852Y0097422D01*
X0006852Y0098020D02*
X0022461Y0098020D01*
X0022978Y0098619D02*
X0006852Y0098619D01*
X0006852Y0099217D02*
X0023577Y0099217D01*
X0025527Y0099217D02*
X0042732Y0099217D01*
X0043204Y0098746D02*
X0041804Y0100146D01*
X0040686Y0100146D01*
X0039461Y0101370D01*
X0039461Y0103102D01*
X0040596Y0104236D01*
X0039461Y0105370D01*
X0039461Y0107102D01*
X0040686Y0108327D01*
X0042418Y0108327D01*
X0043308Y0107436D01*
X0047049Y0107436D01*
X0047752Y0106733D01*
X0047752Y0106733D01*
X0050158Y0104327D01*
X0051418Y0104327D01*
X0052643Y0103102D01*
X0052643Y0102536D01*
X0074895Y0102536D01*
X0075686Y0103327D01*
X0077418Y0103327D01*
X0078643Y0102102D01*
X0078643Y0100370D01*
X0077418Y0099146D01*
X0075686Y0099146D01*
X0074895Y0099936D01*
X0053188Y0099936D01*
X0052759Y0099507D01*
X0051998Y0098746D01*
X0043204Y0098746D01*
X0042134Y0099816D02*
X0006852Y0099816D01*
X0006852Y0100414D02*
X0040417Y0100414D01*
X0039819Y0101013D02*
X0006852Y0101013D01*
X0006852Y0101611D02*
X0039461Y0101611D01*
X0039461Y0102210D02*
X0006852Y0102210D01*
X0006852Y0102808D02*
X0039461Y0102808D01*
X0039766Y0103407D02*
X0006852Y0103407D01*
X0006852Y0104005D02*
X0040365Y0104005D01*
X0040228Y0104604D02*
X0006852Y0104604D01*
X0006852Y0105202D02*
X0039629Y0105202D01*
X0039461Y0105801D02*
X0006852Y0105801D01*
X0006852Y0106400D02*
X0039461Y0106400D01*
X0039461Y0106998D02*
X0006852Y0106998D01*
X0006852Y0107597D02*
X0039956Y0107597D01*
X0040554Y0108195D02*
X0006852Y0108195D01*
X0006852Y0108794D02*
X0079652Y0108794D01*
X0079652Y0109392D02*
X0006852Y0109392D01*
X0006852Y0109991D02*
X0079652Y0109991D01*
X0079652Y0110589D02*
X0006852Y0110589D01*
X0006852Y0111188D02*
X0079652Y0111188D01*
X0079652Y0111786D02*
X0006852Y0111786D01*
X0006852Y0112385D02*
X0079652Y0112385D01*
X0079652Y0112983D02*
X0006852Y0112983D01*
X0006852Y0113582D02*
X0079652Y0113582D01*
X0079652Y0114180D02*
X0006852Y0114180D01*
X0006852Y0114779D02*
X0079652Y0114779D01*
X0079652Y0115377D02*
X0006852Y0115377D01*
X0006852Y0115976D02*
X0079652Y0115976D01*
X0079652Y0116574D02*
X0013846Y0116574D01*
X0012552Y0118236D02*
X0030552Y0118236D01*
X0037552Y0125236D01*
X0036108Y0126749D02*
X0006852Y0126749D01*
X0006852Y0127347D02*
X0087173Y0127347D01*
X0087173Y0126749D02*
X0082726Y0126749D01*
X0083325Y0126150D02*
X0087173Y0126150D01*
X0087173Y0125552D02*
X0083452Y0125552D01*
X0083452Y0124953D02*
X0087173Y0124953D01*
X0087173Y0124355D02*
X0083452Y0124355D01*
X0083452Y0123756D02*
X0087173Y0123756D01*
X0087173Y0123158D02*
X0083452Y0123158D01*
X0083452Y0122559D02*
X0087173Y0122559D01*
X0087173Y0121961D02*
X0083452Y0121961D01*
X0083452Y0121362D02*
X0087173Y0121362D01*
X0087173Y0120764D02*
X0083452Y0120764D01*
X0083452Y0120165D02*
X0087173Y0120165D01*
X0087173Y0119567D02*
X0083452Y0119567D01*
X0083452Y0118968D02*
X0087173Y0118968D01*
X0087173Y0118370D02*
X0083452Y0118370D01*
X0083452Y0117771D02*
X0087173Y0117771D01*
X0087173Y0117173D02*
X0083452Y0117173D01*
X0083452Y0116574D02*
X0087173Y0116574D01*
X0087173Y0115976D02*
X0083452Y0115976D01*
X0083452Y0115377D02*
X0087173Y0115377D01*
X0087173Y0114779D02*
X0083452Y0114779D01*
X0083452Y0114180D02*
X0087173Y0114180D01*
X0087173Y0113582D02*
X0083452Y0113582D01*
X0083452Y0112983D02*
X0087173Y0112983D01*
X0087173Y0112385D02*
X0083452Y0112385D01*
X0083452Y0111786D02*
X0087173Y0111786D01*
X0087173Y0111188D02*
X0083452Y0111188D01*
X0083452Y0110589D02*
X0087173Y0110589D01*
X0087173Y0109991D02*
X0083452Y0109991D01*
X0083452Y0109392D02*
X0087173Y0109392D01*
X0087173Y0108794D02*
X0083452Y0108794D01*
X0083452Y0108195D02*
X0087173Y0108195D01*
X0087173Y0107597D02*
X0083452Y0107597D01*
X0083452Y0106998D02*
X0087173Y0106998D01*
X0087173Y0106400D02*
X0083452Y0106400D01*
X0083452Y0105801D02*
X0087173Y0105801D01*
X0087173Y0105202D02*
X0083452Y0105202D01*
X0083452Y0104604D02*
X0087173Y0104604D01*
X0087173Y0104005D02*
X0083452Y0104005D01*
X0083452Y0103407D02*
X0087173Y0103407D01*
X0087173Y0102808D02*
X0086936Y0102808D01*
X0084168Y0102808D02*
X0083452Y0102808D01*
X0083452Y0102210D02*
X0083569Y0102210D01*
X0083461Y0101611D02*
X0083452Y0101611D01*
X0083452Y0101013D02*
X0083461Y0101013D01*
X0083452Y0100414D02*
X0083461Y0100414D01*
X0083452Y0099816D02*
X0084016Y0099816D01*
X0083452Y0099217D02*
X0084614Y0099217D01*
X0085252Y0098619D02*
X0083485Y0098619D01*
X0083784Y0098020D02*
X0085252Y0098020D01*
X0085252Y0097422D02*
X0084323Y0097422D01*
X0084643Y0096823D02*
X0085252Y0096823D01*
X0085252Y0096225D02*
X0084643Y0096225D01*
X0084643Y0095626D02*
X0085252Y0095626D01*
X0085252Y0095028D02*
X0084452Y0095028D01*
X0084452Y0094429D02*
X0085252Y0094429D01*
X0085252Y0093831D02*
X0084452Y0093831D01*
X0084452Y0093232D02*
X0085252Y0093232D01*
X0085252Y0092634D02*
X0084452Y0092634D01*
X0084452Y0092035D02*
X0085252Y0092035D01*
X0085252Y0091437D02*
X0084452Y0091437D01*
X0084452Y0090838D02*
X0085252Y0090838D01*
X0085252Y0090240D02*
X0084452Y0090240D01*
X0084452Y0089641D02*
X0085252Y0089641D01*
X0085252Y0089043D02*
X0084452Y0089043D01*
X0084452Y0088444D02*
X0085252Y0088444D01*
X0085252Y0087846D02*
X0084452Y0087846D01*
X0084452Y0087247D02*
X0085252Y0087247D01*
X0085252Y0086649D02*
X0084452Y0086649D01*
X0084452Y0086050D02*
X0085252Y0086050D01*
X0085252Y0085452D02*
X0084452Y0085452D01*
X0084452Y0084853D02*
X0085252Y0084853D01*
X0085252Y0084255D02*
X0084452Y0084255D01*
X0084452Y0083656D02*
X0085252Y0083656D01*
X0085252Y0083058D02*
X0084452Y0083058D01*
X0084452Y0082459D02*
X0085252Y0082459D01*
X0085252Y0081861D02*
X0084452Y0081861D01*
X0084452Y0081262D02*
X0085252Y0081262D01*
X0085252Y0080664D02*
X0084452Y0080664D01*
X0084452Y0080065D02*
X0085252Y0080065D01*
X0085252Y0079467D02*
X0084452Y0079467D01*
X0084452Y0078868D02*
X0085252Y0078868D01*
X0085252Y0078269D02*
X0084452Y0078269D01*
X0084452Y0077671D02*
X0085252Y0077671D01*
X0085252Y0077072D02*
X0084452Y0077072D01*
X0084452Y0076474D02*
X0085252Y0076474D01*
X0085252Y0075875D02*
X0084452Y0075875D01*
X0084452Y0075277D02*
X0085252Y0075277D01*
X0085252Y0074678D02*
X0084452Y0074678D01*
X0084452Y0074080D02*
X0085252Y0074080D01*
X0085252Y0073481D02*
X0084452Y0073481D01*
X0084452Y0072883D02*
X0085252Y0072883D01*
X0085252Y0072284D02*
X0084452Y0072284D01*
X0084452Y0071686D02*
X0085252Y0071686D01*
X0085252Y0071087D02*
X0084452Y0071087D01*
X0084815Y0070489D02*
X0085252Y0070489D01*
X0087090Y0064279D02*
X0087090Y0064279D01*
X0087173Y0063905D02*
X0086716Y0063905D01*
X0087173Y0063307D02*
X0086118Y0063307D01*
X0085519Y0062708D02*
X0087173Y0062708D01*
X0087173Y0062110D02*
X0084921Y0062110D01*
X0084333Y0061536D02*
X0082852Y0061536D01*
X0082852Y0057536D01*
X0086852Y0057536D01*
X0086852Y0059017D01*
X0084333Y0061536D01*
X0084358Y0061511D02*
X0087173Y0061511D01*
X0087173Y0060913D02*
X0084957Y0060913D01*
X0085555Y0060314D02*
X0087173Y0060314D01*
X0087173Y0059716D02*
X0086154Y0059716D01*
X0086752Y0059117D02*
X0087173Y0059117D01*
X0087173Y0058519D02*
X0086852Y0058519D01*
X0086852Y0057920D02*
X0087173Y0057920D01*
X0087173Y0057322D02*
X0082852Y0057322D01*
X0082852Y0057536D02*
X0082852Y0056936D01*
X0082852Y0052936D01*
X0084333Y0052936D01*
X0086852Y0055455D01*
X0086852Y0056936D01*
X0082852Y0056936D01*
X0082252Y0056936D01*
X0082252Y0052936D01*
X0080771Y0052936D01*
X0078252Y0055455D01*
X0078252Y0056936D01*
X0082252Y0056936D01*
X0082252Y0057536D01*
X0078252Y0057536D01*
X0078252Y0059017D01*
X0080771Y0061536D01*
X0082252Y0061536D01*
X0082252Y0057536D01*
X0082852Y0057536D01*
X0082852Y0057920D02*
X0082252Y0057920D01*
X0082252Y0057322D02*
X0077852Y0057322D01*
X0077852Y0057920D02*
X0078252Y0057920D01*
X0078252Y0058519D02*
X0077852Y0058519D01*
X0078110Y0059117D02*
X0078352Y0059117D01*
X0078708Y0059716D02*
X0078950Y0059716D01*
X0079307Y0060314D02*
X0079549Y0060314D01*
X0079905Y0060913D02*
X0080147Y0060913D01*
X0080504Y0061511D02*
X0080746Y0061511D01*
X0082252Y0061511D02*
X0082852Y0061511D01*
X0082852Y0060913D02*
X0082252Y0060913D01*
X0082252Y0060314D02*
X0082852Y0060314D01*
X0082852Y0059716D02*
X0082252Y0059716D01*
X0082252Y0059117D02*
X0082852Y0059117D01*
X0082852Y0058519D02*
X0082252Y0058519D01*
X0082252Y0056723D02*
X0082852Y0056723D01*
X0082852Y0056125D02*
X0082252Y0056125D01*
X0082252Y0055526D02*
X0082852Y0055526D01*
X0082852Y0054928D02*
X0082252Y0054928D01*
X0082252Y0054329D02*
X0082852Y0054329D01*
X0082852Y0053731D02*
X0082252Y0053731D01*
X0082252Y0053132D02*
X0082852Y0053132D01*
X0084529Y0053132D02*
X0087173Y0053132D01*
X0087173Y0052534D02*
X0075345Y0052534D01*
X0075943Y0053132D02*
X0080575Y0053132D01*
X0079977Y0053731D02*
X0076542Y0053731D01*
X0077140Y0054329D02*
X0079378Y0054329D01*
X0078780Y0054928D02*
X0077739Y0054928D01*
X0077852Y0055526D02*
X0078252Y0055526D01*
X0078252Y0056125D02*
X0077852Y0056125D01*
X0077852Y0056723D02*
X0078252Y0056723D01*
X0075130Y0061511D02*
X0063752Y0061511D01*
X0063668Y0062110D02*
X0075728Y0062110D01*
X0076327Y0062708D02*
X0063678Y0062708D01*
X0063688Y0063307D02*
X0076352Y0063307D01*
X0076352Y0063905D02*
X0074736Y0063905D01*
X0075335Y0064504D02*
X0076352Y0064504D01*
X0076352Y0065102D02*
X0075933Y0065102D01*
X0077552Y0062236D02*
X0072552Y0057236D01*
X0070115Y0060314D02*
X0064989Y0060314D01*
X0064391Y0060913D02*
X0070713Y0060913D01*
X0069516Y0059716D02*
X0065588Y0059716D01*
X0066186Y0059117D02*
X0068917Y0059117D01*
X0068652Y0058519D02*
X0066452Y0058519D01*
X0066452Y0057920D02*
X0068652Y0057920D01*
X0068652Y0057322D02*
X0066452Y0057322D01*
X0066452Y0056723D02*
X0068652Y0056723D01*
X0068652Y0056125D02*
X0066452Y0056125D01*
X0066357Y0055526D02*
X0068747Y0055526D01*
X0069345Y0054928D02*
X0065759Y0054928D01*
X0065160Y0054329D02*
X0068806Y0054329D01*
X0068208Y0053731D02*
X0064562Y0053731D01*
X0065893Y0052534D02*
X0039093Y0052534D01*
X0038495Y0053132D02*
X0066491Y0053132D01*
X0065461Y0051935D02*
X0039692Y0051935D01*
X0040290Y0051336D02*
X0065461Y0051336D01*
X0065461Y0050738D02*
X0040889Y0050738D01*
X0041487Y0050139D02*
X0065692Y0050139D01*
X0066291Y0049541D02*
X0042086Y0049541D01*
X0042684Y0048942D02*
X0087173Y0048942D01*
X0087173Y0048344D02*
X0042852Y0048344D01*
X0042852Y0047745D02*
X0087173Y0047745D01*
X0087173Y0047147D02*
X0042852Y0047147D01*
X0042852Y0046548D02*
X0087173Y0046548D01*
X0087173Y0045950D02*
X0042852Y0045950D01*
X0042852Y0045351D02*
X0087173Y0045351D01*
X0087173Y0044753D02*
X0042852Y0044753D01*
X0042852Y0044154D02*
X0087173Y0044154D01*
X0087173Y0043556D02*
X0042852Y0043556D01*
X0042852Y0042957D02*
X0087173Y0042957D01*
X0087173Y0042359D02*
X0042852Y0042359D01*
X0042852Y0041760D02*
X0087173Y0041760D01*
X0087173Y0041162D02*
X0042852Y0041162D01*
X0042852Y0040563D02*
X0087173Y0040563D01*
X0087173Y0039965D02*
X0042852Y0039965D01*
X0042852Y0039366D02*
X0087173Y0039366D01*
X0087173Y0038768D02*
X0042852Y0038768D01*
X0041552Y0037236D02*
X0015552Y0037236D01*
X0014586Y0039366D02*
X0006852Y0039366D01*
X0006852Y0038768D02*
X0013988Y0038768D01*
X0013389Y0038169D02*
X0006852Y0038169D01*
X0006852Y0037571D02*
X0013363Y0037571D01*
X0013363Y0036972D02*
X0006852Y0036972D01*
X0006852Y0036374D02*
X0013363Y0036374D01*
X0013917Y0035775D02*
X0006852Y0035775D01*
X0006852Y0035177D02*
X0007520Y0035177D01*
X0006852Y0032080D02*
X0014260Y0032080D01*
X0014260Y0031480D01*
X0006852Y0031480D01*
X0006852Y0032080D01*
X0006852Y0031586D02*
X0014260Y0031586D01*
X0019600Y0022009D02*
X0035504Y0022009D01*
X0035504Y0021411D02*
X0019600Y0021411D01*
X0019450Y0020812D02*
X0035654Y0020812D01*
X0035504Y0020214D02*
X0019600Y0020214D01*
X0019600Y0019615D02*
X0035504Y0019615D01*
X0035504Y0019017D02*
X0019600Y0019017D01*
X0019600Y0018418D02*
X0035504Y0018418D01*
X0035504Y0017820D02*
X0019600Y0017820D01*
X0019600Y0017221D02*
X0035504Y0017221D01*
X0035504Y0016623D02*
X0019600Y0016623D01*
X0019600Y0016024D02*
X0035504Y0016024D01*
X0033980Y0022608D02*
X0021124Y0022608D01*
X0022569Y0023206D02*
X0032535Y0023206D01*
X0031631Y0023805D02*
X0023473Y0023805D01*
X0024072Y0024403D02*
X0031032Y0024403D01*
X0030434Y0025002D02*
X0024670Y0025002D01*
X0024929Y0025600D02*
X0030175Y0025600D01*
X0029927Y0026199D02*
X0025177Y0026199D01*
X0025425Y0026798D02*
X0029679Y0026798D01*
X0029551Y0027396D02*
X0025553Y0027396D01*
X0025553Y0027995D02*
X0029551Y0027995D01*
X0029551Y0028593D02*
X0025553Y0028593D01*
X0025553Y0029192D02*
X0029551Y0029192D01*
X0029727Y0029790D02*
X0025377Y0029790D01*
X0025129Y0030389D02*
X0029975Y0030389D01*
X0030223Y0030987D02*
X0024881Y0030987D01*
X0024555Y0031586D02*
X0030549Y0031586D01*
X0031147Y0032184D02*
X0023957Y0032184D01*
X0023358Y0032783D02*
X0031746Y0032783D01*
X0032813Y0033381D02*
X0022291Y0033381D01*
X0033561Y0053132D02*
X0006852Y0053132D01*
X0006852Y0053731D02*
X0032962Y0053731D01*
X0032363Y0054329D02*
X0006852Y0054329D01*
X0006852Y0054928D02*
X0032363Y0054928D01*
X0032363Y0055526D02*
X0027910Y0055526D01*
X0028845Y0056125D02*
X0032363Y0056125D01*
X0032943Y0056723D02*
X0029443Y0056723D01*
X0030594Y0057322D02*
X0033542Y0057322D01*
X0029423Y0061511D02*
X0021681Y0061511D01*
X0022280Y0060913D02*
X0028272Y0060913D01*
X0027673Y0060314D02*
X0022878Y0060314D01*
X0023477Y0059716D02*
X0027461Y0059716D01*
X0027029Y0059117D02*
X0024075Y0059117D01*
X0024674Y0058519D02*
X0026094Y0058519D01*
X0025552Y0059236D02*
X0025552Y0064236D01*
X0021062Y0057322D02*
X0006852Y0057322D01*
X0006852Y0057920D02*
X0020464Y0057920D01*
X0019865Y0058519D02*
X0006852Y0058519D01*
X0006852Y0059117D02*
X0009267Y0059117D01*
X0008852Y0059716D02*
X0006852Y0059716D01*
X0006852Y0060314D02*
X0008852Y0060314D01*
X0008852Y0060913D02*
X0006852Y0060913D01*
X0006852Y0061511D02*
X0008852Y0061511D01*
X0008852Y0062110D02*
X0006852Y0062110D01*
X0006852Y0062708D02*
X0008852Y0062708D01*
X0008852Y0063307D02*
X0006852Y0063307D01*
X0006852Y0063905D02*
X0008852Y0063905D01*
X0008852Y0064504D02*
X0006852Y0064504D01*
X0006852Y0065102D02*
X0008729Y0065102D01*
X0008461Y0065701D02*
X0006852Y0065701D01*
X0006852Y0066299D02*
X0008443Y0066299D01*
X0008174Y0066898D02*
X0006852Y0066898D01*
X0006852Y0067496D02*
X0007773Y0067496D01*
X0007372Y0068095D02*
X0006852Y0068095D01*
X0006852Y0068693D02*
X0006961Y0068693D01*
X0006958Y0069292D02*
X0006852Y0069292D01*
X0006852Y0069890D02*
X0006961Y0069890D01*
X0006961Y0070489D02*
X0006852Y0070489D01*
X0006852Y0071087D02*
X0006961Y0071087D01*
X0006954Y0071686D02*
X0006852Y0071686D01*
X0006852Y0072284D02*
X0006979Y0072284D01*
X0006852Y0072883D02*
X0007547Y0072883D01*
X0008062Y0073481D02*
X0006852Y0073481D01*
X0006852Y0074080D02*
X0008578Y0074080D01*
X0009093Y0074678D02*
X0006852Y0074678D01*
X0011052Y0069736D02*
X0016052Y0069736D01*
X0014552Y0069890D02*
X0042552Y0069890D01*
X0042552Y0069292D02*
X0014552Y0069292D01*
X0014552Y0068693D02*
X0042552Y0068693D01*
X0042552Y0068095D02*
X0014552Y0068095D01*
X0014552Y0067496D02*
X0042552Y0067496D01*
X0042552Y0066898D02*
X0014552Y0066898D01*
X0014552Y0066299D02*
X0042552Y0066299D01*
X0042552Y0065701D02*
X0014552Y0065701D01*
X0014552Y0065102D02*
X0042552Y0065102D01*
X0042552Y0064504D02*
X0014552Y0064504D01*
X0014552Y0063905D02*
X0042552Y0063905D01*
X0042552Y0063307D02*
X0014552Y0063307D01*
X0014552Y0070489D02*
X0042552Y0070489D01*
X0042552Y0071087D02*
X0014552Y0071087D01*
X0014552Y0071686D02*
X0042552Y0071686D01*
X0042552Y0072284D02*
X0014552Y0072284D01*
X0014552Y0077671D02*
X0042552Y0077671D01*
X0042552Y0078269D02*
X0014552Y0078269D01*
X0014552Y0078868D02*
X0042552Y0078868D01*
X0042552Y0079467D02*
X0014552Y0079467D01*
X0014552Y0080065D02*
X0042552Y0080065D01*
X0042552Y0080664D02*
X0014552Y0080664D01*
X0014552Y0081262D02*
X0042552Y0081262D01*
X0042552Y0081861D02*
X0014552Y0081861D01*
X0014552Y0082459D02*
X0042552Y0082459D01*
X0042552Y0083058D02*
X0014552Y0083058D01*
X0014552Y0083656D02*
X0042552Y0083656D01*
X0042552Y0084255D02*
X0014552Y0084255D01*
X0014552Y0084853D02*
X0042552Y0084853D01*
X0042552Y0085452D02*
X0014552Y0085452D01*
X0014552Y0086050D02*
X0042552Y0086050D01*
X0042552Y0086649D02*
X0014552Y0086649D01*
X0014552Y0087247D02*
X0042552Y0087247D01*
X0042552Y0087846D02*
X0014552Y0087846D01*
X0014552Y0088444D02*
X0042552Y0088444D01*
X0042552Y0089043D02*
X0014552Y0089043D01*
X0014552Y0089641D02*
X0042552Y0089641D01*
X0042552Y0090240D02*
X0014552Y0090240D01*
X0015552Y0084236D02*
X0011052Y0084236D01*
X0020643Y0095028D02*
X0038222Y0095028D01*
X0038461Y0095626D02*
X0025899Y0095626D01*
X0024552Y0097236D02*
X0039595Y0097236D01*
X0039686Y0097327D01*
X0054461Y0097327D01*
X0077552Y0074236D01*
X0077552Y0062236D01*
X0074531Y0060913D02*
X0074391Y0060913D01*
X0070368Y0063905D02*
X0064736Y0063905D01*
X0071352Y0071686D02*
X0048059Y0071686D01*
X0048643Y0071087D02*
X0050888Y0071087D01*
X0050289Y0070489D02*
X0048643Y0070489D01*
X0048643Y0069890D02*
X0049691Y0069890D01*
X0049092Y0069292D02*
X0048564Y0069292D01*
X0048652Y0068693D02*
X0047966Y0068693D01*
X0048652Y0068095D02*
X0047252Y0068095D01*
X0047252Y0067496D02*
X0048652Y0067496D01*
X0048652Y0066898D02*
X0047252Y0066898D01*
X0047252Y0066299D02*
X0048652Y0066299D01*
X0048652Y0065701D02*
X0047252Y0065701D01*
X0047252Y0065102D02*
X0049171Y0065102D01*
X0049769Y0064504D02*
X0047252Y0064504D01*
X0047252Y0063905D02*
X0049463Y0063905D01*
X0047460Y0072284D02*
X0071352Y0072284D01*
X0072552Y0076236D02*
X0072552Y0067236D01*
X0077610Y0075875D02*
X0080652Y0075875D01*
X0080652Y0075277D02*
X0078208Y0075277D01*
X0078752Y0074678D02*
X0080652Y0074678D01*
X0080652Y0074080D02*
X0078752Y0074080D01*
X0078752Y0073481D02*
X0080652Y0073481D01*
X0080652Y0072883D02*
X0078752Y0072883D01*
X0078752Y0072284D02*
X0080652Y0072284D01*
X0080652Y0071686D02*
X0078752Y0071686D01*
X0078752Y0071087D02*
X0080652Y0071087D01*
X0080289Y0070489D02*
X0078752Y0070489D01*
X0078752Y0069890D02*
X0079691Y0069890D01*
X0079092Y0069292D02*
X0078752Y0069292D01*
X0077011Y0076474D02*
X0080652Y0076474D01*
X0080652Y0077072D02*
X0076413Y0077072D01*
X0075814Y0077671D02*
X0080652Y0077671D01*
X0080652Y0078269D02*
X0075216Y0078269D01*
X0074617Y0078868D02*
X0080652Y0078868D01*
X0080652Y0079467D02*
X0074019Y0079467D01*
X0073420Y0080065D02*
X0080652Y0080065D01*
X0080652Y0080664D02*
X0072822Y0080664D01*
X0072223Y0081262D02*
X0080652Y0081262D01*
X0080652Y0081861D02*
X0071625Y0081861D01*
X0071026Y0082459D02*
X0080652Y0082459D01*
X0080652Y0083058D02*
X0070428Y0083058D01*
X0069829Y0083656D02*
X0080652Y0083656D01*
X0080652Y0084255D02*
X0069231Y0084255D01*
X0068632Y0084853D02*
X0080652Y0084853D01*
X0080652Y0085452D02*
X0068034Y0085452D01*
X0067435Y0086050D02*
X0080652Y0086050D01*
X0080652Y0086649D02*
X0066837Y0086649D01*
X0066238Y0087247D02*
X0080652Y0087247D01*
X0080652Y0087846D02*
X0065640Y0087846D01*
X0065041Y0088444D02*
X0080652Y0088444D01*
X0080652Y0089043D02*
X0064443Y0089043D01*
X0063844Y0089641D02*
X0080652Y0089641D01*
X0080652Y0090240D02*
X0063246Y0090240D01*
X0062647Y0090838D02*
X0080652Y0090838D01*
X0080652Y0091437D02*
X0062049Y0091437D01*
X0061450Y0092035D02*
X0080652Y0092035D01*
X0080652Y0092634D02*
X0060851Y0092634D01*
X0060253Y0093232D02*
X0080652Y0093232D01*
X0080652Y0093831D02*
X0059654Y0093831D01*
X0059056Y0094429D02*
X0080652Y0094429D01*
X0080652Y0095028D02*
X0058457Y0095028D01*
X0057859Y0095626D02*
X0080461Y0095626D01*
X0080433Y0096225D02*
X0057260Y0096225D01*
X0056662Y0096823D02*
X0080134Y0096823D01*
X0079679Y0097422D02*
X0056063Y0097422D01*
X0055465Y0098020D02*
X0079536Y0098020D01*
X0079652Y0098619D02*
X0026126Y0098619D01*
X0023205Y0095626D02*
X0020643Y0095626D01*
X0020520Y0096225D02*
X0022607Y0096225D01*
X0011258Y0116574D02*
X0006852Y0116574D01*
X0006852Y0117173D02*
X0010659Y0117173D01*
X0010461Y0117771D02*
X0006852Y0117771D01*
X0006852Y0118370D02*
X0010461Y0118370D01*
X0010461Y0118968D02*
X0006852Y0118968D01*
X0006852Y0119567D02*
X0010926Y0119567D01*
X0011525Y0120165D02*
X0006852Y0120165D01*
X0006852Y0120764D02*
X0031383Y0120764D01*
X0031981Y0121362D02*
X0006852Y0121362D01*
X0006852Y0121961D02*
X0032580Y0121961D01*
X0033178Y0122559D02*
X0006852Y0122559D01*
X0006852Y0123158D02*
X0033777Y0123158D01*
X0034375Y0123756D02*
X0006852Y0123756D01*
X0006852Y0124355D02*
X0034974Y0124355D01*
X0035461Y0124953D02*
X0006852Y0124953D01*
X0006852Y0125552D02*
X0035461Y0125552D01*
X0035510Y0126150D02*
X0006852Y0126150D01*
X0006852Y0127946D02*
X0087173Y0127946D01*
X0087173Y0128544D02*
X0006852Y0128544D01*
X0006852Y0129143D02*
X0087173Y0129143D01*
X0087173Y0129741D02*
X0006852Y0129741D01*
X0006852Y0130340D02*
X0087173Y0130340D01*
X0087173Y0130938D02*
X0006852Y0130938D01*
X0006852Y0131537D02*
X0087173Y0131537D01*
X0087173Y0132136D02*
X0006852Y0132136D01*
X0006852Y0132734D02*
X0087173Y0132734D01*
X0087173Y0133333D02*
X0006852Y0133333D01*
X0006852Y0133931D02*
X0087173Y0133931D01*
X0087173Y0134530D02*
X0006852Y0134530D01*
X0006852Y0135128D02*
X0087173Y0135128D01*
X0087173Y0135727D02*
X0006852Y0135727D01*
X0006852Y0136325D02*
X0087173Y0136325D01*
X0087173Y0136924D02*
X0006852Y0136924D01*
X0006852Y0137522D02*
X0087173Y0137522D01*
X0087173Y0138121D02*
X0006852Y0138121D01*
X0006852Y0138719D02*
X0087173Y0138719D01*
X0087173Y0139318D02*
X0006852Y0139318D01*
X0006852Y0139916D02*
X0087173Y0139916D01*
X0087173Y0140515D02*
X0006852Y0140515D01*
X0006852Y0141113D02*
X0087173Y0141113D01*
X0087173Y0141712D02*
X0006852Y0141712D01*
X0006852Y0142310D02*
X0087173Y0142310D01*
X0087173Y0142909D02*
X0006852Y0142909D01*
X0006852Y0143507D02*
X0087173Y0143507D01*
X0087173Y0144106D02*
X0006852Y0144106D01*
X0006852Y0144704D02*
X0087173Y0144704D01*
X0087173Y0145303D02*
X0006852Y0145303D01*
X0006852Y0145901D02*
X0087173Y0145901D01*
X0087173Y0146500D02*
X0006852Y0146500D01*
X0013579Y0120165D02*
X0030784Y0120165D01*
X0030185Y0119567D02*
X0014178Y0119567D01*
X0031186Y0117173D02*
X0079652Y0117173D01*
X0079652Y0117771D02*
X0031784Y0117771D01*
X0032383Y0118370D02*
X0079652Y0118370D01*
X0079652Y0118968D02*
X0032981Y0118968D01*
X0033580Y0119567D02*
X0079652Y0119567D01*
X0079652Y0120165D02*
X0034178Y0120165D01*
X0034777Y0120764D02*
X0079652Y0120764D01*
X0079652Y0121362D02*
X0035375Y0121362D01*
X0035974Y0121961D02*
X0079652Y0121961D01*
X0079652Y0122559D02*
X0036572Y0122559D01*
X0038430Y0123158D02*
X0079652Y0123158D01*
X0079652Y0108195D02*
X0042550Y0108195D01*
X0043148Y0107597D02*
X0079652Y0107597D01*
X0079652Y0106998D02*
X0047487Y0106998D01*
X0048086Y0106400D02*
X0079652Y0106400D01*
X0079652Y0105801D02*
X0048684Y0105801D01*
X0049283Y0105202D02*
X0079652Y0105202D01*
X0079652Y0104604D02*
X0049881Y0104604D01*
X0051739Y0104005D02*
X0079652Y0104005D01*
X0079652Y0103407D02*
X0052338Y0103407D01*
X0052643Y0102808D02*
X0075168Y0102808D01*
X0075016Y0099816D02*
X0053068Y0099816D01*
X0052470Y0099217D02*
X0075614Y0099217D01*
X0077490Y0099217D02*
X0079652Y0099217D01*
X0079652Y0099816D02*
X0078088Y0099816D01*
X0078643Y0100414D02*
X0079652Y0100414D01*
X0079652Y0101013D02*
X0078643Y0101013D01*
X0078643Y0101611D02*
X0079652Y0101611D01*
X0079652Y0102210D02*
X0078535Y0102210D01*
X0077936Y0102808D02*
X0079652Y0102808D01*
X0054552Y0094236D02*
X0072552Y0076236D01*
X0085509Y0062698D02*
X0085509Y0062698D01*
X0086852Y0056723D02*
X0087173Y0056723D01*
X0087173Y0056125D02*
X0086852Y0056125D01*
X0086852Y0055526D02*
X0087173Y0055526D01*
X0087173Y0054928D02*
X0086324Y0054928D01*
X0085726Y0054329D02*
X0087173Y0054329D01*
X0087173Y0053731D02*
X0085127Y0053731D01*
X0087173Y0051935D02*
X0070089Y0051935D01*
X0069643Y0051336D02*
X0087173Y0051336D01*
X0087173Y0050738D02*
X0069643Y0050738D01*
X0069412Y0050139D02*
X0087173Y0050139D01*
X0087173Y0049541D02*
X0068813Y0049541D01*
X0066352Y0035177D02*
X0047584Y0035177D01*
X0048375Y0034578D02*
X0066352Y0034578D01*
X0066200Y0033980D02*
X0048884Y0033980D01*
X0049224Y0033381D02*
X0065601Y0033381D01*
X0065363Y0032783D02*
X0049445Y0032783D01*
X0047946Y0022009D02*
X0052810Y0022009D01*
X0052211Y0021411D02*
X0047946Y0021411D01*
X0047797Y0020812D02*
X0051613Y0020812D01*
X0051014Y0020214D02*
X0047946Y0020214D01*
X0047946Y0019615D02*
X0050652Y0019615D01*
X0050652Y0019017D02*
X0047946Y0019017D01*
X0047946Y0018418D02*
X0050652Y0018418D01*
X0050652Y0017820D02*
X0047946Y0017820D01*
X0047946Y0017221D02*
X0050652Y0017221D01*
X0050652Y0016623D02*
X0047946Y0016623D01*
X0047946Y0016024D02*
X0051248Y0016024D01*
X0057855Y0016024D02*
X0060683Y0016024D01*
X0060252Y0016623D02*
X0058452Y0016623D01*
X0058452Y0017221D02*
X0060252Y0017221D01*
X0060252Y0017820D02*
X0058452Y0017820D01*
X0068800Y0030389D02*
X0087173Y0030389D01*
X0087173Y0030987D02*
X0069399Y0030987D01*
X0069741Y0031586D02*
X0087173Y0031586D01*
X0087173Y0032184D02*
X0069741Y0032184D01*
X0069741Y0032783D02*
X0087173Y0032783D01*
X0087173Y0033381D02*
X0069503Y0033381D01*
X0056265Y0063905D02*
X0056126Y0063905D01*
X0054457Y0092634D02*
X0046906Y0092634D01*
X0045552Y0094236D02*
X0054552Y0094236D01*
X0050552Y0102236D02*
X0046552Y0106236D01*
X0041552Y0106236D01*
X0042643Y0095626D02*
X0043986Y0095626D01*
X0043461Y0095028D02*
X0042643Y0095028D01*
X0042643Y0094429D02*
X0043461Y0094429D01*
X0043461Y0093831D02*
X0042103Y0093831D01*
X0041505Y0093232D02*
X0043599Y0093232D01*
X0044198Y0092634D02*
X0040071Y0092634D01*
X0021661Y0056723D02*
X0006852Y0056723D01*
X0006852Y0056125D02*
X0022259Y0056125D01*
X0022858Y0055526D02*
X0006852Y0055526D01*
D14*
X0010552Y0066236D03*
X0011052Y0069736D03*
X0008552Y0077236D03*
X0011052Y0084236D03*
X0010552Y0088079D03*
X0018552Y0095236D03*
X0024552Y0097236D03*
X0012552Y0118236D03*
X0008552Y0111236D03*
X0008552Y0125236D03*
X0008552Y0143236D03*
X0037552Y0125236D03*
X0037552Y0119236D03*
X0041552Y0106236D03*
X0041552Y0102236D03*
X0040552Y0095236D03*
X0042552Y0091236D03*
X0045552Y0094236D03*
X0050552Y0102236D03*
X0050552Y0077236D03*
X0046552Y0074236D03*
X0046552Y0070236D03*
X0045552Y0057236D03*
X0057552Y0062236D03*
X0067552Y0051236D03*
X0077552Y0038236D03*
X0082552Y0096236D03*
X0085552Y0101236D03*
X0076552Y0101236D03*
X0030552Y0056236D03*
X0029552Y0059236D03*
X0025552Y0059236D03*
X0014552Y0056236D03*
D15*
X0009552Y0114236D02*
X0031552Y0114236D01*
X0036552Y0119236D01*
X0037552Y0119236D01*
X0037552Y0125236D02*
X0081552Y0125236D01*
X0081552Y0098236D01*
X0082552Y0096236D01*
X0082552Y0067236D01*
D16*
X0084209Y0063236D02*
X0080390Y0063236D01*
X0076552Y0059398D01*
X0076552Y0055579D01*
X0074209Y0053236D01*
X0069552Y0053236D01*
X0067552Y0051236D01*
X0084209Y0063236D02*
X0086552Y0065579D01*
X0086552Y0099236D01*
X0085552Y0100236D01*
X0085552Y0101236D01*
X0076552Y0101236D02*
X0052650Y0101236D01*
X0051459Y0100046D01*
X0043743Y0100046D01*
X0041552Y0102236D01*
X0034552Y0055236D02*
X0041552Y0048236D01*
X0041552Y0037236D01*
X0040544Y0031780D02*
X0040544Y0020756D01*
X0041725Y0020756D01*
X0027552Y0020756D01*
X0027552Y0020236D01*
X0014560Y0031780D02*
X0013552Y0031780D01*
X0013552Y0020756D01*
X0013379Y0020756D01*
X0013552Y0031780D02*
X0010552Y0031780D01*
X0010552Y0037236D01*
X0011552Y0037236D01*
X0011552Y0038236D01*
D17*
X0010143Y0066646D02*
X0009479Y0067646D01*
X0008461Y0069163D01*
X0008461Y0071646D01*
X0011552Y0075236D01*
X0011552Y0079573D01*
X0008461Y0083163D01*
X0008461Y0085309D01*
X0009479Y0086827D01*
X0010300Y0087827D01*
X0010552Y0088079D02*
X0010552Y0095236D01*
X0018552Y0095236D01*
X0018552Y0093236D01*
X0038552Y0093236D01*
X0040552Y0095236D01*
X0045552Y0062236D02*
X0049915Y0062236D01*
X0050315Y0062636D01*
X0055273Y0062636D01*
X0055673Y0062236D01*
X0057552Y0062236D01*
D18*
X0046552Y0070236D02*
X0045552Y0070236D01*
X0045552Y0062236D01*
X0045552Y0060236D01*
X0030552Y0060236D01*
X0029552Y0059236D01*
X0027552Y0057236D01*
X0027216Y0057236D01*
X0026625Y0056646D01*
X0024143Y0056646D01*
X0020552Y0060236D01*
X0010552Y0060236D01*
X0010552Y0066236D01*
X0010143Y0066646D01*
X0010300Y0087827D02*
X0010552Y0088079D01*
X0040552Y0095236D02*
X0040888Y0095236D01*
X0046552Y0070573D02*
X0046552Y0070236D01*
D19*
X0034552Y0055236D03*
X0015552Y0037236D03*
X0067552Y0032236D03*
M02*
