G75*
%MOIN*%
%OFA0B0*%
%FSLAX25Y25*%
%IPPOS*%
%LPD*%
%AMOC8*
5,1,8,0,0,1.08239X$1,22.5*
%
%ADD10R,0.03150X0.03543*%
%ADD11R,0.05118X0.05906*%
%ADD12R,0.05906X0.05118*%
%ADD13R,0.03937X0.04331*%
%ADD14R,0.03543X0.03543*%
%ADD15R,0.03543X0.03150*%
%ADD16R,0.04724X0.04724*%
%ADD17R,0.05512X0.05512*%
%ADD18R,0.00984X0.03150*%
%ADD19R,0.03150X0.00984*%
%ADD20R,0.03937X0.05906*%
%ADD21R,0.03937X0.03937*%
%ADD22R,0.01870X0.00984*%
%ADD23R,0.00984X0.01476*%
%ADD24R,0.02165X0.04724*%
%ADD25R,0.04724X0.02165*%
%ADD26R,0.01575X0.05315*%
%ADD27R,0.03937X0.07874*%
%ADD28R,0.09843X0.09843*%
%ADD29C,0.00500*%
%ADD30R,0.07480X0.05118*%
%ADD31R,0.06693X0.02756*%
%ADD32R,0.06299X0.03937*%
D10*
X0053935Y0157536D03*
X0053935Y0163536D03*
X0059435Y0163536D03*
X0059435Y0157536D03*
D11*
X0049375Y0144036D03*
X0041894Y0144036D03*
X0035175Y0195336D03*
X0027694Y0195336D03*
X0055194Y0085436D03*
X0062675Y0085436D03*
X0064275Y0017436D03*
X0056794Y0017436D03*
D12*
X0030335Y0046496D03*
X0030335Y0053976D03*
D13*
X0020735Y0102790D03*
X0020735Y0109483D03*
D14*
X0026235Y0099989D03*
X0026235Y0094083D03*
X0031535Y0094083D03*
X0031535Y0099989D03*
X0029982Y0142036D03*
X0029982Y0148036D03*
X0035887Y0148036D03*
X0035887Y0142036D03*
X0042482Y0153236D03*
X0042582Y0158736D03*
X0048487Y0158736D03*
X0048387Y0153236D03*
X0058935Y0099789D03*
X0058935Y0093883D03*
X0064535Y0093883D03*
X0064535Y0099789D03*
X0059335Y0057589D03*
X0059335Y0051683D03*
X0057782Y0045236D03*
X0063687Y0045236D03*
X0063687Y0023836D03*
X0057782Y0023836D03*
X0045287Y0059436D03*
X0039382Y0059436D03*
X0023935Y0141883D03*
X0023935Y0147789D03*
X0020587Y0160136D03*
X0022587Y0165536D03*
X0020587Y0171136D03*
X0020587Y0176536D03*
X0020587Y0182136D03*
X0014682Y0182136D03*
X0014682Y0176536D03*
X0014682Y0171136D03*
X0016682Y0165536D03*
X0014682Y0160136D03*
D15*
X0028435Y0189136D03*
X0034435Y0189136D03*
D16*
X0023469Y0154236D03*
X0015201Y0154236D03*
X0053335Y0058970D03*
X0053335Y0050702D03*
D17*
X0049418Y0039836D03*
X0034851Y0039836D03*
D18*
X0035198Y0107755D03*
X0037166Y0107755D03*
X0039135Y0107755D03*
X0041103Y0107755D03*
X0043072Y0107755D03*
X0045040Y0107755D03*
X0047009Y0107755D03*
X0048977Y0107755D03*
X0048977Y0135117D03*
X0047009Y0135117D03*
X0045040Y0135117D03*
X0043072Y0135117D03*
X0041103Y0135117D03*
X0039135Y0135117D03*
X0037166Y0135117D03*
X0035198Y0135117D03*
X0033229Y0135117D03*
X0031261Y0135117D03*
X0029292Y0135117D03*
X0029292Y0107755D03*
X0031261Y0107755D03*
X0033229Y0107755D03*
D19*
X0025454Y0111594D03*
X0025454Y0113562D03*
X0025454Y0115531D03*
X0025454Y0117499D03*
X0025454Y0119468D03*
X0025454Y0121436D03*
X0025454Y0123405D03*
X0025454Y0125373D03*
X0025454Y0127342D03*
X0025454Y0129310D03*
X0025454Y0131279D03*
X0052816Y0131279D03*
X0052816Y0129310D03*
X0052816Y0127342D03*
X0052816Y0125373D03*
X0052816Y0123405D03*
X0052816Y0121436D03*
X0052816Y0119468D03*
X0052816Y0117499D03*
X0052816Y0115531D03*
X0052816Y0113562D03*
X0052816Y0111594D03*
D20*
X0045040Y0116515D03*
X0045040Y0126357D03*
X0039135Y0126357D03*
X0039135Y0116515D03*
X0033229Y0116515D03*
X0033229Y0126357D03*
D21*
X0036861Y0099886D03*
X0036861Y0093587D03*
X0052609Y0093587D03*
X0052609Y0099886D03*
D22*
X0040586Y0164878D03*
X0040586Y0166846D03*
X0040586Y0168815D03*
X0040586Y0170783D03*
X0040586Y0172752D03*
X0040586Y0174720D03*
X0040586Y0176689D03*
X0040586Y0178657D03*
X0040586Y0180626D03*
X0040586Y0182594D03*
X0028283Y0182594D03*
X0028283Y0180626D03*
X0028283Y0178657D03*
X0028283Y0176689D03*
X0028283Y0174720D03*
X0028283Y0172752D03*
X0028283Y0170783D03*
X0028283Y0168815D03*
X0028283Y0166846D03*
X0028283Y0164878D03*
D23*
X0031482Y0164632D03*
X0033450Y0164632D03*
X0035419Y0164632D03*
X0037387Y0164632D03*
X0037387Y0182841D03*
X0035419Y0182841D03*
X0033450Y0182841D03*
X0031482Y0182841D03*
D24*
X0056794Y0039955D03*
X0056794Y0029718D03*
X0060535Y0029718D03*
X0064275Y0029718D03*
X0064275Y0039955D03*
D25*
X0047053Y0046496D03*
X0047053Y0053976D03*
X0036816Y0053976D03*
X0036816Y0050236D03*
X0036816Y0046496D03*
D26*
X0036653Y0031287D03*
X0034094Y0031287D03*
X0031535Y0031287D03*
X0028976Y0031287D03*
X0026417Y0031287D03*
D27*
X0028582Y0020362D03*
X0034487Y0020362D03*
D28*
X0045708Y0020756D03*
X0017361Y0020756D03*
D29*
X0013141Y0029749D02*
X0012741Y0029941D01*
X0012385Y0030208D01*
X0012089Y0030538D01*
X0011863Y0030921D01*
X0011715Y0031340D01*
X0011653Y0031780D01*
X0011715Y0032219D01*
X0011863Y0032638D01*
X0012089Y0033021D01*
X0012385Y0033351D01*
X0012741Y0033618D01*
X0013141Y0033810D01*
X0013571Y0033921D01*
X0014015Y0033945D01*
X0018346Y0033945D01*
X0018852Y0033910D01*
X0019338Y0033763D01*
X0019779Y0033512D01*
X0020153Y0033170D01*
X0020441Y0032752D01*
X0020629Y0032281D01*
X0020708Y0031780D01*
X0020645Y0031340D01*
X0020498Y0030921D01*
X0020272Y0030538D01*
X0019975Y0030208D01*
X0019620Y0029941D01*
X0019219Y0029749D01*
X0018789Y0029638D01*
X0018346Y0029614D01*
X0014015Y0029614D01*
X0013571Y0029638D01*
X0013141Y0029749D01*
X0013405Y0029681D02*
X0018956Y0029681D01*
X0019938Y0030180D02*
X0012423Y0030180D01*
X0012006Y0030678D02*
X0020354Y0030678D01*
X0020588Y0031177D02*
X0011773Y0031177D01*
X0011668Y0031675D02*
X0020693Y0031675D01*
X0020646Y0032174D02*
X0011709Y0032174D01*
X0011883Y0032672D02*
X0020473Y0032672D01*
X0020151Y0033171D02*
X0012223Y0033171D01*
X0012847Y0033669D02*
X0019503Y0033669D01*
X0042361Y0031780D02*
X0042424Y0032219D01*
X0042571Y0032638D01*
X0042798Y0033021D01*
X0043094Y0033351D01*
X0043449Y0033618D01*
X0043850Y0033810D01*
X0044280Y0033921D01*
X0044724Y0033945D01*
X0049054Y0033945D01*
X0049561Y0033910D01*
X0050046Y0033763D01*
X0050487Y0033512D01*
X0050861Y0033170D01*
X0051150Y0032752D01*
X0051338Y0032281D01*
X0051417Y0031780D01*
X0051354Y0031340D01*
X0051207Y0030921D01*
X0050980Y0030538D01*
X0050684Y0030208D01*
X0050329Y0029941D01*
X0049928Y0029749D01*
X0049498Y0029638D01*
X0049054Y0029614D01*
X0044724Y0029614D01*
X0044280Y0029638D01*
X0043850Y0029749D01*
X0043449Y0029941D01*
X0043094Y0030208D01*
X0042798Y0030538D01*
X0042571Y0030921D01*
X0042424Y0031340D01*
X0042361Y0031780D01*
X0042376Y0031675D02*
X0051402Y0031675D01*
X0051355Y0032174D02*
X0042418Y0032174D01*
X0042591Y0032672D02*
X0051182Y0032672D01*
X0050860Y0033171D02*
X0042932Y0033171D01*
X0043556Y0033669D02*
X0050212Y0033669D01*
X0051063Y0030678D02*
X0042715Y0030678D01*
X0042481Y0031177D02*
X0051297Y0031177D01*
X0050647Y0030180D02*
X0043131Y0030180D01*
X0044114Y0029681D02*
X0049664Y0029681D01*
D30*
X0050435Y0172909D03*
X0050435Y0194563D03*
X0063034Y0194563D03*
X0063034Y0172909D03*
D31*
X0063135Y0128161D03*
X0063135Y0123436D03*
X0063135Y0118712D03*
D32*
X0022359Y0082979D03*
X0022359Y0073136D03*
X0022359Y0063294D03*
X0012910Y0063294D03*
X0012910Y0073136D03*
X0012910Y0082979D03*
M02*
