G75*
%MOIN*%
%OFA0B0*%
%FSLAX25Y25*%
%IPPOS*%
%LPD*%
%AMOC8*
5,1,8,0,0,1.08239X$1,22.5*
%
%ADD10C,0.00000*%
D10*
X0008535Y0011236D02*
X0008535Y0201437D01*
X0068456Y0201437D01*
X0068456Y0011236D01*
X0008535Y0011236D01*
X0015590Y0019772D02*
X0015590Y0021937D01*
X0015592Y0022009D01*
X0015598Y0022081D01*
X0015607Y0022153D01*
X0015620Y0022224D01*
X0015637Y0022294D01*
X0015657Y0022363D01*
X0015682Y0022431D01*
X0015709Y0022497D01*
X0015740Y0022563D01*
X0015775Y0022626D01*
X0015812Y0022688D01*
X0015853Y0022747D01*
X0015897Y0022804D01*
X0015944Y0022859D01*
X0015994Y0022911D01*
X0016046Y0022961D01*
X0016101Y0023008D01*
X0016158Y0023052D01*
X0016217Y0023093D01*
X0016279Y0023130D01*
X0016342Y0023165D01*
X0016408Y0023196D01*
X0016474Y0023223D01*
X0016542Y0023248D01*
X0016611Y0023268D01*
X0016681Y0023285D01*
X0016752Y0023298D01*
X0016824Y0023307D01*
X0016896Y0023313D01*
X0016968Y0023315D01*
X0017755Y0023315D01*
X0017827Y0023313D01*
X0017899Y0023307D01*
X0017971Y0023298D01*
X0018042Y0023285D01*
X0018112Y0023268D01*
X0018181Y0023248D01*
X0018249Y0023223D01*
X0018315Y0023196D01*
X0018381Y0023165D01*
X0018444Y0023130D01*
X0018506Y0023093D01*
X0018565Y0023052D01*
X0018622Y0023008D01*
X0018677Y0022961D01*
X0018729Y0022911D01*
X0018779Y0022859D01*
X0018826Y0022804D01*
X0018870Y0022747D01*
X0018911Y0022688D01*
X0018948Y0022626D01*
X0018983Y0022563D01*
X0019014Y0022497D01*
X0019041Y0022431D01*
X0019066Y0022363D01*
X0019086Y0022294D01*
X0019103Y0022224D01*
X0019116Y0022153D01*
X0019125Y0022081D01*
X0019131Y0022009D01*
X0019133Y0021937D01*
X0019133Y0019772D01*
X0019134Y0019771D02*
X0019137Y0019697D01*
X0019136Y0019622D01*
X0019132Y0019547D01*
X0019123Y0019472D01*
X0019111Y0019398D01*
X0019095Y0019325D01*
X0019076Y0019252D01*
X0019053Y0019181D01*
X0019026Y0019111D01*
X0018996Y0019042D01*
X0018962Y0018975D01*
X0018925Y0018910D01*
X0018885Y0018847D01*
X0018842Y0018786D01*
X0018795Y0018727D01*
X0018746Y0018671D01*
X0018694Y0018617D01*
X0018639Y0018566D01*
X0018581Y0018517D01*
X0018522Y0018472D01*
X0018460Y0018430D01*
X0018396Y0018391D01*
X0018330Y0018355D01*
X0018262Y0018322D01*
X0018193Y0018293D01*
X0018122Y0018268D01*
X0018051Y0018246D01*
X0017978Y0018228D01*
X0017904Y0018214D01*
X0017830Y0018203D01*
X0017755Y0018196D01*
X0017755Y0018197D02*
X0016968Y0018197D01*
X0016968Y0018196D02*
X0016893Y0018203D01*
X0016819Y0018214D01*
X0016745Y0018228D01*
X0016672Y0018246D01*
X0016601Y0018268D01*
X0016530Y0018293D01*
X0016461Y0018322D01*
X0016393Y0018355D01*
X0016327Y0018391D01*
X0016263Y0018430D01*
X0016201Y0018472D01*
X0016142Y0018517D01*
X0016084Y0018566D01*
X0016029Y0018617D01*
X0015977Y0018671D01*
X0015928Y0018727D01*
X0015881Y0018786D01*
X0015838Y0018847D01*
X0015798Y0018910D01*
X0015761Y0018975D01*
X0015727Y0019042D01*
X0015697Y0019111D01*
X0015670Y0019181D01*
X0015647Y0019252D01*
X0015628Y0019325D01*
X0015612Y0019398D01*
X0015600Y0019472D01*
X0015591Y0019547D01*
X0015587Y0019622D01*
X0015586Y0019697D01*
X0015589Y0019771D01*
X0022479Y0028236D02*
X0022481Y0028310D01*
X0022487Y0028384D01*
X0022497Y0028457D01*
X0022511Y0028530D01*
X0022528Y0028602D01*
X0022550Y0028672D01*
X0022575Y0028742D01*
X0022604Y0028810D01*
X0022637Y0028876D01*
X0022673Y0028941D01*
X0022713Y0029003D01*
X0022755Y0029064D01*
X0022801Y0029122D01*
X0022850Y0029177D01*
X0022902Y0029230D01*
X0022957Y0029280D01*
X0023014Y0029326D01*
X0023074Y0029370D01*
X0023136Y0029410D01*
X0023200Y0029447D01*
X0023266Y0029481D01*
X0023334Y0029511D01*
X0023403Y0029537D01*
X0023474Y0029560D01*
X0023545Y0029578D01*
X0023618Y0029593D01*
X0023691Y0029604D01*
X0023765Y0029611D01*
X0023839Y0029614D01*
X0023912Y0029613D01*
X0023986Y0029608D01*
X0024060Y0029599D01*
X0024133Y0029586D01*
X0024205Y0029569D01*
X0024276Y0029549D01*
X0024346Y0029524D01*
X0024414Y0029496D01*
X0024481Y0029465D01*
X0024546Y0029429D01*
X0024609Y0029391D01*
X0024670Y0029349D01*
X0024729Y0029303D01*
X0024785Y0029255D01*
X0024838Y0029204D01*
X0024888Y0029150D01*
X0024936Y0029093D01*
X0024980Y0029034D01*
X0025022Y0028972D01*
X0025060Y0028909D01*
X0025094Y0028843D01*
X0025125Y0028776D01*
X0025152Y0028707D01*
X0025175Y0028637D01*
X0025195Y0028566D01*
X0025211Y0028493D01*
X0025223Y0028420D01*
X0025231Y0028347D01*
X0025235Y0028273D01*
X0025235Y0028199D01*
X0025231Y0028125D01*
X0025223Y0028052D01*
X0025211Y0027979D01*
X0025195Y0027906D01*
X0025175Y0027835D01*
X0025152Y0027765D01*
X0025125Y0027696D01*
X0025094Y0027629D01*
X0025060Y0027563D01*
X0025022Y0027500D01*
X0024980Y0027438D01*
X0024936Y0027379D01*
X0024888Y0027322D01*
X0024838Y0027268D01*
X0024785Y0027217D01*
X0024729Y0027169D01*
X0024670Y0027123D01*
X0024609Y0027081D01*
X0024546Y0027043D01*
X0024481Y0027007D01*
X0024414Y0026976D01*
X0024346Y0026948D01*
X0024276Y0026923D01*
X0024205Y0026903D01*
X0024133Y0026886D01*
X0024060Y0026873D01*
X0023986Y0026864D01*
X0023912Y0026859D01*
X0023839Y0026858D01*
X0023765Y0026861D01*
X0023691Y0026868D01*
X0023618Y0026879D01*
X0023545Y0026894D01*
X0023474Y0026912D01*
X0023403Y0026935D01*
X0023334Y0026961D01*
X0023266Y0026991D01*
X0023200Y0027025D01*
X0023136Y0027062D01*
X0023074Y0027102D01*
X0023014Y0027146D01*
X0022957Y0027192D01*
X0022902Y0027242D01*
X0022850Y0027295D01*
X0022801Y0027350D01*
X0022755Y0027408D01*
X0022713Y0027469D01*
X0022673Y0027531D01*
X0022637Y0027596D01*
X0022604Y0027662D01*
X0022575Y0027730D01*
X0022550Y0027800D01*
X0022528Y0027870D01*
X0022511Y0027942D01*
X0022497Y0028015D01*
X0022487Y0028088D01*
X0022481Y0028162D01*
X0022479Y0028236D01*
X0037834Y0028236D02*
X0037836Y0028310D01*
X0037842Y0028384D01*
X0037852Y0028457D01*
X0037866Y0028530D01*
X0037883Y0028602D01*
X0037905Y0028672D01*
X0037930Y0028742D01*
X0037959Y0028810D01*
X0037992Y0028876D01*
X0038028Y0028941D01*
X0038068Y0029003D01*
X0038110Y0029064D01*
X0038156Y0029122D01*
X0038205Y0029177D01*
X0038257Y0029230D01*
X0038312Y0029280D01*
X0038369Y0029326D01*
X0038429Y0029370D01*
X0038491Y0029410D01*
X0038555Y0029447D01*
X0038621Y0029481D01*
X0038689Y0029511D01*
X0038758Y0029537D01*
X0038829Y0029560D01*
X0038900Y0029578D01*
X0038973Y0029593D01*
X0039046Y0029604D01*
X0039120Y0029611D01*
X0039194Y0029614D01*
X0039267Y0029613D01*
X0039341Y0029608D01*
X0039415Y0029599D01*
X0039488Y0029586D01*
X0039560Y0029569D01*
X0039631Y0029549D01*
X0039701Y0029524D01*
X0039769Y0029496D01*
X0039836Y0029465D01*
X0039901Y0029429D01*
X0039964Y0029391D01*
X0040025Y0029349D01*
X0040084Y0029303D01*
X0040140Y0029255D01*
X0040193Y0029204D01*
X0040243Y0029150D01*
X0040291Y0029093D01*
X0040335Y0029034D01*
X0040377Y0028972D01*
X0040415Y0028909D01*
X0040449Y0028843D01*
X0040480Y0028776D01*
X0040507Y0028707D01*
X0040530Y0028637D01*
X0040550Y0028566D01*
X0040566Y0028493D01*
X0040578Y0028420D01*
X0040586Y0028347D01*
X0040590Y0028273D01*
X0040590Y0028199D01*
X0040586Y0028125D01*
X0040578Y0028052D01*
X0040566Y0027979D01*
X0040550Y0027906D01*
X0040530Y0027835D01*
X0040507Y0027765D01*
X0040480Y0027696D01*
X0040449Y0027629D01*
X0040415Y0027563D01*
X0040377Y0027500D01*
X0040335Y0027438D01*
X0040291Y0027379D01*
X0040243Y0027322D01*
X0040193Y0027268D01*
X0040140Y0027217D01*
X0040084Y0027169D01*
X0040025Y0027123D01*
X0039964Y0027081D01*
X0039901Y0027043D01*
X0039836Y0027007D01*
X0039769Y0026976D01*
X0039701Y0026948D01*
X0039631Y0026923D01*
X0039560Y0026903D01*
X0039488Y0026886D01*
X0039415Y0026873D01*
X0039341Y0026864D01*
X0039267Y0026859D01*
X0039194Y0026858D01*
X0039120Y0026861D01*
X0039046Y0026868D01*
X0038973Y0026879D01*
X0038900Y0026894D01*
X0038829Y0026912D01*
X0038758Y0026935D01*
X0038689Y0026961D01*
X0038621Y0026991D01*
X0038555Y0027025D01*
X0038491Y0027062D01*
X0038429Y0027102D01*
X0038369Y0027146D01*
X0038312Y0027192D01*
X0038257Y0027242D01*
X0038205Y0027295D01*
X0038156Y0027350D01*
X0038110Y0027408D01*
X0038068Y0027469D01*
X0038028Y0027531D01*
X0037992Y0027596D01*
X0037959Y0027662D01*
X0037930Y0027730D01*
X0037905Y0027800D01*
X0037883Y0027870D01*
X0037866Y0027942D01*
X0037852Y0028015D01*
X0037842Y0028088D01*
X0037836Y0028162D01*
X0037834Y0028236D01*
X0043936Y0021937D02*
X0043936Y0019575D01*
X0043948Y0019498D01*
X0043963Y0019422D01*
X0043982Y0019346D01*
X0044005Y0019272D01*
X0044031Y0019198D01*
X0044061Y0019127D01*
X0044095Y0019056D01*
X0044131Y0018988D01*
X0044172Y0018921D01*
X0044215Y0018856D01*
X0044261Y0018794D01*
X0044311Y0018733D01*
X0044363Y0018676D01*
X0044419Y0018621D01*
X0044476Y0018569D01*
X0044537Y0018519D01*
X0044599Y0018473D01*
X0044664Y0018430D01*
X0044731Y0018390D01*
X0044800Y0018353D01*
X0044870Y0018320D01*
X0044942Y0018290D01*
X0045016Y0018264D01*
X0045090Y0018242D01*
X0045166Y0018223D01*
X0045242Y0018208D01*
X0045319Y0018197D01*
X0045397Y0018189D01*
X0045475Y0018185D01*
X0045553Y0018186D01*
X0045630Y0018189D01*
X0045708Y0018197D01*
X0045786Y0018189D01*
X0045863Y0018186D01*
X0045941Y0018185D01*
X0046019Y0018189D01*
X0046097Y0018197D01*
X0046174Y0018208D01*
X0046250Y0018223D01*
X0046326Y0018242D01*
X0046400Y0018264D01*
X0046474Y0018290D01*
X0046546Y0018320D01*
X0046616Y0018353D01*
X0046685Y0018390D01*
X0046752Y0018430D01*
X0046817Y0018473D01*
X0046879Y0018519D01*
X0046940Y0018569D01*
X0046997Y0018621D01*
X0047053Y0018676D01*
X0047105Y0018733D01*
X0047155Y0018794D01*
X0047201Y0018856D01*
X0047244Y0018921D01*
X0047285Y0018988D01*
X0047321Y0019056D01*
X0047355Y0019127D01*
X0047385Y0019198D01*
X0047411Y0019272D01*
X0047434Y0019346D01*
X0047453Y0019422D01*
X0047468Y0019498D01*
X0047480Y0019575D01*
X0047480Y0021937D01*
X0047468Y0022014D01*
X0047453Y0022090D01*
X0047434Y0022166D01*
X0047411Y0022240D01*
X0047385Y0022314D01*
X0047355Y0022385D01*
X0047321Y0022456D01*
X0047285Y0022524D01*
X0047244Y0022591D01*
X0047201Y0022656D01*
X0047155Y0022718D01*
X0047105Y0022779D01*
X0047053Y0022836D01*
X0046997Y0022891D01*
X0046940Y0022943D01*
X0046879Y0022993D01*
X0046817Y0023039D01*
X0046752Y0023082D01*
X0046685Y0023122D01*
X0046616Y0023159D01*
X0046546Y0023192D01*
X0046474Y0023222D01*
X0046400Y0023248D01*
X0046326Y0023270D01*
X0046250Y0023289D01*
X0046174Y0023304D01*
X0046097Y0023315D01*
X0046019Y0023323D01*
X0045941Y0023327D01*
X0045863Y0023326D01*
X0045786Y0023323D01*
X0045708Y0023315D01*
X0045630Y0023323D01*
X0045553Y0023326D01*
X0045475Y0023327D01*
X0045397Y0023323D01*
X0045319Y0023315D01*
X0045242Y0023304D01*
X0045166Y0023289D01*
X0045090Y0023270D01*
X0045016Y0023248D01*
X0044942Y0023222D01*
X0044870Y0023192D01*
X0044800Y0023159D01*
X0044731Y0023122D01*
X0044664Y0023082D01*
X0044599Y0023039D01*
X0044537Y0022993D01*
X0044476Y0022943D01*
X0044419Y0022891D01*
X0044363Y0022836D01*
X0044311Y0022779D01*
X0044261Y0022718D01*
X0044215Y0022656D01*
X0044172Y0022591D01*
X0044131Y0022524D01*
X0044095Y0022456D01*
X0044061Y0022385D01*
X0044031Y0022314D01*
X0044005Y0022240D01*
X0043982Y0022166D01*
X0043963Y0022090D01*
X0043948Y0022014D01*
X0043936Y0021937D01*
M02*
