G75*
%MOIN*%
%OFA0B0*%
%FSLAX25Y25*%
%IPPOS*%
%LPD*%
%AMOC8*
5,1,8,0,0,1.08239X$1,22.5*
%
%ADD10C,0.00700*%
%ADD11C,0.00500*%
%ADD12R,0.09843X0.09843*%
%ADD13C,0.05150*%
%ADD14OC8,0.06000*%
%ADD15OC8,0.05937*%
%ADD16C,0.00600*%
%ADD17C,0.02381*%
%ADD18C,0.00800*%
%ADD19C,0.02400*%
%ADD20C,0.01000*%
%ADD21C,0.01200*%
%ADD22C,0.01600*%
D10*
X0029845Y0195086D02*
X0029845Y0197588D01*
X0028177Y0197588D01*
X0029011Y0196337D02*
X0029845Y0196337D01*
X0031124Y0196337D02*
X0031124Y0195503D01*
X0031541Y0195086D01*
X0032375Y0195086D01*
X0032792Y0195503D01*
X0032792Y0196337D01*
X0032375Y0196754D01*
X0031541Y0196754D01*
X0031124Y0196337D01*
X0034070Y0195503D02*
X0034070Y0197171D01*
X0034487Y0197588D01*
X0035738Y0197588D01*
X0035738Y0195086D01*
X0034487Y0195086D01*
X0034070Y0195503D01*
X0037017Y0195503D02*
X0037017Y0197171D01*
X0037434Y0197588D01*
X0038268Y0197588D01*
X0038685Y0197171D01*
X0038685Y0196754D01*
X0038268Y0196337D01*
X0037017Y0196337D01*
X0037017Y0195503D02*
X0037434Y0195086D01*
X0038268Y0195086D01*
X0038685Y0195503D01*
D11*
X0027285Y0196103D02*
X0026968Y0195786D01*
X0026334Y0195786D01*
X0026017Y0196103D01*
X0026017Y0197371D01*
X0026334Y0197688D01*
X0026968Y0197688D01*
X0027285Y0197371D01*
X0027285Y0196103D01*
X0025075Y0195786D02*
X0025075Y0197688D01*
X0024124Y0197688D01*
X0023807Y0197371D01*
X0023807Y0196737D01*
X0024124Y0196420D01*
X0025075Y0196420D01*
X0024441Y0196420D02*
X0023807Y0195786D01*
X0022865Y0195786D02*
X0022865Y0197688D01*
X0022548Y0196737D02*
X0021597Y0195786D01*
X0022865Y0196420D02*
X0021597Y0197688D01*
X0021941Y0189888D02*
X0021941Y0187986D01*
X0022575Y0187986D02*
X0021307Y0187986D01*
X0020365Y0187986D02*
X0020048Y0187986D01*
X0020048Y0188303D01*
X0020365Y0188303D01*
X0020365Y0187986D01*
X0021941Y0189888D02*
X0022575Y0189254D01*
X0023517Y0189254D02*
X0024151Y0187986D01*
X0024785Y0189254D01*
D12*
X0017361Y0020756D03*
X0045708Y0020756D03*
D13*
X0044527Y0031780D02*
X0049676Y0031780D01*
X0018543Y0031780D02*
X0013393Y0031780D01*
D14*
X0014935Y0040336D03*
X0014935Y0050336D03*
X0033535Y0067236D03*
X0033535Y0077236D03*
X0043535Y0077236D03*
X0043535Y0067236D03*
X0053535Y0067236D03*
X0053535Y0077236D03*
X0063535Y0077236D03*
X0063535Y0067236D03*
D15*
X0012835Y0095836D03*
X0012835Y0105836D03*
X0012835Y0115836D03*
X0012835Y0125836D03*
X0012835Y0135836D03*
X0012835Y0145836D03*
D16*
X0010035Y0029831D02*
X0010035Y0012736D01*
X0066956Y0012736D01*
X0066956Y0064576D01*
X0065316Y0062936D01*
X0063835Y0062936D01*
X0063835Y0066936D01*
X0063235Y0066936D01*
X0063235Y0062936D01*
X0061835Y0062936D01*
X0061835Y0035166D01*
X0060604Y0033936D01*
X0058865Y0033936D01*
X0057635Y0035166D01*
X0057635Y0063378D01*
X0056635Y0064378D01*
X0056635Y0064821D01*
X0055150Y0063336D01*
X0051919Y0063336D01*
X0049635Y0065621D01*
X0049635Y0068852D01*
X0051919Y0071136D01*
X0055150Y0071136D01*
X0055373Y0070913D01*
X0057235Y0072775D01*
X0057235Y0075421D01*
X0055150Y0073336D01*
X0051919Y0073336D01*
X0049635Y0075621D01*
X0049635Y0078852D01*
X0049871Y0079088D01*
X0049871Y0079298D01*
X0045825Y0083344D01*
X0045825Y0083170D01*
X0045461Y0082806D01*
X0048073Y0080193D01*
X0048835Y0079432D01*
X0048835Y0070698D01*
X0048073Y0069936D01*
X0047212Y0069075D01*
X0047435Y0068852D01*
X0047435Y0065621D01*
X0045150Y0063336D01*
X0041919Y0063336D01*
X0040835Y0064421D01*
X0040835Y0059207D01*
X0051906Y0048136D01*
X0053239Y0048136D01*
X0054235Y0047140D01*
X0054235Y0047067D01*
X0055425Y0045876D01*
X0055425Y0044144D01*
X0054201Y0042920D01*
X0052469Y0042920D01*
X0052252Y0043136D01*
X0051830Y0043136D01*
X0050835Y0044132D01*
X0050835Y0044736D01*
X0045239Y0044736D01*
X0034839Y0034336D01*
X0024991Y0034336D01*
X0024601Y0033946D01*
X0022869Y0033946D01*
X0021644Y0035170D01*
X0021644Y0036902D01*
X0022869Y0038127D01*
X0024288Y0038127D01*
X0024044Y0038370D01*
X0024044Y0040102D01*
X0024835Y0040893D01*
X0024835Y0061375D01*
X0025807Y0062347D01*
X0025807Y0063302D01*
X0027032Y0064527D01*
X0028764Y0064527D01*
X0029988Y0063302D01*
X0029988Y0061570D01*
X0028764Y0060346D01*
X0027483Y0060346D01*
X0027435Y0060298D01*
X0027435Y0042693D01*
X0028035Y0043293D01*
X0028035Y0058175D01*
X0028844Y0058984D01*
X0028844Y0060102D01*
X0030069Y0061327D01*
X0031801Y0061327D01*
X0033025Y0060102D01*
X0033025Y0058370D01*
X0031801Y0057146D01*
X0030683Y0057146D01*
X0030635Y0057098D01*
X0030635Y0043293D01*
X0031425Y0042502D01*
X0031425Y0040770D01*
X0030201Y0039546D01*
X0028469Y0039546D01*
X0028225Y0039789D01*
X0028225Y0038370D01*
X0027591Y0037736D01*
X0033430Y0037736D01*
X0042835Y0047140D01*
X0043830Y0048136D01*
X0048511Y0048136D01*
X0039138Y0057510D01*
X0038435Y0058213D01*
X0038435Y0072136D01*
X0031422Y0072136D01*
X0030719Y0072839D01*
X0029138Y0074421D01*
X0028435Y0075124D01*
X0028435Y0080852D01*
X0029138Y0081555D01*
X0039681Y0092098D01*
X0039681Y0094980D01*
X0038791Y0095870D01*
X0038791Y0097602D01*
X0040015Y0098827D01*
X0041747Y0098827D01*
X0042972Y0097602D01*
X0042972Y0095870D01*
X0042081Y0094980D01*
X0042081Y0091104D01*
X0041339Y0090362D01*
X0049090Y0090362D01*
X0049881Y0091152D01*
X0051612Y0091152D01*
X0052837Y0089927D01*
X0052837Y0088196D01*
X0051612Y0086971D01*
X0049881Y0086971D01*
X0049090Y0087762D01*
X0042966Y0087762D01*
X0043102Y0087625D01*
X0045221Y0087625D01*
X0045983Y0086864D01*
X0045983Y0086864D01*
X0051710Y0081137D01*
X0051710Y0081137D01*
X0051815Y0081032D01*
X0051919Y0081136D01*
X0055150Y0081136D01*
X0057235Y0079052D01*
X0057235Y0102580D01*
X0056444Y0103370D01*
X0056444Y0105102D01*
X0057669Y0106327D01*
X0059401Y0106327D01*
X0060625Y0105102D01*
X0060625Y0103370D01*
X0059835Y0102580D01*
X0059835Y0079052D01*
X0061435Y0080652D01*
X0061435Y0082085D01*
X0063956Y0084606D01*
X0063956Y0164847D01*
X0063933Y0164869D01*
X0063953Y0179136D01*
X0036645Y0179136D01*
X0036645Y0178756D01*
X0035415Y0177526D01*
X0033956Y0177526D01*
X0020166Y0163736D01*
X0014382Y0163736D01*
X0013791Y0163146D01*
X0012059Y0163146D01*
X0010835Y0164370D01*
X0010835Y0166102D01*
X0012059Y0167327D01*
X0013791Y0167327D01*
X0014382Y0166736D01*
X0018923Y0166736D01*
X0032435Y0180247D01*
X0032435Y0182106D01*
X0033665Y0183336D01*
X0065188Y0183336D01*
X0065189Y0183337D01*
X0066058Y0183336D01*
X0066926Y0183336D01*
X0066927Y0183335D01*
X0066929Y0183335D01*
X0066956Y0183308D01*
X0066956Y0199937D01*
X0010035Y0199937D01*
X0010035Y0148507D01*
X0011232Y0149705D01*
X0014437Y0149705D01*
X0016703Y0147439D01*
X0016703Y0144234D01*
X0014437Y0141968D01*
X0011232Y0141968D01*
X0010035Y0143165D01*
X0010035Y0138507D01*
X0011232Y0139705D01*
X0014437Y0139705D01*
X0016703Y0137439D01*
X0016703Y0134234D01*
X0014437Y0131968D01*
X0011232Y0131968D01*
X0010035Y0133165D01*
X0010035Y0128507D01*
X0011232Y0129705D01*
X0014437Y0129705D01*
X0016703Y0127439D01*
X0016703Y0124234D01*
X0014437Y0121968D01*
X0011232Y0121968D01*
X0010035Y0123165D01*
X0010035Y0118507D01*
X0011232Y0119705D01*
X0014437Y0119705D01*
X0016703Y0117439D01*
X0016703Y0114234D01*
X0014437Y0111968D01*
X0011232Y0111968D01*
X0010035Y0113165D01*
X0010035Y0108507D01*
X0011232Y0109705D01*
X0014437Y0109705D01*
X0016703Y0107439D01*
X0016703Y0104234D01*
X0014437Y0101968D01*
X0011232Y0101968D01*
X0010035Y0103165D01*
X0010035Y0098507D01*
X0011232Y0099705D01*
X0014437Y0099705D01*
X0016703Y0097439D01*
X0016703Y0094234D01*
X0014437Y0091968D01*
X0011232Y0091968D01*
X0010035Y0093165D01*
X0010035Y0033728D01*
X0010383Y0034250D01*
X0010923Y0034789D01*
X0011558Y0035213D01*
X0012263Y0035505D01*
X0013011Y0035654D01*
X0018243Y0035654D01*
X0018243Y0032080D01*
X0018842Y0032080D01*
X0018842Y0035654D01*
X0018924Y0035654D01*
X0019673Y0035505D01*
X0020378Y0035213D01*
X0021013Y0034789D01*
X0021552Y0034250D01*
X0021976Y0033615D01*
X0022268Y0032910D01*
X0022417Y0032161D01*
X0022417Y0032080D01*
X0018843Y0032080D01*
X0018843Y0031480D01*
X0022417Y0031480D01*
X0022417Y0031398D01*
X0022278Y0030697D01*
X0023285Y0031114D01*
X0024430Y0031114D01*
X0025488Y0030676D01*
X0026297Y0029866D01*
X0026735Y0028809D01*
X0026735Y0027664D01*
X0026297Y0026606D01*
X0025488Y0025796D01*
X0024430Y0025358D01*
X0023583Y0025358D01*
X0023583Y0021056D01*
X0020633Y0021056D01*
X0020633Y0020456D01*
X0023583Y0020456D01*
X0023583Y0015663D01*
X0023494Y0015333D01*
X0023323Y0015036D01*
X0023081Y0014794D01*
X0022784Y0014623D01*
X0022454Y0014535D01*
X0017661Y0014535D01*
X0017661Y0016687D01*
X0017509Y0016677D01*
X0017488Y0016659D01*
X0017361Y0016667D01*
X0017235Y0016659D01*
X0017214Y0016677D01*
X0017061Y0016687D01*
X0017061Y0014535D01*
X0012269Y0014535D01*
X0011938Y0014623D01*
X0011642Y0014794D01*
X0011400Y0015036D01*
X0011229Y0015333D01*
X0011140Y0015663D01*
X0011140Y0020456D01*
X0014090Y0020456D01*
X0014090Y0021056D01*
X0011140Y0021056D01*
X0011140Y0025848D01*
X0011229Y0026179D01*
X0011400Y0026475D01*
X0011642Y0026717D01*
X0011938Y0026889D01*
X0012269Y0026977D01*
X0017061Y0026977D01*
X0017061Y0024815D01*
X0017661Y0024815D01*
X0017661Y0026977D01*
X0021264Y0026977D01*
X0020980Y0027664D01*
X0020980Y0028748D01*
X0020378Y0028346D01*
X0019673Y0028054D01*
X0018924Y0027905D01*
X0018842Y0027905D01*
X0018842Y0031479D01*
X0018243Y0031479D01*
X0018243Y0027905D01*
X0013011Y0027905D01*
X0012263Y0028054D01*
X0011558Y0028346D01*
X0010923Y0028770D01*
X0010383Y0029309D01*
X0010035Y0029831D01*
X0010035Y0029790D02*
X0010062Y0029790D01*
X0010035Y0029192D02*
X0010501Y0029192D01*
X0010035Y0028593D02*
X0011187Y0028593D01*
X0010035Y0027995D02*
X0012560Y0027995D01*
X0011781Y0026798D02*
X0010035Y0026798D01*
X0010035Y0027396D02*
X0021090Y0027396D01*
X0020980Y0027995D02*
X0019376Y0027995D01*
X0018842Y0027995D02*
X0018243Y0027995D01*
X0018243Y0028593D02*
X0018842Y0028593D01*
X0018842Y0029192D02*
X0018243Y0029192D01*
X0018243Y0029790D02*
X0018842Y0029790D01*
X0018842Y0030389D02*
X0018243Y0030389D01*
X0018243Y0030987D02*
X0018842Y0030987D01*
X0018843Y0031586D02*
X0044227Y0031586D01*
X0044227Y0031480D02*
X0040652Y0031480D01*
X0040652Y0031398D01*
X0040791Y0030697D01*
X0039784Y0031114D01*
X0038639Y0031114D01*
X0037582Y0030676D01*
X0036772Y0029866D01*
X0036334Y0028809D01*
X0036334Y0027664D01*
X0036772Y0026606D01*
X0037582Y0025796D01*
X0038639Y0025358D01*
X0039487Y0025358D01*
X0039487Y0021056D01*
X0042436Y0021056D01*
X0042436Y0020456D01*
X0039487Y0020456D01*
X0039487Y0015663D01*
X0039575Y0015333D01*
X0039746Y0015036D01*
X0039988Y0014794D01*
X0040285Y0014623D01*
X0040615Y0014535D01*
X0045408Y0014535D01*
X0045408Y0016648D01*
X0045708Y0016685D01*
X0046008Y0016648D01*
X0046008Y0014535D01*
X0050800Y0014535D01*
X0051131Y0014623D01*
X0051427Y0014794D01*
X0051669Y0015036D01*
X0051841Y0015333D01*
X0051929Y0015663D01*
X0051929Y0020456D01*
X0048980Y0020456D01*
X0048980Y0021056D01*
X0051929Y0021056D01*
X0051929Y0025848D01*
X0051841Y0026179D01*
X0051669Y0026475D01*
X0051427Y0026717D01*
X0051131Y0026889D01*
X0050800Y0026977D01*
X0046008Y0026977D01*
X0046008Y0024864D01*
X0045708Y0024827D01*
X0045408Y0024864D01*
X0045408Y0026977D01*
X0041805Y0026977D01*
X0042090Y0027664D01*
X0042090Y0028748D01*
X0042691Y0028346D01*
X0043397Y0028054D01*
X0044145Y0027905D01*
X0044227Y0027905D01*
X0044227Y0031479D01*
X0044827Y0031479D01*
X0044827Y0027905D01*
X0050058Y0027905D01*
X0050807Y0028054D01*
X0051512Y0028346D01*
X0052146Y0028770D01*
X0052686Y0029309D01*
X0053110Y0029944D01*
X0053402Y0030649D01*
X0053551Y0031398D01*
X0053551Y0031480D01*
X0044827Y0031480D01*
X0044827Y0032080D01*
X0044227Y0032080D01*
X0044227Y0035654D01*
X0044145Y0035654D01*
X0043397Y0035505D01*
X0042691Y0035213D01*
X0042057Y0034789D01*
X0041517Y0034250D01*
X0041093Y0033615D01*
X0040801Y0032910D01*
X0040652Y0032161D01*
X0040652Y0032080D01*
X0044227Y0032080D01*
X0044227Y0031480D01*
X0044227Y0030987D02*
X0044827Y0030987D01*
X0044827Y0030389D02*
X0044227Y0030389D01*
X0044227Y0029790D02*
X0044827Y0029790D01*
X0044827Y0029192D02*
X0044227Y0029192D01*
X0044227Y0028593D02*
X0044827Y0028593D01*
X0044827Y0027995D02*
X0044227Y0027995D01*
X0043694Y0027995D02*
X0042090Y0027995D01*
X0042090Y0028593D02*
X0042321Y0028593D01*
X0041979Y0027396D02*
X0066956Y0027396D01*
X0066956Y0026798D02*
X0051289Y0026798D01*
X0051829Y0026199D02*
X0066956Y0026199D01*
X0066956Y0025600D02*
X0051929Y0025600D01*
X0051929Y0025002D02*
X0066956Y0025002D01*
X0066956Y0024403D02*
X0051929Y0024403D01*
X0051929Y0023805D02*
X0066956Y0023805D01*
X0066956Y0023206D02*
X0051929Y0023206D01*
X0051929Y0022608D02*
X0066956Y0022608D01*
X0066956Y0022009D02*
X0051929Y0022009D01*
X0051929Y0021411D02*
X0066956Y0021411D01*
X0066956Y0020812D02*
X0048980Y0020812D01*
X0051929Y0020214D02*
X0066956Y0020214D01*
X0066956Y0019615D02*
X0051929Y0019615D01*
X0051929Y0019017D02*
X0066956Y0019017D01*
X0066956Y0018418D02*
X0051929Y0018418D01*
X0051929Y0017820D02*
X0066956Y0017820D01*
X0066956Y0017221D02*
X0051929Y0017221D01*
X0051929Y0016623D02*
X0066956Y0016623D01*
X0066956Y0016024D02*
X0051929Y0016024D01*
X0051865Y0015426D02*
X0066956Y0015426D01*
X0066956Y0014827D02*
X0051460Y0014827D01*
X0046008Y0014827D02*
X0045408Y0014827D01*
X0045408Y0015426D02*
X0046008Y0015426D01*
X0046008Y0016024D02*
X0045408Y0016024D01*
X0045408Y0016623D02*
X0046008Y0016623D01*
X0042436Y0020812D02*
X0020633Y0020812D01*
X0023583Y0020214D02*
X0039487Y0020214D01*
X0039487Y0019615D02*
X0023583Y0019615D01*
X0023583Y0019017D02*
X0039487Y0019017D01*
X0039487Y0018418D02*
X0023583Y0018418D01*
X0023583Y0017820D02*
X0039487Y0017820D01*
X0039487Y0017221D02*
X0023583Y0017221D01*
X0023583Y0016623D02*
X0039487Y0016623D01*
X0039487Y0016024D02*
X0023583Y0016024D01*
X0023519Y0015426D02*
X0039550Y0015426D01*
X0039955Y0014827D02*
X0023114Y0014827D01*
X0023583Y0021411D02*
X0039487Y0021411D01*
X0039487Y0022009D02*
X0023583Y0022009D01*
X0023583Y0022608D02*
X0039487Y0022608D01*
X0039487Y0023206D02*
X0023583Y0023206D01*
X0023583Y0023805D02*
X0039487Y0023805D01*
X0039487Y0024403D02*
X0023583Y0024403D01*
X0023583Y0025002D02*
X0039487Y0025002D01*
X0038055Y0025600D02*
X0025015Y0025600D01*
X0025890Y0026199D02*
X0037179Y0026199D01*
X0036693Y0026798D02*
X0026377Y0026798D01*
X0026625Y0027396D02*
X0036445Y0027396D01*
X0036334Y0027995D02*
X0026735Y0027995D01*
X0026735Y0028593D02*
X0036334Y0028593D01*
X0036492Y0029192D02*
X0026577Y0029192D01*
X0026329Y0029790D02*
X0036740Y0029790D01*
X0037294Y0030389D02*
X0025775Y0030389D01*
X0024737Y0030987D02*
X0038333Y0030987D01*
X0040091Y0030987D02*
X0040734Y0030987D01*
X0040657Y0032184D02*
X0022413Y0032184D01*
X0022294Y0032783D02*
X0040776Y0032783D01*
X0040996Y0033381D02*
X0022073Y0033381D01*
X0021733Y0033980D02*
X0022835Y0033980D01*
X0022236Y0034578D02*
X0021224Y0034578D01*
X0021644Y0035177D02*
X0020433Y0035177D01*
X0018842Y0035177D02*
X0018243Y0035177D01*
X0018243Y0034578D02*
X0018842Y0034578D01*
X0018842Y0033980D02*
X0018243Y0033980D01*
X0018243Y0033381D02*
X0018842Y0033381D01*
X0018842Y0032783D02*
X0018243Y0032783D01*
X0018243Y0032184D02*
X0018842Y0032184D01*
X0020748Y0028593D02*
X0020980Y0028593D01*
X0022336Y0030987D02*
X0022978Y0030987D01*
X0024635Y0033980D02*
X0041337Y0033980D01*
X0041846Y0034578D02*
X0035081Y0034578D01*
X0035679Y0035177D02*
X0042637Y0035177D01*
X0044227Y0035177D02*
X0044827Y0035177D01*
X0044827Y0035654D02*
X0044827Y0032080D01*
X0053551Y0032080D01*
X0053551Y0032161D01*
X0053402Y0032910D01*
X0053110Y0033615D01*
X0052686Y0034250D01*
X0052146Y0034789D01*
X0051512Y0035213D01*
X0050807Y0035505D01*
X0050058Y0035654D01*
X0044827Y0035654D01*
X0044827Y0034578D02*
X0044227Y0034578D01*
X0044227Y0033980D02*
X0044827Y0033980D01*
X0044827Y0033381D02*
X0044227Y0033381D01*
X0044227Y0032783D02*
X0044827Y0032783D01*
X0044827Y0032184D02*
X0044227Y0032184D01*
X0044827Y0031586D02*
X0066956Y0031586D01*
X0066956Y0032184D02*
X0053547Y0032184D01*
X0053428Y0032783D02*
X0066956Y0032783D01*
X0066956Y0033381D02*
X0053207Y0033381D01*
X0052866Y0033980D02*
X0058821Y0033980D01*
X0058223Y0034578D02*
X0052358Y0034578D01*
X0051567Y0035177D02*
X0057635Y0035177D01*
X0057635Y0035775D02*
X0036278Y0035775D01*
X0036876Y0036374D02*
X0057635Y0036374D01*
X0057635Y0036972D02*
X0037475Y0036972D01*
X0038073Y0037571D02*
X0057635Y0037571D01*
X0057635Y0038169D02*
X0038672Y0038169D01*
X0039270Y0038768D02*
X0057635Y0038768D01*
X0057635Y0039366D02*
X0039869Y0039366D01*
X0040467Y0039965D02*
X0057635Y0039965D01*
X0057635Y0040563D02*
X0041066Y0040563D01*
X0041664Y0041162D02*
X0057635Y0041162D01*
X0057635Y0041760D02*
X0042263Y0041760D01*
X0042861Y0042359D02*
X0057635Y0042359D01*
X0057635Y0042957D02*
X0054238Y0042957D01*
X0054837Y0043556D02*
X0057635Y0043556D01*
X0057635Y0044154D02*
X0055425Y0044154D01*
X0055425Y0044753D02*
X0057635Y0044753D01*
X0057635Y0045351D02*
X0055425Y0045351D01*
X0055351Y0045950D02*
X0057635Y0045950D01*
X0057635Y0046548D02*
X0054753Y0046548D01*
X0054228Y0047147D02*
X0057635Y0047147D01*
X0057635Y0047745D02*
X0053630Y0047745D01*
X0053335Y0045010D02*
X0039635Y0058710D01*
X0039635Y0073336D01*
X0031919Y0073336D01*
X0029635Y0075621D01*
X0029635Y0080355D01*
X0040881Y0091601D01*
X0040881Y0096736D01*
X0039633Y0095028D02*
X0021125Y0095028D01*
X0021125Y0095626D02*
X0039035Y0095626D01*
X0038791Y0096225D02*
X0021003Y0096225D01*
X0021125Y0096102D02*
X0020335Y0096893D01*
X0020335Y0131977D01*
X0020244Y0132067D01*
X0020244Y0135107D01*
X0035783Y0150646D01*
X0036901Y0150646D01*
X0038125Y0151870D01*
X0038125Y0153602D01*
X0036901Y0154827D01*
X0035169Y0154827D01*
X0033944Y0153602D01*
X0033944Y0152484D01*
X0017644Y0136184D01*
X0017644Y0130990D01*
X0017735Y0130900D01*
X0017735Y0096893D01*
X0016944Y0096102D01*
X0016944Y0094370D01*
X0018169Y0093146D01*
X0019901Y0093146D01*
X0021125Y0094370D01*
X0021125Y0096102D01*
X0020404Y0096823D02*
X0038791Y0096823D01*
X0038791Y0097422D02*
X0020335Y0097422D01*
X0020335Y0098020D02*
X0039209Y0098020D01*
X0039807Y0098619D02*
X0020335Y0098619D01*
X0020335Y0099217D02*
X0057235Y0099217D01*
X0057235Y0098619D02*
X0041955Y0098619D01*
X0042553Y0098020D02*
X0057235Y0098020D01*
X0057235Y0097422D02*
X0042972Y0097422D01*
X0042972Y0096823D02*
X0057235Y0096823D01*
X0057235Y0096225D02*
X0042972Y0096225D01*
X0042728Y0095626D02*
X0057235Y0095626D01*
X0057235Y0095028D02*
X0042129Y0095028D01*
X0042081Y0094429D02*
X0057235Y0094429D01*
X0057235Y0093831D02*
X0042081Y0093831D01*
X0042081Y0093232D02*
X0057235Y0093232D01*
X0057235Y0092634D02*
X0042081Y0092634D01*
X0042081Y0092035D02*
X0057235Y0092035D01*
X0057235Y0091437D02*
X0042081Y0091437D01*
X0041815Y0090838D02*
X0049567Y0090838D01*
X0049604Y0087247D02*
X0045599Y0087247D01*
X0046198Y0086649D02*
X0057235Y0086649D01*
X0057235Y0087247D02*
X0051889Y0087247D01*
X0052487Y0087846D02*
X0057235Y0087846D01*
X0057235Y0088444D02*
X0052837Y0088444D01*
X0052837Y0089043D02*
X0057235Y0089043D01*
X0057235Y0089641D02*
X0052837Y0089641D01*
X0052525Y0090240D02*
X0057235Y0090240D01*
X0057235Y0090838D02*
X0051926Y0090838D01*
X0049190Y0083656D02*
X0057235Y0083656D01*
X0057235Y0083058D02*
X0049789Y0083058D01*
X0050387Y0082459D02*
X0057235Y0082459D01*
X0057235Y0081861D02*
X0050986Y0081861D01*
X0051584Y0081262D02*
X0057235Y0081262D01*
X0057235Y0080664D02*
X0055623Y0080664D01*
X0056221Y0080065D02*
X0057235Y0080065D01*
X0057235Y0079467D02*
X0056820Y0079467D01*
X0057091Y0075277D02*
X0057235Y0075277D01*
X0057235Y0074678D02*
X0056492Y0074678D01*
X0055894Y0074080D02*
X0057235Y0074080D01*
X0057235Y0073481D02*
X0055295Y0073481D01*
X0056146Y0071686D02*
X0048835Y0071686D01*
X0048835Y0072284D02*
X0056744Y0072284D01*
X0057235Y0072883D02*
X0048835Y0072883D01*
X0048835Y0073481D02*
X0051774Y0073481D01*
X0051176Y0074080D02*
X0048835Y0074080D01*
X0048835Y0074678D02*
X0050577Y0074678D01*
X0049979Y0075277D02*
X0048835Y0075277D01*
X0048835Y0075875D02*
X0049635Y0075875D01*
X0049635Y0076474D02*
X0048835Y0076474D01*
X0048835Y0077072D02*
X0049635Y0077072D01*
X0049635Y0077671D02*
X0048835Y0077671D01*
X0048835Y0078269D02*
X0049635Y0078269D01*
X0049651Y0078868D02*
X0048835Y0078868D01*
X0048800Y0079467D02*
X0049703Y0079467D01*
X0049104Y0080065D02*
X0048201Y0080065D01*
X0048506Y0080664D02*
X0047603Y0080664D01*
X0047907Y0081262D02*
X0047004Y0081262D01*
X0047309Y0081861D02*
X0046406Y0081861D01*
X0046710Y0082459D02*
X0045807Y0082459D01*
X0045712Y0083058D02*
X0046112Y0083058D01*
X0047395Y0085452D02*
X0057235Y0085452D01*
X0057235Y0086050D02*
X0046796Y0086050D01*
X0047993Y0084853D02*
X0057235Y0084853D01*
X0057235Y0084255D02*
X0048592Y0084255D01*
X0048835Y0071087D02*
X0051870Y0071087D01*
X0051272Y0070489D02*
X0048626Y0070489D01*
X0048027Y0069890D02*
X0050673Y0069890D01*
X0050075Y0069292D02*
X0047429Y0069292D01*
X0047435Y0068693D02*
X0049635Y0068693D01*
X0049635Y0068095D02*
X0047435Y0068095D01*
X0047435Y0067496D02*
X0049635Y0067496D01*
X0049635Y0066898D02*
X0047435Y0066898D01*
X0047435Y0066299D02*
X0049635Y0066299D01*
X0049635Y0065701D02*
X0047435Y0065701D01*
X0046916Y0065102D02*
X0050153Y0065102D01*
X0050752Y0064504D02*
X0046318Y0064504D01*
X0045719Y0063905D02*
X0051350Y0063905D01*
X0055199Y0071087D02*
X0055547Y0071087D01*
X0056318Y0064504D02*
X0056635Y0064504D01*
X0057108Y0063905D02*
X0055719Y0063905D01*
X0057635Y0063307D02*
X0040835Y0063307D01*
X0040835Y0063905D02*
X0041350Y0063905D01*
X0040835Y0062708D02*
X0057635Y0062708D01*
X0057635Y0062110D02*
X0040835Y0062110D01*
X0040835Y0061511D02*
X0057635Y0061511D01*
X0057635Y0060913D02*
X0040835Y0060913D01*
X0040835Y0060314D02*
X0057635Y0060314D01*
X0057635Y0059716D02*
X0040835Y0059716D01*
X0040925Y0059117D02*
X0057635Y0059117D01*
X0057635Y0058519D02*
X0041523Y0058519D01*
X0042122Y0057920D02*
X0057635Y0057920D01*
X0057635Y0057322D02*
X0042720Y0057322D01*
X0043319Y0056723D02*
X0057635Y0056723D01*
X0057635Y0056125D02*
X0043917Y0056125D01*
X0044516Y0055526D02*
X0057635Y0055526D01*
X0057635Y0054928D02*
X0045114Y0054928D01*
X0045713Y0054329D02*
X0057635Y0054329D01*
X0057635Y0053731D02*
X0046311Y0053731D01*
X0046910Y0053132D02*
X0057635Y0053132D01*
X0057635Y0052534D02*
X0047508Y0052534D01*
X0048107Y0051935D02*
X0057635Y0051935D01*
X0057635Y0051336D02*
X0048705Y0051336D01*
X0049304Y0050738D02*
X0057635Y0050738D01*
X0057635Y0050139D02*
X0049902Y0050139D01*
X0050501Y0049541D02*
X0057635Y0049541D01*
X0057635Y0048942D02*
X0051099Y0048942D01*
X0051698Y0048344D02*
X0057635Y0048344D01*
X0061835Y0048344D02*
X0066956Y0048344D01*
X0066956Y0048942D02*
X0061835Y0048942D01*
X0061835Y0049541D02*
X0066956Y0049541D01*
X0066956Y0050139D02*
X0061835Y0050139D01*
X0061835Y0050738D02*
X0066956Y0050738D01*
X0066956Y0051336D02*
X0061835Y0051336D01*
X0061835Y0051935D02*
X0066956Y0051935D01*
X0066956Y0052534D02*
X0061835Y0052534D01*
X0061835Y0053132D02*
X0066956Y0053132D01*
X0066956Y0053731D02*
X0061835Y0053731D01*
X0061835Y0054329D02*
X0066956Y0054329D01*
X0066956Y0054928D02*
X0061835Y0054928D01*
X0061835Y0055526D02*
X0066956Y0055526D01*
X0066956Y0056125D02*
X0061835Y0056125D01*
X0061835Y0056723D02*
X0066956Y0056723D01*
X0066956Y0057322D02*
X0061835Y0057322D01*
X0061835Y0057920D02*
X0066956Y0057920D01*
X0066956Y0058519D02*
X0061835Y0058519D01*
X0061835Y0059117D02*
X0066956Y0059117D01*
X0066956Y0059716D02*
X0061835Y0059716D01*
X0061835Y0060314D02*
X0066956Y0060314D01*
X0066956Y0060913D02*
X0061835Y0060913D01*
X0061835Y0061511D02*
X0066956Y0061511D01*
X0066956Y0062110D02*
X0061835Y0062110D01*
X0061835Y0062708D02*
X0066956Y0062708D01*
X0066956Y0063307D02*
X0065686Y0063307D01*
X0066285Y0063905D02*
X0066956Y0063905D01*
X0066956Y0064504D02*
X0066883Y0064504D01*
X0063835Y0064504D02*
X0063235Y0064504D01*
X0063235Y0065102D02*
X0063835Y0065102D01*
X0063835Y0065701D02*
X0063235Y0065701D01*
X0063235Y0066299D02*
X0063835Y0066299D01*
X0063835Y0066898D02*
X0063235Y0066898D01*
X0063235Y0063905D02*
X0063835Y0063905D01*
X0063835Y0063307D02*
X0063235Y0063307D01*
X0061835Y0047745D02*
X0066956Y0047745D01*
X0066956Y0047147D02*
X0061835Y0047147D01*
X0061835Y0046548D02*
X0066956Y0046548D01*
X0066956Y0045950D02*
X0061835Y0045950D01*
X0061835Y0045351D02*
X0066956Y0045351D01*
X0066956Y0044753D02*
X0061835Y0044753D01*
X0061835Y0044154D02*
X0066956Y0044154D01*
X0066956Y0043556D02*
X0061835Y0043556D01*
X0061835Y0042957D02*
X0066956Y0042957D01*
X0066956Y0042359D02*
X0061835Y0042359D01*
X0061835Y0041760D02*
X0066956Y0041760D01*
X0066956Y0041162D02*
X0061835Y0041162D01*
X0061835Y0040563D02*
X0066956Y0040563D01*
X0066956Y0039965D02*
X0061835Y0039965D01*
X0061835Y0039366D02*
X0066956Y0039366D01*
X0066956Y0038768D02*
X0061835Y0038768D01*
X0061835Y0038169D02*
X0066956Y0038169D01*
X0066956Y0037571D02*
X0061835Y0037571D01*
X0061835Y0036972D02*
X0066956Y0036972D01*
X0066956Y0036374D02*
X0061835Y0036374D01*
X0061835Y0035775D02*
X0066956Y0035775D01*
X0066956Y0035177D02*
X0061835Y0035177D01*
X0061246Y0034578D02*
X0066956Y0034578D01*
X0066956Y0033980D02*
X0060648Y0033980D01*
X0066956Y0030987D02*
X0053469Y0030987D01*
X0053294Y0030389D02*
X0066956Y0030389D01*
X0066956Y0029790D02*
X0053007Y0029790D01*
X0052568Y0029192D02*
X0066956Y0029192D01*
X0066956Y0028593D02*
X0051882Y0028593D01*
X0050510Y0027995D02*
X0066956Y0027995D01*
X0066956Y0014229D02*
X0010035Y0014229D01*
X0010035Y0014827D02*
X0011609Y0014827D01*
X0011204Y0015426D02*
X0010035Y0015426D01*
X0010035Y0016024D02*
X0011140Y0016024D01*
X0011140Y0016623D02*
X0010035Y0016623D01*
X0010035Y0017221D02*
X0011140Y0017221D01*
X0011140Y0017820D02*
X0010035Y0017820D01*
X0010035Y0018418D02*
X0011140Y0018418D01*
X0011140Y0019017D02*
X0010035Y0019017D01*
X0010035Y0019615D02*
X0011140Y0019615D01*
X0011140Y0020214D02*
X0010035Y0020214D01*
X0010035Y0020812D02*
X0014090Y0020812D01*
X0011140Y0021411D02*
X0010035Y0021411D01*
X0010035Y0022009D02*
X0011140Y0022009D01*
X0011140Y0022608D02*
X0010035Y0022608D01*
X0010035Y0023206D02*
X0011140Y0023206D01*
X0011140Y0023805D02*
X0010035Y0023805D01*
X0010035Y0024403D02*
X0011140Y0024403D01*
X0011140Y0025002D02*
X0010035Y0025002D01*
X0010035Y0025600D02*
X0011140Y0025600D01*
X0011240Y0026199D02*
X0010035Y0026199D01*
X0010035Y0033980D02*
X0010203Y0033980D01*
X0010035Y0034578D02*
X0010712Y0034578D01*
X0010035Y0035177D02*
X0011503Y0035177D01*
X0012218Y0036972D02*
X0010035Y0036972D01*
X0010035Y0036374D02*
X0012816Y0036374D01*
X0013154Y0036036D02*
X0014635Y0036036D01*
X0014635Y0040036D01*
X0015235Y0040036D01*
X0015235Y0040636D01*
X0019235Y0040636D01*
X0019235Y0042117D01*
X0016716Y0044636D01*
X0015235Y0044636D01*
X0015235Y0040636D01*
X0014635Y0040636D01*
X0014635Y0044636D01*
X0013154Y0044636D01*
X0010635Y0042117D01*
X0010635Y0040636D01*
X0014635Y0040636D01*
X0014635Y0040036D01*
X0010635Y0040036D01*
X0010635Y0038555D01*
X0013154Y0036036D01*
X0014635Y0036374D02*
X0015235Y0036374D01*
X0015235Y0036036D02*
X0016716Y0036036D01*
X0019235Y0038555D01*
X0019235Y0040036D01*
X0015235Y0040036D01*
X0015235Y0036036D01*
X0015235Y0036972D02*
X0014635Y0036972D01*
X0014635Y0037571D02*
X0015235Y0037571D01*
X0015235Y0038169D02*
X0014635Y0038169D01*
X0014635Y0038768D02*
X0015235Y0038768D01*
X0015235Y0039366D02*
X0014635Y0039366D01*
X0014635Y0039965D02*
X0015235Y0039965D01*
X0015235Y0040563D02*
X0024505Y0040563D01*
X0024835Y0041162D02*
X0019235Y0041162D01*
X0019235Y0041760D02*
X0024835Y0041760D01*
X0024835Y0042359D02*
X0018993Y0042359D01*
X0018395Y0042957D02*
X0024835Y0042957D01*
X0024835Y0043556D02*
X0017796Y0043556D01*
X0017198Y0044154D02*
X0024835Y0044154D01*
X0024835Y0044753D02*
X0010035Y0044753D01*
X0010035Y0045351D02*
X0024835Y0045351D01*
X0024835Y0045950D02*
X0010035Y0045950D01*
X0010035Y0046548D02*
X0013207Y0046548D01*
X0013319Y0046436D02*
X0016550Y0046436D01*
X0018835Y0048721D01*
X0018835Y0051952D01*
X0016550Y0054236D01*
X0013319Y0054236D01*
X0011035Y0051952D01*
X0011035Y0048721D01*
X0013319Y0046436D01*
X0012609Y0047147D02*
X0010035Y0047147D01*
X0010035Y0047745D02*
X0012010Y0047745D01*
X0011412Y0048344D02*
X0010035Y0048344D01*
X0010035Y0048942D02*
X0011035Y0048942D01*
X0011035Y0049541D02*
X0010035Y0049541D01*
X0010035Y0050139D02*
X0011035Y0050139D01*
X0011035Y0050738D02*
X0010035Y0050738D01*
X0010035Y0051336D02*
X0011035Y0051336D01*
X0011035Y0051935D02*
X0010035Y0051935D01*
X0010035Y0052534D02*
X0011617Y0052534D01*
X0012215Y0053132D02*
X0010035Y0053132D01*
X0010035Y0053731D02*
X0012814Y0053731D01*
X0010035Y0054329D02*
X0024835Y0054329D01*
X0024835Y0053731D02*
X0017056Y0053731D01*
X0017654Y0053132D02*
X0024835Y0053132D01*
X0024835Y0052534D02*
X0018253Y0052534D01*
X0018835Y0051935D02*
X0024835Y0051935D01*
X0024835Y0051336D02*
X0018835Y0051336D01*
X0018835Y0050738D02*
X0024835Y0050738D01*
X0024835Y0050139D02*
X0018835Y0050139D01*
X0018835Y0049541D02*
X0024835Y0049541D01*
X0024835Y0048942D02*
X0018835Y0048942D01*
X0018458Y0048344D02*
X0024835Y0048344D01*
X0024835Y0047745D02*
X0017859Y0047745D01*
X0017261Y0047147D02*
X0024835Y0047147D01*
X0024835Y0046548D02*
X0016662Y0046548D01*
X0015235Y0044154D02*
X0014635Y0044154D01*
X0014635Y0043556D02*
X0015235Y0043556D01*
X0015235Y0042957D02*
X0014635Y0042957D01*
X0014635Y0042359D02*
X0015235Y0042359D01*
X0015235Y0041760D02*
X0014635Y0041760D01*
X0014635Y0041162D02*
X0015235Y0041162D01*
X0014635Y0040563D02*
X0010035Y0040563D01*
X0010035Y0039965D02*
X0010635Y0039965D01*
X0010635Y0039366D02*
X0010035Y0039366D01*
X0010035Y0038768D02*
X0010635Y0038768D01*
X0011021Y0038169D02*
X0010035Y0038169D01*
X0010035Y0037571D02*
X0011619Y0037571D01*
X0010035Y0035775D02*
X0021644Y0035775D01*
X0021644Y0036374D02*
X0017053Y0036374D01*
X0017652Y0036972D02*
X0021714Y0036972D01*
X0022313Y0037571D02*
X0018250Y0037571D01*
X0018849Y0038169D02*
X0024245Y0038169D01*
X0024044Y0038768D02*
X0019235Y0038768D01*
X0019235Y0039366D02*
X0024044Y0039366D01*
X0024044Y0039965D02*
X0019235Y0039965D01*
X0017661Y0026798D02*
X0017061Y0026798D01*
X0017061Y0026199D02*
X0017661Y0026199D01*
X0017661Y0025600D02*
X0017061Y0025600D01*
X0017061Y0025002D02*
X0017661Y0025002D01*
X0017661Y0016623D02*
X0017061Y0016623D01*
X0017061Y0016024D02*
X0017661Y0016024D01*
X0017661Y0015426D02*
X0017061Y0015426D01*
X0017061Y0014827D02*
X0017661Y0014827D01*
X0010035Y0013630D02*
X0066956Y0013630D01*
X0066956Y0013032D02*
X0010035Y0013032D01*
X0010035Y0041162D02*
X0010635Y0041162D01*
X0010635Y0041760D02*
X0010035Y0041760D01*
X0010035Y0042359D02*
X0010876Y0042359D01*
X0011475Y0042957D02*
X0010035Y0042957D01*
X0010035Y0043556D02*
X0012073Y0043556D01*
X0012672Y0044154D02*
X0010035Y0044154D01*
X0010035Y0054928D02*
X0024835Y0054928D01*
X0024835Y0055526D02*
X0010035Y0055526D01*
X0010035Y0056125D02*
X0024835Y0056125D01*
X0024835Y0056723D02*
X0010035Y0056723D01*
X0010035Y0057322D02*
X0024835Y0057322D01*
X0024835Y0057920D02*
X0010035Y0057920D01*
X0010035Y0058519D02*
X0024835Y0058519D01*
X0024835Y0059117D02*
X0010035Y0059117D01*
X0010035Y0059716D02*
X0024835Y0059716D01*
X0024835Y0060314D02*
X0010035Y0060314D01*
X0010035Y0060913D02*
X0024835Y0060913D01*
X0024971Y0061511D02*
X0010035Y0061511D01*
X0010035Y0062110D02*
X0025570Y0062110D01*
X0025807Y0062708D02*
X0010035Y0062708D01*
X0010035Y0063307D02*
X0025812Y0063307D01*
X0026410Y0063905D02*
X0010035Y0063905D01*
X0010035Y0064504D02*
X0027009Y0064504D01*
X0028787Y0064504D02*
X0030752Y0064504D01*
X0031350Y0063905D02*
X0029385Y0063905D01*
X0029984Y0063307D02*
X0038435Y0063307D01*
X0038435Y0063905D02*
X0035719Y0063905D01*
X0035150Y0063336D02*
X0037435Y0065621D01*
X0037435Y0068852D01*
X0035150Y0071136D01*
X0031919Y0071136D01*
X0029635Y0068852D01*
X0029635Y0065621D01*
X0031919Y0063336D01*
X0035150Y0063336D01*
X0036318Y0064504D02*
X0038435Y0064504D01*
X0038435Y0065102D02*
X0036916Y0065102D01*
X0037435Y0065701D02*
X0038435Y0065701D01*
X0038435Y0066299D02*
X0037435Y0066299D01*
X0037435Y0066898D02*
X0038435Y0066898D01*
X0038435Y0067496D02*
X0037435Y0067496D01*
X0037435Y0068095D02*
X0038435Y0068095D01*
X0038435Y0068693D02*
X0037435Y0068693D01*
X0036994Y0069292D02*
X0038435Y0069292D01*
X0038435Y0069890D02*
X0036396Y0069890D01*
X0035797Y0070489D02*
X0038435Y0070489D01*
X0038435Y0071087D02*
X0035199Y0071087D01*
X0038435Y0071686D02*
X0010035Y0071686D01*
X0010035Y0072284D02*
X0031274Y0072284D01*
X0030675Y0072883D02*
X0010035Y0072883D01*
X0010035Y0073481D02*
X0030077Y0073481D01*
X0029478Y0074080D02*
X0010035Y0074080D01*
X0010035Y0074678D02*
X0028880Y0074678D01*
X0028435Y0075277D02*
X0010035Y0075277D01*
X0010035Y0075875D02*
X0028435Y0075875D01*
X0028435Y0076474D02*
X0010035Y0076474D01*
X0010035Y0077072D02*
X0028435Y0077072D01*
X0028435Y0077671D02*
X0010035Y0077671D01*
X0010035Y0078269D02*
X0028435Y0078269D01*
X0028435Y0078868D02*
X0010035Y0078868D01*
X0010035Y0079467D02*
X0028435Y0079467D01*
X0028435Y0080065D02*
X0010035Y0080065D01*
X0010035Y0080664D02*
X0028435Y0080664D01*
X0028845Y0081262D02*
X0010035Y0081262D01*
X0010035Y0081861D02*
X0029443Y0081861D01*
X0030042Y0082459D02*
X0010035Y0082459D01*
X0010035Y0083058D02*
X0030641Y0083058D01*
X0031239Y0083656D02*
X0010035Y0083656D01*
X0010035Y0084255D02*
X0031838Y0084255D01*
X0032436Y0084853D02*
X0010035Y0084853D01*
X0010035Y0085452D02*
X0033035Y0085452D01*
X0033633Y0086050D02*
X0010035Y0086050D01*
X0010035Y0086649D02*
X0034232Y0086649D01*
X0034830Y0087247D02*
X0010035Y0087247D01*
X0010035Y0087846D02*
X0035429Y0087846D01*
X0036027Y0088444D02*
X0010035Y0088444D01*
X0010035Y0089043D02*
X0036626Y0089043D01*
X0037224Y0089641D02*
X0010035Y0089641D01*
X0010035Y0090240D02*
X0037823Y0090240D01*
X0038421Y0090838D02*
X0010035Y0090838D01*
X0010035Y0091437D02*
X0039020Y0091437D01*
X0039618Y0092035D02*
X0014505Y0092035D01*
X0015103Y0092634D02*
X0039681Y0092634D01*
X0039681Y0093232D02*
X0019987Y0093232D01*
X0020586Y0093831D02*
X0039681Y0093831D01*
X0039681Y0094429D02*
X0021125Y0094429D01*
X0020335Y0099816D02*
X0057235Y0099816D01*
X0057235Y0100414D02*
X0020335Y0100414D01*
X0020335Y0101013D02*
X0057235Y0101013D01*
X0057235Y0101611D02*
X0020335Y0101611D01*
X0020335Y0102210D02*
X0038204Y0102210D01*
X0038569Y0101846D02*
X0040301Y0101846D01*
X0041525Y0103070D01*
X0041525Y0104802D01*
X0040475Y0105853D01*
X0040434Y0106333D01*
X0040453Y0106636D01*
X0053115Y0106636D01*
X0053935Y0107456D01*
X0053935Y0113656D01*
X0056555Y0111036D01*
X0056778Y0111036D01*
X0057469Y0110346D01*
X0059201Y0110346D01*
X0060425Y0111570D01*
X0060425Y0113302D01*
X0059201Y0114527D01*
X0057469Y0114527D01*
X0057246Y0114304D01*
X0055735Y0115816D01*
X0054915Y0116636D01*
X0051955Y0116636D01*
X0051135Y0115816D01*
X0051135Y0109436D01*
X0027625Y0109436D01*
X0027625Y0109802D01*
X0026735Y0110693D01*
X0026735Y0132880D01*
X0027191Y0133336D01*
X0046473Y0133336D01*
X0047073Y0133936D01*
X0047835Y0134698D01*
X0047835Y0137580D01*
X0048425Y0138170D01*
X0048425Y0139902D01*
X0047201Y0141127D01*
X0045469Y0141127D01*
X0044244Y0139902D01*
X0044244Y0138170D01*
X0045235Y0137180D01*
X0045235Y0135936D01*
X0027191Y0135936D01*
X0026401Y0136727D01*
X0024669Y0136727D01*
X0023444Y0135502D01*
X0023444Y0133770D01*
X0023935Y0133280D01*
X0023935Y0110293D01*
X0023444Y0109802D01*
X0023444Y0108070D01*
X0023935Y0107580D01*
X0023935Y0107456D01*
X0024955Y0106436D01*
X0026115Y0106436D01*
X0026315Y0106636D01*
X0037647Y0106636D01*
X0037571Y0105453D01*
X0037535Y0105416D01*
X0037535Y0104993D01*
X0037344Y0104802D01*
X0037344Y0103070D01*
X0038569Y0101846D01*
X0037606Y0102808D02*
X0020335Y0102808D01*
X0020335Y0103407D02*
X0037344Y0103407D01*
X0037344Y0104005D02*
X0020335Y0104005D01*
X0020335Y0104604D02*
X0037344Y0104604D01*
X0037535Y0105202D02*
X0020335Y0105202D01*
X0020335Y0105801D02*
X0037594Y0105801D01*
X0037632Y0106400D02*
X0020335Y0106400D01*
X0020335Y0106998D02*
X0024393Y0106998D01*
X0023918Y0107597D02*
X0020335Y0107597D01*
X0020335Y0108195D02*
X0023444Y0108195D01*
X0023444Y0108794D02*
X0020335Y0108794D01*
X0020335Y0109392D02*
X0023444Y0109392D01*
X0023633Y0109991D02*
X0020335Y0109991D01*
X0020335Y0110589D02*
X0023935Y0110589D01*
X0023935Y0111188D02*
X0020335Y0111188D01*
X0020335Y0111786D02*
X0023935Y0111786D01*
X0023935Y0112385D02*
X0020335Y0112385D01*
X0020335Y0112983D02*
X0023935Y0112983D01*
X0023935Y0113582D02*
X0020335Y0113582D01*
X0020335Y0114180D02*
X0023935Y0114180D01*
X0023935Y0114779D02*
X0020335Y0114779D01*
X0020335Y0115377D02*
X0023935Y0115377D01*
X0023935Y0115976D02*
X0020335Y0115976D01*
X0020335Y0116574D02*
X0023935Y0116574D01*
X0023935Y0117173D02*
X0020335Y0117173D01*
X0020335Y0117771D02*
X0023935Y0117771D01*
X0023935Y0118370D02*
X0020335Y0118370D01*
X0020335Y0118968D02*
X0023935Y0118968D01*
X0023935Y0119567D02*
X0020335Y0119567D01*
X0020335Y0120165D02*
X0023935Y0120165D01*
X0023935Y0120764D02*
X0020335Y0120764D01*
X0020335Y0121362D02*
X0023935Y0121362D01*
X0023935Y0121961D02*
X0020335Y0121961D01*
X0020335Y0122559D02*
X0023935Y0122559D01*
X0023935Y0123158D02*
X0020335Y0123158D01*
X0020335Y0123756D02*
X0023935Y0123756D01*
X0023935Y0124355D02*
X0020335Y0124355D01*
X0020335Y0124953D02*
X0023935Y0124953D01*
X0023935Y0125552D02*
X0020335Y0125552D01*
X0020335Y0126150D02*
X0023935Y0126150D01*
X0023935Y0126749D02*
X0020335Y0126749D01*
X0020335Y0127347D02*
X0023935Y0127347D01*
X0023935Y0127946D02*
X0020335Y0127946D01*
X0020335Y0128544D02*
X0023935Y0128544D01*
X0023935Y0129143D02*
X0020335Y0129143D01*
X0020335Y0129741D02*
X0023935Y0129741D01*
X0023935Y0130340D02*
X0020335Y0130340D01*
X0020335Y0130938D02*
X0023935Y0130938D01*
X0023935Y0131537D02*
X0020335Y0131537D01*
X0020244Y0132136D02*
X0023935Y0132136D01*
X0023935Y0132734D02*
X0020244Y0132734D01*
X0020244Y0133333D02*
X0023882Y0133333D01*
X0023444Y0133931D02*
X0020244Y0133931D01*
X0020244Y0134530D02*
X0023444Y0134530D01*
X0023444Y0135128D02*
X0020265Y0135128D01*
X0020863Y0135727D02*
X0023669Y0135727D01*
X0024267Y0136325D02*
X0021462Y0136325D01*
X0022060Y0136924D02*
X0045235Y0136924D01*
X0045235Y0136325D02*
X0026802Y0136325D01*
X0027187Y0133333D02*
X0063956Y0133333D01*
X0063956Y0133931D02*
X0047068Y0133931D01*
X0047666Y0134530D02*
X0063956Y0134530D01*
X0063956Y0135128D02*
X0047835Y0135128D01*
X0047835Y0135727D02*
X0063956Y0135727D01*
X0063956Y0136325D02*
X0047835Y0136325D01*
X0047835Y0136924D02*
X0063956Y0136924D01*
X0063956Y0137522D02*
X0047835Y0137522D01*
X0048376Y0138121D02*
X0063956Y0138121D01*
X0063956Y0138719D02*
X0048425Y0138719D01*
X0048425Y0139318D02*
X0063956Y0139318D01*
X0063956Y0139916D02*
X0048411Y0139916D01*
X0047813Y0140515D02*
X0063956Y0140515D01*
X0063956Y0141113D02*
X0047214Y0141113D01*
X0045455Y0141113D02*
X0026250Y0141113D01*
X0025652Y0140515D02*
X0044857Y0140515D01*
X0044258Y0139916D02*
X0025053Y0139916D01*
X0024455Y0139318D02*
X0044244Y0139318D01*
X0044244Y0138719D02*
X0023856Y0138719D01*
X0023258Y0138121D02*
X0044294Y0138121D01*
X0044892Y0137522D02*
X0022659Y0137522D01*
X0021376Y0139916D02*
X0010035Y0139916D01*
X0010035Y0139318D02*
X0010845Y0139318D01*
X0010247Y0138719D02*
X0010035Y0138719D01*
X0010035Y0140515D02*
X0021975Y0140515D01*
X0022573Y0141113D02*
X0010035Y0141113D01*
X0010035Y0141712D02*
X0023172Y0141712D01*
X0023770Y0142310D02*
X0014780Y0142310D01*
X0015378Y0142909D02*
X0024369Y0142909D01*
X0024967Y0143507D02*
X0015977Y0143507D01*
X0016575Y0144106D02*
X0025566Y0144106D01*
X0026164Y0144704D02*
X0016703Y0144704D01*
X0016703Y0145303D02*
X0026763Y0145303D01*
X0027361Y0145901D02*
X0016703Y0145901D01*
X0016703Y0146500D02*
X0027960Y0146500D01*
X0028558Y0147098D02*
X0016703Y0147098D01*
X0016445Y0147697D02*
X0029157Y0147697D01*
X0029755Y0148295D02*
X0015846Y0148295D01*
X0015248Y0148894D02*
X0030354Y0148894D01*
X0030952Y0149492D02*
X0014649Y0149492D01*
X0011020Y0149492D02*
X0010035Y0149492D01*
X0010035Y0148894D02*
X0010421Y0148894D01*
X0010035Y0150091D02*
X0031551Y0150091D01*
X0032149Y0150689D02*
X0010035Y0150689D01*
X0010035Y0151288D02*
X0032748Y0151288D01*
X0033346Y0151886D02*
X0010035Y0151886D01*
X0010035Y0152485D02*
X0033944Y0152485D01*
X0033944Y0153083D02*
X0010035Y0153083D01*
X0010035Y0153682D02*
X0034024Y0153682D01*
X0034622Y0154280D02*
X0010035Y0154280D01*
X0010035Y0154879D02*
X0063956Y0154879D01*
X0063956Y0155477D02*
X0010035Y0155477D01*
X0010035Y0156076D02*
X0063956Y0156076D01*
X0063956Y0156674D02*
X0010035Y0156674D01*
X0010035Y0157273D02*
X0063956Y0157273D01*
X0063956Y0157871D02*
X0010035Y0157871D01*
X0010035Y0158470D02*
X0063956Y0158470D01*
X0063956Y0159069D02*
X0010035Y0159069D01*
X0010035Y0159667D02*
X0063956Y0159667D01*
X0063956Y0160266D02*
X0010035Y0160266D01*
X0010035Y0160864D02*
X0063956Y0160864D01*
X0063956Y0161463D02*
X0010035Y0161463D01*
X0010035Y0162061D02*
X0063956Y0162061D01*
X0063956Y0162660D02*
X0010035Y0162660D01*
X0010035Y0163258D02*
X0011947Y0163258D01*
X0011348Y0163857D02*
X0010035Y0163857D01*
X0010035Y0164455D02*
X0010835Y0164455D01*
X0010835Y0165054D02*
X0010035Y0165054D01*
X0010035Y0165652D02*
X0010835Y0165652D01*
X0010983Y0166251D02*
X0010035Y0166251D01*
X0010035Y0166849D02*
X0011582Y0166849D01*
X0010035Y0167448D02*
X0019635Y0167448D01*
X0020233Y0168046D02*
X0010035Y0168046D01*
X0010035Y0168645D02*
X0020832Y0168645D01*
X0021430Y0169243D02*
X0010035Y0169243D01*
X0010035Y0169842D02*
X0022029Y0169842D01*
X0022628Y0170440D02*
X0010035Y0170440D01*
X0010035Y0171039D02*
X0023226Y0171039D01*
X0023825Y0171637D02*
X0010035Y0171637D01*
X0010035Y0172236D02*
X0024423Y0172236D01*
X0025022Y0172834D02*
X0010035Y0172834D01*
X0010035Y0173433D02*
X0025620Y0173433D01*
X0026219Y0174031D02*
X0010035Y0174031D01*
X0010035Y0174630D02*
X0026817Y0174630D01*
X0027416Y0175228D02*
X0010035Y0175228D01*
X0010035Y0175827D02*
X0028014Y0175827D01*
X0028613Y0176425D02*
X0010035Y0176425D01*
X0010035Y0177024D02*
X0029211Y0177024D01*
X0029810Y0177622D02*
X0010035Y0177622D01*
X0010035Y0178221D02*
X0030408Y0178221D01*
X0031007Y0178819D02*
X0010035Y0178819D01*
X0010035Y0179418D02*
X0031605Y0179418D01*
X0032204Y0180016D02*
X0010035Y0180016D01*
X0010035Y0180615D02*
X0032435Y0180615D01*
X0032435Y0181213D02*
X0010035Y0181213D01*
X0010035Y0181812D02*
X0032435Y0181812D01*
X0032739Y0182410D02*
X0010035Y0182410D01*
X0010035Y0183009D02*
X0033338Y0183009D01*
X0036645Y0178819D02*
X0063953Y0178819D01*
X0063952Y0178221D02*
X0036110Y0178221D01*
X0035511Y0177622D02*
X0063951Y0177622D01*
X0063950Y0177024D02*
X0033454Y0177024D01*
X0032855Y0176425D02*
X0063949Y0176425D01*
X0063948Y0175827D02*
X0032257Y0175827D01*
X0031658Y0175228D02*
X0063948Y0175228D01*
X0063947Y0174630D02*
X0031060Y0174630D01*
X0030461Y0174031D02*
X0063946Y0174031D01*
X0063945Y0173433D02*
X0029863Y0173433D01*
X0029264Y0172834D02*
X0063944Y0172834D01*
X0063944Y0172236D02*
X0028666Y0172236D01*
X0028067Y0171637D02*
X0063943Y0171637D01*
X0063942Y0171039D02*
X0027469Y0171039D01*
X0026870Y0170440D02*
X0063941Y0170440D01*
X0063940Y0169842D02*
X0026272Y0169842D01*
X0025673Y0169243D02*
X0063939Y0169243D01*
X0063939Y0168645D02*
X0025075Y0168645D01*
X0024476Y0168046D02*
X0063938Y0168046D01*
X0063937Y0167448D02*
X0023878Y0167448D01*
X0023279Y0166849D02*
X0063936Y0166849D01*
X0063935Y0166251D02*
X0022681Y0166251D01*
X0022082Y0165652D02*
X0063935Y0165652D01*
X0063934Y0165054D02*
X0021484Y0165054D01*
X0020885Y0164455D02*
X0063956Y0164455D01*
X0063956Y0163857D02*
X0020287Y0163857D01*
X0019036Y0166849D02*
X0014269Y0166849D01*
X0013904Y0163258D02*
X0063956Y0163258D01*
X0063956Y0154280D02*
X0037447Y0154280D01*
X0038045Y0153682D02*
X0063956Y0153682D01*
X0063956Y0153083D02*
X0038125Y0153083D01*
X0038125Y0152485D02*
X0063956Y0152485D01*
X0063956Y0151886D02*
X0038125Y0151886D01*
X0037543Y0151288D02*
X0042130Y0151288D01*
X0042169Y0151327D02*
X0040944Y0150102D01*
X0040944Y0148370D01*
X0042169Y0147146D01*
X0054215Y0147146D01*
X0055105Y0146255D01*
X0056837Y0146255D01*
X0058062Y0147480D01*
X0058062Y0149212D01*
X0056837Y0150436D01*
X0055105Y0150436D01*
X0054215Y0149546D01*
X0045125Y0149546D01*
X0045125Y0150102D01*
X0043901Y0151327D01*
X0042169Y0151327D01*
X0041531Y0150689D02*
X0036944Y0150689D01*
X0035228Y0150091D02*
X0040944Y0150091D01*
X0040944Y0149492D02*
X0034629Y0149492D01*
X0034031Y0148894D02*
X0040944Y0148894D01*
X0041019Y0148295D02*
X0033432Y0148295D01*
X0032834Y0147697D02*
X0041618Y0147697D01*
X0042535Y0149236D02*
X0043035Y0149236D01*
X0042535Y0149236D02*
X0043425Y0148346D01*
X0055971Y0148346D01*
X0054760Y0150091D02*
X0045125Y0150091D01*
X0044538Y0150689D02*
X0063956Y0150689D01*
X0063956Y0150091D02*
X0057182Y0150091D01*
X0057781Y0149492D02*
X0063956Y0149492D01*
X0063956Y0148894D02*
X0058062Y0148894D01*
X0058062Y0148295D02*
X0063956Y0148295D01*
X0063956Y0147697D02*
X0058062Y0147697D01*
X0057680Y0147098D02*
X0063956Y0147098D01*
X0063956Y0146500D02*
X0057082Y0146500D01*
X0054860Y0146500D02*
X0031637Y0146500D01*
X0032235Y0147098D02*
X0054262Y0147098D01*
X0063956Y0145901D02*
X0031038Y0145901D01*
X0030440Y0145303D02*
X0063956Y0145303D01*
X0063956Y0144704D02*
X0029841Y0144704D01*
X0029243Y0144106D02*
X0063956Y0144106D01*
X0063956Y0143507D02*
X0028644Y0143507D01*
X0028046Y0142909D02*
X0063956Y0142909D01*
X0063956Y0142310D02*
X0027447Y0142310D01*
X0026849Y0141712D02*
X0063956Y0141712D01*
X0063956Y0132734D02*
X0026735Y0132734D01*
X0026735Y0132136D02*
X0063956Y0132136D01*
X0063956Y0131537D02*
X0026735Y0131537D01*
X0026735Y0130938D02*
X0063956Y0130938D01*
X0063956Y0130340D02*
X0026735Y0130340D01*
X0026735Y0129741D02*
X0063956Y0129741D01*
X0063956Y0129143D02*
X0026735Y0129143D01*
X0026735Y0128544D02*
X0063956Y0128544D01*
X0063956Y0127946D02*
X0026735Y0127946D01*
X0026735Y0127347D02*
X0063956Y0127347D01*
X0063956Y0126749D02*
X0026735Y0126749D01*
X0026735Y0126150D02*
X0063956Y0126150D01*
X0063956Y0125552D02*
X0026735Y0125552D01*
X0026735Y0124953D02*
X0063956Y0124953D01*
X0063956Y0124355D02*
X0026735Y0124355D01*
X0026735Y0123756D02*
X0063956Y0123756D01*
X0063956Y0123158D02*
X0026735Y0123158D01*
X0026735Y0122559D02*
X0063956Y0122559D01*
X0063956Y0121961D02*
X0026735Y0121961D01*
X0026735Y0121362D02*
X0063956Y0121362D01*
X0063956Y0120764D02*
X0026735Y0120764D01*
X0026735Y0120165D02*
X0063956Y0120165D01*
X0063956Y0119567D02*
X0026735Y0119567D01*
X0026735Y0118968D02*
X0063956Y0118968D01*
X0063956Y0118370D02*
X0026735Y0118370D01*
X0026735Y0117771D02*
X0063956Y0117771D01*
X0063956Y0117173D02*
X0026735Y0117173D01*
X0026735Y0116574D02*
X0051893Y0116574D01*
X0051294Y0115976D02*
X0026735Y0115976D01*
X0026735Y0115377D02*
X0051135Y0115377D01*
X0051135Y0114779D02*
X0026735Y0114779D01*
X0026735Y0114180D02*
X0051135Y0114180D01*
X0051135Y0113582D02*
X0026735Y0113582D01*
X0026735Y0112983D02*
X0051135Y0112983D01*
X0051135Y0112385D02*
X0026735Y0112385D01*
X0026735Y0111786D02*
X0051135Y0111786D01*
X0051135Y0111188D02*
X0026735Y0111188D01*
X0026838Y0110589D02*
X0051135Y0110589D01*
X0051135Y0109991D02*
X0027437Y0109991D01*
X0018082Y0093232D02*
X0015702Y0093232D01*
X0016300Y0093831D02*
X0017484Y0093831D01*
X0016944Y0094429D02*
X0016703Y0094429D01*
X0016703Y0095028D02*
X0016944Y0095028D01*
X0016944Y0095626D02*
X0016703Y0095626D01*
X0016703Y0096225D02*
X0017067Y0096225D01*
X0016703Y0096823D02*
X0017665Y0096823D01*
X0017735Y0097422D02*
X0016703Y0097422D01*
X0016121Y0098020D02*
X0017735Y0098020D01*
X0017735Y0098619D02*
X0015523Y0098619D01*
X0014924Y0099217D02*
X0017735Y0099217D01*
X0017735Y0099816D02*
X0010035Y0099816D01*
X0010035Y0100414D02*
X0017735Y0100414D01*
X0017735Y0101013D02*
X0010035Y0101013D01*
X0010035Y0101611D02*
X0017735Y0101611D01*
X0017735Y0102210D02*
X0014679Y0102210D01*
X0015278Y0102808D02*
X0017735Y0102808D01*
X0017735Y0103407D02*
X0015876Y0103407D01*
X0016475Y0104005D02*
X0017735Y0104005D01*
X0017735Y0104604D02*
X0016703Y0104604D01*
X0016703Y0105202D02*
X0017735Y0105202D01*
X0017735Y0105801D02*
X0016703Y0105801D01*
X0016703Y0106400D02*
X0017735Y0106400D01*
X0017735Y0106998D02*
X0016703Y0106998D01*
X0016545Y0107597D02*
X0017735Y0107597D01*
X0017735Y0108195D02*
X0015947Y0108195D01*
X0015348Y0108794D02*
X0017735Y0108794D01*
X0017735Y0109392D02*
X0014750Y0109392D01*
X0014854Y0112385D02*
X0017735Y0112385D01*
X0017735Y0112983D02*
X0015452Y0112983D01*
X0016051Y0113582D02*
X0017735Y0113582D01*
X0017735Y0114180D02*
X0016649Y0114180D01*
X0016703Y0114779D02*
X0017735Y0114779D01*
X0017735Y0115377D02*
X0016703Y0115377D01*
X0016703Y0115976D02*
X0017735Y0115976D01*
X0017735Y0116574D02*
X0016703Y0116574D01*
X0016703Y0117173D02*
X0017735Y0117173D01*
X0017735Y0117771D02*
X0016370Y0117771D01*
X0015772Y0118370D02*
X0017735Y0118370D01*
X0017735Y0118968D02*
X0015173Y0118968D01*
X0014575Y0119567D02*
X0017735Y0119567D01*
X0017735Y0120165D02*
X0010035Y0120165D01*
X0010035Y0119567D02*
X0011094Y0119567D01*
X0010496Y0118968D02*
X0010035Y0118968D01*
X0010035Y0120764D02*
X0017735Y0120764D01*
X0017735Y0121362D02*
X0010035Y0121362D01*
X0010035Y0121961D02*
X0017735Y0121961D01*
X0017735Y0122559D02*
X0015029Y0122559D01*
X0015627Y0123158D02*
X0017735Y0123158D01*
X0017735Y0123756D02*
X0016226Y0123756D01*
X0016703Y0124355D02*
X0017735Y0124355D01*
X0017735Y0124953D02*
X0016703Y0124953D01*
X0016703Y0125552D02*
X0017735Y0125552D01*
X0017735Y0126150D02*
X0016703Y0126150D01*
X0016703Y0126749D02*
X0017735Y0126749D01*
X0017735Y0127347D02*
X0016703Y0127347D01*
X0016196Y0127946D02*
X0017735Y0127946D01*
X0017735Y0128544D02*
X0015597Y0128544D01*
X0014999Y0129143D02*
X0017735Y0129143D01*
X0017735Y0129741D02*
X0010035Y0129741D01*
X0010035Y0129143D02*
X0010671Y0129143D01*
X0010072Y0128544D02*
X0010035Y0128544D01*
X0010035Y0130340D02*
X0017735Y0130340D01*
X0017696Y0130938D02*
X0010035Y0130938D01*
X0010035Y0131537D02*
X0017644Y0131537D01*
X0017644Y0132136D02*
X0014605Y0132136D01*
X0015203Y0132734D02*
X0017644Y0132734D01*
X0017644Y0133333D02*
X0015802Y0133333D01*
X0016400Y0133931D02*
X0017644Y0133931D01*
X0017644Y0134530D02*
X0016703Y0134530D01*
X0016703Y0135128D02*
X0017644Y0135128D01*
X0017644Y0135727D02*
X0016703Y0135727D01*
X0016703Y0136325D02*
X0017785Y0136325D01*
X0018384Y0136924D02*
X0016703Y0136924D01*
X0016620Y0137522D02*
X0018982Y0137522D01*
X0019581Y0138121D02*
X0016021Y0138121D01*
X0015423Y0138719D02*
X0020179Y0138719D01*
X0020778Y0139318D02*
X0014824Y0139318D01*
X0010890Y0142310D02*
X0010035Y0142310D01*
X0010035Y0142909D02*
X0010291Y0142909D01*
X0010466Y0132734D02*
X0010035Y0132734D01*
X0010035Y0132136D02*
X0011064Y0132136D01*
X0010042Y0123158D02*
X0010035Y0123158D01*
X0010035Y0122559D02*
X0010641Y0122559D01*
X0010217Y0112983D02*
X0010035Y0112983D01*
X0010035Y0112385D02*
X0010815Y0112385D01*
X0010035Y0111786D02*
X0017735Y0111786D01*
X0017735Y0111188D02*
X0010035Y0111188D01*
X0010035Y0110589D02*
X0017735Y0110589D01*
X0017735Y0109991D02*
X0010035Y0109991D01*
X0010035Y0109392D02*
X0010920Y0109392D01*
X0010321Y0108794D02*
X0010035Y0108794D01*
X0010035Y0102808D02*
X0010392Y0102808D01*
X0010035Y0102210D02*
X0010990Y0102210D01*
X0010745Y0099217D02*
X0010035Y0099217D01*
X0010035Y0098619D02*
X0010146Y0098619D01*
X0010035Y0092634D02*
X0010566Y0092634D01*
X0010035Y0092035D02*
X0011165Y0092035D01*
X0010035Y0071087D02*
X0031870Y0071087D01*
X0031272Y0070489D02*
X0010035Y0070489D01*
X0010035Y0069890D02*
X0030673Y0069890D01*
X0030075Y0069292D02*
X0010035Y0069292D01*
X0010035Y0068693D02*
X0029635Y0068693D01*
X0029635Y0068095D02*
X0010035Y0068095D01*
X0010035Y0067496D02*
X0029635Y0067496D01*
X0029635Y0066898D02*
X0010035Y0066898D01*
X0010035Y0066299D02*
X0029635Y0066299D01*
X0029635Y0065701D02*
X0010035Y0065701D01*
X0010035Y0065102D02*
X0030153Y0065102D01*
X0029988Y0062708D02*
X0038435Y0062708D01*
X0038435Y0062110D02*
X0029988Y0062110D01*
X0029929Y0061511D02*
X0038435Y0061511D01*
X0038435Y0060913D02*
X0032215Y0060913D01*
X0032813Y0060314D02*
X0038435Y0060314D01*
X0038435Y0059716D02*
X0033025Y0059716D01*
X0033025Y0059117D02*
X0038435Y0059117D01*
X0038435Y0058519D02*
X0033025Y0058519D01*
X0032575Y0057920D02*
X0038728Y0057920D01*
X0039326Y0057322D02*
X0031977Y0057322D01*
X0030635Y0056723D02*
X0039925Y0056723D01*
X0040523Y0056125D02*
X0030635Y0056125D01*
X0030635Y0055526D02*
X0041122Y0055526D01*
X0041720Y0054928D02*
X0030635Y0054928D01*
X0030635Y0054329D02*
X0042319Y0054329D01*
X0042917Y0053731D02*
X0030635Y0053731D01*
X0030635Y0053132D02*
X0043516Y0053132D01*
X0044114Y0052534D02*
X0030635Y0052534D01*
X0030635Y0051935D02*
X0044713Y0051935D01*
X0045311Y0051336D02*
X0030635Y0051336D01*
X0030635Y0050738D02*
X0045910Y0050738D01*
X0046508Y0050139D02*
X0030635Y0050139D01*
X0030635Y0049541D02*
X0047107Y0049541D01*
X0047705Y0048942D02*
X0030635Y0048942D01*
X0030635Y0048344D02*
X0048304Y0048344D01*
X0050835Y0044154D02*
X0044657Y0044154D01*
X0044058Y0043556D02*
X0051411Y0043556D01*
X0052431Y0042957D02*
X0043460Y0042957D01*
X0042243Y0046548D02*
X0030635Y0046548D01*
X0030635Y0045950D02*
X0041644Y0045950D01*
X0041046Y0045351D02*
X0030635Y0045351D01*
X0030635Y0044753D02*
X0040447Y0044753D01*
X0039849Y0044154D02*
X0030635Y0044154D01*
X0030635Y0043556D02*
X0039250Y0043556D01*
X0038652Y0042957D02*
X0030970Y0042957D01*
X0031425Y0042359D02*
X0038053Y0042359D01*
X0037455Y0041760D02*
X0031425Y0041760D01*
X0031425Y0041162D02*
X0036856Y0041162D01*
X0036258Y0040563D02*
X0031218Y0040563D01*
X0030620Y0039965D02*
X0035659Y0039965D01*
X0035061Y0039366D02*
X0028225Y0039366D01*
X0028225Y0038768D02*
X0034462Y0038768D01*
X0033863Y0038169D02*
X0028024Y0038169D01*
X0027699Y0042957D02*
X0027435Y0042957D01*
X0027435Y0043556D02*
X0028035Y0043556D01*
X0028035Y0044154D02*
X0027435Y0044154D01*
X0027435Y0044753D02*
X0028035Y0044753D01*
X0028035Y0045351D02*
X0027435Y0045351D01*
X0027435Y0045950D02*
X0028035Y0045950D01*
X0028035Y0046548D02*
X0027435Y0046548D01*
X0027435Y0047147D02*
X0028035Y0047147D01*
X0028035Y0047745D02*
X0027435Y0047745D01*
X0027435Y0048344D02*
X0028035Y0048344D01*
X0028035Y0048942D02*
X0027435Y0048942D01*
X0027435Y0049541D02*
X0028035Y0049541D01*
X0028035Y0050139D02*
X0027435Y0050139D01*
X0027435Y0050738D02*
X0028035Y0050738D01*
X0028035Y0051336D02*
X0027435Y0051336D01*
X0027435Y0051935D02*
X0028035Y0051935D01*
X0028035Y0052534D02*
X0027435Y0052534D01*
X0027435Y0053132D02*
X0028035Y0053132D01*
X0028035Y0053731D02*
X0027435Y0053731D01*
X0027435Y0054329D02*
X0028035Y0054329D01*
X0028035Y0054928D02*
X0027435Y0054928D01*
X0027435Y0055526D02*
X0028035Y0055526D01*
X0028035Y0056125D02*
X0027435Y0056125D01*
X0027435Y0056723D02*
X0028035Y0056723D01*
X0028035Y0057322D02*
X0027435Y0057322D01*
X0027435Y0057920D02*
X0028035Y0057920D01*
X0028379Y0058519D02*
X0027435Y0058519D01*
X0027435Y0059117D02*
X0028844Y0059117D01*
X0028844Y0059716D02*
X0027435Y0059716D01*
X0027451Y0060314D02*
X0029056Y0060314D01*
X0029331Y0060913D02*
X0029655Y0060913D01*
X0030635Y0047745D02*
X0043440Y0047745D01*
X0042841Y0047147D02*
X0030635Y0047147D01*
X0045408Y0026798D02*
X0046008Y0026798D01*
X0046008Y0026199D02*
X0045408Y0026199D01*
X0045408Y0025600D02*
X0046008Y0025600D01*
X0046008Y0025002D02*
X0045408Y0025002D01*
X0059835Y0079467D02*
X0060250Y0079467D01*
X0059835Y0080065D02*
X0060848Y0080065D01*
X0061435Y0080664D02*
X0059835Y0080664D01*
X0059835Y0081262D02*
X0061435Y0081262D01*
X0061435Y0081861D02*
X0059835Y0081861D01*
X0059835Y0082459D02*
X0061809Y0082459D01*
X0062407Y0083058D02*
X0059835Y0083058D01*
X0059835Y0083656D02*
X0063006Y0083656D01*
X0063604Y0084255D02*
X0059835Y0084255D01*
X0059835Y0084853D02*
X0063956Y0084853D01*
X0063956Y0085452D02*
X0059835Y0085452D01*
X0059835Y0086050D02*
X0063956Y0086050D01*
X0063956Y0086649D02*
X0059835Y0086649D01*
X0059835Y0087247D02*
X0063956Y0087247D01*
X0063956Y0087846D02*
X0059835Y0087846D01*
X0059835Y0088444D02*
X0063956Y0088444D01*
X0063956Y0089043D02*
X0059835Y0089043D01*
X0059835Y0089641D02*
X0063956Y0089641D01*
X0063956Y0090240D02*
X0059835Y0090240D01*
X0059835Y0090838D02*
X0063956Y0090838D01*
X0063956Y0091437D02*
X0059835Y0091437D01*
X0059835Y0092035D02*
X0063956Y0092035D01*
X0063956Y0092634D02*
X0059835Y0092634D01*
X0059835Y0093232D02*
X0063956Y0093232D01*
X0063956Y0093831D02*
X0059835Y0093831D01*
X0059835Y0094429D02*
X0063956Y0094429D01*
X0063956Y0095028D02*
X0059835Y0095028D01*
X0059835Y0095626D02*
X0063956Y0095626D01*
X0063956Y0096225D02*
X0059835Y0096225D01*
X0059835Y0096823D02*
X0063956Y0096823D01*
X0063956Y0097422D02*
X0059835Y0097422D01*
X0059835Y0098020D02*
X0063956Y0098020D01*
X0063956Y0098619D02*
X0059835Y0098619D01*
X0059835Y0099217D02*
X0063956Y0099217D01*
X0063956Y0099816D02*
X0059835Y0099816D01*
X0059835Y0100414D02*
X0063956Y0100414D01*
X0063956Y0101013D02*
X0059835Y0101013D01*
X0059835Y0101611D02*
X0063956Y0101611D01*
X0063956Y0102210D02*
X0059835Y0102210D01*
X0060063Y0102808D02*
X0063956Y0102808D01*
X0063956Y0103407D02*
X0060625Y0103407D01*
X0060625Y0104005D02*
X0063956Y0104005D01*
X0063956Y0104604D02*
X0060625Y0104604D01*
X0060525Y0105202D02*
X0063956Y0105202D01*
X0063956Y0105801D02*
X0059926Y0105801D01*
X0057235Y0102210D02*
X0040665Y0102210D01*
X0041263Y0102808D02*
X0057006Y0102808D01*
X0056444Y0103407D02*
X0041525Y0103407D01*
X0041525Y0104005D02*
X0056444Y0104005D01*
X0056444Y0104604D02*
X0041525Y0104604D01*
X0041125Y0105202D02*
X0056544Y0105202D01*
X0057143Y0105801D02*
X0040526Y0105801D01*
X0040438Y0106400D02*
X0063956Y0106400D01*
X0063956Y0106998D02*
X0053476Y0106998D01*
X0053935Y0107597D02*
X0063956Y0107597D01*
X0063956Y0108195D02*
X0053935Y0108195D01*
X0053935Y0108794D02*
X0063956Y0108794D01*
X0063956Y0109392D02*
X0053935Y0109392D01*
X0053935Y0109991D02*
X0063956Y0109991D01*
X0063956Y0110589D02*
X0059444Y0110589D01*
X0060043Y0111188D02*
X0063956Y0111188D01*
X0063956Y0111786D02*
X0060425Y0111786D01*
X0060425Y0112385D02*
X0063956Y0112385D01*
X0063956Y0112983D02*
X0060425Y0112983D01*
X0060146Y0113582D02*
X0063956Y0113582D01*
X0063956Y0114180D02*
X0059547Y0114180D01*
X0057225Y0110589D02*
X0053935Y0110589D01*
X0053935Y0111188D02*
X0056403Y0111188D01*
X0055805Y0111786D02*
X0053935Y0111786D01*
X0053935Y0112385D02*
X0055206Y0112385D01*
X0054608Y0112983D02*
X0053935Y0112983D01*
X0053935Y0113582D02*
X0054009Y0113582D01*
X0054977Y0116574D02*
X0063956Y0116574D01*
X0063956Y0115976D02*
X0055575Y0115976D01*
X0056174Y0115377D02*
X0063956Y0115377D01*
X0063956Y0114779D02*
X0056772Y0114779D01*
X0063956Y0151288D02*
X0043939Y0151288D01*
X0038785Y0193836D02*
X0037439Y0193836D01*
X0036916Y0193836D01*
X0036916Y0193836D01*
X0036916Y0193836D01*
X0036586Y0194166D01*
X0036256Y0193836D01*
X0034492Y0193836D01*
X0033969Y0193836D01*
X0033969Y0193836D01*
X0033969Y0193836D01*
X0033552Y0194253D01*
X0033552Y0194253D01*
X0033431Y0194375D01*
X0032892Y0193836D01*
X0031546Y0193836D01*
X0031023Y0193836D01*
X0031023Y0193836D01*
X0031023Y0193836D01*
X0030693Y0194166D01*
X0030363Y0193836D01*
X0029327Y0193836D01*
X0028595Y0194568D01*
X0028595Y0195087D01*
X0028493Y0195087D01*
X0028194Y0195386D01*
X0028118Y0195310D01*
X0027444Y0194636D01*
X0025857Y0194636D01*
X0025704Y0194789D01*
X0025551Y0194636D01*
X0024598Y0194636D01*
X0024441Y0194794D01*
X0024283Y0194636D01*
X0022389Y0194636D01*
X0022231Y0194794D01*
X0022164Y0194727D01*
X0022604Y0193626D01*
X0022604Y0193626D01*
X0022296Y0191547D01*
X0022296Y0191547D01*
X0021890Y0191038D01*
X0022417Y0191038D01*
X0022847Y0190608D01*
X0023091Y0190364D01*
X0023091Y0190364D01*
X0023116Y0190339D01*
X0023429Y0190496D01*
X0024151Y0190255D01*
X0024873Y0190496D01*
X0025725Y0190070D01*
X0026026Y0189166D01*
X0025216Y0187545D01*
X0025091Y0187171D01*
X0025008Y0187129D01*
X0024966Y0187046D01*
X0024592Y0186921D01*
X0024239Y0186745D01*
X0024151Y0186774D01*
X0024063Y0186745D01*
X0023710Y0186921D01*
X0023335Y0187046D01*
X0023310Y0187096D01*
X0023051Y0186836D01*
X0019973Y0186836D01*
X0019573Y0186436D01*
X0012496Y0186436D01*
X0011735Y0187198D01*
X0011735Y0189666D01*
X0011536Y0189904D01*
X0010775Y0190817D01*
X0010775Y0190817D01*
X0010197Y0193121D01*
X0010197Y0193121D01*
X0010676Y0195449D01*
X0010676Y0195449D01*
X0012117Y0197338D01*
X0012117Y0197338D01*
X0014235Y0198415D01*
X0014235Y0198415D01*
X0016610Y0198466D01*
X0016610Y0198466D01*
X0018773Y0197481D01*
X0018773Y0197481D01*
X0018773Y0197481D01*
X0019164Y0197012D01*
X0020168Y0196873D01*
X0020168Y0196873D01*
X0020668Y0196483D01*
X0020922Y0196737D01*
X0020447Y0197211D01*
X0020447Y0198164D01*
X0021121Y0198838D01*
X0022073Y0198838D01*
X0022231Y0198680D01*
X0022389Y0198838D01*
X0023341Y0198838D01*
X0023494Y0198685D01*
X0023648Y0198838D01*
X0023648Y0198838D01*
X0024119Y0198838D01*
X0024600Y0198838D01*
X0024600Y0198838D01*
X0025551Y0198838D01*
X0025704Y0198685D01*
X0025857Y0198838D01*
X0025857Y0198838D01*
X0025857Y0198838D01*
X0026491Y0198838D01*
X0026491Y0198838D01*
X0026724Y0198838D01*
X0026810Y0198838D01*
X0026810Y0198838D01*
X0027444Y0198838D01*
X0027444Y0198838D01*
X0027444Y0198838D01*
X0027551Y0198730D01*
X0027659Y0198838D01*
X0030363Y0198838D01*
X0031095Y0198106D01*
X0031095Y0198004D01*
X0031857Y0198004D01*
X0031857Y0198004D01*
X0032380Y0198004D01*
X0032892Y0198004D01*
X0032892Y0198004D01*
X0032901Y0197996D01*
X0033014Y0197883D01*
X0033552Y0198421D01*
X0033552Y0198421D01*
X0033969Y0198838D01*
X0033969Y0198838D01*
X0033969Y0198838D01*
X0034482Y0198838D01*
X0036256Y0198838D01*
X0036586Y0198508D01*
X0036916Y0198838D01*
X0036916Y0198838D01*
X0036916Y0198838D01*
X0037428Y0198838D01*
X0038785Y0198838D01*
X0039202Y0198421D01*
X0039935Y0197689D01*
X0039935Y0196760D01*
X0039935Y0196237D01*
X0039935Y0196237D01*
X0039935Y0196237D01*
X0039827Y0196129D01*
X0039935Y0196021D01*
X0039935Y0194985D01*
X0039518Y0194568D01*
X0038785Y0193836D01*
X0039330Y0194381D02*
X0066956Y0194381D01*
X0066956Y0194979D02*
X0039928Y0194979D01*
X0039935Y0195578D02*
X0066956Y0195578D01*
X0066956Y0196176D02*
X0039874Y0196176D01*
X0039935Y0196775D02*
X0066956Y0196775D01*
X0066956Y0197373D02*
X0039935Y0197373D01*
X0039652Y0197972D02*
X0066956Y0197972D01*
X0066956Y0198570D02*
X0039053Y0198570D01*
X0036648Y0198570D02*
X0036524Y0198570D01*
X0033701Y0198570D02*
X0030631Y0198570D01*
X0028595Y0194979D02*
X0027787Y0194979D01*
X0028783Y0194381D02*
X0022302Y0194381D01*
X0022541Y0193782D02*
X0066956Y0193782D01*
X0066956Y0193184D02*
X0022538Y0193184D01*
X0022450Y0192585D02*
X0066956Y0192585D01*
X0066956Y0191987D02*
X0022361Y0191987D01*
X0022169Y0191388D02*
X0066956Y0191388D01*
X0066956Y0190790D02*
X0022665Y0190790D01*
X0025482Y0190191D02*
X0066956Y0190191D01*
X0066956Y0189593D02*
X0025884Y0189593D01*
X0025940Y0188994D02*
X0066956Y0188994D01*
X0066956Y0188396D02*
X0025641Y0188396D01*
X0025342Y0187797D02*
X0066956Y0187797D01*
X0066956Y0187199D02*
X0025100Y0187199D01*
X0020884Y0196775D02*
X0020295Y0196775D01*
X0020447Y0197373D02*
X0018863Y0197373D01*
X0017695Y0197972D02*
X0020447Y0197972D01*
X0020853Y0198570D02*
X0010035Y0198570D01*
X0010035Y0197972D02*
X0013364Y0197972D01*
X0012187Y0197373D02*
X0010035Y0197373D01*
X0010035Y0196775D02*
X0011687Y0196775D01*
X0011231Y0196176D02*
X0010035Y0196176D01*
X0010035Y0195578D02*
X0010774Y0195578D01*
X0010579Y0194979D02*
X0010035Y0194979D01*
X0010035Y0194381D02*
X0010456Y0194381D01*
X0010333Y0193782D02*
X0010035Y0193782D01*
X0010035Y0193184D02*
X0010210Y0193184D01*
X0010331Y0192585D02*
X0010035Y0192585D01*
X0010035Y0191987D02*
X0010482Y0191987D01*
X0010632Y0191388D02*
X0010035Y0191388D01*
X0010035Y0190790D02*
X0010798Y0190790D01*
X0011297Y0190191D02*
X0010035Y0190191D01*
X0010035Y0189593D02*
X0011735Y0189593D01*
X0011735Y0188994D02*
X0010035Y0188994D01*
X0010035Y0188396D02*
X0011735Y0188396D01*
X0011735Y0187797D02*
X0010035Y0187797D01*
X0010035Y0187199D02*
X0011735Y0187199D01*
X0012332Y0186600D02*
X0010035Y0186600D01*
X0010035Y0186002D02*
X0066956Y0186002D01*
X0066956Y0186600D02*
X0019737Y0186600D01*
X0023648Y0198838D02*
X0023648Y0198838D01*
X0032925Y0197972D02*
X0033103Y0197972D01*
X0010035Y0199169D02*
X0066956Y0199169D01*
X0066956Y0199767D02*
X0010035Y0199767D01*
X0010035Y0185403D02*
X0066956Y0185403D01*
X0066956Y0184805D02*
X0010035Y0184805D01*
X0010035Y0184206D02*
X0066956Y0184206D01*
X0066956Y0183607D02*
X0010035Y0183607D01*
X0038735Y0107836D02*
X0039135Y0107436D01*
X0039435Y0103936D01*
D17*
X0039435Y0103936D03*
X0040881Y0096736D03*
X0041063Y0086708D03*
X0043735Y0084036D03*
X0050746Y0089062D03*
X0058535Y0104236D03*
X0058335Y0112436D03*
X0057535Y0116036D03*
X0061335Y0123236D03*
X0066056Y0112798D03*
X0060535Y0143736D03*
X0055971Y0148346D03*
X0050135Y0139036D03*
X0046335Y0139036D03*
X0043035Y0149236D03*
X0039535Y0139236D03*
X0036035Y0152736D03*
X0034535Y0171236D03*
X0034545Y0179626D03*
X0025535Y0134636D03*
X0021135Y0132436D03*
X0025535Y0108936D03*
X0026035Y0105236D03*
X0019035Y0095236D03*
X0027898Y0062436D03*
X0030935Y0059236D03*
X0029335Y0041636D03*
X0026135Y0039236D03*
X0023735Y0036036D03*
X0032535Y0088236D03*
X0053335Y0045010D03*
X0059735Y0036036D03*
X0066056Y0151221D03*
X0012925Y0165236D03*
X0011035Y0162236D03*
D18*
X0013035Y0187736D02*
X0013035Y0190736D01*
X0015035Y0190736D01*
X0015035Y0187736D01*
X0013035Y0187736D01*
X0015035Y0187736D02*
X0017035Y0187736D01*
X0017035Y0190736D01*
X0019035Y0190736D01*
X0019035Y0187736D01*
X0017035Y0187736D01*
X0017035Y0190736D02*
X0015035Y0190736D01*
X0012535Y0190736D02*
X0012457Y0190833D01*
X0012383Y0190931D01*
X0012311Y0191033D01*
X0012243Y0191136D01*
X0012178Y0191241D01*
X0012116Y0191349D01*
X0012058Y0191458D01*
X0012003Y0191570D01*
X0011952Y0191683D01*
X0011905Y0191797D01*
X0011861Y0191913D01*
X0011821Y0192030D01*
X0011784Y0192149D01*
X0011752Y0192268D01*
X0011723Y0192389D01*
X0011698Y0192510D01*
X0011677Y0192632D01*
X0011660Y0192755D01*
X0011646Y0192878D01*
X0011637Y0193002D01*
X0011632Y0193125D01*
X0011630Y0193249D01*
X0011632Y0193373D01*
X0011639Y0193497D01*
X0011649Y0193620D01*
X0011663Y0193743D01*
X0011681Y0193866D01*
X0011703Y0193988D01*
X0011729Y0194109D01*
X0011759Y0194230D01*
X0011792Y0194349D01*
X0011829Y0194467D01*
X0011870Y0194584D01*
X0011915Y0194700D01*
X0011963Y0194814D01*
X0012015Y0194926D01*
X0012070Y0195037D01*
X0012129Y0195146D01*
X0012191Y0195253D01*
X0012257Y0195358D01*
X0012326Y0195461D01*
X0012398Y0195562D01*
X0012474Y0195660D01*
X0012552Y0195756D01*
X0012634Y0195850D01*
X0012718Y0195940D01*
X0012805Y0196028D01*
X0012895Y0196114D01*
X0012988Y0196196D01*
X0013083Y0196275D01*
X0013181Y0196351D01*
X0013281Y0196425D01*
X0013383Y0196495D01*
X0013487Y0196561D01*
X0013594Y0196624D01*
X0013702Y0196684D01*
X0013813Y0196741D01*
X0013925Y0196794D01*
X0014039Y0196843D01*
X0014154Y0196889D01*
X0014270Y0196931D01*
X0014388Y0196969D01*
X0014507Y0197003D01*
X0014627Y0197034D01*
X0014748Y0197061D01*
X0014870Y0197084D01*
X0014992Y0197103D01*
X0015115Y0197118D01*
X0015239Y0197130D01*
X0015362Y0197137D01*
X0015486Y0197141D01*
X0015610Y0197140D01*
X0015734Y0197136D01*
X0015858Y0197128D01*
X0015981Y0197115D01*
X0016104Y0197099D01*
X0016226Y0197079D01*
X0016348Y0197055D01*
X0016469Y0197028D01*
X0016588Y0196996D01*
X0016707Y0196961D01*
X0016825Y0196922D01*
X0016941Y0196879D01*
X0017056Y0196833D01*
X0017169Y0196783D01*
X0017281Y0196729D01*
X0017391Y0196672D01*
X0017499Y0196611D01*
X0017605Y0196547D01*
X0017709Y0196480D01*
X0017811Y0196409D01*
X0017910Y0196335D01*
X0018008Y0196258D01*
X0018102Y0196179D01*
X0018194Y0196096D01*
X0018284Y0196010D01*
X0018370Y0195921D01*
X0018454Y0195830D01*
X0018535Y0195736D01*
X0016535Y0194736D02*
X0016597Y0194815D01*
X0016663Y0194891D01*
X0016732Y0194965D01*
X0016804Y0195036D01*
X0016878Y0195104D01*
X0016955Y0195169D01*
X0017034Y0195231D01*
X0017116Y0195290D01*
X0017200Y0195346D01*
X0017286Y0195399D01*
X0017374Y0195448D01*
X0017464Y0195493D01*
X0017555Y0195536D01*
X0017648Y0195574D01*
X0017743Y0195609D01*
X0017839Y0195640D01*
X0017935Y0195668D01*
X0018033Y0195692D01*
X0018132Y0195711D01*
X0018232Y0195727D01*
X0018332Y0195740D01*
X0018432Y0195748D01*
X0018533Y0195752D01*
X0018634Y0195753D01*
X0018734Y0195749D01*
X0018835Y0195742D01*
X0018935Y0195731D01*
X0019035Y0195715D01*
X0019134Y0195696D01*
X0019232Y0195674D01*
X0019329Y0195647D01*
X0019425Y0195617D01*
X0019520Y0195583D01*
X0019613Y0195545D01*
X0019705Y0195504D01*
X0019796Y0195459D01*
X0019884Y0195410D01*
X0019971Y0195359D01*
X0020055Y0195304D01*
X0020137Y0195245D01*
X0020217Y0195184D01*
X0020295Y0195119D01*
X0020369Y0195052D01*
X0020442Y0194982D01*
X0020511Y0194909D01*
X0020578Y0194833D01*
X0020641Y0194755D01*
X0020702Y0194674D01*
X0020759Y0194591D01*
X0020813Y0194506D01*
X0020864Y0194419D01*
X0020911Y0194330D01*
X0020955Y0194239D01*
X0020995Y0194147D01*
X0021032Y0194053D01*
X0021064Y0193958D01*
X0021094Y0193861D01*
X0021119Y0193764D01*
X0021141Y0193665D01*
X0021159Y0193566D01*
X0021173Y0193466D01*
X0021183Y0193366D01*
X0021189Y0193265D01*
X0021191Y0193164D01*
X0021189Y0193064D01*
X0021184Y0192963D01*
X0021174Y0192863D01*
X0021161Y0192763D01*
X0021144Y0192664D01*
X0021123Y0192565D01*
X0021098Y0192467D01*
X0021069Y0192371D01*
X0021037Y0192275D01*
X0021001Y0192181D01*
X0020961Y0192089D01*
X0020918Y0191998D01*
X0020871Y0191908D01*
X0020821Y0191821D01*
X0020767Y0191735D01*
X0020710Y0191652D01*
X0020650Y0191571D01*
X0020587Y0191493D01*
X0020521Y0191417D01*
X0020452Y0191343D01*
X0020380Y0191272D01*
X0020306Y0191205D01*
X0020229Y0191140D01*
X0020149Y0191078D01*
X0020067Y0191019D01*
X0019983Y0190963D01*
X0019897Y0190911D01*
X0019809Y0190862D01*
X0019719Y0190817D01*
X0019627Y0190775D01*
X0019534Y0190737D01*
X0036035Y0152736D02*
X0018944Y0135646D01*
X0018944Y0131529D01*
X0019035Y0131438D01*
X0019035Y0095236D01*
X0027735Y0062436D02*
X0027898Y0062436D01*
X0027735Y0062436D02*
X0026135Y0060836D01*
X0026135Y0039236D01*
X0029335Y0041636D02*
X0029335Y0057636D01*
X0030935Y0059236D01*
X0033535Y0077236D02*
X0038774Y0082476D01*
X0038774Y0087656D01*
X0040180Y0089062D01*
X0050746Y0089062D01*
X0044683Y0086325D02*
X0051171Y0079837D01*
X0051171Y0079599D01*
X0053535Y0077236D01*
X0058535Y0072236D02*
X0053535Y0067236D01*
X0058535Y0072236D02*
X0058535Y0104236D01*
X0043735Y0082693D02*
X0047535Y0078893D01*
X0047535Y0071236D01*
X0043535Y0067236D01*
X0043735Y0082693D02*
X0043735Y0084036D01*
X0044683Y0086325D02*
X0041446Y0086325D01*
X0041063Y0086708D01*
X0040535Y0087236D01*
X0045935Y0134636D02*
X0025535Y0134636D01*
X0045935Y0134636D02*
X0046535Y0135236D01*
X0046535Y0138836D01*
X0046335Y0139036D01*
D19*
X0034545Y0179626D02*
X0034545Y0180236D01*
X0034535Y0180236D01*
X0034535Y0181236D01*
X0066056Y0181236D01*
X0066035Y0165736D01*
X0066056Y0151221D02*
X0066056Y0181236D01*
X0066056Y0151221D02*
X0066056Y0112798D01*
X0066056Y0083736D01*
X0063535Y0081215D01*
X0063535Y0077236D01*
X0063535Y0074024D01*
X0058735Y0069224D01*
X0058735Y0065248D01*
X0059735Y0064248D01*
X0059735Y0036036D01*
D20*
X0039435Y0103936D02*
X0039135Y0104636D01*
X0038935Y0104836D01*
X0039135Y0107952D01*
X0039050Y0108036D01*
X0052535Y0108036D01*
X0052535Y0115236D01*
X0054335Y0115236D01*
X0057135Y0112436D01*
X0058335Y0112436D01*
X0039050Y0108036D02*
X0025335Y0108036D01*
X0025535Y0107836D01*
X0025535Y0108936D01*
X0025335Y0108036D02*
X0025335Y0134436D01*
X0025535Y0134636D01*
D21*
X0019545Y0165236D02*
X0012925Y0165236D01*
X0019545Y0165236D02*
X0034545Y0180236D01*
D22*
X0044535Y0046436D02*
X0052535Y0046436D01*
X0052535Y0045010D01*
X0053335Y0045010D01*
X0052535Y0045010D02*
X0052535Y0044836D01*
X0044535Y0046436D02*
X0034135Y0036036D01*
X0023735Y0036036D01*
M02*
