%
M48
M72
T01C0.0118
T02C0.0276
T03C0.0315
T04C0.0354
T05C0.0394
T06C0.0400
%
T01
X2373Y3604
X2613Y3924
X2933Y4164
X3093Y5924
X2790Y6244
X3253Y8824
X3943Y10394
X4088Y9674
X4106Y8671
X4373Y8404
X5075Y8906
X5853Y10424
X5833Y11244
X5753Y11604
X6133Y12324
X6606Y11280
X6053Y14374
X5597Y14835
X5013Y13904
X4633Y13904
X4303Y14924
X3953Y13924
X3603Y15274
X3453Y17124
X3454Y17963
X2553Y13464
X2113Y13244
X2553Y10894
X2603Y10524
X1903Y9524
X1103Y16224
X1293Y16524
X5333Y4501
X5973Y3604
X6606Y15122
T02
X3921Y2824
X2386Y2824
T03
X1854Y3178
X4453Y3178
T04
X4571Y2076
X1736Y2076
T05
X1283Y9584
X1283Y10584
X1283Y11584
X1283Y12584
X1283Y13584
X1283Y14584
T06
X1493Y4034
X1493Y5034
X3353Y6724
X3353Y7724
X4353Y7724
X4353Y6724
X5353Y6724
X5353Y7724
X6353Y7724
X6353Y6724
M30
