G75*
%MOIN*%
%OFA0B0*%
%FSLAX25Y25*%
%IPPOS*%
%LPD*%
%AMOC8*
5,1,8,0,0,1.08239X$1,22.5*
%
%ADD10C,0.00700*%
%ADD11C,0.00500*%
%ADD12C,0.00800*%
%ADD13C,0.00600*%
D10*
X0029845Y0195086D02*
X0029845Y0197588D01*
X0028177Y0197588D01*
X0029011Y0196337D02*
X0029845Y0196337D01*
X0031124Y0196337D02*
X0031124Y0195503D01*
X0031541Y0195086D01*
X0032375Y0195086D01*
X0032792Y0195503D01*
X0032792Y0196337D01*
X0032375Y0196754D01*
X0031541Y0196754D01*
X0031124Y0196337D01*
X0034070Y0195503D02*
X0034070Y0197171D01*
X0034487Y0197588D01*
X0035738Y0197588D01*
X0035738Y0195086D01*
X0034487Y0195086D01*
X0034070Y0195503D01*
X0037017Y0195503D02*
X0037017Y0197171D01*
X0037434Y0197588D01*
X0038268Y0197588D01*
X0038685Y0197171D01*
X0038685Y0196754D01*
X0038268Y0196337D01*
X0037017Y0196337D01*
X0037017Y0195503D02*
X0037434Y0195086D01*
X0038268Y0195086D01*
X0038685Y0195503D01*
D11*
X0027285Y0196103D02*
X0026968Y0195786D01*
X0026334Y0195786D01*
X0026017Y0196103D01*
X0026017Y0197371D01*
X0026334Y0197688D01*
X0026968Y0197688D01*
X0027285Y0197371D01*
X0027285Y0196103D01*
X0025075Y0195786D02*
X0025075Y0197688D01*
X0024124Y0197688D01*
X0023807Y0197371D01*
X0023807Y0196737D01*
X0024124Y0196420D01*
X0025075Y0196420D01*
X0024441Y0196420D02*
X0023807Y0195786D01*
X0022865Y0195786D02*
X0022865Y0197688D01*
X0022548Y0196737D02*
X0021597Y0195786D01*
X0022865Y0196420D02*
X0021597Y0197688D01*
X0021941Y0189888D02*
X0021941Y0187986D01*
X0022575Y0187986D02*
X0021307Y0187986D01*
X0020365Y0187986D02*
X0020048Y0187986D01*
X0020048Y0188303D01*
X0020365Y0188303D01*
X0020365Y0187986D01*
X0021941Y0189888D02*
X0022575Y0189254D01*
X0023517Y0189254D02*
X0024151Y0187986D01*
X0024785Y0189254D01*
D12*
X0017535Y0192236D02*
X0013535Y0192236D01*
X0013491Y0192238D01*
X0013448Y0192244D01*
X0013406Y0192253D01*
X0013364Y0192266D01*
X0013324Y0192283D01*
X0013285Y0192303D01*
X0013248Y0192326D01*
X0013214Y0192353D01*
X0013181Y0192382D01*
X0013152Y0192415D01*
X0013125Y0192449D01*
X0013102Y0192486D01*
X0013082Y0192525D01*
X0013065Y0192565D01*
X0013052Y0192607D01*
X0013043Y0192649D01*
X0013037Y0192692D01*
X0013035Y0192736D01*
X0014035Y0193736D02*
X0014035Y0194736D01*
X0017035Y0194736D02*
X0017035Y0193736D01*
X0018035Y0192736D02*
X0018033Y0192692D01*
X0018027Y0192649D01*
X0018018Y0192607D01*
X0018005Y0192565D01*
X0017988Y0192525D01*
X0017968Y0192486D01*
X0017945Y0192449D01*
X0017918Y0192415D01*
X0017889Y0192382D01*
X0017856Y0192353D01*
X0017822Y0192326D01*
X0017785Y0192303D01*
X0017746Y0192283D01*
X0017706Y0192266D01*
X0017664Y0192253D01*
X0017622Y0192244D01*
X0017579Y0192238D01*
X0017535Y0192236D01*
D13*
X0028535Y0064736D02*
X0031035Y0062236D01*
X0036035Y0062236D01*
X0038535Y0064736D01*
X0038535Y0079736D01*
X0036035Y0082236D01*
X0031035Y0082236D01*
X0028535Y0079736D01*
X0028535Y0064736D01*
X0038535Y0064736D02*
X0041035Y0062236D01*
X0046035Y0062236D01*
X0048535Y0064736D01*
X0048535Y0079736D01*
X0046035Y0082236D01*
X0041035Y0082236D01*
X0038535Y0079736D01*
X0048535Y0079736D02*
X0051035Y0082236D01*
X0056035Y0082236D01*
X0058535Y0079736D01*
X0058535Y0064736D01*
X0056035Y0062236D01*
X0051035Y0062236D01*
X0048535Y0064736D01*
X0058535Y0064736D02*
X0061035Y0062236D01*
X0066035Y0062236D01*
X0068535Y0064736D01*
X0068535Y0079736D01*
X0066035Y0082236D01*
X0061035Y0082236D01*
X0058535Y0079736D01*
M02*
